<?xml version="1.0" standalone="no"?>
<!DOCTYPE svg PUBLIC "-//W3C//DTD SVG 1.1//EN" "http://www.w3.org/Graphics/SVG/1.1/DTD/svg11.dtd" >
<svg>
<metadata>
Created by FontForge 20120731 at Mon Aug  1 10:02:42 2016
 By Apache
2009 published by Monotype GmbH
</metadata>
<defs>
<font id="DINOffc" horiz-adv-x="876" >
  <font-face 
    font-family="DIN Offc"
    font-weight="400"
    font-stretch="normal"
    units-per-em="1000"
    panose-1="2 11 5 4 2 1 1 1 1 2"
    ascent="764"
    descent="-236"
    x-height="492"
    cap-height="712"
    bbox="-178 -274 1116 987"
    underline-thickness="51"
    underline-position="-89"
    unicode-range="U+0020-FEFF"
  />
<missing-glyph horiz-adv-x="562" 
d="M472 0h-382v712h382v-712zM141 661v-610h280v610h-280z" />
    <glyph glyph-name=".notdef" horiz-adv-x="562" 
d="M472 0h-382v712h382v-712zM141 661v-610h280v610h-280z" />
    <glyph glyph-name=".null" horiz-adv-x="0" 
 />
    <glyph glyph-name="nonmarkingreturn" horiz-adv-x="249" 
 />
    <glyph glyph-name="space" unicode=" " horiz-adv-x="249" 
 />
    <glyph glyph-name="exclam" unicode="!" horiz-adv-x="316" 
d="M204 200h-62l-10 512h83zM216 0h-86v84h86v-84z" />
    <glyph glyph-name="quotedbl" unicode="&#x22;" horiz-adv-x="423" 
d="M335 542h-79v170h79v-170zM167 542h-79v170h79v-170z" />
    <glyph glyph-name="numbersign" unicode="#" horiz-adv-x="677" 
d="M514 498h87v-66h-97l-22 -141h89v-64h-99l-36 -227h-74l37 227h-161l-35 -227h-74l36 227h-89v64h100l23 141h-92v66h101l34 215h75l-35 -215h159l34 215h73zM272 432l-23 -141h159l23 141h-159z" />
    <glyph glyph-name="dollar" unicode="$" horiz-adv-x="597" 
d="M323 717q58 -3 101 -21.5t85 -55.5l-49 -49q-29 26 -61.5 41.5t-78.5 18.5v-259q39 -6 64.5 -12t43 -12t29.5 -13.5t23 -17.5q29 -25 45 -60.5t16 -80.5q0 -44 -15.5 -79t-44 -61t-69 -41.5t-89.5 -18.5v-110h-60v108q-71 3 -122 25t-98 69l52 52q40 -40 80.5 -57.5
t91.5 -19.5v265q-60 6 -94.5 22t-55.5 34q-55 49 -55 133q0 85 53.5 138.5t147.5 61.5v89h60v-89zM320 63q68 5 106.5 39t38.5 92q0 28 -9 51t-26 38q-25 22 -51.5 27t-58.5 10v-257zM267 651q-63 -5 -96.5 -40t-33.5 -91q0 -54 32 -82q21 -17 46.5 -26t51.5 -13v252z" />
    <glyph glyph-name="percent" unicode="%" horiz-adv-x="834" 
d="M554 712h60l-334 -712h-60zM199 344q-28 0 -52.5 9.5t-42.5 26.5t-28.5 42t-10.5 57v104q0 31 10.5 56.5t28.5 42.5t42.5 26.5t52.5 9.5t53 -9.5t43 -26.5t28.5 -42.5t10.5 -56.5v-104q0 -32 -10.5 -57t-28.5 -42t-43 -26.5t-53 -9.5zM199 396q37 0 57.5 23t20.5 67v91
q0 43 -20.5 66t-57.5 23q-36 0 -56.5 -23t-20.5 -66v-91q0 -44 20.5 -67t56.5 -23zM634 -6q-29 0 -53.5 9.5t-42.5 26.5t-28.5 42t-10.5 57v104q0 31 10.5 56.5t28.5 42.5t42.5 26.5t53.5 9.5q28 0 53 -9.5t43 -26.5t28.5 -42.5t10.5 -56.5v-104q0 -32 -10.5 -57t-28.5 -42
t-43 -26.5t-53 -9.5zM634 46q37 0 57 23t20 66v91q0 44 -20 67t-57 23q-36 0 -56.5 -23t-20.5 -67v-91q0 -43 20.5 -66t56.5 -23z" />
    <glyph glyph-name="ampersand" unicode="&#x26;" horiz-adv-x="705" 
d="M312 718q33 0 62 -11.5t50.5 -31.5t34 -47.5t12.5 -59.5q0 -43 -24.5 -73.5t-58.5 -53.5l-53 -36l182 -219q11 16 18.5 32.5t12 35.5t7 42t2.5 53h72q-1 -68 -16 -122t-50 -96l109 -131h-95l-64 78q-11 -10 -29 -24.5t-44 -27.5t-60 -22.5t-77 -9.5q-52 0 -93.5 15
t-71 42t-45 65t-15.5 85q0 40 13 71t34.5 56t49.5 45.5t57 40.5q-13 16 -26.5 33t-25 36t-18.5 40.5t-7 45.5q0 32 11.5 59t32.5 47t50 31.5t63 11.5zM274 366q-23 -16 -45 -32t-39 -35t-27.5 -42.5t-10.5 -53.5q0 -32 11 -58t31 -45t47.5 -29t60.5 -10q40 0 81 14t87 55z
M312 651q-37 0 -60 -22.5t-23 -58.5q0 -25 15 -49.5t50 -67.5l38 26q25 17 45 37.5t20 51.5q0 36 -24.5 59.5t-60.5 23.5z" />
    <glyph glyph-name="quotesingle" unicode="'" horiz-adv-x="255" 
d="M167 542h-79v170h79v-170z" />
    <glyph glyph-name="parenleft" unicode="(" horiz-adv-x="296" 
d="M234 755q-20 -19 -33 -33t-22 -32q-8 -15 -11 -34.5t-3 -44.5v-510q0 -25 2.5 -43t11.5 -36t22 -32t33 -33l-51 -51q-26 26 -42.5 44.5t-29.5 41.5q-14 26 -17.5 50.5t-3.5 52.5v522q0 27 3.5 52.5t17.5 50.5q13 23 29.5 41.5t42.5 44.5z" />
    <glyph glyph-name="parenright" unicode=")" horiz-adv-x="296" 
d="M113 806q26 -26 42.5 -44.5t29.5 -41.5q14 -26 17.5 -50.5t3.5 -52.5v-522q0 -27 -3.5 -52.5t-17.5 -50.5q-13 -23 -29.5 -41.5t-42.5 -44.5l-51 51q20 19 33 33t22 32q8 15 11 34.5t3 44.5v510q0 25 -2.5 43t-11.5 36t-22 32t-33 33z" />
    <glyph glyph-name="asterisk" unicode="*" horiz-adv-x="492" 
d="M271 575l117 71l28 -48l-120 -66l120 -65l-28 -49l-117 71l4 -137h-58l4 137l-116 -71l-29 49l120 65l-120 66l29 48l116 -71l-4 137h58z" />
    <glyph glyph-name="plus" unicode="+" horiz-adv-x="522" 
d="M295 305h175v-67h-175v-176h-67v176h-176v67h176v174h67v-174z" />
    <glyph glyph-name="comma" unicode="," horiz-adv-x="264" 
d="M176 -65l-88 -79v232h88v-153z" />
    <glyph glyph-name="hyphen" unicode="-" horiz-adv-x="426" 
d="M350 237h-274v67h274v-67z" />
    <glyph glyph-name="period" unicode="." horiz-adv-x="270" 
d="M182 0h-94v94h94v-94z" />
    <glyph glyph-name="slash" unicode="/" horiz-adv-x="356" 
d="M71 -74h-71l285 860h71z" />
    <glyph glyph-name="zero" unicode="0" horiz-adv-x="522" 
d="M261 -6q-42 0 -77.5 14t-62 39.5t-41 62t-14.5 80.5v332q0 44 14.5 80.5t41 62t62 39.5t77.5 14t77.5 -14t61.5 -39.5t41 -62t15 -80.5v-332q0 -44 -15 -80.5t-41 -62t-61.5 -39.5t-77.5 -14zM261 58q60 0 91.5 38.5t31.5 97.5v324q0 59 -31.5 97.5t-91.5 38.5
t-91.5 -38.5t-31.5 -97.5v-324q0 -59 31.5 -97.5t91.5 -38.5z" />
    <glyph glyph-name="one" unicode="1" horiz-adv-x="522" 
d="M258 632l-133 -117v82l133 115h72v-712h-72v632z" />
    <glyph glyph-name="two" unicode="2" horiz-adv-x="522" 
d="M68 64l281 357q20 26 30 51t10 54q0 58 -32.5 93t-91.5 35q-25 0 -47.5 -7t-39.5 -23t-27 -40.5t-10 -58.5h-72q0 42 14 77.5t39.5 61t61.5 40t81 14.5q44 0 80 -13.5t62 -38.5t40 -60.5t14 -79.5q0 -43 -14 -74.5t-43 -69.5l-249 -318h306v-64h-393v64z" />
    <glyph glyph-name="three" unicode="3" horiz-adv-x="522" 
d="M251 -6q-42 0 -79 11t-65 34.5t-45.5 59t-19.5 83.5h72q2 -33 14 -56.5t31 -38.5t42.5 -22t49.5 -7q58 0 97.5 36t39.5 102q0 65 -33.5 101t-106.5 36h-15v63h15q66 0 96.5 34t30.5 94q0 64 -36 97t-88 33q-57 0 -90 -32t-38 -87h-72q3 43 19.5 77t43 57.5t61.5 36
t76 12.5q43 0 79.5 -14t62 -39t40 -61t14.5 -79q0 -114 -96 -157q109 -41 109 -173q0 -49 -16.5 -86.5t-44.5 -63t-66.5 -38.5t-81.5 -13z" />
    <glyph glyph-name="four" unicode="4" horiz-adv-x="522" 
d="M324 113h-284v65l257 534h77l-257 -534h207v202h71v-202h87v-65h-87v-113h-71v113z" />
    <glyph glyph-name="five" unicode="5" horiz-adv-x="522" 
d="M263 -6q-47 0 -83.5 14t-59.5 37q-23 24 -35 55t-15 69h72q7 -54 35.5 -82.5t85.5 -28.5q55 0 88 33q14 14 22 31t11.5 36t4.5 39t1 39q0 33 -4.5 64t-17 55t-36 38.5t-62.5 14.5q-47 0 -77 -19t-41 -51h-65v374h360v-64h-295v-226q21 23 53.5 36t74.5 13q40 0 71 -12
t52 -33q19 -20 31 -42.5t18 -47t8 -50t2 -50.5q0 -54 -9.5 -102.5t-47.5 -86.5q-25 -25 -59.5 -39t-82.5 -14z" />
    <glyph glyph-name="six" unicode="6" horiz-adv-x="522" 
d="M262 -6q-46 0 -82.5 15t-62 42t-39.5 64.5t-14 83.5q0 36 9.5 72t34.5 86l175 355h75l-163 -325q33 20 79 20q41 0 75 -15t58.5 -42t38 -64t13.5 -81q0 -45 -14 -84t-39.5 -67t-62 -44t-81.5 -16zM261 58q57 0 91.5 39t34.5 105q0 30 -8.5 56t-24.5 45.5t-39.5 31
t-53.5 11.5q-57 0 -91 -39t-34 -105t34 -105t91 -39z" />
    <glyph glyph-name="seven" unicode="7" horiz-adv-x="522" 
d="M395 648h-248v-112h-71v176h395v-64l-247 -648h-76z" />
    <glyph glyph-name="eight" unicode="8" horiz-adv-x="522" 
d="M261 -6q-44 0 -82.5 14.5t-67 41.5t-44.5 64t-16 82q0 63 31 105t76 68q-42 24 -67.5 63t-25.5 95q0 42 14.5 77t41 60.5t62.5 39.5t78 14t78 -14t62.5 -39.5t41 -60.5t14.5 -77q0 -56 -25 -95t-67 -63q45 -26 75.5 -68t30.5 -105q0 -45 -16 -82t-44.5 -64t-67 -41.5
t-82.5 -14.5zM261 58q29 0 54.5 10.5t44 29.5t29 44t10.5 55t-10.5 55t-29 44t-44 29.5t-54.5 10.5t-54.5 -10.5t-44 -29.5t-29 -44t-10.5 -55t10.5 -55t29 -44t44 -29.5t54.5 -10.5zM261 399q55 0 89.5 35t34.5 92q0 56 -34.5 92t-89.5 36t-89.5 -36t-34.5 -92
q0 -57 34.5 -92t89.5 -35z" />
    <glyph glyph-name="nine" unicode="9" horiz-adv-x="522" 
d="M327 325q-17 -11 -37 -15.5t-42 -4.5q-41 0 -75 15t-58.5 42t-38 64t-13.5 81q0 45 14 84t39.5 67t62 44t81.5 16q46 0 82.5 -15t62 -42t39.5 -64.5t14 -83.5q0 -36 -9.5 -72t-34.5 -86l-175 -355h-75zM261 366q57 0 91 39t34 105t-34 105t-91 39t-91.5 -39t-34.5 -105
q0 -30 8.5 -56t24.5 -45.5t39.5 -31t53.5 -11.5z" />
    <glyph glyph-name="colon" unicode=":" horiz-adv-x="297" 
d="M209 301h-94v94h94v-94zM209 0h-94v94h94v-94z" />
    <glyph glyph-name="semicolon" unicode=";" horiz-adv-x="297" 
d="M205 -65l-88 -79v232h88v-153zM209 301h-94v94h94v-94z" />
    <glyph glyph-name="less" unicode="&#x3c;" horiz-adv-x="522" 
d="M426 394l-250 -124l250 -124v-77l-331 168v66l331 168v-77z" />
    <glyph glyph-name="equal" unicode="=" horiz-adv-x="522" 
d="M470 321h-418v67h418v-67zM470 152h-418v66h418v-66z" />
    <glyph glyph-name="greater" unicode="&#x3e;" horiz-adv-x="522" 
d="M427 303v-66l-331 -168v77l250 124l-250 124v77z" />
    <glyph glyph-name="question" unicode="?" horiz-adv-x="497" 
d="M264 718q39 0 73.5 -13.5t59.5 -37.5t39.5 -57.5t14.5 -73.5q0 -35 -12.5 -63.5t-32.5 -57.5l-82 -118q-9 -14 -13.5 -30t-4.5 -28v-39h-72v40q0 29 7.5 50t23.5 44l81 117q14 21 23.5 40t9.5 45q0 51 -32 84.5t-83 33.5q-27 0 -48.5 -9.5t-36.5 -26t-23 -38t-8 -45.5
h-72q0 38 14 71.5t39.5 58t59.5 39t75 14.5zM313 0h-86v84h86v-84z" />
    <glyph glyph-name="at" unicode="@" horiz-adv-x="740" 
d="M435 713q48 0 87 -13.5t68 -42.5q57 -57 57 -161v-496h-71v58q-31 -38 -63.5 -51t-73.5 -13q-38 0 -68.5 11.5t-50.5 30.5q-36 36 -47.5 89.5t-11.5 112.5q0 60 11.5 113t47.5 89q20 20 50 31t68 11q41 0 74 -12.5t63 -50.5v79q0 39 -8 65t-31 49q-22 21 -48.5 29
t-62.5 8h-130q-36 0 -62 -7.5t-47 -29.5q-23 -23 -31 -48t-8 -66v-337q0 -24 2.5 -41t9 -30.5t17.5 -25t28 -24.5l-50 -49q-23 17 -38 33t-24 35.5t-12.5 43.5t-3.5 57v336q0 102 57 161q29 29 66.5 42.5t86.5 13.5h149zM453 421q-39 0 -63 -15t-37 -40.5t-17.5 -58.5
t-4.5 -69q0 -35 4.5 -68t17.5 -58.5t37 -40.5t63 -15t62.5 15t37 40.5t18 58.5t4.5 68q0 36 -4.5 69t-18 58.5t-37 40.5t-62.5 15z" />
    <glyph glyph-name="A" unicode="A" horiz-adv-x="611" 
d="M599 0h-81l-57 161h-311l-57 -161h-81l262 712h64zM173 227h265l-132 377z" />
    <glyph glyph-name="B" unicode="B" horiz-adv-x="668" 
d="M371 712q46 0 85 -13t66.5 -37.5t43 -59.5t15.5 -80q0 -57 -30 -98t-75 -58q51 -19 83.5 -62t32.5 -107q0 -48 -15.5 -85t-43.5 -62t-67 -37.5t-86 -12.5h-277v712h268zM179 329v-261h194q66 0 104.5 35.5t38.5 95.5t-38.5 95t-104.5 35h-194zM179 644v-247h186
q30 0 55.5 7.5t44 22.5t29.5 38.5t11 55.5t-11 55t-29.5 38t-44 22.5t-55.5 7.5h-186z" />
    <glyph glyph-name="C" unicode="C" horiz-adv-x="637" 
d="M325 718q97 0 162.5 -56t84.5 -156h-78q-14 66 -58 105t-111 39q-73 0 -123 -50q-17 -17 -27 -37t-15 -47.5t-6.5 -66t-1.5 -93.5t1.5 -93.5t6.5 -66t15 -47.5t27 -37q50 -50 123 -50q67 0 111 39t58 105h78q-19 -100 -84.5 -156t-162.5 -56q-56 0 -100.5 18.5
t-77.5 51.5q-25 25 -39.5 51t-21.5 59t-8.5 77t-1.5 105t1.5 105t8.5 77t21.5 59t39.5 51q33 33 77.5 51.5t100.5 18.5z" />
    <glyph glyph-name="D" unicode="D" horiz-adv-x="673" 
d="M347 712q60 0 105.5 -18t81.5 -57q24 -26 36.5 -57.5t18.5 -67.5t7 -75.5t1 -80.5t-1 -80.5t-7 -75.5t-18.5 -68t-36.5 -57q-36 -39 -81.5 -57t-105.5 -18h-244v712h244zM179 644v-576h155q41 0 77 11t63 41q17 18 26.5 43.5t14 56t5.5 65t1 71.5t-1 71.5t-5.5 65t-14 56
t-26.5 43.5q-27 30 -63 41t-77 11h-155z" />
    <glyph glyph-name="E" unicode="E" horiz-adv-x="600" 
d="M545 644h-366v-251h312v-68h-312v-257h366v-68h-442v712h442v-68z" />
    <glyph glyph-name="F" unicode="F" horiz-adv-x="580" 
d="M545 644h-366v-262h312v-68h-312v-314h-76v712h442v-68z" />
    <glyph glyph-name="G" unicode="G" horiz-adv-x="650" 
d="M325 718q50 0 92.5 -16t74.5 -44.5t53 -67.5t29 -85h-76q-15 69 -60.5 107t-112.5 38q-75 0 -123 -50q-17 -17 -27 -37t-15 -47.5t-6.5 -66t-1.5 -93.5t1.5 -93.5t6.5 -66t15 -47.5t27 -37q48 -50 123 -50q39 0 74.5 15.5t60.5 45.5q22 27 31 57.5t9 71.5v55h-175v65h251
v-113q0 -31 -3 -56t-10 -47t-19 -41.5t-29 -38.5q-38 -42 -86.5 -62t-103.5 -20q-56 0 -100.5 18.5t-77.5 51.5q-25 25 -39.5 51t-21.5 59t-8.5 77t-1.5 105t1.5 105t8.5 77t21.5 59t39.5 51q33 33 77.5 51.5t100.5 18.5z" />
    <glyph glyph-name="H" unicode="H" horiz-adv-x="696" 
d="M593 0h-76v325h-338v-325h-76v712h76v-319h338v319h76v-712z" />
    <glyph glyph-name="I" unicode="I" horiz-adv-x="282" 
d="M179 0h-76v712h76v-712z" />
    <glyph glyph-name="J" unicode="J" horiz-adv-x="501" 
d="M408 216q0 -51 -16.5 -92.5t-46 -70t-70 -44t-89.5 -15.5q-51 0 -90.5 15.5t-72.5 48.5l51 51q19 -20 43.5 -33.5t68.5 -13.5q70 0 108 42.5t38 121.5v486h76v-496z" />
    <glyph glyph-name="K" unicode="K" horiz-adv-x="651" 
d="M380 437l256 -437h-90l-217 379l-150 -181v-198h-76v712h76v-410l333 410h92z" />
    <glyph glyph-name="L" unicode="L" horiz-adv-x="573" 
d="M179 68h364v-68h-440v712h76v-644z" />
    <glyph glyph-name="M" unicode="M" horiz-adv-x="816" 
d="M713 0h-76v541l-195 -429h-65l-198 429v-541h-76v712h76l232 -505l226 505h76v-712z" />
    <glyph glyph-name="N" unicode="N" horiz-adv-x="732" 
d="M629 0h-72l-378 571v-571h-76v712h72l378 -569v569h76v-712z" />
    <glyph glyph-name="O" unicode="O" horiz-adv-x="650" 
d="M325 718q56 0 100 -18.5t77 -51.5q25 -25 39.5 -51t21.5 -59t9 -77t2 -105t-2 -105t-9 -77t-21.5 -59t-39.5 -51q-33 -33 -77 -51.5t-100 -18.5t-100.5 18.5t-77.5 51.5q-25 25 -39.5 51t-21.5 59t-8.5 77t-1.5 105t1.5 105t8.5 77t21.5 59t39.5 51q33 33 77.5 51.5
t100.5 18.5zM325 650q-73 0 -123 -50q-17 -17 -27 -37t-15 -47.5t-6.5 -66t-1.5 -93.5t1.5 -93.5t6.5 -66t15 -47.5t27 -37q50 -50 123 -50t123 50q17 17 27 37t15 47.5t6.5 66t1.5 93.5t-1.5 93.5t-6.5 66t-15 47.5t-27 37q-50 50 -123 50z" />
    <glyph glyph-name="P" unicode="P" horiz-adv-x="630" 
d="M368 712q48 0 88.5 -15t70 -42t45.5 -65.5t16 -86.5t-16 -86.5t-45.5 -66t-70 -42.5t-88.5 -15h-189v-293h-76v712h265zM179 644v-283h183q67 0 108.5 35.5t41.5 106.5t-41.5 106t-108.5 35h-183z" />
    <glyph glyph-name="Q" unicode="Q" horiz-adv-x="650" 
d="M325 718q56 0 100 -18.5t77 -51.5q25 -25 39.5 -51t21.5 -59t9 -77t2 -105q0 -53 -1.5 -93t-6.5 -71.5t-14.5 -56t-26.5 -46.5l78 -78l-46 -46l-78 78q-31 -23 -69 -36t-85 -13q-56 0 -100.5 18.5t-77.5 51.5q-25 25 -39.5 51t-21.5 59t-8.5 77t-1.5 105t1.5 105t8.5 77
t21.5 59t39.5 51q33 33 77.5 51.5t100.5 18.5zM325 650q-73 0 -123 -50q-17 -17 -27 -37t-15 -47.5t-6.5 -66t-1.5 -93.5t1.5 -93.5t6.5 -66t15 -47.5t27 -37q50 -50 123 -50q57 0 103 32l-92 92l46 46l89 -89q9 15 14.5 34t8 44.5t3.5 58.5t1 76q0 55 -1.5 93.5t-6.5 66
t-15 47.5t-27 37q-50 50 -123 50z" />
    <glyph glyph-name="R" unicode="R" horiz-adv-x="656" 
d="M376 712q46 0 85 -13.5t67 -39t43.5 -62.5t15.5 -83q0 -78 -43 -127.5t-112 -63.5l169 -323h-89l-162 316h-171v-316h-76v712h273zM179 644v-261h190q63 0 102.5 32t39.5 98t-39.5 98.5t-102.5 32.5h-190z" />
    <glyph glyph-name="S" unicode="S" horiz-adv-x="588" 
d="M289 718q68 0 117 -19t95 -59l-49 -49q-32 31 -71 46.5t-95 15.5q-72 0 -111.5 -36.5t-39.5 -96.5q0 -55 32 -83q17 -14 41 -23t52 -14l83 -13q49 -8 77 -18.5t52 -32.5q29 -25 44.5 -60t15.5 -80q0 -47 -17.5 -84.5t-49.5 -63.5t-77.5 -40t-101.5 -14q-40 0 -73.5 5.5
t-63 16.5t-55.5 29t-51 43l51 51q44 -44 89 -60.5t105 -16.5q79 0 124 34.5t45 97.5q0 58 -35 89q-8 7 -16.5 12.5t-19 9.5t-24.5 7t-33 6l-83 12q-84 13 -130 54q-55 49 -55 134q0 45 16 82t45.5 63.5t71.5 40.5t95 14z" />
    <glyph glyph-name="T" unicode="T" horiz-adv-x="548" 
d="M518 644h-206v-644h-76v644h-206v68h488v-68z" />
    <glyph glyph-name="U" unicode="U" horiz-adv-x="683" 
d="M590 235q0 -53 -18.5 -97.5t-52 -76.5t-79 -49.5t-99.5 -17.5t-99.5 17.5t-78.5 49.5t-51.5 76.5t-18.5 97.5v477h76v-471q0 -41 12 -74t34.5 -56t54.5 -36t71 -13t71 13t54.5 36t35 56t12.5 74v471h76v-477z" />
    <glyph glyph-name="V" unicode="V" horiz-adv-x="546" 
d="M304 0h-62l-234 712h80l185 -576l185 576h80z" />
    <glyph glyph-name="W" unicode="W" horiz-adv-x="854" 
d="M656 0h-71l-158 570l-158 -570h-71l-182 712h81l139 -574l157 574h68l157 -574l139 574h81z" />
    <glyph glyph-name="X" unicode="X" horiz-adv-x="551" 
d="M316 365l220 -365h-88l-173 299l-174 -299h-86l218 365l-204 347h88l158 -281l158 281h88z" />
    <glyph glyph-name="Y" unicode="Y" horiz-adv-x="514" 
d="M296 294v-294h-76v294l-212 418h82l168 -341l166 341h82z" />
    <glyph glyph-name="Z" unicode="Z" horiz-adv-x="556" 
d="M499 648l-356 -580h356v-68h-442v64l356 580h-342v68h428v-64z" />
    <glyph glyph-name="bracketleft" unicode="[" horiz-adv-x="307" 
d="M267 722h-105v-732h105v-64h-177v860h177v-64z" />
    <glyph glyph-name="backslash" unicode="\" horiz-adv-x="355" 
d="M355 -74h-71l-284 857h71z" />
    <glyph glyph-name="bracketright" unicode="]" horiz-adv-x="307" 
d="M217 -74h-177v64h105v732h-105v64h177v-860z" />
    <glyph glyph-name="asciicircum" unicode="^" horiz-adv-x="522" 
d="M457 413h-74l-122 228l-123 -228h-74l164 305h66z" />
    <glyph glyph-name="underscore" unicode="_" horiz-adv-x="537" 
d="M537 -165h-537v51h537v-51z" />
    <glyph glyph-name="grave" unicode="`" horiz-adv-x="530" 
d="M299 594h-69l-105 153h83z" />
    <glyph glyph-name="a" unicode="a" horiz-adv-x="526" 
d="M244 498q100 0 148.5 -42t48.5 -122v-334h-72v47q-29 -29 -61 -41t-81 -12q-51 0 -82 10t-57 35q-19 18 -28 44.5t-9 55.5q0 66 44 104t127 38h147v47q0 54 -28.5 81t-97.5 27q-47 0 -74 -13t-50 -44l-49 45q32 43 72.5 58.5t101.5 15.5zM232 227q-111 0 -111 -87
q0 -43 27 -63.5t87 -20.5q31 0 58 5.5t51 27.5q25 24 25 85v53h-137z" />
    <glyph glyph-name="b" unicode="b" horiz-adv-x="545" 
d="M162 435q31 38 64.5 50.5t74.5 12.5q38 0 69 -11.5t51 -31.5q18 -18 30 -42t18.5 -51t9 -56.5t2.5 -59.5q0 -60 -11.5 -115.5t-48.5 -93.5q-20 -20 -51 -31.5t-69 -11.5q-42 0 -75 13t-64 52v-59h-72v712h72v-277zM286 434q-41 0 -65 -16t-37.5 -42t-17.5 -60t-4 -70
t4 -70t17.5 -60t37.5 -42t65 -16q40 0 64.5 16t37.5 42t17 60t4 70t-4 70t-17 60t-37.5 42t-64.5 16z" />
    <glyph glyph-name="c" unicode="c" horiz-adv-x="491" 
d="M282 498q51 0 87.5 -16t74.5 -57l-49 -46q-28 31 -53 43t-60 12q-36 0 -65 -14t-49 -42q-17 -24 -24.5 -54.5t-7.5 -77.5t7.5 -77.5t24.5 -54.5q20 -28 49 -42t65 -14q35 0 60 12.5t53 43.5l49 -47q-38 -41 -74.5 -57t-87.5 -16q-47 0 -86.5 15.5t-69 47t-46 79
t-16.5 110.5t16.5 110t46 78.5t69 47.5t86.5 16z" />
    <glyph glyph-name="d" unicode="d" horiz-adv-x="545" 
d="M455 0h-72v58q-31 -38 -64 -51t-75 -13q-38 0 -69 11.5t-51 31.5q-18 18 -30 42t-18.5 51t-9 56.5t-2.5 59.5q0 60 11.5 115.5t48.5 93.5q20 20 51 31.5t69 11.5q41 0 74.5 -13t64.5 -51v278h72v-712zM259 434q-40 0 -64.5 -16t-37.5 -42t-17 -60t-4 -70t4 -70t17 -60
t37.5 -42t64.5 -16t64.5 16t38 42t17.5 60t4 70t-4 70t-17.5 60t-38 42t-64.5 16z" />
    <glyph glyph-name="e" unicode="e" horiz-adv-x="530" 
d="M265 498q97 0 149.5 -63.5t52.5 -175.5v-32h-332q0 -81 36.5 -125.5t108.5 -44.5q43 0 71.5 13.5t57.5 42.5l49 -43q-19 -19 -37.5 -33t-40 -23.5t-46.5 -14.5t-56 -5q-49 0 -89 15t-68 46t-43 78.5t-15 112.5q0 121 54 186.5t148 65.5zM265 437q-40 0 -69.5 -20
t-45.5 -54q-5 -10 -7.5 -18.5t-4 -17.5t-2 -20t-1.5 -26h261q-1 15 -2 26t-2.5 20t-4.5 17.5t-7 18.5q-16 34 -45.5 54t-69.5 20z" />
    <glyph glyph-name="f" unicode="f" horiz-adv-x="314" 
d="M283 651h-39q-35 0 -50.5 -19t-15.5 -53v-87h105v-55h-105v-437h-72v437h-63v55h63v89q0 27 7.5 51t23.5 42t39 28.5t55 10.5h52v-62z" />
    <glyph glyph-name="g" unicode="g" horiz-adv-x="543" 
d="M244 498q41 0 74.5 -12.5t63.5 -51.5v58h71v-507q0 -46 -14 -84.5t-40 -66.5t-64.5 -44t-86.5 -16q-28 0 -50 3.5t-41.5 11.5t-38 20.5t-37.5 30.5l47 46q13 -12 25.5 -21t26 -15.5t29.5 -9.5t37 -3q36 0 61.5 12t42 32t24 47.5t7.5 59.5v77q-30 -38 -64 -51t-74 -13
q-38 0 -68.5 12t-50.5 32q-37 37 -48.5 91t-11.5 114t11.5 114t48.5 91q20 20 51 31.5t69 11.5zM259 434q-40 0 -64.5 -16t-37.5 -41.5t-17 -59t-4 -67.5q0 -35 4 -68t17 -58.5t37.5 -41.5t64.5 -16t64 16t37 41.5t17 58.5t4 68q0 34 -4 67.5t-17 59t-37 41.5t-64 16z" />
    <glyph glyph-name="h" unicode="h" horiz-adv-x="562" 
d="M162 437q54 61 138 61q81 0 127 -46q26 -26 38 -60.5t12 -77.5v-314h-72v303q0 66 -32 98.5t-88 32.5t-89.5 -33t-33.5 -98v-303h-72v712h72v-275z" />
    <glyph glyph-name="i" unicode="i" horiz-adv-x="253" 
d="M162 0h-72v492h72v-492zM167 632h-81v81h81v-81z" />
    <glyph glyph-name="j" unicode="j" horiz-adv-x="253" 
d="M162 -88q0 -28 -7.5 -52t-23 -42t-39 -28t-55.5 -10h-52v63h39q38 0 52 18t14 54v577h72v-580zM167 632h-81v81h81v-81z" />
    <glyph glyph-name="k" unicode="k" horiz-adv-x="536" 
d="M162 236l222 256h90l-167 -188l196 -304h-89l-156 252l-96 -110v-142h-72v712h72v-476z" />
    <glyph glyph-name="l" unicode="l" horiz-adv-x="297" 
d="M160 134q0 -36 14 -54t52 -18h39v-62h-52q-65 0 -95 37.5t-30 93.5v581h72v-578z" />
    <glyph glyph-name="m" unicode="m" horiz-adv-x="879" 
d="M614 498q40 0 72 -12t55 -34q53 -51 53 -137v-315h-72v303q0 66 -32.5 98.5t-88.5 32.5q-54 0 -88.5 -32t-34.5 -91v-311h-72v303q0 66 -32.5 98.5t-88.5 32.5t-89.5 -33t-33.5 -98v-303h-72v492h72v-54q26 30 61.5 45t77.5 15q51 0 89.5 -20.5t61.5 -61.5q58 82 162 82z
" />
    <glyph glyph-name="n" unicode="n" horiz-adv-x="563" 
d="M300 498q81 0 127 -46q51 -50 51 -138v-314h-72v303q0 66 -32.5 98.5t-88.5 32.5t-89.5 -33t-33.5 -98v-303h-72v492h71v-55q26 30 61.5 45.5t77.5 15.5z" />
    <glyph glyph-name="o" unicode="o" horiz-adv-x="530" 
d="M265 498q45 0 80 -15t61 -41q38 -38 49 -88.5t11 -107.5t-11.5 -107.5t-48.5 -88.5q-26 -26 -61 -41t-80 -15t-80 15t-61 41q-19 19 -30.5 41.5t-18 47t-9 51.5t-2.5 56q0 57 11 107.5t49 88.5q26 26 61 41t80 15zM265 434q-53 0 -89 -36q-27 -27 -33.5 -68.5t-6.5 -83.5
q0 -21 1 -42t5 -41t12 -37.5t22 -31.5q36 -36 89 -36q54 0 90 36q27 28 33 69t6 83t-6 83.5t-33 68.5q-36 36 -90 36z" />
    <glyph glyph-name="p" unicode="p" horiz-adv-x="545" 
d="M301 498q38 0 69 -11.5t51 -31.5q18 -18 30 -42t18.5 -51t9 -56.5t2.5 -59.5q0 -60 -11.5 -115.5t-48.5 -93.5q-20 -20 -51 -31.5t-69 -11.5q-41 0 -74.5 13t-64.5 51v-278h-72v712h72v-58q31 38 64 51t75 13zM286 434q-41 0 -65 -16t-37.5 -42t-17.5 -60t-4 -70t4 -70
t17.5 -60t37.5 -42t65 -16q40 0 64.5 16t37.5 42t17 60t4 70t-4 70t-17 60t-37.5 42t-64.5 16z" />
    <glyph glyph-name="q" unicode="q" horiz-adv-x="545" 
d="M244 498q42 0 75 -13t64 -52v59h72v-712h-72v277q-31 -38 -64.5 -50.5t-74.5 -12.5q-38 0 -69 11.5t-51 31.5q-18 18 -30 42t-18.5 51t-9 56.5t-2.5 59.5q0 60 11.5 115.5t48.5 93.5q20 20 51 31.5t69 11.5zM259 434q-40 0 -64.5 -16t-37.5 -42t-17 -60t-4 -70t4 -70
t17 -60t37.5 -42t64.5 -16t64.5 16t38 42t17.5 60t4 70t-4 70t-17.5 60t-38 42t-64.5 16z" />
    <glyph glyph-name="r" unicode="r" horiz-adv-x="421" 
d="M300 498q35 0 63.5 -10t54.5 -36l-53 -54q-20 20 -38 28t-47 8q-27 0 -49 -10t-37 -28t-23.5 -42t-8.5 -52v-302h-72v492h72v-60q20 31 57.5 48.5t80.5 17.5z" />
    <glyph glyph-name="s" unicode="s" horiz-adv-x="496" 
d="M246 498q54 0 98.5 -13t78.5 -40l-47 -47q-26 20 -59.5 29.5t-71.5 9.5q-54 0 -82 -21.5t-28 -59.5q0 -33 21 -50t67 -22l77 -7q32 -3 59 -11t46 -23.5t29.5 -39.5t10.5 -59q0 -71 -55 -110.5t-145 -39.5q-63 0 -112.5 16t-89.5 55l48 48q29 -30 68 -43.5t85 -13.5
q62 0 96.5 21.5t34.5 65.5q0 33 -19 50.5t-63 21.5l-81 7q-72 6 -109.5 38t-37.5 94q0 34 13.5 60.5t37.5 45t57 28.5t73 10z" />
    <glyph glyph-name="t" unicode="t" horiz-adv-x="332" 
d="M174 492h105v-55h-105v-303q0 -35 16 -53.5t51 -18.5h38v-62h-51q-32 0 -55.5 10.5t-39 28.5t-23.5 42t-8 51v305h-62v55h62v151h72v-151z" />
    <glyph glyph-name="u" unicode="u" horiz-adv-x="563" 
d="M473 0h-71v55q-26 -30 -61.5 -45.5t-77.5 -15.5q-81 0 -127 46q-51 50 -51 138v314h72v-303q0 -66 32.5 -98.5t88.5 -32.5t89.5 33t33.5 98v303h72v-492z" />
    <glyph glyph-name="v" unicode="v" horiz-adv-x="447" 
d="M11 492h78l135 -395l134 395h78l-181 -492h-64z" />
    <glyph glyph-name="w" unicode="w" horiz-adv-x="724" 
d="M11 492h78l114 -395l128 395h63l127 -395l114 395h78l-156 -492h-67l-128 401l-128 -401h-66z" />
    <glyph glyph-name="x" unicode="x" horiz-adv-x="478" 
d="M278 251l167 -251h-87l-118 191l-120 -191h-87l167 251l-160 241h87l113 -182l111 182h87z" />
    <glyph glyph-name="y" unicode="y" horiz-adv-x="447" 
d="M209 -128q-14 -39 -35 -58q-20 -19 -45 -26.5t-51 -7.5h-31v64h22q37 0 53 13.5t28 47.5l38 105l-177 482h78l135 -395l134 395h78z" />
    <glyph glyph-name="z" unicode="z" horiz-adv-x="459" 
d="M50 59l272 369h-257v64h342v-59l-273 -369h273v-64h-357v59z" />
    <glyph glyph-name="braceleft" unicode="{" horiz-adv-x="359" 
d="M308 722h-23q-26 0 -38.5 -2.5t-20.5 -10.5t-11 -23t-3 -42v-188q0 -43 -17 -64.5t-46 -35.5q29 -14 46 -35.5t17 -64.5v-188q0 -27 3 -42t11 -23t20.5 -10.5t38.5 -2.5h23v-64h-37q-38 0 -61.5 7t-39.5 23q-17 17 -23.5 38.5t-6.5 60.5v191q0 42 -18 60q-8 8 -19.5 13
t-25.5 5h-26v64h26q14 0 25.5 5t19.5 13q18 18 18 60v191q0 39 6.5 60.5t23.5 38.5q16 16 39.5 23t61.5 7h37v-64z" />
    <glyph glyph-name="bar" unicode="|" horiz-adv-x="326" 
d="M199 -74h-72v860h72v-860z" />
    <glyph glyph-name="braceright" unicode="}" horiz-adv-x="359" 
d="M88 786q38 0 61.5 -7t39.5 -23q17 -17 23.5 -38.5t6.5 -60.5v-191q0 -42 18 -60q8 -8 19.5 -13t25.5 -5h26v-64h-26q-14 0 -25.5 -5t-19.5 -13q-18 -18 -18 -60v-191q0 -39 -6.5 -60.5t-23.5 -38.5q-16 -16 -39.5 -23t-61.5 -7h-37v64h23q26 0 38.5 2.5t20.5 10.5t11 23
t3 42v188q0 43 17 64.5t46 35.5q-29 14 -46 35.5t-17 64.5v188q0 27 -3 42t-11 23t-20.5 10.5t-38.5 2.5h-23v64h37z" />
    <glyph glyph-name="asciitilde" unicode="~" horiz-adv-x="539" 
d="M178 332q26 0 51 -9t54 -22q21 -10 39.5 -17t38.5 -7q10 0 19 1.5t18.5 6.5t20.5 13.5t26 23.5l45 -45q-21 -21 -37.5 -34.5t-31 -21t-29 -10t-31.5 -2.5q-26 0 -51.5 9t-54.5 22q-21 10 -39.5 17t-38.5 7q-11 0 -19.5 -1.5t-18 -6.5t-20.5 -13.5t-26 -23.5l-44 45
q21 21 37.5 34t31 20.5t29 10.5t31.5 3z" />
    <glyph glyph-name="uni00A0" unicode="&#xa0;" horiz-adv-x="249" 
 />
    <glyph glyph-name="exclamdown" unicode="&#xa1;" horiz-adv-x="316" 
d="M185 -220h-83l10 512h62zM186 408h-86v84h86v-84z" />
    <glyph glyph-name="cent" unicode="&#xa2;" horiz-adv-x="496" 
d="M304 617q45 -3 77.5 -19.5t67.5 -54.5l-49 -46q-25 28 -47.5 40.5t-52.5 14.5v-372q30 2 52.5 14.5t47.5 40.5l49 -46q-35 -38 -67.5 -54.5t-77.5 -19.5v-115h-59v117q-83 12 -132 76t-49 173t49 173t132 76v97h59v-95zM249 550q-49 -9 -80 -52q-17 -24 -25 -54.5
t-8 -77.5t8 -77.5t25 -54.5q31 -43 80 -52v368z" />
    <glyph glyph-name="sterling" unicode="&#xa3;" horiz-adv-x="548" 
d="M333 718q51 0 90.5 -15.5t72.5 -48.5l-52 -51q-10 10 -20 18.5t-23 15t-29.5 10t-38.5 3.5q-71 0 -109 -42.5t-38 -121.5v-102h147v-54h-147v-262h310v-68h-386v330h-63v54h63v112q0 51 16.5 92.5t46 70t70.5 44t90 15.5z" />
    <glyph glyph-name="currency" unicode="&#xa4;" horiz-adv-x="659" 
d="M581 475l-73 -72q45 -59 45 -132q0 -75 -45 -134l73 -73l-46 -46l-74 73q-27 -20 -60.5 -31t-70.5 -11t-71 11t-61 31l-74 -73l-46 46l74 73q-22 29 -34 62.5t-12 71.5q0 37 12 70t33 62l-73 72l46 46l73 -72q27 20 61 31.5t72 11.5q37 0 71 -11.5t61 -31.5l73 72z
M330 428q-32 0 -59.5 -12t-48.5 -33.5t-33 -50t-12 -61.5t12 -62t33 -50.5t48.5 -33.5t59.5 -12q31 0 59 12t49 33.5t33 50.5t12 62t-12 61.5t-33 50t-49 33.5t-59 12z" />
    <glyph glyph-name="yen" unicode="&#xa5;" horiz-adv-x="514" 
d="M219 195h-154v50h154v49l-25 49h-129v50h104l-161 319h82l169 -341l165 341h82l-162 -319h105v-50h-130l-24 -49v-49h154v-50h-154v-195h-76v195z" />
    <glyph glyph-name="brokenbar" unicode="&#xa6;" horiz-adv-x="326" 
d="M199 436h-72v350h72v-350zM199 -74h-72v350h72v-350z" />
    <glyph glyph-name="section" unicode="&#xa7;" horiz-adv-x="557" 
d="M279 718q39 0 71.5 -11t56.5 -31t38 -49.5t16 -65.5h-72q-4 50 -33 71.5t-77 21.5q-51 0 -79.5 -25t-28.5 -74q0 -40 23 -62.5t61 -33.5l78 -22q66 -19 101.5 -67t35.5 -116q0 -31 -9 -56.5t-23.5 -46.5t-33 -36t-38.5 -25q43 -16 70 -52.5t27 -91.5q0 -39 -14.5 -71
t-39 -54.5t-58 -34.5t-72.5 -12q-37 0 -70.5 10t-59 30.5t-41.5 50.5t-18 70h73q5 -47 35 -71t81 -24t81 27t30 78q0 35 -23 62.5t-65 39.5l-78 22q-66 19 -101.5 66.5t-35.5 116.5q0 31 9 56.5t23.5 46.5t33.5 36t39 25q-43 20 -68 51.5t-25 86.5q0 36 13.5 66.5t37.5 52
t57 33.5t72 12zM279 381q-53 0 -86 -36q-17 -19 -25 -40t-8 -52q0 -32 9.5 -54t23.5 -38q33 -36 86 -36t86 36q15 17 23.5 38.5t8.5 53.5q0 29 -6.5 51t-25.5 41q-36 36 -86 36z" />
    <glyph glyph-name="dieresis" unicode="&#xa8;" horiz-adv-x="530" 
d="M407 602h-72v89h72v-89zM195 602h-72v89h72v-89z" />
    <glyph glyph-name="copyright" unicode="&#xa9;" 
d="M438 -6q-75 0 -141 28.5t-115 77.5t-77.5 115t-28.5 141t28.5 141t77.5 115t115 77.5t141 28.5t141 -28.5t115 -77.5t77.5 -115t28.5 -141t-28.5 -141t-77.5 -115t-115 -77.5t-141 -28.5zM443 153q-44 0 -77 15.5t-55.5 42.5t-34 64t-11.5 81q0 43 11.5 80.5t34 65
t55.5 43t77 15.5q42 0 71.5 -13t59.5 -40l-37 -36q-25 22 -45.5 30.5t-48.5 8.5q-34 0 -57.5 -12.5t-37.5 -33.5t-20.5 -48.5t-6.5 -59.5t6.5 -59.5t20.5 -48.5t37.5 -33t57.5 -12q28 0 48.5 8t45.5 30l37 -36q-29 -26 -59 -39t-72 -13zM438 48q63 0 118.5 24.5t96.5 66.5
t65 98t24 119t-24 119t-65 98t-96.5 66.5t-118.5 24.5t-118.5 -24.5t-96.5 -66.5t-65 -98t-24 -119t24 -119t65 -98t96.5 -66.5t118.5 -24.5z" />
    <glyph glyph-name="ordfeminine" unicode="&#xaa;" horiz-adv-x="449" 
d="M307 319v36q-23 -23 -48 -32t-63 -9q-41 0 -66 8.5t-44 27.5q-30 32 -30 79q0 52 34.5 83t100.5 31h115v36q0 42 -21.5 63t-75.5 21q-37 0 -58.5 -9.5t-39.5 -34.5l-41 37q27 35 59.5 47.5t80.5 12.5q79 0 117 -34t38 -98v-265h-58zM306 498h-107q-84 0 -84 -67
q0 -33 20.5 -49t65.5 -16q25 0 46.5 4t39.5 21q19 18 19 67v40z" />
    <glyph glyph-name="guillemotleft" unicode="&#xab;" horiz-adv-x="554" 
d="M476 390l-121 -120l121 -121v-89l-210 210l210 210v-90zM250 390l-120 -120l120 -121v-89l-210 210l210 210v-90z" />
    <glyph glyph-name="logicalnot" unicode="&#xac;" horiz-adv-x="522" 
d="M471 99h-67v137h-353v67h420v-204z" />
    <glyph glyph-name="uni00AD" unicode="&#xad;" horiz-adv-x="426" 
d="M350 237h-274v67h274v-67z" />
    <glyph glyph-name="registered" unicode="&#xae;" 
d="M438 -6q-75 0 -141 28.5t-115 77.5t-77.5 115t-28.5 141t28.5 141t77.5 115t115 77.5t141 28.5t141 -28.5t115 -77.5t77.5 -115t28.5 -141t-28.5 -141t-77.5 -115t-115 -77.5t-141 -28.5zM438 47q63 0 118.5 24.5t97 66.5t65.5 98t24 120t-24 120t-65.5 98t-97 66.5
t-118.5 24.5t-118.5 -24.5t-96.5 -66.5t-65 -98t-24 -120t24 -120t65 -98t96.5 -66.5t118.5 -24.5zM320 555h135q26 0 48.5 -9t39.5 -25t27 -38t10 -47q0 -44 -24 -71t-61 -38l95 -169h-64l-91 162h-60v-162h-55v397zM449 367q33 0 54 19.5t21 49.5t-21 50t-54 20h-74v-139
h74z" />
    <glyph glyph-name="macron" unicode="&#xaf;" horiz-adv-x="530" 
d="M416 614h-301v56h301v-56z" />
    <glyph glyph-name="degree" unicode="&#xb0;" horiz-adv-x="463" 
d="M232 721q34 0 64 -13t52 -35t35 -52t13 -64t-13 -64t-35 -52t-52 -35t-64 -13t-64 13t-52.5 35t-35.5 52t-13 64t13 64t35.5 52t52.5 35t64 13zM231 663q-22 0 -41 -8t-32.5 -22.5t-21.5 -34t-8 -41.5q0 -23 8 -42t22 -33.5t33 -22.5t41 -8t41 8t32.5 22.5t21.5 33.5
t8 42q0 22 -8 41.5t-22 34t-33 22.5t-41 8z" />
    <glyph glyph-name="plusminus" unicode="&#xb1;" horiz-adv-x="522" 
d="M295 356h175v-67h-175v-177h-67v177h-176v67h176v175h67v-175zM470 0h-418v67h418v-67z" />
    <glyph glyph-name="twosuperior" unicode="&#xb2;" horiz-adv-x="221" 
d="M27 471l110 126q11 11 14.5 22t3.5 23q0 16 -11 28t-31 12q-40 0 -43 -43h-43q2 38 26 59t60 21q38 0 61 -22.5t23 -54.5q0 -18 -7 -33.5t-23 -32.5l-91 -105h115v-37h-164v37z" />
    <glyph glyph-name="threesuperior" unicode="&#xb3;" horiz-adv-x="221" 
d="M106 431q-35 0 -61 20t-28 60h43q2 -18 15 -29.5t31 -11.5q20 0 33.5 12.5t13.5 35.5t-14 34t-34 11h-9v33h9q18 0 30.5 10.5t12.5 30.5q0 21 -12 31.5t-30 10.5q-17 0 -28 -10.5t-14 -27.5h-43q4 37 26 57.5t59 20.5q38 0 61.5 -22t23.5 -55q0 -24 -10.5 -39t-28.5 -22
q20 -8 32 -25t12 -43q0 -37 -25 -59.5t-65 -22.5z" />
    <glyph glyph-name="acute" unicode="&#xb4;" horiz-adv-x="530" 
d="M303 594h-69l91 153h83z" />
    <glyph glyph-name="mu" unicode="&#xb5;" horiz-adv-x="568" 
d="M90 492h72v-303q0 -66 32 -98.5t89 -32.5t90 33t33 98v303h72v-492h-71v55q-53 -60 -135 -60q-35 0 -62.5 10t-47.5 32v-257h-72v712z" />
    <glyph glyph-name="paragraph" unicode="&#xb6;" horiz-adv-x="603" 
d="M500 -220h-72v864h-117v-864h-72v546q-45 0 -81.5 16t-62 43t-39.5 61.5t-14 71.5q0 40 14.5 75.5t42.5 61.5t68.5 41.5t91.5 15.5h241v-932z" />
    <glyph glyph-name="periodcentered" unicode="&#xb7;" horiz-adv-x="270" 
d="M182 223h-94v94h94v-94z" />
    <glyph glyph-name="cedilla" unicode="&#xb8;" horiz-adv-x="530" 
d="M236 -67h66l-59 -149h-78z" />
    <glyph glyph-name="onesuperior" unicode="&#xb9;" horiz-adv-x="230" 
d="M110 666l-60 -51v50l60 51h43v-282h-43v232z" />
    <glyph glyph-name="ordmasculine" unicode="&#xba;" horiz-adv-x="454" 
d="M387 515q0 -46 -9 -85.5t-39 -70.5q-20 -20 -48 -32t-64 -12t-64 12t-48 32q-30 31 -39 70.5t-9 85.5q0 45 9 85t39 71q20 20 48 32.5t64 12.5t64 -12.5t48 -32.5q30 -31 39 -71t9 -85zM328 515q0 32 -5 65t-26 54q-28 28 -70 28t-70 -28q-21 -21 -25.5 -54t-4.5 -65
t4.5 -64.5t25.5 -53.5q14 -14 32 -21.5t38 -7.5t38 7.5t32 21.5q21 21 26 53.5t5 64.5z" />
    <glyph glyph-name="guillemotright" unicode="&#xbb;" horiz-adv-x="554" 
d="M514 270l-210 -210v90l120 120l-120 121v89zM288 270l-210 -210v90l121 120l-121 121v89z" />
    <glyph glyph-name="onequarter" unicode="&#xbc;" horiz-adv-x="846" 
d="M559 712h60l-333 -712h-60zM713 66h-169v50l151 311h57l-150 -311h111v107h55v-107h49v-50h-49v-66h-55v66zM158 648l-83 -73v66l83 71h57v-427h-57v363z" />
    <glyph glyph-name="onehalf" unicode="&#xbd;" horiz-adv-x="850" 
d="M559 712h60l-333 -712h-60zM556 52l175 202q14 16 19.5 29.5t5.5 33.5q0 27 -19 44.5t-53 17.5q-29 0 -50 -14.5t-21 -52.5h-56q0 54 34.5 86.5t92.5 32.5t93 -31t35 -83q0 -15 -2 -27t-7 -23t-13 -22t-20 -24l-149 -169h192v-52h-257v52zM158 648l-83 -73v66l83 71h57
v-427h-57v363z" />
    <glyph glyph-name="threequarters" unicode="&#xbe;" horiz-adv-x="852" 
d="M565 712h60l-333 -712h-60zM719 66h-169v50l151 311h57l-150 -311h111v107h55v-107h49v-50h-49v-66h-55v66zM163 281q-27 0 -51.5 7t-43.5 21.5t-30.5 37t-12.5 53.5h58q2 -37 25.5 -52.5t54.5 -15.5q33 0 56 19.5t23 53.5q0 35 -20.5 54t-61.5 19h-10v51h10
q36 0 55.5 18t19.5 49q0 34 -22 51.5t-51 17.5q-32 0 -51.5 -17.5t-22.5 -46.5h-57q4 54 40.5 84.5t90.5 30.5q58 0 94 -32.5t36 -86.5q0 -35 -15 -56.5t-45 -34.5q33 -13 50 -37.5t17 -63.5q0 -30 -10.5 -53.5t-29 -39t-43.5 -23.5t-53 -8z" />
    <glyph glyph-name="questiondown" unicode="&#xbf;" horiz-adv-x="497" 
d="M263 252q0 -29 -7.5 -50t-23.5 -44l-81 -117q-14 -21 -23.5 -40t-9.5 -45q0 -51 32 -84.5t83 -33.5q27 0 48.5 9.5t36.5 26t23 38t8 45.5h72q0 -38 -14 -71.5t-39.5 -58.5t-60 -39t-74.5 -14q-39 0 -73.5 13.5t-59.5 37.5t-39.5 57.5t-14.5 73.5q0 35 12.5 63.5
t32.5 57.5l82 118q9 14 13.5 30t4.5 28v39h72v-40zM270 408h-86v84h86v-84z" />
    <glyph glyph-name="Agrave" unicode="&#xc0;" horiz-adv-x="611" 
d="M599 0h-81l-57 161h-311l-57 -161h-81l262 712h64zM173 227h265l-132 377zM348 780h-69l-105 154h83z" />
    <glyph glyph-name="Aacute" unicode="&#xc1;" horiz-adv-x="611" 
d="M599 0h-81l-57 161h-311l-57 -161h-81l262 712h64zM173 227h265l-132 377zM336 780h-69l91 154h83z" />
    <glyph glyph-name="Acircumflex" unicode="&#xc2;" horiz-adv-x="611" 
d="M599 0h-81l-57 161h-311l-57 -161h-81l262 712h64zM173 227h265l-132 377zM467 780h-69l-91 104l-90 -104h-69l125 153h68z" />
    <glyph glyph-name="Atilde" unicode="&#xc3;" horiz-adv-x="611" 
d="M599 0h-81l-57 161h-311l-57 -161h-81l262 712h64zM173 227h265l-132 377zM243 893q22 0 37 -6t34 -18q16 -10 28.5 -15t27.5 -5q6 0 11.5 1t12.5 4t15.5 9.5t19.5 17.5l37 -37q-17 -17 -31 -27t-25 -15t-20.5 -6.5t-18.5 -1.5q-22 0 -37.5 6t-33.5 17q-14 8 -27.5 14.5
t-28.5 6.5q-13 0 -25 -5t-34 -27l-37 36q17 17 30.5 27t25 15.5t21 7t18.5 1.5z" />
    <glyph glyph-name="Adieresis" unicode="&#xc4;" horiz-adv-x="611" 
d="M599 0h-81l-57 161h-311l-57 -161h-81l262 712h64zM173 227h265l-132 377zM449 789h-72v89h72v-89zM237 789h-72v89h72v-89z" />
    <glyph glyph-name="Aring" unicode="&#xc5;" horiz-adv-x="611" 
d="M599 0h-81l-57 161h-311l-57 -161h-81l262 712h64zM173 227h265l-132 377zM307 987q24 0 45.5 -9t37.5 -25t25.5 -37.5t9.5 -46.5q0 -24 -9.5 -46t-25.5 -38t-37.5 -25.5t-45.5 -9.5t-45.5 9.5t-37.5 25.5t-25.5 38t-9.5 46t9.5 45.5t25.5 37.5t37.5 25.5t45.5 9.5z
M307 937q-29 0 -49 -19.5t-20 -48.5t20 -49t49 -20t49 20t20 49t-20 48.5t-49 19.5z" />
    <glyph glyph-name="AE" unicode="&#xc6;" horiz-adv-x="927" 
d="M872 644h-366v-251h312v-68h-312v-257h366v-68h-442v169h-247l-88 -169h-83l376 712h484v-68zM216 235h214v409z" />
    <glyph glyph-name="Ccedilla" unicode="&#xc7;" horiz-adv-x="637" 
d="M325 718q97 0 162.5 -56t84.5 -156h-78q-14 66 -58 105t-111 39q-73 0 -123 -50q-17 -17 -27 -37t-15 -47.5t-6.5 -66t-1.5 -93.5t1.5 -93.5t6.5 -66t15 -47.5t27 -37q50 -50 123 -50q67 0 111 39t58 105h78q-19 -100 -84.5 -156t-162.5 -56q-56 0 -100.5 18.5
t-77.5 51.5q-25 25 -39.5 51t-21.5 59t-8.5 77t-1.5 105t1.5 105t8.5 77t21.5 59t39.5 51q33 33 77.5 51.5t100.5 18.5zM299 -69h63l-58 -147h-75z" />
    <glyph glyph-name="Egrave" unicode="&#xc8;" horiz-adv-x="600" 
d="M545 644h-366v-251h312v-68h-312v-257h366v-68h-442v712h442v-68zM353 780h-69l-105 154h83z" />
    <glyph glyph-name="Eacute" unicode="&#xc9;" horiz-adv-x="600" 
d="M545 644h-366v-251h312v-68h-312v-257h366v-68h-442v712h442v-68zM341 780h-69l91 154h83z" />
    <glyph glyph-name="Ecircumflex" unicode="&#xca;" horiz-adv-x="600" 
d="M545 644h-366v-251h312v-68h-312v-257h366v-68h-442v712h442v-68zM472 780h-69l-91 104l-90 -104h-69l125 153h68z" />
    <glyph glyph-name="Edieresis" unicode="&#xcb;" horiz-adv-x="600" 
d="M545 644h-366v-251h312v-68h-312v-257h366v-68h-442v712h442v-68zM454 789h-72v89h72v-89zM242 789h-72v89h72v-89z" />
    <glyph glyph-name="Igrave" unicode="&#xcc;" horiz-adv-x="282" 
d="M179 0h-76v712h76v-712zM182 780h-69l-105 154h83z" />
    <glyph glyph-name="Iacute" unicode="&#xcd;" horiz-adv-x="282" 
d="M179 0h-76v712h76v-712zM170 780h-69l91 154h83z" />
    <glyph glyph-name="Icircumflex" unicode="&#xce;" horiz-adv-x="282" 
d="M179 0h-76v712h76v-712zM301 780h-69l-91 104l-90 -104h-69l125 153h68z" />
    <glyph glyph-name="Idieresis" unicode="&#xcf;" horiz-adv-x="282" 
d="M179 0h-76v712h76v-712zM283 789h-72v89h72v-89zM71 789h-72v89h72v-89z" />
    <glyph glyph-name="Eth" unicode="&#xd0;" horiz-adv-x="687" 
d="M361 712q60 0 105.5 -18t81.5 -57q24 -26 36.5 -57.5t18.5 -67.5t7 -75.5t1 -80.5t-1.5 -80.5t-7.5 -75.5t-18.5 -68t-35.5 -57q-36 -39 -81.5 -57t-105.5 -18h-244v330h-78v59h78v323h244zM193 644v-255h162v-59h-162v-262h155q41 0 77 11t63 41q17 18 26.5 43.5t14 56
t5.5 65t1 71.5t-1 71.5t-5.5 65t-14 56t-26.5 43.5q-27 30 -63 41t-77 11h-155z" />
    <glyph glyph-name="Ntilde" unicode="&#xd1;" horiz-adv-x="732" 
d="M629 0h-72l-378 571v-571h-76v712h72l378 -569v569h76v-712zM302 893q22 0 37 -6t34 -18q16 -10 28.5 -15t27.5 -5q6 0 11.5 1t12.5 4t15.5 9.5t19.5 17.5l37 -37q-17 -17 -31 -27t-25 -15t-20.5 -6.5t-18.5 -1.5q-22 0 -37.5 6t-33.5 17q-14 8 -27.5 14.5t-28.5 6.5
q-13 0 -25 -5t-34 -27l-37 36q17 17 30.5 27t25 15.5t21 7t18.5 1.5z" />
    <glyph glyph-name="Ograve" unicode="&#xd2;" horiz-adv-x="650" 
d="M325 718q56 0 100 -18.5t77 -51.5q25 -25 39.5 -51t21.5 -59t9 -77t2 -105t-2 -105t-9 -77t-21.5 -59t-39.5 -51q-33 -33 -77 -51.5t-100 -18.5t-100.5 18.5t-77.5 51.5q-25 25 -39.5 51t-21.5 59t-8.5 77t-1.5 105t1.5 105t8.5 77t21.5 59t39.5 51q33 33 77.5 51.5
t100.5 18.5zM325 650q-73 0 -123 -50q-17 -17 -27 -37t-15 -47.5t-6.5 -66t-1.5 -93.5t1.5 -93.5t6.5 -66t15 -47.5t27 -37q50 -50 123 -50t123 50q17 17 27 37t15 47.5t6.5 66t1.5 93.5t-1.5 93.5t-6.5 66t-15 47.5t-27 37q-50 50 -123 50zM366 780h-69l-105 154h83z" />
    <glyph glyph-name="Oacute" unicode="&#xd3;" horiz-adv-x="650" 
d="M325 718q56 0 100 -18.5t77 -51.5q25 -25 39.5 -51t21.5 -59t9 -77t2 -105t-2 -105t-9 -77t-21.5 -59t-39.5 -51q-33 -33 -77 -51.5t-100 -18.5t-100.5 18.5t-77.5 51.5q-25 25 -39.5 51t-21.5 59t-8.5 77t-1.5 105t1.5 105t8.5 77t21.5 59t39.5 51q33 33 77.5 51.5
t100.5 18.5zM325 650q-73 0 -123 -50q-17 -17 -27 -37t-15 -47.5t-6.5 -66t-1.5 -93.5t1.5 -93.5t6.5 -66t15 -47.5t27 -37q50 -50 123 -50t123 50q17 17 27 37t15 47.5t6.5 66t1.5 93.5t-1.5 93.5t-6.5 66t-15 47.5t-27 37q-50 50 -123 50zM354 780h-69l91 154h83z" />
    <glyph glyph-name="Ocircumflex" unicode="&#xd4;" horiz-adv-x="650" 
d="M325 718q56 0 100 -18.5t77 -51.5q25 -25 39.5 -51t21.5 -59t9 -77t2 -105t-2 -105t-9 -77t-21.5 -59t-39.5 -51q-33 -33 -77 -51.5t-100 -18.5t-100.5 18.5t-77.5 51.5q-25 25 -39.5 51t-21.5 59t-8.5 77t-1.5 105t1.5 105t8.5 77t21.5 59t39.5 51q33 33 77.5 51.5
t100.5 18.5zM325 650q-73 0 -123 -50q-17 -17 -27 -37t-15 -47.5t-6.5 -66t-1.5 -93.5t1.5 -93.5t6.5 -66t15 -47.5t27 -37q50 -50 123 -50t123 50q17 17 27 37t15 47.5t6.5 66t1.5 93.5t-1.5 93.5t-6.5 66t-15 47.5t-27 37q-50 50 -123 50zM485 780h-69l-91 104l-90 -104
h-69l125 153h68z" />
    <glyph glyph-name="Otilde" unicode="&#xd5;" horiz-adv-x="650" 
d="M325 718q56 0 100 -18.5t77 -51.5q25 -25 39.5 -51t21.5 -59t9 -77t2 -105t-2 -105t-9 -77t-21.5 -59t-39.5 -51q-33 -33 -77 -51.5t-100 -18.5t-100.5 18.5t-77.5 51.5q-25 25 -39.5 51t-21.5 59t-8.5 77t-1.5 105t1.5 105t8.5 77t21.5 59t39.5 51q33 33 77.5 51.5
t100.5 18.5zM325 650q-73 0 -123 -50q-17 -17 -27 -37t-15 -47.5t-6.5 -66t-1.5 -93.5t1.5 -93.5t6.5 -66t15 -47.5t27 -37q50 -50 123 -50t123 50q17 17 27 37t15 47.5t6.5 66t1.5 93.5t-1.5 93.5t-6.5 66t-15 47.5t-27 37q-50 50 -123 50zM261 893q22 0 37 -6t34 -18
q16 -10 28.5 -15t27.5 -5q6 0 11.5 1t12.5 4t15.5 9.5t19.5 17.5l37 -37q-17 -17 -31 -27t-25 -15t-20.5 -6.5t-18.5 -1.5q-22 0 -37.5 6t-33.5 17q-14 8 -27.5 14.5t-28.5 6.5q-13 0 -25 -5t-34 -27l-37 36q17 17 30.5 27t25 15.5t21 7t18.5 1.5z" />
    <glyph glyph-name="Odieresis" unicode="&#xd6;" horiz-adv-x="650" 
d="M325 718q56 0 100 -18.5t77 -51.5q25 -25 39.5 -51t21.5 -59t9 -77t2 -105t-2 -105t-9 -77t-21.5 -59t-39.5 -51q-33 -33 -77 -51.5t-100 -18.5t-100.5 18.5t-77.5 51.5q-25 25 -39.5 51t-21.5 59t-8.5 77t-1.5 105t1.5 105t8.5 77t21.5 59t39.5 51q33 33 77.5 51.5
t100.5 18.5zM325 650q-73 0 -123 -50q-17 -17 -27 -37t-15 -47.5t-6.5 -66t-1.5 -93.5t1.5 -93.5t6.5 -66t15 -47.5t27 -37q50 -50 123 -50t123 50q17 17 27 37t15 47.5t6.5 66t1.5 93.5t-1.5 93.5t-6.5 66t-15 47.5t-27 37q-50 50 -123 50zM467 789h-72v89h72v-89zM255 789
h-72v89h72v-89z" />
    <glyph glyph-name="multiply" unicode="&#xd7;" horiz-adv-x="522" 
d="M457 421l-152 -151l152 -151l-45 -45l-151 151l-151 -151l-45 45l151 151l-151 151l45 45l151 -152l151 152z" />
    <glyph glyph-name="Oslash" unicode="&#xd8;" horiz-adv-x="650" 
d="M574 356q0 -61 -1.5 -104.5t-8.5 -76.5t-21.5 -59t-40.5 -52q-33 -33 -77 -51.5t-100 -18.5q-37 0 -68 8t-58 23l-33 -69h-65l50 104q-27 26 -42 52t-22.5 59.5t-9 78t-1.5 106.5q0 61 1.5 105t8.5 77t21.5 59t39.5 51q33 33 77.5 51.5t100.5 18.5q74 0 125 -31l34 69h65
l-50 -105q27 -26 42 -52.5t22.5 -60t9 -77.5t1.5 -105zM152 356q0 -48 1 -83t5 -61.5t10.5 -46t18.5 -35.5l234 492q-40 28 -96 28q-36 0 -67.5 -12.5t-55.5 -37.5q-17 -17 -27 -37t-15 -47.5t-6.5 -66t-1.5 -93.5zM498 356q0 48 -1 83t-5 61.5t-10.5 46t-18.5 35.5
l-234 -492q42 -28 96 -28q73 0 123 50q17 17 27 37t15 47.5t6.5 66t1.5 93.5z" />
    <glyph glyph-name="Ugrave" unicode="&#xd9;" horiz-adv-x="683" 
d="M590 235q0 -53 -18.5 -97.5t-52 -76.5t-79 -49.5t-99.5 -17.5t-99.5 17.5t-78.5 49.5t-51.5 76.5t-18.5 97.5v477h76v-471q0 -41 12 -74t34.5 -56t54.5 -36t71 -13t71 13t54.5 36t35 56t12.5 74v471h76v-477zM383 780h-69l-105 154h83z" />
    <glyph glyph-name="Uacute" unicode="&#xda;" horiz-adv-x="683" 
d="M590 235q0 -53 -18.5 -97.5t-52 -76.5t-79 -49.5t-99.5 -17.5t-99.5 17.5t-78.5 49.5t-51.5 76.5t-18.5 97.5v477h76v-471q0 -41 12 -74t34.5 -56t54.5 -36t71 -13t71 13t54.5 36t35 56t12.5 74v471h76v-477zM371 780h-69l91 154h83z" />
    <glyph glyph-name="Ucircumflex" unicode="&#xdb;" horiz-adv-x="683" 
d="M590 235q0 -53 -18.5 -97.5t-52 -76.5t-79 -49.5t-99.5 -17.5t-99.5 17.5t-78.5 49.5t-51.5 76.5t-18.5 97.5v477h76v-471q0 -41 12 -74t34.5 -56t54.5 -36t71 -13t71 13t54.5 36t35 56t12.5 74v471h76v-477zM502 780h-69l-91 104l-90 -104h-69l125 153h68z" />
    <glyph glyph-name="Udieresis" unicode="&#xdc;" horiz-adv-x="683" 
d="M590 235q0 -53 -18.5 -97.5t-52 -76.5t-79 -49.5t-99.5 -17.5t-99.5 17.5t-78.5 49.5t-51.5 76.5t-18.5 97.5v477h76v-471q0 -41 12 -74t34.5 -56t54.5 -36t71 -13t71 13t54.5 36t35 56t12.5 74v471h76v-477zM484 789h-72v89h72v-89zM272 789h-72v89h72v-89z" />
    <glyph glyph-name="Yacute" unicode="&#xdd;" horiz-adv-x="514" 
d="M296 294v-294h-76v294l-212 418h82l168 -341l166 341h82zM287 780h-69l91 154h83z" />
    <glyph glyph-name="Thorn" unicode="&#xde;" horiz-adv-x="642" 
d="M179 568h189q49 0 89.5 -14.5t69.5 -42t45 -66t16 -86.5t-16 -86.5t-45 -66t-69.5 -42t-89.5 -14.5h-189v-150h-76v712h76v-144zM179 500v-282h182q67 0 109 35t42 106t-42 106t-109 35h-182z" />
    <glyph glyph-name="germandbls" unicode="&#xdf;" horiz-adv-x="556" 
d="M291 718q40 0 75 -10t61 -30t41 -51.5t15 -74.5q0 -42 -17 -71t-46 -48q36 -18 50 -45t14 -75v-172q0 -34 -10.5 -60.5t-29.5 -44.5q-20 -19 -44 -27.5t-59 -8.5h-53v62h39q22 0 34 5t25 15q26 20 26 67v168q0 42 -21 62q-21 21 -60 21h-43v61h36q39 0 63.5 24t24.5 66
q0 22 -7.5 41.5t-23.5 33.5q-32 29 -95 29q-67 0 -95.5 -37t-28.5 -98v-520h-72v523q0 95 54 145t147 50z" />
    <glyph glyph-name="agrave" unicode="&#xe0;" horiz-adv-x="526" 
d="M244 498q100 0 148.5 -42t48.5 -122v-334h-72v47q-29 -29 -61 -41t-81 -12q-51 0 -82 10t-57 35q-19 18 -28 44.5t-9 55.5q0 66 44 104t127 38h147v47q0 54 -28.5 81t-97.5 27q-47 0 -74 -13t-50 -44l-49 45q32 43 72.5 58.5t101.5 15.5zM232 227q-111 0 -111 -87
q0 -43 27 -63.5t87 -20.5q31 0 58 5.5t51 27.5q25 24 25 85v53h-137zM287 594h-69l-105 153h83z" />
    <glyph glyph-name="aacute" unicode="&#xe1;" horiz-adv-x="526" 
d="M244 498q100 0 148.5 -42t48.5 -122v-334h-72v47q-29 -29 -61 -41t-81 -12q-51 0 -82 10t-57 35q-19 18 -28 44.5t-9 55.5q0 66 44 104t127 38h147v47q0 54 -28.5 81t-97.5 27q-47 0 -74 -13t-50 -44l-49 45q32 43 72.5 58.5t101.5 15.5zM232 227q-111 0 -111 -87
q0 -43 27 -63.5t87 -20.5q31 0 58 5.5t51 27.5q25 24 25 85v53h-137zM291 594h-69l91 153h83z" />
    <glyph glyph-name="acircumflex" unicode="&#xe2;" horiz-adv-x="526" 
d="M244 498q100 0 148.5 -42t48.5 -122v-334h-72v47q-29 -29 -61 -41t-81 -12q-51 0 -82 10t-57 35q-19 18 -28 44.5t-9 55.5q0 66 44 104t127 38h147v47q0 54 -28.5 81t-97.5 27q-47 0 -74 -13t-50 -44l-49 45q32 43 72.5 58.5t101.5 15.5zM232 227q-111 0 -111 -87
q0 -43 27 -63.5t87 -20.5q31 0 58 5.5t51 27.5q25 24 25 85v53h-137zM413 594h-69l-91 104l-90 -104h-69l125 153h68z" />
    <glyph glyph-name="atilde" unicode="&#xe3;" horiz-adv-x="526" 
d="M244 498q100 0 148.5 -42t48.5 -122v-334h-72v47q-29 -29 -61 -41t-81 -12q-51 0 -82 10t-57 35q-19 18 -28 44.5t-9 55.5q0 66 44 104t127 38h147v47q0 54 -28.5 81t-97.5 27q-47 0 -74 -13t-50 -44l-49 45q32 43 72.5 58.5t101.5 15.5zM232 227q-111 0 -111 -87
q0 -43 27 -63.5t87 -20.5q31 0 58 5.5t51 27.5q25 24 25 85v53h-137zM189 706q22 0 37 -6t34 -18q16 -9 28.5 -14.5t27.5 -5.5q6 0 11.5 1t12.5 4t15.5 9.5t19.5 17.5l37 -36q-17 -17 -30.5 -27.5t-25 -15.5t-21 -6.5t-18.5 -1.5q-21 0 -37 6.5t-34 17.5q-14 8 -27.5 14
t-28.5 6q-13 0 -25 -5t-34 -27l-37 36q17 17 30.5 27t25 15.5t21 7t18.5 1.5z" />
    <glyph glyph-name="adieresis" unicode="&#xe4;" horiz-adv-x="526" 
d="M244 498q100 0 148.5 -42t48.5 -122v-334h-72v47q-29 -29 -61 -41t-81 -12q-51 0 -82 10t-57 35q-19 18 -28 44.5t-9 55.5q0 66 44 104t127 38h147v47q0 54 -28.5 81t-97.5 27q-47 0 -74 -13t-50 -44l-49 45q32 43 72.5 58.5t101.5 15.5zM232 227q-111 0 -111 -87
q0 -43 27 -63.5t87 -20.5q31 0 58 5.5t51 27.5q25 24 25 85v53h-137zM395 602h-72v89h72v-89zM183 602h-72v89h72v-89z" />
    <glyph glyph-name="aring" unicode="&#xe5;" horiz-adv-x="526" 
d="M244 498q100 0 148.5 -42t48.5 -122v-334h-72v47q-29 -29 -61 -41t-81 -12q-51 0 -82 10t-57 35q-19 18 -28 44.5t-9 55.5q0 66 44 104t127 38h147v47q0 54 -28.5 81t-97.5 27q-47 0 -74 -13t-50 -44l-49 45q32 43 72.5 58.5t101.5 15.5zM232 227q-111 0 -111 -87
q0 -43 27 -63.5t87 -20.5q31 0 58 5.5t51 27.5q25 24 25 85v53h-137zM253 805q24 0 45.5 -9t37.5 -25t25.5 -37.5t9.5 -46.5q0 -24 -9.5 -46t-25.5 -38t-37.5 -25.5t-45.5 -9.5t-45.5 9.5t-37.5 25.5t-25.5 38t-9.5 46t9.5 45.5t25.5 37.5t37.5 25.5t45.5 9.5zM253 755
q-29 0 -49 -19.5t-20 -48.5t20 -49t49 -20t49 20t20 49t-20 48.5t-49 19.5z" />
    <glyph glyph-name="ae" unicode="&#xe6;" horiz-adv-x="837" 
d="M571 498q96 0 149 -63.5t53 -175.5v-32h-333q0 -81 37 -125.5t109 -44.5q43 0 71 13.5t57 42.5l50 -43q-19 -19 -38 -33t-40.5 -23.5t-47 -14.5t-56.5 -5q-59 0 -103 20.5t-72 64.5q-33 -48 -74.5 -66.5t-105.5 -18.5q-49 0 -81 9.5t-58 35.5q-19 18 -28 44.5t-9 55.5
q0 66 44 104t127 38h147v47q0 54 -28.5 81t-97.5 27q-47 0 -74 -13t-50 -44l-49 45q32 43 72.5 58.5t101.5 15.5q132 0 173 -77q51 77 154 77zM232 227q-111 0 -111 -87q0 -43 27 -63.5t87 -20.5q31 0 58 5.5t51 27.5q25 24 25 85v53h-137zM571 437q-40 0 -70.5 -19.5
t-44.5 -54.5q-4 -11 -6.5 -19t-4.5 -17t-3 -20t-2 -26h261q-1 15 -2 26t-2.5 20t-4 17.5t-6.5 18.5q-14 35 -45 54.5t-70 19.5z" />
    <glyph glyph-name="ccedilla" unicode="&#xe7;" horiz-adv-x="491" 
d="M282 498q51 0 87.5 -16t74.5 -57l-49 -46q-28 31 -53 43t-60 12q-36 0 -65 -14t-49 -42q-17 -24 -24.5 -54.5t-7.5 -77.5t7.5 -77.5t24.5 -54.5q20 -28 49 -42t65 -14q35 0 60 12.5t53 43.5l49 -47q-38 -41 -74.5 -57t-87.5 -16q-47 0 -86.5 15.5t-69 47t-46 79
t-16.5 110.5t16.5 110t46 78.5t69 47.5t86.5 16zM236 -67h66l-59 -149h-78z" />
    <glyph glyph-name="egrave" unicode="&#xe8;" horiz-adv-x="530" 
d="M265 498q97 0 149.5 -63.5t52.5 -175.5v-32h-332q0 -81 36.5 -125.5t108.5 -44.5q43 0 71.5 13.5t57.5 42.5l49 -43q-19 -19 -37.5 -33t-40 -23.5t-46.5 -14.5t-56 -5q-49 0 -89 15t-68 46t-43 78.5t-15 112.5q0 121 54 186.5t148 65.5zM265 437q-40 0 -69.5 -20
t-45.5 -54q-5 -10 -7.5 -18.5t-4 -17.5t-2 -20t-1.5 -26h261q-1 15 -2 26t-2.5 20t-4.5 17.5t-7 18.5q-16 34 -45.5 54t-69.5 20zM299 594h-69l-105 153h83z" />
    <glyph glyph-name="eacute" unicode="&#xe9;" horiz-adv-x="530" 
d="M265 498q97 0 149.5 -63.5t52.5 -175.5v-32h-332q0 -81 36.5 -125.5t108.5 -44.5q43 0 71.5 13.5t57.5 42.5l49 -43q-19 -19 -37.5 -33t-40 -23.5t-46.5 -14.5t-56 -5q-49 0 -89 15t-68 46t-43 78.5t-15 112.5q0 121 54 186.5t148 65.5zM265 437q-40 0 -69.5 -20
t-45.5 -54q-5 -10 -7.5 -18.5t-4 -17.5t-2 -20t-1.5 -26h261q-1 15 -2 26t-2.5 20t-4.5 17.5t-7 18.5q-16 34 -45.5 54t-69.5 20zM303 594h-69l91 153h83z" />
    <glyph glyph-name="ecircumflex" unicode="&#xea;" horiz-adv-x="530" 
d="M265 498q97 0 149.5 -63.5t52.5 -175.5v-32h-332q0 -81 36.5 -125.5t108.5 -44.5q43 0 71.5 13.5t57.5 42.5l49 -43q-19 -19 -37.5 -33t-40 -23.5t-46.5 -14.5t-56 -5q-49 0 -89 15t-68 46t-43 78.5t-15 112.5q0 121 54 186.5t148 65.5zM265 437q-40 0 -69.5 -20
t-45.5 -54q-5 -10 -7.5 -18.5t-4 -17.5t-2 -20t-1.5 -26h261q-1 15 -2 26t-2.5 20t-4.5 17.5t-7 18.5q-16 34 -45.5 54t-69.5 20zM425 594h-69l-91 104l-90 -104h-69l125 153h68z" />
    <glyph glyph-name="edieresis" unicode="&#xeb;" horiz-adv-x="530" 
d="M265 498q97 0 149.5 -63.5t52.5 -175.5v-32h-332q0 -81 36.5 -125.5t108.5 -44.5q43 0 71.5 13.5t57.5 42.5l49 -43q-19 -19 -37.5 -33t-40 -23.5t-46.5 -14.5t-56 -5q-49 0 -89 15t-68 46t-43 78.5t-15 112.5q0 121 54 186.5t148 65.5zM265 437q-40 0 -69.5 -20
t-45.5 -54q-5 -10 -7.5 -18.5t-4 -17.5t-2 -20t-1.5 -26h261q-1 15 -2 26t-2.5 20t-4.5 17.5t-7 18.5q-16 34 -45.5 54t-69.5 20zM407 602h-72v89h72v-89zM195 602h-72v89h72v-89z" />
    <glyph glyph-name="igrave" unicode="&#xec;" horiz-adv-x="253" 
d="M161 594h-69l-105 153h83zM162 0h-72v492h72v-492z" />
    <glyph glyph-name="iacute" unicode="&#xed;" horiz-adv-x="253" 
d="M162 0h-72v492h72v-492zM165 594h-69l91 153h83z" />
    <glyph glyph-name="icircumflex" unicode="&#xee;" horiz-adv-x="253" 
d="M287 594h-69l-91 104l-90 -104h-69l125 153h68zM162 0h-72v492h72v-492z" />
    <glyph glyph-name="idieresis" unicode="&#xef;" horiz-adv-x="253" 
d="M269 602h-72v89h72v-89zM57 602h-72v89h72v-89zM162 0h-72v492h72v-492z" />
    <glyph glyph-name="eth" unicode="&#xf0;" horiz-adv-x="529" 
d="M310 632h82v-52h-54l63 -111q20 -35 32.5 -62t19 -52.5t9 -51.5t2.5 -59q0 -57 -11 -107t-49 -88q-25 -26 -60 -40.5t-80 -14.5t-80 14.5t-60 40.5q-38 38 -48.5 88t-10.5 107t10.5 107t48.5 88q23 24 57 38t79 14q18 0 32.5 -2t28.5 -8l-58 99h-116v52h88l-47 82h75z
M264 431q-52 0 -88 -36q-14 -14 -21.5 -31.5t-11.5 -37t-5 -40.5t-1 -42q0 -42 6 -82.5t33 -67.5q36 -36 88 -36q53 0 89 36q27 27 33 67.5t6 82.5q0 21 -1 42t-5 40.5t-12 37t-21 31.5q-36 36 -89 36z" />
    <glyph glyph-name="ntilde" unicode="&#xf1;" horiz-adv-x="563" 
d="M300 498q81 0 127 -46q51 -50 51 -138v-314h-72v303q0 66 -32.5 98.5t-88.5 32.5t-89.5 -33t-33.5 -98v-303h-72v492h71v-55q26 30 61.5 45.5t77.5 15.5zM220 706q22 0 37 -6t34 -18q16 -9 28.5 -14.5t27.5 -5.5q6 0 11.5 1t12.5 4t15.5 9.5t19.5 17.5l37 -36
q-17 -17 -30.5 -27.5t-25 -15.5t-21 -6.5t-18.5 -1.5q-21 0 -37 6.5t-34 17.5q-14 8 -27.5 14t-28.5 6q-13 0 -25 -5t-34 -27l-37 36q17 17 30.5 27t25 15.5t21 7t18.5 1.5z" />
    <glyph glyph-name="ograve" unicode="&#xf2;" horiz-adv-x="530" 
d="M265 498q45 0 80 -15t61 -41q38 -38 49 -88.5t11 -107.5t-11.5 -107.5t-48.5 -88.5q-26 -26 -61 -41t-80 -15t-80 15t-61 41q-19 19 -30.5 41.5t-18 47t-9 51.5t-2.5 56q0 57 11 107.5t49 88.5q26 26 61 41t80 15zM265 434q-53 0 -89 -36q-27 -27 -33.5 -68.5t-6.5 -83.5
q0 -21 1 -42t5 -41t12 -37.5t22 -31.5q36 -36 89 -36q54 0 90 36q27 28 33 69t6 83t-6 83.5t-33 68.5q-36 36 -90 36zM299 594h-69l-105 153h83z" />
    <glyph glyph-name="oacute" unicode="&#xf3;" horiz-adv-x="530" 
d="M265 498q45 0 80 -15t61 -41q38 -38 49 -88.5t11 -107.5t-11.5 -107.5t-48.5 -88.5q-26 -26 -61 -41t-80 -15t-80 15t-61 41q-19 19 -30.5 41.5t-18 47t-9 51.5t-2.5 56q0 57 11 107.5t49 88.5q26 26 61 41t80 15zM265 434q-53 0 -89 -36q-27 -27 -33.5 -68.5t-6.5 -83.5
q0 -21 1 -42t5 -41t12 -37.5t22 -31.5q36 -36 89 -36q54 0 90 36q27 28 33 69t6 83t-6 83.5t-33 68.5q-36 36 -90 36zM303 594h-69l91 153h83z" />
    <glyph glyph-name="ocircumflex" unicode="&#xf4;" horiz-adv-x="530" 
d="M265 498q45 0 80 -15t61 -41q38 -38 49 -88.5t11 -107.5t-11.5 -107.5t-48.5 -88.5q-26 -26 -61 -41t-80 -15t-80 15t-61 41q-19 19 -30.5 41.5t-18 47t-9 51.5t-2.5 56q0 57 11 107.5t49 88.5q26 26 61 41t80 15zM265 434q-53 0 -89 -36q-27 -27 -33.5 -68.5t-6.5 -83.5
q0 -21 1 -42t5 -41t12 -37.5t22 -31.5q36 -36 89 -36q54 0 90 36q27 28 33 69t6 83t-6 83.5t-33 68.5q-36 36 -90 36zM425 594h-69l-91 104l-90 -104h-69l125 153h68z" />
    <glyph glyph-name="otilde" unicode="&#xf5;" horiz-adv-x="530" 
d="M265 498q45 0 80 -15t61 -41q38 -38 49 -88.5t11 -107.5t-11.5 -107.5t-48.5 -88.5q-26 -26 -61 -41t-80 -15t-80 15t-61 41q-19 19 -30.5 41.5t-18 47t-9 51.5t-2.5 56q0 57 11 107.5t49 88.5q26 26 61 41t80 15zM265 434q-53 0 -89 -36q-27 -27 -33.5 -68.5t-6.5 -83.5
q0 -21 1 -42t5 -41t12 -37.5t22 -31.5q36 -36 89 -36q54 0 90 36q27 28 33 69t6 83t-6 83.5t-33 68.5q-36 36 -90 36zM201 706q22 0 37 -6t34 -18q16 -9 28.5 -14.5t27.5 -5.5q6 0 11.5 1t12.5 4t15.5 9.5t19.5 17.5l37 -36q-17 -17 -30.5 -27.5t-25 -15.5t-21 -6.5
t-18.5 -1.5q-21 0 -37 6.5t-34 17.5q-14 8 -27.5 14t-28.5 6q-13 0 -25 -5t-34 -27l-37 36q17 17 30.5 27t25 15.5t21 7t18.5 1.5z" />
    <glyph glyph-name="odieresis" unicode="&#xf6;" horiz-adv-x="530" 
d="M265 498q45 0 80 -15t61 -41q38 -38 49 -88.5t11 -107.5t-11.5 -107.5t-48.5 -88.5q-26 -26 -61 -41t-80 -15t-80 15t-61 41q-19 19 -30.5 41.5t-18 47t-9 51.5t-2.5 56q0 57 11 107.5t49 88.5q26 26 61 41t80 15zM265 434q-53 0 -89 -36q-27 -27 -33.5 -68.5t-6.5 -83.5
q0 -21 1 -42t5 -41t12 -37.5t22 -31.5q36 -36 89 -36q54 0 90 36q27 28 33 69t6 83t-6 83.5t-33 68.5q-36 36 -90 36zM407 602h-72v89h72v-89zM195 602h-72v89h72v-89z" />
    <glyph glyph-name="divide" unicode="&#xf7;" horiz-adv-x="522" 
d="M471 236h-420v67h420v-67zM304 49h-86v86h86v-86zM304 404h-86v86h86v-86z" />
    <glyph glyph-name="oslash" unicode="&#xf8;" horiz-adv-x="530" 
d="M466 246q0 -57 -11.5 -107.5t-48.5 -88.5q-26 -26 -61 -41t-80 -15q-31 0 -57 7t-48 20l-38 -65h-57l57 96q-36 38 -47 87.5t-11 106.5q0 28 2.5 55.5t9 52t18 47t30.5 41.5q26 26 61 41t80 15q31 0 57 -7t48 -20l39 65h56l-57 -96q36 -38 47 -87.5t11 -106.5zM394 246
q0 35 -3.5 70.5t-20.5 62.5l-177 -299q31 -22 72 -22q54 0 90 36q13 13 21 31t12 38t5 41t1 42zM337 413q-30 21 -72 21q-53 0 -89 -36q-14 -14 -21.5 -31.5t-12 -37.5t-5.5 -41t-1 -42q0 -35 4 -70.5t21 -62.5z" />
    <glyph glyph-name="ugrave" unicode="&#xf9;" horiz-adv-x="563" 
d="M473 0h-71v55q-26 -30 -61.5 -45.5t-77.5 -15.5q-81 0 -127 46q-51 50 -51 138v314h72v-303q0 -66 32.5 -98.5t88.5 -32.5t89.5 33t33.5 98v303h72v-492zM313 594h-69l-105 153h83z" />
    <glyph glyph-name="uacute" unicode="&#xfa;" horiz-adv-x="563" 
d="M473 0h-71v55q-26 -30 -61.5 -45.5t-77.5 -15.5q-81 0 -127 46q-51 50 -51 138v314h72v-303q0 -66 32.5 -98.5t88.5 -32.5t89.5 33t33.5 98v303h72v-492zM317 594h-69l91 153h83z" />
    <glyph glyph-name="ucircumflex" unicode="&#xfb;" horiz-adv-x="563" 
d="M473 0h-71v55q-26 -30 -61.5 -45.5t-77.5 -15.5q-81 0 -127 46q-51 50 -51 138v314h72v-303q0 -66 32.5 -98.5t88.5 -32.5t89.5 33t33.5 98v303h72v-492zM439 594h-69l-91 104l-90 -104h-69l125 153h68z" />
    <glyph glyph-name="udieresis" unicode="&#xfc;" horiz-adv-x="563" 
d="M473 0h-71v55q-26 -30 -61.5 -45.5t-77.5 -15.5q-81 0 -127 46q-51 50 -51 138v314h72v-303q0 -66 32.5 -98.5t88.5 -32.5t89.5 33t33.5 98v303h72v-492zM421 602h-72v89h72v-89zM209 602h-72v89h72v-89z" />
    <glyph glyph-name="yacute" unicode="&#xfd;" horiz-adv-x="447" 
d="M209 -128q-14 -39 -35 -58q-20 -19 -45 -26.5t-51 -7.5h-31v64h22q37 0 53 13.5t28 47.5l38 105l-177 482h78l135 -395l134 395h78zM263 594h-69l91 153h83z" />
    <glyph glyph-name="thorn" unicode="&#xfe;" horiz-adv-x="545" 
d="M162 435q31 38 64.5 50.5t74.5 12.5q38 0 69 -11.5t51 -31.5q18 -18 30 -42t18.5 -51t9 -56.5t2.5 -59.5q0 -60 -11.5 -115.5t-48.5 -93.5q-20 -20 -51 -31.5t-69 -11.5q-41 0 -74.5 13t-64.5 51v-278h-72v932h72v-277zM286 434q-41 0 -65 -16t-37.5 -42t-17.5 -60
t-4 -70t4 -70t17.5 -60t37.5 -42t65 -16q40 0 64.5 16t37.5 42t17 60t4 70t-4 70t-17 60t-37.5 42t-64.5 16z" />
    <glyph glyph-name="ydieresis" unicode="&#xff;" horiz-adv-x="447" 
d="M209 -128q-14 -39 -35 -58q-20 -19 -45 -26.5t-51 -7.5h-31v64h22q37 0 53 13.5t28 47.5l38 105l-177 482h78l135 -395l134 395h78zM367 602h-72v89h72v-89zM155 602h-72v89h72v-89z" />
    <glyph glyph-name="dotlessi" unicode="&#x131;" horiz-adv-x="253" 
d="M162 0h-72v492h72v-492z" />
    <glyph glyph-name="IJ" unicode="&#x132;" horiz-adv-x="783" 
d="M179 0h-76v712h76v-712zM690 216q0 -51 -16.5 -92.5t-46 -70t-70 -44t-89.5 -15.5q-51 0 -90.5 15.5t-72.5 48.5l51 51q19 -20 43.5 -33.5t68.5 -13.5q70 0 108 42.5t38 121.5v486h76v-496z" />
    <glyph glyph-name="ij" unicode="&#x133;" horiz-adv-x="506" 
d="M162 0h-72v492h72v-492zM167 632h-81v81h81v-81zM415 -88q0 -28 -7.5 -52t-23 -42t-39 -28t-55.5 -10h-52v63h39q38 0 52 18t14 54v577h72v-580zM420 632h-81v81h81v-81z" />
    <glyph glyph-name="Lslash" unicode="&#x141;" horiz-adv-x="582" 
d="M188 403l155 98v-65l-155 -98v-270h364v-68h-440v290l-73 -46v65l73 47v356h76v-309z" />
    <glyph glyph-name="lslash" unicode="&#x142;" horiz-adv-x="310" 
d="M172 448l81 50v-62l-81 -50v-252q0 -36 14 -54t52 -18h40v-62h-52q-65 0 -95.5 37.5t-30.5 93.5v211l-63 -39v62l63 39v308h72v-264z" />
    <glyph glyph-name="OE" unicode="&#x152;" horiz-adv-x="994" 
d="M324 718q53 0 96.5 -19.5t76.5 -60.5v74h442v-68h-366v-251h313v-68h-313v-257h366v-68h-442v74q-33 -41 -78.5 -60.5t-94.5 -19.5q-56 0 -100 18.5t-77 51.5q-25 25 -39.5 51t-21.5 59t-8.5 77t-1.5 105t1.5 105t8.5 77t21.5 59t39.5 51q33 33 77 51.5t100 18.5z
M325 650q-36 0 -67.5 -12.5t-55.5 -37.5q-17 -17 -27 -37t-15 -47.5t-6.5 -66t-1.5 -93.5t1.5 -93.5t6.5 -66t15 -47.5t27 -37q24 -25 55.5 -37.5t67.5 -12.5q35 0 67.5 13.5t55.5 37.5q17 17 26.5 36.5t14.5 46.5t6.5 65.5t1.5 94.5t-1.5 94.5t-6.5 65.5t-14.5 46.5
t-26.5 36.5q-23 24 -55.5 37.5t-67.5 13.5z" />
    <glyph glyph-name="oe" unicode="&#x153;" horiz-adv-x="861" 
d="M466 227q0 -81 36.5 -125.5t108.5 -44.5q43 0 71.5 13.5t57.5 42.5l49 -43q-19 -19 -37.5 -33t-40 -23.5t-46.5 -14.5t-56 -5q-124 0 -177 95q-23 -46 -67 -70.5t-100 -24.5q-45 0 -80 15t-61 41q-19 19 -30.5 41.5t-18 47t-9 51.5t-2.5 56q0 57 11 107.5t49 88.5
q26 26 61 41t80 15q57 0 100.5 -24.5t67.5 -70.5q24 47 65.5 71t97.5 24q97 0 149.5 -64t52.5 -174v-33h-332zM727 281q-1 15 -2 26t-2.5 20t-4.5 17.5t-7 18.5q-16 34 -45.5 54t-69.5 20t-69.5 -20t-45.5 -54q-5 -10 -7.5 -18.5t-4 -17.5t-2 -20t-1.5 -26h261zM394 246
q0 42 -6 83.5t-33 68.5q-36 36 -90 36q-53 0 -89 -36q-27 -27 -33.5 -68.5t-6.5 -83.5q0 -21 1 -42t5 -41t12 -37.5t22 -31.5q36 -36 89 -36q54 0 90 36q27 28 33 69t6 83z" />
    <glyph glyph-name="Scaron" unicode="&#x160;" horiz-adv-x="588" 
d="M289 718q68 0 117 -19t95 -59l-49 -49q-32 31 -71 46.5t-95 15.5q-72 0 -111.5 -36.5t-39.5 -96.5q0 -55 32 -83q17 -14 41 -23t52 -14l83 -13q49 -8 77 -18.5t52 -32.5q29 -25 44.5 -60t15.5 -80q0 -47 -17.5 -84.5t-49.5 -63.5t-77.5 -40t-101.5 -14q-40 0 -73.5 5.5
t-63 16.5t-55.5 29t-51 43l51 51q44 -44 89 -60.5t105 -16.5q79 0 124 34.5t45 97.5q0 58 -35 89q-8 7 -16.5 12.5t-19 9.5t-24.5 7t-33 6l-83 12q-84 13 -130 54q-55 49 -55 134q0 45 16 82t45.5 63.5t71.5 40.5t95 14zM324 780h-68l-125 153h69l90 -104l91 104h69z" />
    <glyph glyph-name="scaron" unicode="&#x161;" horiz-adv-x="496" 
d="M246 498q54 0 98.5 -13t78.5 -40l-47 -47q-26 20 -59.5 29.5t-71.5 9.5q-54 0 -82 -21.5t-28 -59.5q0 -33 21 -50t67 -22l77 -7q32 -3 59 -11t46 -23.5t29.5 -39.5t10.5 -59q0 -71 -55 -110.5t-145 -39.5q-63 0 -112.5 16t-89.5 55l48 48q29 -30 68 -43.5t85 -13.5
q62 0 96.5 21.5t34.5 65.5q0 33 -19 50.5t-63 21.5l-81 7q-72 6 -109.5 38t-37.5 94q0 34 13.5 60.5t37.5 45t57 28.5t73 10zM281 594h-68l-126 153h69l91 -105l90 105h69z" />
    <glyph glyph-name="Ydieresis" unicode="&#x178;" horiz-adv-x="514" 
d="M296 294v-294h-76v294l-212 418h82l168 -341l166 341h82zM400 789h-72v89h72v-89zM188 789h-72v89h72v-89z" />
    <glyph glyph-name="Zcaron" unicode="&#x17d;" horiz-adv-x="556" 
d="M499 648l-356 -580h356v-68h-442v64l356 580h-342v68h428v-64zM319 780h-68l-125 153h69l90 -104l91 104h69z" />
    <glyph glyph-name="zcaron" unicode="&#x17e;" horiz-adv-x="459" 
d="M50 59l272 369h-257v64h342v-59l-273 -369h273v-64h-357v59zM266 594h-68l-126 153h69l91 -105l90 105h69z" />
    <glyph glyph-name="longs" unicode="&#x17f;" horiz-adv-x="253" 
d="M268 650h-39q-35 0 -51 -18.5t-16 -53.5v-578h-72v580q0 27 8 51t23.5 42t39 28.5t55.5 10.5h52v-62z" />
    <glyph glyph-name="florin" unicode="&#x192;" horiz-adv-x="403" 
d="M373 652h-50q-35 0 -54 -19t-25 -53l-34 -196h105v-54h-115l-97 -550h-72l97 550h-62v54h72l34 198q5 27 17 51t31 42t44 28.5t57 10.5h52v-62z" />
    <glyph glyph-name="uni0237" unicode="&#x237;" horiz-adv-x="253" 
d="M162 -88q0 -28 -7.5 -52t-23 -42t-39 -28t-55.5 -10h-52v63h39q38 0 52 18t14 54v577h72v-580z" />
    <glyph glyph-name="uni02BB" unicode="&#x2bb;" horiz-adv-x="263" 
d="M175 617h-87v95l87 79v-174z" />
    <glyph glyph-name="uni02BC" unicode="&#x2bc;" horiz-adv-x="263" 
d="M175 617l-87 -79v174h87v-95z" />
    <glyph glyph-name="uni02C0" unicode="&#x2c0;" horiz-adv-x="530" 
d="M214 770q48 0 76 -27t28 -69t-28 -69t-76 -27v45q23 0 38.5 14.5t15.5 36.5t-15.5 36.5t-38.5 14.5v45z" />
    <glyph glyph-name="circumflex" unicode="&#x2c6;" horiz-adv-x="530" 
d="M425 594h-69l-91 104l-90 -104h-69l125 153h68z" />
    <glyph glyph-name="caron" unicode="&#x2c7;" horiz-adv-x="530" 
d="M300 594h-68l-126 153h69l91 -105l90 105h69z" />
    <glyph glyph-name="breve" unicode="&#x2d8;" horiz-adv-x="530" 
d="M430 729q-12 -139 -165 -139t-165 139h56q5 -40 34 -61.5t75 -21.5t75 21.5t34 61.5h56z" />
    <glyph glyph-name="dotaccent" unicode="&#x2d9;" horiz-adv-x="530" 
d="M301 602h-72v89h72v-89z" />
    <glyph glyph-name="ring" unicode="&#x2da;" horiz-adv-x="530" 
d="M265 805q24 0 45.5 -9t37.5 -25t25.5 -37.5t9.5 -46.5q0 -24 -9.5 -46t-25.5 -38t-37.5 -25.5t-45.5 -9.5t-45.5 9.5t-37.5 25.5t-25.5 38t-9.5 46t9.5 45.5t25.5 37.5t37.5 25.5t45.5 9.5zM265 755q-29 0 -49 -19.5t-20 -48.5t20 -49t49 -20t49 20t20 49t-20 48.5
t-49 19.5z" />
    <glyph glyph-name="ogonek" unicode="&#x2db;" horiz-adv-x="530" 
d="M237 -69h64l-58 -147h-77z" />
    <glyph glyph-name="tilde" unicode="&#x2dc;" horiz-adv-x="530" 
d="M201 706q22 0 37 -6t34 -18q16 -9 28.5 -14.5t27.5 -5.5q6 0 11.5 1t12.5 4t15.5 9.5t19.5 17.5l37 -36q-17 -17 -30.5 -27.5t-25 -15.5t-21 -6.5t-18.5 -1.5q-21 0 -37 6.5t-34 17.5q-14 8 -27.5 14t-28.5 6q-13 0 -25 -5t-34 -27l-37 36q17 17 30.5 27t25 15.5t21 7
t18.5 1.5z" />
    <glyph glyph-name="hungarumlaut" unicode="&#x2dd;" horiz-adv-x="530" 
d="M381 594h-65l89 153h85zM199 594h-66l89 153h85z" />
    <glyph glyph-name="gravecomb" unicode="&#x300;" horiz-adv-x="1" 
d="M89 594h-69l-105 153h83z" />
    <glyph glyph-name="acutecomb" unicode="&#x301;" horiz-adv-x="1" 
d="M-16 594h-69l91 153h83z" />
    <glyph glyph-name="uni0302" unicode="&#x302;" horiz-adv-x="1" 
d="M161 594h-69l-91 104l-90 -104h-69l125 153h68z" />
    <glyph glyph-name="tildecomb" unicode="&#x303;" horiz-adv-x="1" 
d="M-62 706q22 0 37 -6t34 -18q16 -9 28.5 -14.5t27.5 -5.5q6 0 11.5 1t12.5 4t15.5 9.5t19.5 17.5l37 -36q-17 -17 -30.5 -27.5t-25 -15.5t-21 -6.5t-18.5 -1.5q-21 0 -37 6.5t-34 17.5q-14 8 -27.5 14t-28.5 6q-13 0 -25 -5t-34 -27l-37 36q17 17 30.5 27t25 15.5t21 7
t18.5 1.5z" />
    <glyph glyph-name="uni0304" unicode="&#x304;" horiz-adv-x="1" 
d="M152 614h-301v56h301v-56z" />
    <glyph glyph-name="uni0306" unicode="&#x306;" horiz-adv-x="1" 
d="M167 729q-12 -139 -165 -139t-165 139h56q5 -40 34 -61.5t75 -21.5t75 21.5t34 61.5h56z" />
    <glyph glyph-name="uni0307" unicode="&#x307;" horiz-adv-x="1" 
d="M38 602h-72v89h72v-89z" />
    <glyph glyph-name="uni0308" unicode="&#x308;" horiz-adv-x="1" 
d="M144 602h-72v89h72v-89zM-68 602h-72v89h72v-89z" />
    <glyph glyph-name="hookabovecomb" unicode="&#x309;" horiz-adv-x="1" 
d="M-50 770q48 0 76 -27t28 -69t-28 -69t-76 -27v45q23 0 38.5 14.5t15.5 36.5t-15.5 36.5t-38.5 14.5v45z" />
    <glyph glyph-name="uni030A" unicode="&#x30a;" horiz-adv-x="1" 
d="M2 805q24 0 45.5 -9t37.5 -25t25.5 -37.5t9.5 -46.5q0 -24 -9.5 -46t-25.5 -38t-37.5 -25.5t-45.5 -9.5t-45.5 9.5t-37.5 25.5t-25.5 38t-9.5 46t9.5 45.5t25.5 37.5t37.5 25.5t45.5 9.5zM2 755q-29 0 -49 -19.5t-20 -48.5t20 -49t49 -20t49 20t20 49t-20 48.5t-49 19.5z
" />
    <glyph glyph-name="uni030B" unicode="&#x30b;" horiz-adv-x="1" 
d="M71 594h-65l89 153h85zM-111 594h-66l89 153h85z" />
    <glyph glyph-name="uni030C" unicode="&#x30c;" horiz-adv-x="1" 
d="M36 594h-68l-126 153h69l91 -105l90 105h69z" />
    <glyph glyph-name="uni030F" unicode="&#x30f;" horiz-adv-x="1" 
d="M180 594h-66l-108 153h85zM-4 594h-65l-109 153h85z" />
    <glyph glyph-name="uni0310" unicode="&#x310;" horiz-adv-x="1" 
d="M166 729q-12 -139 -165 -139t-165 139h56q5 -40 34 -61.5t75 -21.5t75 21.5t34 61.5h56zM38 752h-72v89h72v-89z" />
    <glyph glyph-name="uni0311" unicode="&#x311;" horiz-adv-x="1" 
d="M-164 594q12 139 165 139t165 -139h-56q-5 40 -34 61.5t-75 21.5t-75 -21.5t-34 -61.5h-56z" />
    <glyph glyph-name="uni0312" unicode="&#x312;" horiz-adv-x="1" 
d="M-2 594h-66l58 149h79z" />
    <glyph glyph-name="uni0313" unicode="&#x313;" horiz-adv-x="1" 
d="M4 567h-58l39 152h70z" />
    <glyph glyph-name="uni0316" unicode="&#x316;" horiz-adv-x="1" 
d="M88 -220h-69l-105 153h83z" />
    <glyph glyph-name="uni0317" unicode="&#x317;" horiz-adv-x="1" 
d="M-17 -222h-69l91 153h83z" />
    <glyph glyph-name="uni031B" unicode="&#x31b;" horiz-adv-x="1" 
d="M63 463q0 -55 -23.5 -81t-80.5 -26h-21v51h20q23 0 35 15t12 51v48h58v-58z" />
    <glyph glyph-name="uni031C" unicode="&#x31c;" horiz-adv-x="1" 
d="M53 -82q-23 0 -38.5 -14.5t-15.5 -36.5t15.5 -36.5t38.5 -14.5v-45q-48 0 -76 27t-28 69t28 69t76 27v-45z" />
    <glyph glyph-name="dotbelowcomb" unicode="&#x323;" horiz-adv-x="1" 
d="M37 -167h-72v89h72v-89z" />
    <glyph glyph-name="uni0324" unicode="&#x324;" horiz-adv-x="1" 
d="M143 -166h-72v89h72v-89zM-69 -166h-72v89h72v-89z" />
    <glyph glyph-name="uni0325" unicode="&#x325;" horiz-adv-x="1" 
d="M1 -37q24 0 45.5 -9t37.5 -25t25.5 -37.5t9.5 -46.5q0 -24 -9.5 -46t-25.5 -38t-37.5 -25.5t-45.5 -9.5t-45.5 9.5t-37.5 25.5t-25.5 38t-9.5 46t9.5 45.5t25.5 37.5t37.5 25.5t45.5 9.5zM1 -87q-29 0 -49 -19.5t-20 -48.5t20 -49t49 -20t49 20t20 49t-20 48.5t-49 19.5z
" />
    <glyph glyph-name="uni0326" unicode="&#x326;" horiz-adv-x="1" 
d="M10 -216h-77l71 149h65z" />
    <glyph glyph-name="uni0327" unicode="&#x327;" horiz-adv-x="1" 
d="M4 -67h66l-59 -149h-78z" />
    <glyph glyph-name="uni0328" unicode="&#x328;" horiz-adv-x="1" 
d="M5 -69h64l-58 -147h-77z" />
    <glyph glyph-name="uni032C" unicode="&#x32c;" horiz-adv-x="1" 
d="M35 -220h-68l-126 153h69l91 -105l90 105h69z" />
    <glyph glyph-name="uni032D" unicode="&#x32d;" horiz-adv-x="1" 
d="M160 -221h-69l-91 104l-90 -104h-69l125 153h68z" />
    <glyph glyph-name="uni032E" unicode="&#x32e;" horiz-adv-x="1" 
d="M166 -67q-12 -139 -165 -139t-165 139h56q5 -40 34 -61.5t75 -21.5t75 21.5t34 61.5h56z" />
    <glyph glyph-name="uni032F" unicode="&#x32f;" horiz-adv-x="1" 
d="M-164 -203q12 139 165 139t165 -139h-56q-5 40 -34 61.5t-75 21.5t-75 -21.5t-34 -61.5h-56z" />
    <glyph glyph-name="uni0330" unicode="&#x330;" horiz-adv-x="1" 
d="M-63 -79q22 0 37 -6t34 -18q16 -9 28.5 -14.5t27.5 -5.5q6 0 11.5 1t12.5 4t15.5 9.5t19.5 17.5l37 -36q-17 -17 -30.5 -27.5t-25 -15.5t-21 -6.5t-18.5 -1.5q-21 0 -37 6.5t-34 17.5q-14 8 -27.5 14t-28.5 6q-13 0 -25 -5t-34 -27l-37 36q17 17 30.5 27t25 15.5t21 7
t18.5 1.5z" />
    <glyph glyph-name="uni0331" unicode="&#x331;" horiz-adv-x="1" 
d="M151 -150h-301v56h301v-56z" />
    <glyph glyph-name="uni0340" unicode="&#x340;" horiz-adv-x="1" 
d="M98 673h-69l-125 154h83z" />
    <glyph glyph-name="uni0341" unicode="&#x341;" horiz-adv-x="1" 
d="M-17 674h-69l91 153h83z" />
    <glyph glyph-name="uni037E" unicode="&#x37e;" horiz-adv-x="297" 
d="M205 -65l-88 -79v232h88v-153zM209 301h-94v94h94v-94z" />
    <glyph glyph-name="uni0394" unicode="&#x394;" horiz-adv-x="610" 
d="M273 712h63l262 -712h-586zM499 66l-195 538l-193 -538h388z" />
    <glyph glyph-name="uni03A9" unicode="&#x3a9;" horiz-adv-x="650" 
d="M325 650q-36 0 -67.5 -12.5t-55.5 -37.5q-17 -17 -27 -37t-15 -47.5t-6.5 -66t-1.5 -93.5q0 -85 5 -136.5t22 -79.5t39 -45t53 -31v-64h-195v68h83q-20 17 -33 32t-23 34q-19 38 -23 91t-4 131q0 61 1.5 105t8.5 77t21.5 59t39.5 51q33 33 77.5 51.5t100.5 18.5
t100.5 -18.5t77.5 -51.5q25 -25 39.5 -51t21.5 -59t8.5 -77t1.5 -105q0 -78 -4 -131t-23 -91q-10 -19 -23 -34t-33 -32h83v-68h-195v64q31 14 53 31t39 45t22 79.5t5 136.5q0 55 -1.5 93.5t-6.5 66t-15 47.5t-27 37q-24 25 -55.5 37.5t-67.5 12.5z" />
    <glyph glyph-name="uni03BC" unicode="&#x3bc;" horiz-adv-x="568" 
d="M90 492h72v-303q0 -66 32 -98.5t89 -32.5t90 33t33 98v303h72v-492h-71v55q-53 -60 -135 -60q-35 0 -62.5 10t-47.5 32v-257h-72v712z" />
    <glyph glyph-name="pi" unicode="&#x3c0;" horiz-adv-x="562" 
d="M472 0h-72v428h-238v-428h-72v492h382v-492z" />
    <glyph glyph-name="uni2007" unicode="&#x2007;" horiz-adv-x="522" 
 />
    <glyph glyph-name="uni2008" unicode="&#x2008;" horiz-adv-x="270" 
 />
    <glyph glyph-name="uni200B" unicode="&#x200b;" horiz-adv-x="0" 
 />
    <glyph glyph-name="uniFEFF" unicode="&#xfeff;" horiz-adv-x="0" 
 />
    <glyph glyph-name="endash" unicode="&#x2013;" horiz-adv-x="570" 
d="M494 236h-418v67h418v-67z" />
    <glyph glyph-name="emdash" unicode="&#x2014;" horiz-adv-x="914" 
d="M838 236h-762v67h762v-67z" />
    <glyph glyph-name="quoteleft" unicode="&#x2018;" horiz-adv-x="263" 
d="M175 617h-87v95l87 79v-174z" />
    <glyph glyph-name="quoteright" unicode="&#x2019;" horiz-adv-x="263" 
d="M175 617l-87 -79v174h87v-95z" />
    <glyph glyph-name="quotesinglbase" unicode="&#x201a;" horiz-adv-x="263" 
d="M175 -11l-87 -79v174h87v-95z" />
    <glyph glyph-name="quotedblleft" unicode="&#x201c;" horiz-adv-x="433" 
d="M345 617h-87v95l87 79v-174zM175 617h-87v95l87 79v-174z" />
    <glyph glyph-name="quotedblright" unicode="&#x201d;" horiz-adv-x="433" 
d="M345 617l-87 -79v174h87v-95zM175 617l-87 -79v174h87v-95z" />
    <glyph glyph-name="quotedblbase" unicode="&#x201e;" horiz-adv-x="433" 
d="M345 -11l-87 -79v174h87v-95zM175 -11l-87 -79v174h87v-95z" />
    <glyph glyph-name="dagger" unicode="&#x2020;" horiz-adv-x="602" 
d="M337 509h194v-64h-194v-445h-72v445h-194v64h194v203h72v-203z" />
    <glyph glyph-name="daggerdbl" unicode="&#x2021;" horiz-adv-x="602" 
d="M337 509h194v-64h-194v-397h194v-64h-194v-204h-72v204h-194v64h194v397h-194v64h194v203h72v-203z" />
    <glyph glyph-name="bullet" unicode="&#x2022;" horiz-adv-x="532" 
d="M266 433q34 0 63.5 -13t51.5 -35t35 -51.5t13 -63.5t-13 -63.5t-35 -51.5t-51.5 -35t-63.5 -13t-63.5 13t-51.5 35t-35 51.5t-13 63.5t13 63.5t35 51.5t51.5 35t63.5 13z" />
    <glyph glyph-name="ellipsis" unicode="&#x2026;" horiz-adv-x="757" 
d="M669 0h-92v92h92v-92zM180 0h-92v92h92v-92zM424 0h-92v92h92v-92z" />
    <glyph glyph-name="perthousand" unicode="&#x2030;" horiz-adv-x="1181" 
d="M554 712h60l-334 -712h-60zM199 344q-28 0 -52.5 9.5t-42.5 26.5t-28.5 42t-10.5 57v104q0 31 10.5 56.5t28.5 42.5t42.5 26.5t52.5 9.5t53 -9.5t43 -26.5t28.5 -42.5t10.5 -56.5v-104q0 -32 -10.5 -57t-28.5 -42t-43 -26.5t-53 -9.5zM199 396q37 0 57.5 23t20.5 67v91
q0 43 -20.5 66t-57.5 23q-36 0 -56.5 -23t-20.5 -66v-91q0 -44 20.5 -67t56.5 -23zM634 -6q-29 0 -53.5 9.5t-42.5 26.5t-28.5 42t-10.5 57v104q0 31 10.5 56.5t28.5 42.5t42.5 26.5t53.5 9.5q28 0 53 -9.5t43 -26.5t28.5 -42.5t10.5 -56.5v-104q0 -32 -10.5 -57t-28.5 -42
t-43 -26.5t-53 -9.5zM634 46q37 0 57 23t20 66v91q0 44 -20 67t-57 23q-36 0 -56.5 -23t-20.5 -67v-91q0 -43 20.5 -66t56.5 -23zM981 -6q-29 0 -53.5 9.5t-42.5 26.5t-28.5 42t-10.5 57v104q0 31 10.5 56.5t28.5 42.5t42.5 26.5t53.5 9.5q28 0 53 -9.5t43 -26.5t28.5 -42.5
t10.5 -56.5v-104q0 -32 -10.5 -57t-28.5 -42t-43 -26.5t-53 -9.5zM981 46q37 0 57 23t20 66v91q0 44 -20 67t-57 23q-36 0 -56.5 -23t-20.5 -67v-91q0 -43 20.5 -66t56.5 -23z" />
    <glyph glyph-name="minute" unicode="&#x2032;" horiz-adv-x="274" 
d="M137 401h-73l73 311h73z" />
    <glyph glyph-name="second" unicode="&#x2033;" horiz-adv-x="436" 
d="M137 401h-73l73 311h73zM299 401h-73l73 311h73z" />
    <glyph glyph-name="guilsinglleft" unicode="&#x2039;" horiz-adv-x="328" 
d="M250 389l-120 -120l120 -121v-89l-210 210l210 210v-90z" />
    <glyph glyph-name="guilsinglright" unicode="&#x203a;" horiz-adv-x="328" 
d="M288 269l-210 -210v90l120 120l-120 121v89z" />
    <glyph glyph-name="fraction" unicode="&#x2044;" horiz-adv-x="185" 
d="M229 712h60l-333 -712h-60z" />
    <glyph glyph-name="uni2070" unicode="&#x2070;" horiz-adv-x="228" 
d="M114 430q-38 1 -63 25t-25 60v120q0 38 25 61t63 23t63 -23t25 -61v-120q0 -36 -25 -60t-63 -25zM115 470q22 0 33 13.5t11 33.5v116q0 20 -11 33.5t-33 13.5q-23 0 -34 -13.5t-11 -33.5v-116q0 -20 11 -33.5t34 -13.5z" />
    <glyph glyph-name="uni2071" unicode="&#x2071;" horiz-adv-x="142" 
d="M95 328h-48v267h48v-267zM96 657h-49v56h49v-56z" />
    <glyph glyph-name="uni2074" unicode="&#x2074;" horiz-adv-x="218" 
d="M129 479h-108v38l97 199h43l-97 -199h65v70h40v-70h28v-38h-28v-45h-40v45z" />
    <glyph glyph-name="uni2075" unicode="&#x2075;" horiz-adv-x="221" 
d="M112 431q-38 0 -58 16q-21 15 -26 50h41q3 -14 13 -21.5t30 -7.5q44 0 44 58q0 32 -10 46t-33 14q-17 0 -27.5 -7t-19.5 -24h-35v161h153v-35h-119v-85q13 13 25.5 18t26.5 5q36 0 58 -22t22 -71q0 -22 -5 -39t-17 -31q-21 -25 -63 -25z" />
    <glyph glyph-name="uni2076" unicode="&#x2076;" horiz-adv-x="229" 
d="M115 431q-38 0 -63.5 24t-25.5 66q0 16 3.5 32.5t15.5 40.5l61 122h47l-58 -117q11 8 27 8q35 -1 58.5 -22.5t23.5 -63.5t-25.5 -66t-63.5 -24zM114 469q23 0 35 14.5t12 37.5q0 52 -47 52q-45 0 -45 -52q0 -23 11 -37.5t34 -14.5z" />
    <glyph glyph-name="uni2077" unicode="&#x2077;" horiz-adv-x="225" 
d="M160 681h-84v-42h-41v77h165v-36l-94 -246h-41z" />
    <glyph glyph-name="uni2078" unicode="&#x2078;" horiz-adv-x="223" 
d="M112 431q-38 0 -65 22.5t-27 60.5q0 22 11 39t31 27q-37 19 -37 61q0 35 26 56.5t61 21.5q34 0 60 -21.5t26 -56.5q0 -41 -38 -61q43 -20 43 -66q0 -38 -27 -60.5t-64 -22.5zM112 468q20 0 33.5 13.5t13.5 33.5t-13.5 34t-33.5 14t-34.5 -14t-14.5 -34t14.5 -33.5
t34.5 -13.5zM112 597q17 0 30 12t13 30q0 17 -13 29.5t-30 12.5q-19 0 -31.5 -12.5t-12.5 -29.5q0 -18 12.5 -30t31.5 -12z" />
    <glyph glyph-name="uni2079" unicode="&#x2079;" horiz-adv-x="229" 
d="M135 551q-13 -8 -28 -8q-35 1 -58.5 22.5t-23.5 63.5t25.5 66t63.5 24t63.5 -24t25.5 -66q0 -16 -3.5 -32.5t-15.5 -40.5l-61 -122h-47zM115 577q45 0 45 52q0 23 -11 37.5t-34 14.5t-35 -14.5t-12 -37.5q0 -52 47 -52z" />
    <glyph glyph-name="uni207F" unicode="&#x207f;" horiz-adv-x="312" 
d="M171 601q41 0 68 -25q15 -14 21 -33t6 -44v-171h-49v165q0 35 -13 49t-44 14q-26 0 -44 -16.5t-18 -48.5v-163h-49v269h49v-34q11 17 29.5 27.5t43.5 10.5z" />
    <glyph glyph-name="uni2080" unicode="&#x2080;" horiz-adv-x="228" 
d="M114 -153q-38 1 -63 25t-25 60v120q0 38 25 61t63 23t63 -23t25 -61v-120q0 -36 -25 -60t-63 -25zM115 -113q22 0 33 13.5t11 33.5v116q0 20 -11 33.5t-33 13.5q-23 0 -34 -13.5t-11 -33.5v-116q0 -20 11 -33.5t34 -13.5z" />
    <glyph glyph-name="uni2081" unicode="&#x2081;" horiz-adv-x="230" 
d="M110 83l-60 -51v50l60 51h43v-282h-43v232z" />
    <glyph glyph-name="uni2082" unicode="&#x2082;" horiz-adv-x="221" 
d="M27 -112l110 126q11 11 14.5 22t3.5 23q0 16 -11 28t-31 12q-40 0 -43 -43h-43q2 38 26 59t60 21q38 0 61 -22.5t23 -54.5q0 -18 -7 -33.5t-23 -32.5l-91 -105h115v-37h-164v37z" />
    <glyph glyph-name="uni2083" unicode="&#x2083;" horiz-adv-x="221" 
d="M106 -152q-35 0 -61 20t-28 60h43q2 -18 15 -29.5t31 -11.5q20 0 33.5 12.5t13.5 35.5t-14 34t-34 11h-9v33h9q18 0 30.5 10.5t12.5 30.5q0 21 -12 31.5t-30 10.5q-17 0 -28 -10.5t-14 -27.5h-43q4 37 26 57.5t59 20.5q38 0 61.5 -22t23.5 -55q0 -24 -10.5 -39t-28.5 -22
q20 -8 32 -25t12 -43q0 -37 -25 -59.5t-65 -22.5z" />
    <glyph glyph-name="uni2084" unicode="&#x2084;" horiz-adv-x="218" 
d="M129 -104h-108v38l97 199h43l-97 -199h65v70h40v-70h28v-38h-28v-45h-40v45z" />
    <glyph glyph-name="uni2085" unicode="&#x2085;" horiz-adv-x="221" 
d="M112 -152q-38 0 -58 16q-21 15 -26 50h41q3 -14 13 -21.5t30 -7.5q44 0 44 58q0 32 -10 46t-33 14q-17 0 -27.5 -7t-19.5 -24h-35v161h153v-35h-119v-85q13 13 25.5 18t26.5 5q36 0 58 -22t22 -71q0 -22 -5 -39t-17 -31q-21 -25 -63 -25z" />
    <glyph glyph-name="uni2086" unicode="&#x2086;" horiz-adv-x="229" 
d="M115 -152q-38 0 -63.5 24t-25.5 66q0 16 3.5 32.5t15.5 40.5l61 122h47l-58 -117q11 8 27 8q35 -1 58.5 -22.5t23.5 -63.5t-25.5 -66t-63.5 -24zM114 -114q23 0 35 14.5t12 37.5q0 52 -47 52q-45 0 -45 -52q0 -23 11 -37.5t34 -14.5z" />
    <glyph glyph-name="uni2087" unicode="&#x2087;" horiz-adv-x="225" 
d="M160 98h-84v-42h-41v77h165v-36l-94 -246h-41z" />
    <glyph glyph-name="uni2088" unicode="&#x2088;" horiz-adv-x="223" 
d="M112 -152q-38 0 -65 22.5t-27 60.5q0 22 11 39t31 27q-37 19 -37 61q0 35 26 56.5t61 21.5q34 0 60 -21.5t26 -56.5q0 -41 -38 -61q43 -20 43 -66q0 -38 -27 -60.5t-64 -22.5zM112 -115q20 0 33.5 13.5t13.5 33.5t-13.5 34t-33.5 14t-34.5 -14t-14.5 -34t14.5 -33.5
t34.5 -13.5zM112 14q17 0 30 12t13 30q0 17 -13 29.5t-30 12.5q-19 0 -31.5 -12.5t-12.5 -29.5q0 -18 12.5 -30t31.5 -12z" />
    <glyph glyph-name="uni2089" unicode="&#x2089;" horiz-adv-x="229" 
d="M135 -32q-13 -8 -28 -8q-35 1 -58.5 22.5t-23.5 63.5t25.5 66t63.5 24t63.5 -24t25.5 -66q0 -16 -3.5 -32.5t-15.5 -40.5l-61 -122h-47zM115 -6q45 0 45 52q0 23 -11 37.5t-34 14.5t-35 -14.5t-12 -37.5q0 -52 47 -52z" />
    <glyph glyph-name="uni2090" unicode="&#x2090;" horiz-adv-x="289" 
d="M118 -164q-46 0 -70 25q-21 22 -21 55q0 35 24.5 56t70.5 21h74v24q0 26 -14.5 39.5t-48.5 13.5q-22 0 -35.5 -6.5t-25.5 -20.5l-32 29q18 20 40 30.5t55 10.5q55 0 81.5 -24t26.5 -69v-180h-49v28q-22 -32 -76 -32zM127 -125q32 0 50.5 13t18.5 48v22h-56q-65 0 -65 -41
q0 -5 0.5 -11t5.5 -13q5 -8 14 -13t32 -5z" />
    <glyph glyph-name="uni2091" unicode="&#x2091;" horiz-adv-x="291" 
d="M154 -164q-54 0 -86.5 34t-32.5 100q0 75 29.5 109t81.5 34q51 0 80.5 -36t29.5 -107v-6h-176q1 -42 20 -64.5t54 -22.5q38 0 64 27l29 -28q-20 -22 -42 -31t-51 -9zM213 -5q-1 36 -17 56q-16 21 -50 21q-32 0 -50 -21q-15 -19 -16 -56h133z" />
    <glyph glyph-name="uni2092" unicode="&#x2092;" horiz-adv-x="294" 
d="M147 113q27 0 47 -9t34 -23q17 -17 24 -41t7 -66q0 -41 -7 -65.5t-24 -41.5q-14 -14 -34 -22.5t-47 -8.5t-47 8.5t-34 22.5q-17 17 -24 41.5t-7 65.5q0 42 7 66t24 41q13 14 33.5 23t47.5 9zM147 68q-29 0 -45 -18q-19 -21 -19 -76q0 -54 19 -75q16 -18 45 -18
q30 0 45 18q19 21 19 75q0 55 -19 76q-15 18 -45 18z" />
    <glyph glyph-name="uni2093" unicode="&#x2093;" horiz-adv-x="272" 
d="M163 -23l91 -138h-57l-61 97l-61 -97h-57l92 138l-88 133h58l56 -93l59 93h57z" />
    <glyph glyph-name="lira" unicode="&#x20a4;" horiz-adv-x="571" 
d="M106 192l-67 -44v54l67 41v101l-67 -44v54l67 41v317h76v-268l166 105v-54l-166 -105v-98l166 105v-54l-166 -105v-170h100q80 0 123.5 38t58.5 106h77q-18 -102 -81.5 -157t-168.5 -55h-185v192z" />
    <glyph glyph-name="dong" unicode="&#x20ab;" horiz-adv-x="456" 
d="M214 127q-42 0 -69 15t-44 39q-21 30 -29 68.5t-8 81.5t8 81.5t29 68.5q17 24 44 39t69 15t68.5 -18.5t40.5 -47.5v132h-103v41h103v70h53v-70h51v-41h-51v-470h-52v62q-15 -29 -41.5 -47.5t-68.5 -18.5zM68 49h308v-49h-308v49zM220 176q32 0 52 12.5t31.5 34t15.5 49.5
t4 59t-4 59t-15.5 49.5t-31.5 34.5t-52 13q-33 0 -53.5 -12.5t-31.5 -34t-14.5 -50t-3.5 -59.5t4 -59t15 -49.5t31 -34t53 -12.5z" />
    <glyph glyph-name="Euro" unicode="&#x20ac;" horiz-adv-x="679" 
d="M362 718q97 0 162.5 -56t84.5 -156h-78q-14 66 -58 105t-111 39q-73 0 -123 -50q-12 -13 -20.5 -26.5t-14 -30.5t-9 -38t-4.5 -48h219v-50h-220v-97h220v-50h-220q1 -29 4.5 -51t9 -39t14 -31t21.5 -27q50 -50 123 -50q67 0 111 39t58 105h78q-19 -100 -84.5 -156
t-162.5 -56q-56 0 -100.5 18.5t-77.5 51.5q-20 19 -32.5 39t-20.5 43t-12 50.5t-5 63.5h-67v50h67v97h-67v50h67q1 34 5 61t12 49.5t21 42t32 38.5q33 33 77.5 51.5t100.5 18.5z" />
    <glyph glyph-name="uni20B4" unicode="&#x20b4;" horiz-adv-x="625" 
d="M323 -6q-56 0 -101 14t-77.5 40t-50 63.5t-17.5 84.5q0 34 9 64h-39v50h64q6 8 12 14.5t14 12.5q22 19 51 30.5t79 19.5l78 12q10 2 19 3.5t19 4.5h-336v50h410q16 25 16 63q0 60 -39 96t-111 36q-57 0 -95 -15.5t-71 -45.5l-49 49q46 41 95 59.5t117 18.5q53 0 95 -14.5
t71.5 -40.5t45.5 -63.5t16 -82.5q0 -31 -8 -60h38v-50h-62q-5 -6 -10.5 -12t-11.5 -11q-46 -40 -131 -54q-30 -5 -60 -9t-61 -11h336v-50h-410q-8 -14 -11.5 -30.5t-3.5 -35.5q0 -63 45 -97.5t123 -34.5q60 0 105 17t89 61l52 -52q-50 -50 -107 -72t-137 -22z" />
    <glyph glyph-name="uni20B8" unicode="&#x20b8;" horiz-adv-x="548" 
d="M518 509h-206v-509h-76v509h-206v68h488v-68zM518 663h-488v49h488v-49z" />
    <glyph glyph-name="uni20BD" unicode="&#x20bd;" horiz-adv-x="630" 
d="M103 293h-64v68h64v351h265q48 0 88.5 -15t70 -42t45.5 -65.5t16 -86.5t-16 -86.5t-45.5 -66t-70 -42.5t-88.5 -15h-189v-293h-76v293zM362 361q67 0 108.5 35.5t41.5 106.5t-41.5 106t-108.5 35h-183v-283h183z" />
    <glyph glyph-name="uni2116" unicode="&#x2116;" horiz-adv-x="970" 
d="M577 0h-68l-334 574v-574h-72v712h68l334 -573v573h72v-712zM908 260h-262v58h262v-58zM778 716q30 0 54 -10t41 -27q26 -26 33.5 -61.5t7.5 -77.5t-7.5 -77.5t-33.5 -61.5q-17 -17 -41 -27t-54 -10q-31 0 -55 10t-41 27q-26 26 -33.5 61.5t-7.5 77.5t7.5 77.5t33.5 61.5
q17 17 41 27t55 10zM778 662q-32 0 -53 -21q-16 -16 -19.5 -44t-3.5 -57t3.5 -57t19.5 -44q21 -21 53 -21q31 0 52 21q16 16 19.5 44t3.5 57t-3.5 57t-19.5 44q-21 21 -52 21z" />
    <glyph glyph-name="uni2117" unicode="&#x2117;" 
d="M438 -6q-75 0 -141 28.5t-115 77.5t-77.5 115t-28.5 141t28.5 141t77.5 115t115 77.5t141 28.5t141 -28.5t115 -77.5t77.5 -115t28.5 -141t-28.5 -141t-77.5 -115t-115 -77.5t-141 -28.5zM438 47q63 0 118.5 24.5t97 66.5t65.5 98t24 120t-24 120t-65.5 98t-97 66.5
t-118.5 24.5t-118.5 -24.5t-96.5 -66.5t-65 -98t-24 -120t24 -120t65 -98t96.5 -66.5t118.5 -24.5zM309 555h175q26 0 48.5 -9t39.5 -25t27 -38t10 -47t-10 -47t-27 -38t-40 -25t-48 -9h-120v-159h-55v397zM478 366q33 0 54 20t21 50t-21 50t-54 20h-114v-140h114z" />
    <glyph glyph-name="trademark" unicode="&#x2122;" horiz-adv-x="853" 
d="M795 286h-50v320l-114 -253h-44l-116 253v-320h-51v426h51l138 -301l136 301h50v-426zM327 666h-120v-380h-51v380h-120v46h291v-46z" />
    <glyph glyph-name="Omega" unicode="&#x2126;" horiz-adv-x="650" 
d="M325 650q-36 0 -67.5 -12.5t-55.5 -37.5q-17 -17 -27 -37t-15 -47.5t-6.5 -66t-1.5 -93.5q0 -85 5 -136.5t22 -79.5t39 -45t53 -31v-64h-195v68h83q-20 17 -33 32t-23 34q-19 38 -23 91t-4 131q0 61 1.5 105t8.5 77t21.5 59t39.5 51q33 33 77.5 51.5t100.5 18.5
t100.5 -18.5t77.5 -51.5q25 -25 39.5 -51t21.5 -59t8.5 -77t1.5 -105q0 -78 -4 -131t-23 -91q-10 -19 -23 -34t-33 -32h83v-68h-195v64q31 14 53 31t39 45t22 79.5t5 136.5q0 55 -1.5 93.5t-6.5 66t-15 47.5t-27 37q-24 25 -55.5 37.5t-67.5 12.5z" />
    <glyph glyph-name="uni2150" unicode="&#x2150;" horiz-adv-x="848" 
d="M559 712h60l-333 -712h-60zM756 375h-137v-70h-53v122h246v-51l-147 -376h-56zM158 648l-83 -73v66l83 71h57v-427h-57v363z" />
    <glyph glyph-name="uni2151" unicode="&#x2151;" horiz-adv-x="840" 
d="M559 712h60l-333 -712h-60zM705 185q-9 -3 -19.5 -5t-21.5 -2q-48 0 -79.5 34t-31.5 89q0 58 34.5 94t90.5 36t90 -34t34 -93q0 -23 -6.5 -45.5t-22.5 -54.5l-100 -204h-62zM678 226q30 0 48.5 20.5t18.5 56.5q0 35 -18 55.5t-49 20.5t-49 -20.5t-18 -55.5
q0 -33 17.5 -55t49.5 -22zM158 648l-83 -73v66l83 71h57v-427h-57v363z" />
    <glyph glyph-name="uni2152" unicode="&#x2152;" horiz-adv-x="1016" 
d="M501 712h60l-333 -712h-60zM564 363l-83 -73v66l83 71h57v-427h-57v363zM850 -4q-54 0 -90.5 32t-36.5 89v192q0 28 9.5 50.5t27 38.5t40.5 24.5t50 8.5q54 0 90 -32.5t36 -89.5v-192q0 -57 -36 -89t-90 -32zM850 48q33 0 51 19.5t18 51.5v189q0 31 -18 51t-51 20
q-34 0 -52 -19.5t-18 -51.5v-189q0 -32 18 -51.5t52 -19.5zM158 648l-83 -73v66l83 71h57v-427h-57v363z" />
    <glyph glyph-name="onethird" unicode="&#x2153;" horiz-adv-x="851" 
d="M559 712h60l-333 -712h-60zM678 -4q-27 0 -51.5 7t-43.5 21.5t-30.5 37t-12.5 53.5h58q2 -37 25.5 -52.5t54.5 -15.5q33 0 56 19.5t23 53.5q0 35 -20.5 54t-61.5 19h-10v51h10q36 0 55.5 18t19.5 49q0 34 -22 51.5t-51 17.5q-32 0 -51.5 -17.5t-22.5 -46.5h-57
q4 54 40.5 84.5t90.5 30.5q58 0 94 -32.5t36 -86.5q0 -35 -15 -56.5t-45 -34.5q33 -13 50 -37.5t17 -63.5q0 -30 -10.5 -53.5t-29 -39t-43.5 -23.5t-53 -8zM158 648l-83 -73v66l83 71h57v-427h-57v363z" />
    <glyph glyph-name="twothirds" unicode="&#x2154;" horiz-adv-x="856" 
d="M564 712h60l-333 -712h-60zM683 -4q-27 0 -51.5 7t-43.5 21.5t-30.5 37t-12.5 53.5h58q2 -37 25.5 -52.5t54.5 -15.5q33 0 56 19.5t23 53.5q0 35 -20.5 54t-61.5 19h-10v51h10q36 0 55.5 18t19.5 49q0 34 -22 51.5t-51 17.5q-32 0 -51.5 -17.5t-22.5 -46.5h-57
q4 54 40.5 84.5t90.5 30.5q58 0 94 -32.5t36 -86.5q0 -35 -15 -56.5t-45 -34.5q33 -13 50 -37.5t17 -63.5q0 -30 -10.5 -53.5t-29 -39t-43.5 -23.5t-53 -8zM41 337l175 202q14 16 19.5 29.5t5.5 33.5q0 27 -19 44.5t-53 17.5q-29 0 -50 -14.5t-21 -52.5h-56q0 54 34.5 86.5
t92.5 32.5t93 -31t35 -83q0 -15 -2 -27t-7 -23t-13 -22t-20 -24l-149 -169h192v-52h-257v52z" />
    <glyph glyph-name="uni2155" unicode="&#x2155;" horiz-adv-x="843" 
d="M559 712h60l-333 -712h-60zM681 -4q-62 0 -92 32q-17 17 -23.5 36t-8.5 42h58q3 -29 19 -44.5t47 -15.5t48 17q14 15 17 35.5t3 43.5q0 19 -2.5 35.5t-10 29.5t-20 20.5t-32.5 7.5q-26 0 -44 -11t-24 -29h-52v232h233v-50h-182v-123q12 14 30.5 22.5t46.5 8.5
q50 0 77 -29q24 -25 31 -54.5t7 -59.5q0 -34 -6.5 -62t-29.5 -51q-15 -15 -37.5 -24t-52.5 -9zM158 648l-83 -73v66l83 71h57v-427h-57v363z" />
    <glyph glyph-name="uni2156" unicode="&#x2156;" horiz-adv-x="848" 
d="M564 712h60l-333 -712h-60zM686 -4q-62 0 -92 32q-17 17 -23.5 36t-8.5 42h58q3 -29 19 -44.5t47 -15.5t48 17q14 15 17 35.5t3 43.5q0 19 -2.5 35.5t-10 29.5t-20 20.5t-32.5 7.5q-26 0 -44 -11t-24 -29h-52v232h233v-50h-182v-123q12 14 30.5 22.5t46.5 8.5
q50 0 77 -29q24 -25 31 -54.5t7 -59.5q0 -34 -6.5 -62t-29.5 -51q-15 -15 -37.5 -24t-52.5 -9zM41 337l175 202q14 16 19.5 29.5t5.5 33.5q0 27 -19 44.5t-53 17.5q-29 0 -50 -14.5t-21 -52.5h-56q0 54 34.5 86.5t92.5 32.5t93 -31t35 -83q0 -15 -2 -27t-7 -23t-13 -22
t-20 -24l-149 -169h192v-52h-257v52z" />
    <glyph glyph-name="uni2157" unicode="&#x2157;" horiz-adv-x="849" 
d="M565 712h60l-333 -712h-60zM687 -4q-62 0 -92 32q-17 17 -23.5 36t-8.5 42h58q3 -29 19 -44.5t47 -15.5t48 17q14 15 17 35.5t3 43.5q0 19 -2.5 35.5t-10 29.5t-20 20.5t-32.5 7.5q-26 0 -44 -11t-24 -29h-52v232h233v-50h-182v-123q12 14 30.5 22.5t46.5 8.5
q50 0 77 -29q24 -25 31 -54.5t7 -59.5q0 -34 -6.5 -62t-29.5 -51q-15 -15 -37.5 -24t-52.5 -9zM163 281q-27 0 -51.5 7t-43.5 21.5t-30.5 37t-12.5 53.5h58q2 -37 25.5 -52.5t54.5 -15.5q33 0 56 19.5t23 53.5q0 35 -20.5 54t-61.5 19h-10v51h10q36 0 55.5 18t19.5 49
q0 34 -22 51.5t-51 17.5q-32 0 -51.5 -17.5t-22.5 -46.5h-57q4 54 40.5 84.5t90.5 30.5q58 0 94 -32.5t36 -86.5q0 -35 -15 -56.5t-45 -34.5q33 -13 50 -37.5t17 -63.5q0 -30 -10.5 -53.5t-29 -39t-43.5 -23.5t-53 -8z" />
    <glyph glyph-name="uni2158" unicode="&#x2158;" horiz-adv-x="839" 
d="M555 712h60l-333 -712h-60zM677 -4q-62 0 -92 32q-17 17 -23.5 36t-8.5 42h58q3 -29 19 -44.5t47 -15.5t48 17q14 15 17 35.5t3 43.5q0 19 -2.5 35.5t-10 29.5t-20 20.5t-32.5 7.5q-26 0 -44 -11t-24 -29h-52v232h233v-50h-182v-123q12 14 30.5 22.5t46.5 8.5
q50 0 77 -29q24 -25 31 -54.5t7 -59.5q0 -34 -6.5 -62t-29.5 -51q-15 -15 -37.5 -24t-52.5 -9zM193 351h-169v50l151 311h57l-150 -311h111v107h55v-107h49v-50h-49v-66h-55v66z" />
    <glyph glyph-name="uni2159" unicode="&#x2159;" horiz-adv-x="849" 
d="M559 712h60l-333 -712h-60zM682 -4q-58 0 -93.5 34t-35.5 93q0 23 6 45.5t23 55.5l107 203h62l-100 -189q9 5 19 8t24 3q51 0 84 -34t33 -89q0 -58 -35 -94t-94 -36zM682 48q32 0 52 20.5t20 55.5q0 33 -19 55t-53 22q-32 0 -52 -20.5t-20 -56.5q0 -35 20 -55.5t52 -20.5
zM158 648l-83 -73v66l83 71h57v-427h-57v363z" />
    <glyph glyph-name="uni215A" unicode="&#x215a;" horiz-adv-x="847" 
d="M557 712h60l-333 -712h-60zM680 -4q-58 0 -93.5 34t-35.5 93q0 23 6 45.5t23 55.5l107 203h62l-100 -189q9 5 19 8t24 3q51 0 84 -34t33 -89q0 -58 -35 -94t-94 -36zM680 48q32 0 52 20.5t20 55.5q0 33 -19 55t-53 22q-32 0 -52 -20.5t-20 -56.5q0 -35 20 -55.5t52 -20.5
zM166 281q-62 0 -92 32q-17 17 -23.5 36t-8.5 42h58q3 -29 19 -44.5t47 -15.5t48 17q14 15 17 35.5t3 43.5q0 19 -2.5 35.5t-10 29.5t-20 20.5t-32.5 7.5q-26 0 -44 -11t-24 -29h-52v232h233v-50h-182v-123q12 14 30.5 22.5t46.5 8.5q50 0 77 -29q24 -25 31 -54.5t7 -59.5
q0 -34 -6.5 -62t-29.5 -51q-15 -15 -37.5 -24t-52.5 -9z" />
    <glyph glyph-name="oneeighth" unicode="&#x215b;" horiz-adv-x="847" 
d="M559 712h60l-333 -712h-60zM681 -4q-29 0 -53.5 8.5t-42.5 25t-28.5 39t-10.5 51.5q0 38 18.5 62.5t44.5 38.5q-24 14 -40 36.5t-16 55.5q0 26 10 48t27 37.5t40.5 24t50.5 8.5t50 -8.5t40.5 -24t27 -37.5t9.5 -48q0 -33 -15.5 -55.5t-40.5 -36.5q27 -14 45.5 -38.5
t18.5 -62.5q0 -29 -10.5 -51.5t-29 -39t-43 -25t-52.5 -8.5zM681 47q34 0 56 21t22 53t-22.5 53t-55.5 21t-55.5 -21t-22.5 -53t22 -53t56 -21zM681 246q31 0 50.5 18.5t19.5 48.5q0 29 -19 48t-51 19t-51 -19t-19 -48q0 -30 19 -48.5t51 -18.5zM158 648l-83 -73v66l83 71
h57v-427h-57v363z" />
    <glyph glyph-name="threeeighths" unicode="&#x215c;" horiz-adv-x="853" 
d="M565 712h60l-333 -712h-60zM687 -4q-29 0 -53.5 8.5t-42.5 25t-28.5 39t-10.5 51.5q0 38 18.5 62.5t44.5 38.5q-24 14 -40 36.5t-16 55.5q0 26 10 48t27 37.5t40.5 24t50.5 8.5t50 -8.5t40.5 -24t27 -37.5t9.5 -48q0 -33 -15.5 -55.5t-40.5 -36.5q27 -14 45.5 -38.5
t18.5 -62.5q0 -29 -10.5 -51.5t-29 -39t-43 -25t-52.5 -8.5zM687 47q34 0 56 21t22 53t-22.5 53t-55.5 21t-55.5 -21t-22.5 -53t22 -53t56 -21zM687 246q31 0 50.5 18.5t19.5 48.5q0 29 -19 48t-51 19t-51 -19t-19 -48q0 -30 19 -48.5t51 -18.5zM163 281q-27 0 -51.5 7
t-43.5 21.5t-30.5 37t-12.5 53.5h58q2 -37 25.5 -52.5t54.5 -15.5q33 0 56 19.5t23 53.5q0 35 -20.5 54t-61.5 19h-10v51h10q36 0 55.5 18t19.5 49q0 34 -22 51.5t-51 17.5q-32 0 -51.5 -17.5t-22.5 -46.5h-57q4 54 40.5 84.5t90.5 30.5q58 0 94 -32.5t36 -86.5
q0 -35 -15 -56.5t-45 -34.5q33 -13 50 -37.5t17 -63.5q0 -30 -10.5 -53.5t-29 -39t-43.5 -23.5t-53 -8z" />
    <glyph glyph-name="fiveeighths" unicode="&#x215d;" horiz-adv-x="845" 
d="M557 712h60l-333 -712h-60zM679 -4q-29 0 -53.5 8.5t-42.5 25t-28.5 39t-10.5 51.5q0 38 18.5 62.5t44.5 38.5q-24 14 -40 36.5t-16 55.5q0 26 10 48t27 37.5t40.5 24t50.5 8.5t50 -8.5t40.5 -24t27 -37.5t9.5 -48q0 -33 -15.5 -55.5t-40.5 -36.5q27 -14 45.5 -38.5
t18.5 -62.5q0 -29 -10.5 -51.5t-29 -39t-43 -25t-52.5 -8.5zM679 47q34 0 56 21t22 53t-22.5 53t-55.5 21t-55.5 -21t-22.5 -53t22 -53t56 -21zM679 246q31 0 50.5 18.5t19.5 48.5q0 29 -19 48t-51 19t-51 -19t-19 -48q0 -30 19 -48.5t51 -18.5zM166 281q-62 0 -92 32
q-17 17 -23.5 36t-8.5 42h58q3 -29 19 -44.5t47 -15.5t48 17q14 15 17 35.5t3 43.5q0 19 -2.5 35.5t-10 29.5t-20 20.5t-32.5 7.5q-26 0 -44 -11t-24 -29h-52v232h233v-50h-182v-123q12 14 30.5 22.5t46.5 8.5q50 0 77 -29q24 -25 31 -54.5t7 -59.5q0 -34 -6.5 -62
t-29.5 -51q-15 -15 -37.5 -24t-52.5 -9z" />
    <glyph glyph-name="seveneighths" unicode="&#x215e;" horiz-adv-x="840" 
d="M552 712h60l-333 -712h-60zM674 -4q-29 0 -53.5 8.5t-42.5 25t-28.5 39t-10.5 51.5q0 38 18.5 62.5t44.5 38.5q-24 14 -40 36.5t-16 55.5q0 26 10 48t27 37.5t40.5 24t50.5 8.5t50 -8.5t40.5 -24t27 -37.5t9.5 -48q0 -33 -15.5 -55.5t-40.5 -36.5q27 -14 45.5 -38.5
t18.5 -62.5q0 -29 -10.5 -51.5t-29 -39t-43 -25t-52.5 -8.5zM674 47q34 0 56 21t22 53t-22.5 53t-55.5 21t-55.5 -21t-22.5 -53t22 -53t56 -21zM674 246q31 0 50.5 18.5t19.5 48.5q0 29 -19 48t-51 19t-51 -19t-19 -48q0 -30 19 -48.5t51 -18.5zM231 660h-137v-70h-53v122
h246v-51l-147 -376h-56z" />
    <glyph glyph-name="uni215F" unicode="&#x215f;" horiz-adv-x="515" 
d="M559 712h60l-333 -712h-60zM158 648l-83 -73v66l83 71h57v-427h-57v363z" />
    <glyph glyph-name="uni2189" unicode="&#x2189;" horiz-adv-x="854" 
d="M562 712h60l-333 -712h-60zM681 -4q-27 0 -51.5 7t-43.5 21.5t-30.5 37t-12.5 53.5h58q2 -37 25.5 -52.5t54.5 -15.5q33 0 56 19.5t23 53.5q0 35 -20.5 54t-61.5 19h-10v51h10q36 0 55.5 18t19.5 49q0 34 -22 51.5t-51 17.5q-32 0 -51.5 -17.5t-22.5 -46.5h-57
q4 54 40.5 84.5t90.5 30.5q58 0 94 -32.5t36 -86.5q0 -35 -15 -56.5t-45 -34.5q33 -13 50 -37.5t17 -63.5q0 -30 -10.5 -53.5t-29 -39t-43.5 -23.5t-53 -8zM167 281q-54 0 -90.5 32t-36.5 89v192q0 28 9.5 50.5t27 38.5t40.5 24.5t50 8.5q54 0 90 -32.5t36 -89.5v-192
q0 -57 -36 -89t-90 -32zM167 333q33 0 51 19.5t18 51.5v189q0 31 -18 51t-51 20q-34 0 -52 -19.5t-18 -51.5v-189q0 -32 18 -51.5t52 -19.5z" />
    <glyph glyph-name="arrowleft" unicode="&#x2190;" horiz-adv-x="1027" 
d="M183 304h789v-70h-789l365 -364h-94l-399 399l399 399h94z" />
    <glyph glyph-name="arrowup" unicode="&#x2191;" horiz-adv-x="1027" 
d="M912 328v-94l-364 365v-789h-70v789l-364 -365v94l399 399z" />
    <glyph glyph-name="arrowright" unicode="&#x2192;" horiz-adv-x="1027" 
d="M972 269l-399 -399h-94l365 364h-789v70h789l-365 364h94z" />
    <glyph glyph-name="arrowdown" unicode="&#x2193;" horiz-adv-x="1027" 
d="M548 -63l364 365v-94l-399 -399l-399 399v94l364 -365v789h70v-789z" />
    <glyph glyph-name="uni2196" unicode="&#x2196;" horiz-adv-x="1027" 
d="M807 527h-515l558 -558l-50 -50l-557 558v-515l-67 66v565h565z" />
    <glyph glyph-name="uni2197" unicode="&#x2197;" horiz-adv-x="1027" 
d="M850 28l-67 -66v515l-557 -558l-50 50l558 558h-515l66 66h565v-565z" />
    <glyph glyph-name="uni2198" unicode="&#x2198;" horiz-adv-x="1027" 
d="M785 48l-1 517l66 -68v-564h-564l-66 66l515 -1l-558 558l50 50z" />
    <glyph glyph-name="uni2199" unicode="&#x2199;" horiz-adv-x="1027" 
d="M850 556l-558 -558l515 1l-66 -66h-564v564l66 68l-1 -517l558 558z" />
    <glyph glyph-name="partialdiff" unicode="&#x2202;" horiz-adv-x="542" 
d="M260 -6q-44 0 -78.5 15t-58.5 40q-37 38 -47 88t-10 107q0 61 10.5 111t46.5 87q21 21 53.5 37t76.5 16q36 0 68 -11.5t60 -46.5v70q0 30 -7.5 57t-24 47.5t-42 32.5t-61.5 12q-42 0 -67 -12.5t-51 -37.5l-46 46q19 18 37 30.5t37.5 20.5t41.5 11.5t50 3.5q50 0 88 -16
t64 -44.5t39.5 -68t13.5 -87.5v-258q0 -57 -10 -107t-47 -88q-24 -25 -58.5 -40t-77.5 -15zM260 58q50 0 84 36q26 27 31.5 68t5.5 82q0 42 -5.5 82.5t-31.5 68.5q-17 17 -38 26.5t-46 9.5q-26 0 -47 -9.5t-38 -26.5q-26 -28 -31.5 -68.5t-5.5 -82.5q0 -41 5.5 -82t31.5 -68
q34 -36 85 -36z" />
    <glyph glyph-name="Delta" unicode="&#x2206;" horiz-adv-x="610" 
d="M273 712h63l262 -712h-586zM499 66l-195 538l-193 -538h388z" />
    <glyph glyph-name="product" unicode="&#x220f;" horiz-adv-x="696" 
d="M593 -220h-76v912h-338v-912h-76v980h490v-980z" />
    <glyph glyph-name="summation" unicode="&#x2211;" horiz-adv-x="551" 
d="M499 692h-353l180 -375v-69l-182 -400h356v-68h-443v65l202 438l-201 413v64h441v-68z" />
    <glyph glyph-name="minus" unicode="&#x2212;" horiz-adv-x="522" 
d="M470 237h-418v67h418v-67z" />
    <glyph glyph-name="uni2219" unicode="&#x2219;" horiz-adv-x="522" 
d="M266 433q34 0 63.5 -13t51.5 -35t35 -51.5t13 -63.5t-13 -63.5t-35 -51.5t-51.5 -35t-63.5 -13t-63.5 13t-51.5 35t-35 51.5t-13 63.5t13 63.5t35 51.5t51.5 35t63.5 13z" />
    <glyph glyph-name="radical" unicode="&#x221a;" horiz-adv-x="532" 
d="M502 643h-96l-202 -643h-64l-129 392h73l88 -295l181 615h149v-69z" />
    <glyph glyph-name="uni221B" unicode="&#x221b;" horiz-adv-x="532" 
d="M502 643h-96l-202 -643h-64l-129 392h73l88 -295l181 615h149v-69zM101 429q-35 0 -61 20t-28 60h43q2 -18 15 -29.5t31 -11.5q20 0 33.5 12.5t13.5 35.5t-14 34t-34 11h-9v33h9q18 0 30.5 10.5t12.5 30.5q0 21 -12 31.5t-30 10.5q-17 0 -28 -10.5t-14 -27.5h-43
q4 37 26 57.5t59 20.5q38 0 61.5 -22t23.5 -55q0 -24 -10.5 -39t-28.5 -22q20 -8 32 -25t12 -43q0 -37 -25 -59.5t-65 -22.5z" />
    <glyph glyph-name="uni221C" unicode="&#x221c;" horiz-adv-x="532" 
d="M502 643h-96l-202 -643h-64l-129 392h73l88 -295l181 615h149v-69zM124 475h-108v38l97 199h43l-97 -199h65v70h40v-70h28v-38h-28v-45h-40v45z" />
    <glyph glyph-name="infinity" unicode="&#x221e;" horiz-adv-x="807" 
d="M582 430q36 0 65 -12.5t50 -34t32 -50.5t11 -63t-11 -63t-32 -50.5t-50 -33.5t-65 -12q-26 0 -49 6t-44 19t-42 32.5t-43 46.5q-44 -54 -85 -79.5t-92 -25.5q-36 0 -65.5 12.5t-50.5 34t-32.5 50.5t-11.5 63t11.5 63t32.5 50.5t50.5 34t65.5 12.5q50 0 91 -26t86 -80
q45 54 85 80t93 26zM229 363q-41 0 -67 -26t-26 -68t26 -67.5t67 -25.5q37 0 65.5 25.5t63.5 67.5q-35 42 -63.5 68t-65.5 26zM579 362q-37 0 -66 -25.5t-64 -67.5q35 -42 64 -67.5t66 -25.5q41 0 66.5 25.5t25.5 67.5t-25.5 67.5t-66.5 25.5z" />
    <glyph glyph-name="integral" unicode="&#x222b;" horiz-adv-x="371" 
d="M334 651h-38q-37 0 -55 -20t-18 -57v-654q0 -64 -35.5 -102t-100.5 -38h-50v62h39q37 0 55 20t18 57v654q0 64 35.5 102t100.5 38h49v-62z" />
    <glyph glyph-name="approxequal" unicode="&#x2248;" horiz-adv-x="539" 
d="M178 419q26 0 51 -9t54 -22q21 -10 39.5 -17t38.5 -7q10 0 19 1.5t18.5 6.5t20.5 13.5t26 23.5l45 -45q-21 -21 -37.5 -34.5t-31 -21t-29 -10t-31.5 -2.5q-26 0 -51.5 9t-54.5 22q-21 10 -39.5 17t-38.5 7q-11 0 -19.5 -1.5t-18 -6.5t-20.5 -13.5t-26 -23.5l-44 45
q21 21 37.5 34t31 20.5t29 10.5t31.5 3zM178 242q26 0 51 -9t54 -22q21 -10 39.5 -17t38.5 -7q10 0 19 1.5t18.5 6.5t20.5 13.5t26 23.5l45 -45q-21 -21 -37.5 -34.5t-31 -21t-29 -10t-31.5 -2.5q-26 0 -51.5 9t-54.5 22q-21 10 -39.5 17t-38.5 7q-11 0 -19.5 -1.5t-18 -6.5
t-20.5 -13.5t-26 -23.5l-44 45q21 21 37.5 34t31 20.5t29 10.5t31.5 3z" />
    <glyph glyph-name="notequal" unicode="&#x2260;" horiz-adv-x="539" 
d="M486 457l-67 -70h67v-67h-126l-98 -102h224v-67h-284l-103 -111l-46 40l67 71h-67v67h126l99 102h-225v67h284l104 111z" />
    <glyph glyph-name="lessequal" unicode="&#x2264;" horiz-adv-x="522" 
d="M426 458l-250 -124l250 -123v-77l-331 168v65l331 168v-77zM426 61v-77l-331 168v77z" />
    <glyph glyph-name="greaterequal" unicode="&#x2265;" horiz-adv-x="522" 
d="M426 367v-65l-331 -168v77l250 123l-250 124v77zM426 152l-331 -168v77l331 168v-77z" />
    <glyph glyph-name="dotmath" unicode="&#x22c5;" horiz-adv-x="522" 
d="M308 223h-94v94h94v-94z" />
    <glyph glyph-name="uni2460" unicode="&#x2460;" 
d="M414 491l-76 -66v59l76 65h49v-384h-49v326zM438 718q75 0 141 -28.5t115 -77.5t77.5 -115t28.5 -141t-28.5 -141t-77.5 -115t-115 -77.5t-141 -28.5t-141 28.5t-115 77.5t-77.5 115t-28.5 141t28.5 141t77.5 115t115 77.5t141 28.5zM438 677q-66 0 -123.5 -25.5
t-100.5 -69t-68 -102t-25 -124.5t25 -124.5t68 -102t100.5 -69t123.5 -25.5t123.5 25.5t100 69t67.5 102t25 124.5t-25 124.5t-67.5 102t-100 69t-123.5 25.5z" />
    <glyph glyph-name="uni2460" unicode="&#x2780;" 
d="M414 491l-76 -66v59l76 65h49v-384h-49v326zM438 718q75 0 141 -28.5t115 -77.5t77.5 -115t28.5 -141t-28.5 -141t-77.5 -115t-115 -77.5t-141 -28.5t-141 28.5t-115 77.5t-77.5 115t-28.5 141t28.5 141t77.5 115t115 77.5t141 28.5zM438 677q-66 0 -123.5 -25.5
t-100.5 -69t-68 -102t-25 -124.5t25 -124.5t68 -102t100.5 -69t123.5 -25.5t123.5 25.5t100 69t67.5 102t25 124.5t-25 124.5t-67.5 102t-100 69t-123.5 25.5z" />
    <glyph glyph-name="uni2461" unicode="&#x2461;" 
d="M322 210l148 178q14 17 19.5 30t5.5 31q0 25 -16 41.5t-45 16.5q-27 0 -44 -15t-18 -47h-49q2 48 27 75q32 32 84 32q25 0 46 -7.5t35 -21.5q28 -30 28 -74q0 -26 -9.5 -44.5t-30.5 -44.5l-123 -151h165v-44h-223v45zM438 718q75 0 141 -28.5t115 -77.5t77.5 -115
t28.5 -141t-28.5 -141t-77.5 -115t-115 -77.5t-141 -28.5t-141 28.5t-115 77.5t-77.5 115t-28.5 141t28.5 141t77.5 115t115 77.5t141 28.5zM438 677q-66 0 -123.5 -25.5t-100.5 -69t-68 -102t-25 -124.5t25 -124.5t68 -102t100.5 -69t123.5 -25.5t123.5 25.5t100 69
t67.5 102t25 124.5t-25 124.5t-67.5 102t-100 69t-123.5 25.5z" />
    <glyph glyph-name="uni2461" unicode="&#x2781;" 
d="M322 210l148 178q14 17 19.5 30t5.5 31q0 25 -16 41.5t-45 16.5q-27 0 -44 -15t-18 -47h-49q2 48 27 75q32 32 84 32q25 0 46 -7.5t35 -21.5q28 -30 28 -74q0 -26 -9.5 -44.5t-30.5 -44.5l-123 -151h165v-44h-223v45zM438 718q75 0 141 -28.5t115 -77.5t77.5 -115
t28.5 -141t-28.5 -141t-77.5 -115t-115 -77.5t-141 -28.5t-141 28.5t-115 77.5t-77.5 115t-28.5 141t28.5 141t77.5 115t115 77.5t141 28.5zM438 677q-66 0 -123.5 -25.5t-100.5 -69t-68 -102t-25 -124.5t25 -124.5t68 -102t100.5 -69t123.5 -25.5t123.5 25.5t100 69
t67.5 102t25 124.5t-25 124.5t-67.5 102t-100 69t-123.5 25.5z" />
    <glyph glyph-name="uni2462" unicode="&#x2462;" 
d="M439 161q-23 0 -43.5 6.5t-37 19.5t-26.5 33t-11 48h49q2 -31 23 -47t46 -16q29 0 48.5 19t19.5 51t-18.5 50t-50.5 18h-12v43h11q29 0 46 16t17 42q0 31 -17 47.5t-44 16.5q-26 0 -42 -16t-20 -43h-49q5 50 35 76.5t76 26.5q51 0 81 -29t30 -77q0 -60 -52 -80
q27 -11 42.5 -34.5t15.5 -58.5q0 -55 -33.5 -83.5t-83.5 -28.5zM438 718q75 0 141 -28.5t115 -77.5t77.5 -115t28.5 -141t-28.5 -141t-77.5 -115t-115 -77.5t-141 -28.5t-141 28.5t-115 77.5t-77.5 115t-28.5 141t28.5 141t77.5 115t115 77.5t141 28.5zM438 677
q-66 0 -123.5 -25.5t-100.5 -69t-68 -102t-25 -124.5t25 -124.5t68 -102t100.5 -69t123.5 -25.5t123.5 25.5t100 69t67.5 102t25 124.5t-25 124.5t-67.5 102t-100 69t-123.5 25.5z" />
    <glyph glyph-name="uni2462" unicode="&#x2782;" 
d="M439 161q-23 0 -43.5 6.5t-37 19.5t-26.5 33t-11 48h49q2 -31 23 -47t46 -16q29 0 48.5 19t19.5 51t-18.5 50t-50.5 18h-12v43h11q29 0 46 16t17 42q0 31 -17 47.5t-44 16.5q-26 0 -42 -16t-20 -43h-49q5 50 35 76.5t76 26.5q51 0 81 -29t30 -77q0 -60 -52 -80
q27 -11 42.5 -34.5t15.5 -58.5q0 -55 -33.5 -83.5t-83.5 -28.5zM438 718q75 0 141 -28.5t115 -77.5t77.5 -115t28.5 -141t-28.5 -141t-77.5 -115t-115 -77.5t-141 -28.5t-141 28.5t-115 77.5t-77.5 115t-28.5 141t28.5 141t77.5 115t115 77.5t141 28.5zM438 677
q-66 0 -123.5 -25.5t-100.5 -69t-68 -102t-25 -124.5t25 -124.5t68 -102t100.5 -69t123.5 -25.5t123.5 25.5t100 69t67.5 102t25 124.5t-25 124.5t-67.5 102t-100 69t-123.5 25.5z" />
    <glyph glyph-name="uni2463" unicode="&#x2463;" 
d="M467 225h-157v42l136 282h50l-136 -282h107v101h46v-101h46v-42h-46v-60h-46v60zM438 718q75 0 141 -28.5t115 -77.5t77.5 -115t28.5 -141t-28.5 -141t-77.5 -115t-115 -77.5t-141 -28.5t-141 28.5t-115 77.5t-77.5 115t-28.5 141t28.5 141t77.5 115t115 77.5t141 28.5z
M438 677q-66 0 -123.5 -25.5t-100.5 -69t-68 -102t-25 -124.5t25 -124.5t68 -102t100.5 -69t123.5 -25.5t123.5 25.5t100 69t67.5 102t25 124.5t-25 124.5t-67.5 102t-100 69t-123.5 25.5z" />
    <glyph glyph-name="uni2463" unicode="&#x2783;" 
d="M467 225h-157v42l136 282h50l-136 -282h107v101h46v-101h46v-42h-46v-60h-46v60zM438 718q75 0 141 -28.5t115 -77.5t77.5 -115t28.5 -141t-28.5 -141t-77.5 -115t-115 -77.5t-141 -28.5t-141 28.5t-115 77.5t-77.5 115t-28.5 141t28.5 141t77.5 115t115 77.5t141 28.5z
M438 677q-66 0 -123.5 -25.5t-100.5 -69t-68 -102t-25 -124.5t25 -124.5t68 -102t100.5 -69t123.5 -25.5t123.5 25.5t100 69t67.5 102t25 124.5t-25 124.5t-67.5 102t-100 69t-123.5 25.5z" />
    <glyph glyph-name="uni2464" unicode="&#x2464;" 
d="M436 161q-29 0 -48.5 7.5t-33.5 21.5q-15 15 -20.5 30t-7.5 38h49q3 -26 18.5 -40t42.5 -14q30 0 45 18q11 12 15 30t4 40q0 18 -2.5 33t-9.5 26.5t-19 18t-31 6.5q-24 0 -38 -9.5t-22 -28.5h-46v211h211v-43h-167v-115q27 28 67 28q23 0 42 -7t31 -19q21 -20 27 -48
t6 -53q0 -34 -7 -57.5t-25 -43.5q-27 -30 -81 -30zM438 718q75 0 141 -28.5t115 -77.5t77.5 -115t28.5 -141t-28.5 -141t-77.5 -115t-115 -77.5t-141 -28.5t-141 28.5t-115 77.5t-77.5 115t-28.5 141t28.5 141t77.5 115t115 77.5t141 28.5zM438 677q-66 0 -123.5 -25.5
t-100.5 -69t-68 -102t-25 -124.5t25 -124.5t68 -102t100.5 -69t123.5 -25.5t123.5 25.5t100 69t67.5 102t25 124.5t-25 124.5t-67.5 102t-100 69t-123.5 25.5z" />
    <glyph glyph-name="uni2464" unicode="&#x2784;" 
d="M436 161q-29 0 -48.5 7.5t-33.5 21.5q-15 15 -20.5 30t-7.5 38h49q3 -26 18.5 -40t42.5 -14q30 0 45 18q11 12 15 30t4 40q0 18 -2.5 33t-9.5 26.5t-19 18t-31 6.5q-24 0 -38 -9.5t-22 -28.5h-46v211h211v-43h-167v-115q27 28 67 28q23 0 42 -7t31 -19q21 -20 27 -48
t6 -53q0 -34 -7 -57.5t-25 -43.5q-27 -30 -81 -30zM438 718q75 0 141 -28.5t115 -77.5t77.5 -115t28.5 -141t-28.5 -141t-77.5 -115t-115 -77.5t-141 -28.5t-141 28.5t-115 77.5t-77.5 115t-28.5 141t28.5 141t77.5 115t115 77.5t141 28.5zM438 677q-66 0 -123.5 -25.5
t-100.5 -69t-68 -102t-25 -124.5t25 -124.5t68 -102t100.5 -69t123.5 -25.5t123.5 25.5t100 69t67.5 102t25 124.5t-25 124.5t-67.5 102t-100 69t-123.5 25.5z" />
    <glyph glyph-name="uni2465" unicode="&#x2465;" 
d="M439 162q-50 0 -80 30.5t-30 84.5q0 20 5.5 40.5t19.5 49.5l90 182h54l-86 -170q16 11 39 11q44 0 72 -30.5t28 -82.5q0 -54 -30.5 -84.5t-81.5 -30.5zM439 208q29 0 46 18.5t17 50.5q0 33 -17 52.5t-46 19.5q-27 0 -44 -19.5t-17 -52.5t17 -51t44 -18zM438 718
q75 0 141 -28.5t115 -77.5t77.5 -115t28.5 -141t-28.5 -141t-77.5 -115t-115 -77.5t-141 -28.5t-141 28.5t-115 77.5t-77.5 115t-28.5 141t28.5 141t77.5 115t115 77.5t141 28.5zM438 677q-66 0 -123.5 -25.5t-100.5 -69t-68 -102t-25 -124.5t25 -124.5t68 -102t100.5 -69
t123.5 -25.5t123.5 25.5t100 69t67.5 102t25 124.5t-25 124.5t-67.5 102t-100 69t-123.5 25.5z" />
    <glyph glyph-name="uni2465" unicode="&#x2785;" 
d="M439 162q-50 0 -80 30.5t-30 84.5q0 20 5.5 40.5t19.5 49.5l90 182h54l-86 -170q16 11 39 11q44 0 72 -30.5t28 -82.5q0 -54 -30.5 -84.5t-81.5 -30.5zM439 208q29 0 46 18.5t17 50.5q0 33 -17 52.5t-46 19.5q-27 0 -44 -19.5t-17 -52.5t17 -51t44 -18zM438 718
q75 0 141 -28.5t115 -77.5t77.5 -115t28.5 -141t-28.5 -141t-77.5 -115t-115 -77.5t-141 -28.5t-141 28.5t-115 77.5t-77.5 115t-28.5 141t28.5 141t77.5 115t115 77.5t141 28.5zM438 677q-66 0 -123.5 -25.5t-100.5 -69t-68 -102t-25 -124.5t25 -124.5t68 -102t100.5 -69
t123.5 -25.5t123.5 25.5t100 69t67.5 102t25 124.5t-25 124.5t-67.5 102t-100 69t-123.5 25.5z" />
    <glyph glyph-name="uni2466" unicode="&#x2466;" 
d="M500 506h-128v-64h-45v107h222v-43l-130 -341h-48zM438 718q75 0 141 -28.5t115 -77.5t77.5 -115t28.5 -141t-28.5 -141t-77.5 -115t-115 -77.5t-141 -28.5t-141 28.5t-115 77.5t-77.5 115t-28.5 141t28.5 141t77.5 115t115 77.5t141 28.5zM438 677q-66 0 -123.5 -25.5
t-100.5 -69t-68 -102t-25 -124.5t25 -124.5t68 -102t100.5 -69t123.5 -25.5t123.5 25.5t100 69t67.5 102t25 124.5t-25 124.5t-67.5 102t-100 69t-123.5 25.5z" />
    <glyph glyph-name="uni2466" unicode="&#x2786;" 
d="M500 506h-128v-64h-45v107h222v-43l-130 -341h-48zM438 718q75 0 141 -28.5t115 -77.5t77.5 -115t28.5 -141t-28.5 -141t-77.5 -115t-115 -77.5t-141 -28.5t-141 28.5t-115 77.5t-77.5 115t-28.5 141t28.5 141t77.5 115t115 77.5t141 28.5zM438 677q-66 0 -123.5 -25.5
t-100.5 -69t-68 -102t-25 -124.5t25 -124.5t68 -102t100.5 -69t123.5 -25.5t123.5 25.5t100 69t67.5 102t25 124.5t-25 124.5t-67.5 102t-100 69t-123.5 25.5z" />
    <glyph glyph-name="uni2467" unicode="&#x2467;" 
d="M437 161q-51 0 -84 30.5t-33 81.5q0 32 14.5 54.5t39.5 36.5q-23 13 -35.5 33.5t-12.5 49.5q0 48 32 76.5t79 28.5t79 -28.5t32 -76.5q0 -29 -12.5 -49.5t-35.5 -33.5q25 -14 40 -36.5t15 -54.5q0 -26 -9 -46.5t-25 -35t-37.5 -22.5t-46.5 -8zM437 205q30 0 49 19.5
t19 49.5q0 29 -19.5 48t-48.5 19t-48.5 -19t-19.5 -48q0 -30 19 -49.5t49 -19.5zM437 384q27 0 44.5 17t17.5 45q0 27 -17 44.5t-45 17.5t-45 -17.5t-17 -44.5q0 -28 17.5 -45t44.5 -17zM438 718q75 0 141 -28.5t115 -77.5t77.5 -115t28.5 -141t-28.5 -141t-77.5 -115
t-115 -77.5t-141 -28.5t-141 28.5t-115 77.5t-77.5 115t-28.5 141t28.5 141t77.5 115t115 77.5t141 28.5zM438 677q-66 0 -123.5 -25.5t-100.5 -69t-68 -102t-25 -124.5t25 -124.5t68 -102t100.5 -69t123.5 -25.5t123.5 25.5t100 69t67.5 102t25 124.5t-25 124.5t-67.5 102
t-100 69t-123.5 25.5z" />
    <glyph glyph-name="uni2467" unicode="&#x2787;" 
d="M437 161q-51 0 -84 30.5t-33 81.5q0 32 14.5 54.5t39.5 36.5q-23 13 -35.5 33.5t-12.5 49.5q0 48 32 76.5t79 28.5t79 -28.5t32 -76.5q0 -29 -12.5 -49.5t-35.5 -33.5q25 -14 40 -36.5t15 -54.5q0 -26 -9 -46.5t-25 -35t-37.5 -22.5t-46.5 -8zM437 205q30 0 49 19.5
t19 49.5q0 29 -19.5 48t-48.5 19t-48.5 -19t-19.5 -48q0 -30 19 -49.5t49 -19.5zM437 384q27 0 44.5 17t17.5 45q0 27 -17 44.5t-45 17.5t-45 -17.5t-17 -44.5q0 -28 17.5 -45t44.5 -17zM438 718q75 0 141 -28.5t115 -77.5t77.5 -115t28.5 -141t-28.5 -141t-77.5 -115
t-115 -77.5t-141 -28.5t-141 28.5t-115 77.5t-77.5 115t-28.5 141t28.5 141t77.5 115t115 77.5t141 28.5zM438 677q-66 0 -123.5 -25.5t-100.5 -69t-68 -102t-25 -124.5t25 -124.5t68 -102t100.5 -69t123.5 -25.5t123.5 25.5t100 69t67.5 102t25 124.5t-25 124.5t-67.5 102
t-100 69t-123.5 25.5z" />
    <glyph glyph-name="uni2468" unicode="&#x2468;" 
d="M466 335q-8 -6 -18 -8.5t-20 -2.5q-45 0 -73 30.5t-28 82.5q0 54 30.5 84.5t81.5 30.5q50 0 80 -30.5t30 -84.5q0 -20 -5 -40t-19 -49l-90 -183h-55zM439 365q28 0 44.5 19.5t16.5 52.5t-16.5 51t-44.5 18q-29 0 -46 -18.5t-17 -50.5q0 -33 17 -52.5t46 -19.5zM438 718
q75 0 141 -28.5t115 -77.5t77.5 -115t28.5 -141t-28.5 -141t-77.5 -115t-115 -77.5t-141 -28.5t-141 28.5t-115 77.5t-77.5 115t-28.5 141t28.5 141t77.5 115t115 77.5t141 28.5zM438 677q-66 0 -123.5 -25.5t-100.5 -69t-68 -102t-25 -124.5t25 -124.5t68 -102t100.5 -69
t123.5 -25.5t123.5 25.5t100 69t67.5 102t25 124.5t-25 124.5t-67.5 102t-100 69t-123.5 25.5z" />
    <glyph glyph-name="uni2468" unicode="&#x2788;" 
d="M466 335q-8 -6 -18 -8.5t-20 -2.5q-45 0 -73 30.5t-28 82.5q0 54 30.5 84.5t81.5 30.5q50 0 80 -30.5t30 -84.5q0 -20 -5 -40t-19 -49l-90 -183h-55zM439 365q28 0 44.5 19.5t16.5 52.5t-16.5 51t-44.5 18q-29 0 -46 -18.5t-17 -50.5q0 -33 17 -52.5t46 -19.5zM438 718
q75 0 141 -28.5t115 -77.5t77.5 -115t28.5 -141t-28.5 -141t-77.5 -115t-115 -77.5t-141 -28.5t-141 28.5t-115 77.5t-77.5 115t-28.5 141t28.5 141t77.5 115t115 77.5t141 28.5zM438 677q-66 0 -123.5 -25.5t-100.5 -69t-68 -102t-25 -124.5t25 -124.5t68 -102t100.5 -69
t123.5 -25.5t123.5 25.5t100 69t67.5 102t25 124.5t-25 124.5t-67.5 102t-100 69t-123.5 25.5z" />
    <glyph glyph-name="uni2469" unicode="&#x2469;" 
d="M527 162q-44 0 -71 22q-33 28 -33 84v179q0 27 8 48.5t25 35.5q27 22 71 22t71 -22q16 -14 24 -35.5t8 -48.5v-179q0 -55 -32 -84q-27 -22 -71 -22zM527 199q32 0 47 19t15 52v176q0 33 -15 51.5t-47 18.5q-33 0 -48 -18.5t-15 -51.5v-176q0 -33 15 -52t48 -19zM304 502
l-69 -59v48l69 58h40v-384h-40v337zM438 718q75 0 141 -28.5t115 -77.5t77.5 -115t28.5 -141t-28.5 -141t-77.5 -115t-115 -77.5t-141 -28.5t-141 28.5t-115 77.5t-77.5 115t-28.5 141t28.5 141t77.5 115t115 77.5t141 28.5zM438 677q-66 0 -123.5 -25.5t-100.5 -69
t-68 -102t-25 -124.5t25 -124.5t68 -102t100.5 -69t123.5 -25.5t123.5 25.5t100 69t67.5 102t25 124.5t-25 124.5t-67.5 102t-100 69t-123.5 25.5z" />
    <glyph glyph-name="uni2469" unicode="&#x2789;" 
d="M527 162q-44 0 -71 22q-33 28 -33 84v179q0 27 8 48.5t25 35.5q27 22 71 22t71 -22q16 -14 24 -35.5t8 -48.5v-179q0 -55 -32 -84q-27 -22 -71 -22zM527 199q32 0 47 19t15 52v176q0 33 -15 51.5t-47 18.5q-33 0 -48 -18.5t-15 -51.5v-176q0 -33 15 -52t48 -19zM304 502
l-69 -59v48l69 58h40v-384h-40v337zM438 718q75 0 141 -28.5t115 -77.5t77.5 -115t28.5 -141t-28.5 -141t-77.5 -115t-115 -77.5t-141 -28.5t-141 28.5t-115 77.5t-77.5 115t-28.5 141t28.5 141t77.5 115t115 77.5t141 28.5zM438 677q-66 0 -123.5 -25.5t-100.5 -69
t-68 -102t-25 -124.5t25 -124.5t68 -102t100.5 -69t123.5 -25.5t123.5 25.5t100 69t67.5 102t25 124.5t-25 124.5t-67.5 102t-100 69t-123.5 25.5z" />
    <glyph glyph-name="uni246A" unicode="&#x246a;" 
d="M304 502l-69 -59v48l69 58h40v-384h-40v337zM509 502l-69 -59v48l69 58h40v-384h-40v337zM438 718q75 0 141 -28.5t115 -77.5t77.5 -115t28.5 -141t-28.5 -141t-77.5 -115t-115 -77.5t-141 -28.5t-141 28.5t-115 77.5t-77.5 115t-28.5 141t28.5 141t77.5 115t115 77.5
t141 28.5zM438 677q-66 0 -123.5 -25.5t-100.5 -69t-68 -102t-25 -124.5t25 -124.5t68 -102t100.5 -69t123.5 -25.5t123.5 25.5t100 69t67.5 102t25 124.5t-25 124.5t-67.5 102t-100 69t-123.5 25.5z" />
    <glyph glyph-name="uni246B" unicode="&#x246b;" 
d="M304 502l-69 -59v48l69 58h40v-384h-40v337zM425 201l137 188q13 18 19 33t6 34q0 26 -16 42.5t-45 16.5q-26 0 -44 -14.5t-18 -46.5v-9h-41v9q0 22 7.5 39.5t21.5 31.5q25 27 74 27q45 0 72 -24q14 -13 21.5 -32t7.5 -40q0 -23 -7.5 -41.5t-24.5 -41.5l-125 -171h157
v-37h-202v36zM438 718q75 0 141 -28.5t115 -77.5t77.5 -115t28.5 -141t-28.5 -141t-77.5 -115t-115 -77.5t-141 -28.5t-141 28.5t-115 77.5t-77.5 115t-28.5 141t28.5 141t77.5 115t115 77.5t141 28.5zM438 677q-66 0 -123.5 -25.5t-100.5 -69t-68 -102t-25 -124.5
t25 -124.5t68 -102t100.5 -69t123.5 -25.5t123.5 25.5t100 69t67.5 102t25 124.5t-25 124.5t-67.5 102t-100 69t-123.5 25.5z" />
    <glyph glyph-name="uni246C" unicode="&#x246c;" 
d="M304 502l-69 -59v48l69 58h40v-384h-40v337zM523 161q-20 0 -36.5 4t-30.5 14q-22 16 -31.5 37.5t-11.5 47.5h42q2 -35 21 -50.5t47 -15.5q29 0 46 17q21 18 21 57q0 22 -5 35.5t-14 23.5q-17 18 -48 18h-16v35h15q35 0 51 24q5 7 8 16t3 23q0 37 -21 55q-16 13 -41 13
q-30 0 -44 -17t-18 -47h-42q7 53 35 78q13 12 30.5 17.5t38.5 5.5q44 0 68 -20q34 -28 34 -83q0 -16 -2.5 -29t-9.5 -23q-14 -20 -38 -30q11 -4 18 -9.5t14 -12.5q24 -26 24 -73q0 -34 -11 -57t-31 -37q-26 -17 -65 -17zM438 718q75 0 141 -28.5t115 -77.5t77.5 -115
t28.5 -141t-28.5 -141t-77.5 -115t-115 -77.5t-141 -28.5t-141 28.5t-115 77.5t-77.5 115t-28.5 141t28.5 141t77.5 115t115 77.5t141 28.5zM438 677q-66 0 -123.5 -25.5t-100.5 -69t-68 -102t-25 -124.5t25 -124.5t68 -102t100.5 -69t123.5 -25.5t123.5 25.5t100 69
t67.5 102t25 124.5t-25 124.5t-67.5 102t-100 69t-123.5 25.5z" />
    <glyph glyph-name="uni246D" unicode="&#x246d;" 
d="M304 502l-69 -59v48l69 58h40v-384h-40v337zM549 225h-146v37l129 287h42l-128 -287h103v100h40v-100h43v-37h-43v-60h-40v60zM438 718q75 0 141 -28.5t115 -77.5t77.5 -115t28.5 -141t-28.5 -141t-77.5 -115t-115 -77.5t-141 -28.5t-141 28.5t-115 77.5t-77.5 115
t-28.5 141t28.5 141t77.5 115t115 77.5t141 28.5zM438 677q-66 0 -123.5 -25.5t-100.5 -69t-68 -102t-25 -124.5t25 -124.5t68 -102t100.5 -69t123.5 -25.5t123.5 25.5t100 69t67.5 102t25 124.5t-25 124.5t-67.5 102t-100 69t-123.5 25.5z" />
    <glyph glyph-name="uni246E" unicode="&#x246e;" 
d="M304 502l-69 -59v48l69 58h40v-384h-40v337zM523 161q-47 0 -74 25q-26 26 -28 70h41q6 -58 61 -58q33 0 48 21q18 24 18 73q0 26 -5 46.5t-19 32.5q-15 12 -40 12q-48 0 -61 -41h-35v207h195v-37h-158v-123q9 12 26 22q18 9 41 9q44 0 65 -22q20 -20 25.5 -47t5.5 -59
q0 -37 -6.5 -62.5t-25.5 -42.5q-27 -26 -74 -26zM438 718q75 0 141 -28.5t115 -77.5t77.5 -115t28.5 -141t-28.5 -141t-77.5 -115t-115 -77.5t-141 -28.5t-141 28.5t-115 77.5t-77.5 115t-28.5 141t28.5 141t77.5 115t115 77.5t141 28.5zM438 677q-66 0 -123.5 -25.5
t-100.5 -69t-68 -102t-25 -124.5t25 -124.5t68 -102t100.5 -69t123.5 -25.5t123.5 25.5t100 69t67.5 102t25 124.5t-25 124.5t-67.5 102t-100 69t-123.5 25.5z" />
    <glyph glyph-name="uni246F" unicode="&#x246f;" 
d="M304 502l-69 -59v48l69 58h40v-384h-40v337zM526 161q-47 0 -73 28q-14 15 -21 35t-7 49q0 23 4 42t14 41l90 193h43l-81 -175q18 12 40 12q42 0 67 -28q14 -15 20 -35t6 -52q0 -50 -26 -79q-26 -31 -76 -31zM526 198q31 0 48 22q14 19 14 53q0 36 -16 55q-8 10 -20 16
t-26 6t-25.5 -6t-19.5 -16q-15 -20 -15 -55q0 -34 12 -52q18 -23 48 -23zM438 718q75 0 141 -28.5t115 -77.5t77.5 -115t28.5 -141t-28.5 -141t-77.5 -115t-115 -77.5t-141 -28.5t-141 28.5t-115 77.5t-77.5 115t-28.5 141t28.5 141t77.5 115t115 77.5t141 28.5zM438 677
q-66 0 -123.5 -25.5t-100.5 -69t-68 -102t-25 -124.5t25 -124.5t68 -102t100.5 -69t123.5 -25.5t123.5 25.5t100 69t67.5 102t25 124.5t-25 124.5t-67.5 102t-100 69t-123.5 25.5z" />
    <glyph glyph-name="uni2470" unicode="&#x2470;" 
d="M304 502l-69 -59v48l69 58h40v-384h-40v337zM580 513h-123v-59h-37v95h200v-35l-124 -349h-39zM438 718q75 0 141 -28.5t115 -77.5t77.5 -115t28.5 -141t-28.5 -141t-77.5 -115t-115 -77.5t-141 -28.5t-141 28.5t-115 77.5t-77.5 115t-28.5 141t28.5 141t77.5 115
t115 77.5t141 28.5zM438 677q-66 0 -123.5 -25.5t-100.5 -69t-68 -102t-25 -124.5t25 -124.5t68 -102t100.5 -69t123.5 -25.5t123.5 25.5t100 69t67.5 102t25 124.5t-25 124.5t-67.5 102t-100 69t-123.5 25.5z" />
    <glyph glyph-name="uni2471" unicode="&#x2471;" 
d="M304 502l-69 -59v48l69 58h40v-384h-40v337zM528 161q-51 0 -80 31t-29 81q0 42 22 68q7 8 14 13.5t17 10.5q-22 12 -35 34q-12 21 -12 50q0 48 27 75q27 28 76 28q50 0 75 -28q27 -27 27 -75q0 -29 -12 -50q-11 -21 -35 -34q19 -9 31 -24q23 -26 23 -68q0 -26 -8 -45.5
t-22 -35.5q-29 -31 -79 -31zM528 198q33 0 53 24q15 21 15 51q0 34 -21 57q-17 18 -47 18q-31 0 -47 -18q-22 -22 -22 -57q0 -30 15 -51q19 -24 54 -24zM528 384q36 0 52 28q10 18 10 38q0 27 -18 47q-16 18 -44 18q-15 0 -26 -5t-19 -13q-17 -19 -17 -47q0 -22 9 -38
q16 -28 53 -28zM438 718q75 0 141 -28.5t115 -77.5t77.5 -115t28.5 -141t-28.5 -141t-77.5 -115t-115 -77.5t-141 -28.5t-141 28.5t-115 77.5t-77.5 115t-28.5 141t28.5 141t77.5 115t115 77.5t141 28.5zM438 677q-66 0 -123.5 -25.5t-100.5 -69t-68 -102t-25 -124.5
t25 -124.5t68 -102t100.5 -69t123.5 -25.5t123.5 25.5t100 69t67.5 102t25 124.5t-25 124.5t-67.5 102t-100 69t-123.5 25.5z" />
    <glyph glyph-name="uni2472" unicode="&#x2472;" 
d="M304 502l-69 -59v48l69 58h40v-384h-40v337zM558 340q-17 -12 -39 -12q-43 0 -68 28q-13 15 -19.5 35t-6.5 52q0 50 26 79q26 31 77 31q47 0 73 -28q14 -15 21 -35t7 -49q0 -23 -4.5 -42t-14.5 -41l-90 -193h-43zM528 364q14 0 25.5 6t19.5 16q15 20 15 55t-13 52
q-18 23 -47 23q-32 0 -48 -22q-7 -9 -11 -22t-4 -31q0 -37 16 -56q18 -21 47 -21zM438 718q75 0 141 -28.5t115 -77.5t77.5 -115t28.5 -141t-28.5 -141t-77.5 -115t-115 -77.5t-141 -28.5t-141 28.5t-115 77.5t-77.5 115t-28.5 141t28.5 141t77.5 115t115 77.5t141 28.5z
M438 677q-66 0 -123.5 -25.5t-100.5 -69t-68 -102t-25 -124.5t25 -124.5t68 -102t100.5 -69t123.5 -25.5t123.5 25.5t100 69t67.5 102t25 124.5t-25 124.5t-67.5 102t-100 69t-123.5 25.5z" />
    <glyph glyph-name="uni2473" unicode="&#x2473;" 
d="M553 161q-44 0 -71 22q-33 28 -33 84v179q0 27 8 48.5t25 35.5q27 22 71 22t71 -22q16 -14 24 -35.5t8 -48.5v-179q0 -55 -32 -84q-27 -22 -71 -22zM553 198q32 0 47 19t15 52v176q0 33 -15 51.5t-47 18.5q-33 0 -48 -18.5t-15 -51.5v-176q0 -33 15 -52t48 -19zM221 201
l137 188q13 18 19 33t6 34q0 26 -16 42.5t-45 16.5q-26 0 -44 -14.5t-18 -46.5v-9h-41v9q0 42 28 72q25 26 75 26q45 0 72 -24q14 -13 21.5 -32t7.5 -40q0 -23 -7.5 -41.5t-24.5 -41.5l-125 -171h157v-37h-202v36zM438 718q75 0 141 -28.5t115 -77.5t77.5 -115t28.5 -141
t-28.5 -141t-77.5 -115t-115 -77.5t-141 -28.5t-141 28.5t-115 77.5t-77.5 115t-28.5 141t28.5 141t77.5 115t115 77.5t141 28.5zM438 677q-66 0 -123.5 -25.5t-100.5 -69t-68 -102t-25 -124.5t25 -124.5t68 -102t100.5 -69t123.5 -25.5t123.5 25.5t100 69t67.5 102
t25 124.5t-25 124.5t-67.5 102t-100 69t-123.5 25.5z" />
    <glyph glyph-name="uni24EA" unicode="&#x24ea;" 
d="M438 161q-51 0 -81 30t-30 82v168q0 52 30 81.5t81 29.5t81 -29.5t30 -81.5v-168q0 -52 -30 -82t-81 -30zM438 206q31 0 46.5 18.5t15.5 49.5v165q0 31 -16 49.5t-46 18.5q-31 0 -46.5 -18.5t-15.5 -49.5v-165q0 -31 15 -49.5t47 -18.5zM438 718q75 0 141 -28.5
t115 -77.5t77.5 -115t28.5 -141t-28.5 -141t-77.5 -115t-115 -77.5t-141 -28.5t-141 28.5t-115 77.5t-77.5 115t-28.5 141t28.5 141t77.5 115t115 77.5t141 28.5zM438 677q-66 0 -123.5 -25.5t-100.5 -69t-68 -102t-25 -124.5t25 -124.5t68 -102t100.5 -69t123.5 -25.5
t123.5 25.5t100 69t67.5 102t25 124.5t-25 124.5t-67.5 102t-100 69t-123.5 25.5z" />
    <glyph glyph-name="uni24EB" unicode="&#x24eb;" 
d="M304 165h40v384h-40l-69 -58v-48l69 59v-337zM509 165h40v384h-40l-69 -58v-48l69 59v-337zM438 718q75 0 141 -28.5t115 -77.5t77.5 -115t28.5 -141t-28.5 -141t-77.5 -115t-115 -77.5t-141 -28.5t-141 28.5t-115 77.5t-77.5 115t-28.5 141t28.5 141t77.5 115t115 77.5
t141 28.5z" />
    <glyph glyph-name="uni24EC" unicode="&#x24ec;" 
d="M304 165h40v384h-40l-69 -58v-48l69 59v-337zM425 165h202v37h-157l125 171q17 23 24.5 41.5t7.5 41.5q0 21 -7.5 40t-21.5 32q-27 24 -72 24q-49 0 -74 -27q-14 -14 -21.5 -31.5t-7.5 -39.5v-9h41v9q0 32 18 46.5t44 14.5q29 0 45 -16.5t16 -42.5q0 -19 -6 -34t-19 -33
l-137 -188v-36zM438 718q75 0 141 -28.5t115 -77.5t77.5 -115t28.5 -141t-28.5 -141t-77.5 -115t-115 -77.5t-141 -28.5t-141 28.5t-115 77.5t-77.5 115t-28.5 141t28.5 141t77.5 115t115 77.5t141 28.5z" />
    <glyph glyph-name="uni24ED" unicode="&#x24ed;" 
d="M304 165h40v384h-40l-69 -58v-48l69 59v-337zM523 161q39 0 65 17q20 14 31 37t11 57q0 47 -24 73q-7 7 -14 12.5t-18 9.5q24 10 38 30q7 10 9.5 23t2.5 29q0 55 -34 83q-24 20 -68 20q-21 0 -38.5 -5.5t-30.5 -17.5q-28 -25 -35 -78h42q4 30 18 47t44 17q25 0 41 -13
q21 -18 21 -55q0 -14 -3 -23t-8 -16q-16 -24 -51 -24h-15v-35h16q31 0 48 -18q9 -10 14 -23.5t5 -35.5q0 -39 -21 -57q-17 -17 -46 -17q-28 0 -47 15.5t-21 50.5h-42q2 -26 11.5 -47.5t31.5 -37.5q14 -10 30.5 -14t36.5 -4zM438 718q75 0 141 -28.5t115 -77.5t77.5 -115
t28.5 -141t-28.5 -141t-77.5 -115t-115 -77.5t-141 -28.5t-141 28.5t-115 77.5t-77.5 115t-28.5 141t28.5 141t77.5 115t115 77.5t141 28.5z" />
    <glyph glyph-name="uni24EE" unicode="&#x24ee;" 
d="M304 165h40v384h-40l-69 -58v-48l69 59v-337zM549 165h40v60h43v37h-43v100h-40v-100h-103l128 287h-42l-129 -287v-37h146v-60zM438 718q75 0 141 -28.5t115 -77.5t77.5 -115t28.5 -141t-28.5 -141t-77.5 -115t-115 -77.5t-141 -28.5t-141 28.5t-115 77.5t-77.5 115
t-28.5 141t28.5 141t77.5 115t115 77.5t141 28.5z" />
    <glyph glyph-name="uni24EF" unicode="&#x24ef;" 
d="M304 165h40v384h-40l-69 -58v-48l69 59v-337zM523 161q47 0 74 26q19 17 25.5 42.5t6.5 62.5q0 32 -5.5 59t-25.5 47q-21 22 -65 22q-23 0 -41 -9q-17 -10 -26 -22v123h158v37h-195v-207h35q13 41 61 41q25 0 40 -12q14 -12 19 -32.5t5 -46.5q0 -49 -18 -73
q-15 -21 -48 -21q-55 0 -61 58h-41q2 -44 28 -70q27 -25 74 -25zM438 718q75 0 141 -28.5t115 -77.5t77.5 -115t28.5 -141t-28.5 -141t-77.5 -115t-115 -77.5t-141 -28.5t-141 28.5t-115 77.5t-77.5 115t-28.5 141t28.5 141t77.5 115t115 77.5t141 28.5z" />
    <glyph glyph-name="uni24F0" unicode="&#x24f0;" 
d="M304 165h40v384h-40l-69 -58v-48l69 59v-337zM526 161q50 0 76 31q26 29 26 79q0 32 -6 52t-20 35q-25 28 -67 28q-22 0 -40 -12l81 175h-43l-90 -193q-10 -22 -14 -41t-4 -42q0 -29 7 -49t21 -35q26 -28 73 -28zM526 198q-30 0 -48 23q-12 18 -12 52q0 35 15 55
q8 10 19.5 16t25.5 6t26 -6t20 -16q16 -19 16 -55q0 -34 -14 -53q-17 -22 -48 -22zM438 718q75 0 141 -28.5t115 -77.5t77.5 -115t28.5 -141t-28.5 -141t-77.5 -115t-115 -77.5t-141 -28.5t-141 28.5t-115 77.5t-77.5 115t-28.5 141t28.5 141t77.5 115t115 77.5t141 28.5z
" />
    <glyph glyph-name="uni24F1" unicode="&#x24f1;" 
d="M304 165h40v384h-40l-69 -58v-48l69 59v-337zM457 165h39l124 349v35h-200v-95h37v59h123zM438 718q75 0 141 -28.5t115 -77.5t77.5 -115t28.5 -141t-28.5 -141t-77.5 -115t-115 -77.5t-141 -28.5t-141 28.5t-115 77.5t-77.5 115t-28.5 141t28.5 141t77.5 115t115 77.5
t141 28.5z" />
    <glyph glyph-name="uni24F2" unicode="&#x24f2;" 
d="M304 165h40v384h-40l-69 -58v-48l69 59v-337zM528 161q50 0 79 31q14 16 22 35.5t8 45.5q0 42 -23 68q-12 15 -31 24q24 13 35 34q12 21 12 50q0 48 -27 75q-25 28 -75 28q-49 0 -76 -28q-27 -27 -27 -75q0 -29 12 -50q13 -22 35 -34q-10 -5 -17 -10.5t-14 -13.5
q-22 -26 -22 -68q0 -50 29 -81t80 -31zM528 198q-35 0 -54 24q-15 21 -15 51q0 35 22 57q16 18 47 18q30 0 47 -18q21 -23 21 -57q0 -30 -15 -51q-20 -24 -53 -24zM528 384q-37 0 -53 28q-9 16 -9 38q0 28 17 47q8 8 19 13t26 5q28 0 44 -18q18 -20 18 -47q0 -20 -10 -38
q-16 -28 -52 -28zM438 718q75 0 141 -28.5t115 -77.5t77.5 -115t28.5 -141t-28.5 -141t-77.5 -115t-115 -77.5t-141 -28.5t-141 28.5t-115 77.5t-77.5 115t-28.5 141t28.5 141t77.5 115t115 77.5t141 28.5z" />
    <glyph glyph-name="uni24F3" unicode="&#x24f3;" 
d="M304 165h40v384h-40l-69 -58v-48l69 59v-337zM477 165h43l90 193q10 22 14.5 41t4.5 42q0 29 -7 49t-21 35q-26 28 -73 28q-51 0 -77 -31q-26 -29 -26 -79q0 -32 6.5 -52t19.5 -35q25 -28 68 -28q22 0 39 12zM528 364q-29 0 -47 21q-16 19 -16 56q0 18 4 31t11 22
q16 22 48 22q29 0 47 -23q13 -17 13 -52t-15 -55q-8 -10 -19.5 -16t-25.5 -6zM438 718q75 0 141 -28.5t115 -77.5t77.5 -115t28.5 -141t-28.5 -141t-77.5 -115t-115 -77.5t-141 -28.5t-141 28.5t-115 77.5t-77.5 115t-28.5 141t28.5 141t77.5 115t115 77.5t141 28.5z" />
    <glyph glyph-name="uni24F4" unicode="&#x24f4;" 
d="M553 161q44 0 71 22q32 29 32 84v179q0 27 -8 48.5t-24 35.5q-27 22 -71 22t-71 -22q-17 -14 -25 -35.5t-8 -48.5v-179q0 -56 33 -84q27 -22 71 -22zM553 198q-33 0 -48 19t-15 52v176q0 33 15 51.5t48 18.5q32 0 47 -18.5t15 -51.5v-176q0 -33 -15 -52t-47 -19zM221 165
h202v37h-157l125 171q17 23 24.5 41.5t7.5 41.5q0 21 -7.5 40t-21.5 32q-27 24 -72 24q-50 0 -75 -26q-28 -30 -28 -72v-9h41v9q0 32 18 46.5t44 14.5q29 0 45 -16.5t16 -42.5q0 -19 -6 -34t-19 -33l-137 -188v-36zM438 718q75 0 141 -28.5t115 -77.5t77.5 -115t28.5 -141
t-28.5 -141t-77.5 -115t-115 -77.5t-141 -28.5t-141 28.5t-115 77.5t-77.5 115t-28.5 141t28.5 141t77.5 115t115 77.5t141 28.5z" />
    <glyph glyph-name="uni24FF" unicode="&#x24ff;" 
d="M437 161q51 0 81 30t30 82v168q0 52 -30 81.5t-81 29.5t-81 -29.5t-30 -81.5v-168q0 -52 30 -82t81 -30zM437 206q-32 0 -47 18.5t-15 49.5v165q0 31 15.5 49.5t46.5 18.5q30 0 46 -18.5t16 -49.5v-165q0 -31 -15.5 -49.5t-46.5 -18.5zM438 718q75 0 141 -28.5t115 -77.5
t77.5 -115t28.5 -141t-28.5 -141t-77.5 -115t-115 -77.5t-141 -28.5t-141 28.5t-115 77.5t-77.5 115t-28.5 141t28.5 141t77.5 115t115 77.5t141 28.5z" />
    <glyph glyph-name="filledbox" unicode="&#x25a0;" horiz-adv-x="1000" 
d="M856 0h-712v712h712v-712z" />
    <glyph glyph-name="uni25A1" unicode="&#x25a1;" horiz-adv-x="1000" 
d="M856 0h-712v712h712v-712zM202 658v-604h596v604h-596z" />
    <glyph glyph-name="lozenge" unicode="&#x25ca;" horiz-adv-x="649" 
d="M582 356l-257 -364l-258 364l258 364zM148 356l177 -255l176 255l-176 253z" />
    <glyph glyph-name="circle" unicode="&#x25cb;" 
d="M438 718q75 0 141 -28.5t115 -77.5t77.5 -115t28.5 -141t-28.5 -141t-77.5 -115t-115 -77.5t-141 -28.5t-141 28.5t-115 77.5t-77.5 115t-28.5 141t28.5 141t77.5 115t115 77.5t141 28.5zM438 654q-60 0 -112.5 -23t-92 -63.5t-62.5 -94.5t-23 -117t23 -117t62.5 -94.5
t92 -63.5t112.5 -23t112.5 23t92 63.5t62.5 94.5t23 117t-23 117t-62.5 94.5t-92 63.5t-112.5 23z" />
    <glyph glyph-name="uni25CF" unicode="&#x25cf;" 
d="M438 718q75 0 141 -28.5t115 -77.5t77.5 -115t28.5 -141t-28.5 -141t-77.5 -115t-115 -77.5t-141 -28.5t-141 28.5t-115 77.5t-77.5 115t-28.5 141t28.5 141t77.5 115t115 77.5t141 28.5z" />
    <glyph glyph-name="uni278A" unicode="&#x2776;" 
d="M438 -6q-75 0 -141 28.5t-115 77.5t-77.5 115t-28.5 141t28.5 141t77.5 115t115 77.5t141 28.5t141 -28.5t115 -77.5t77.5 -115t28.5 -141t-28.5 -141t-77.5 -115t-115 -77.5t-141 -28.5zM463 165v384h-49l-76 -65v-59l76 66v-326h49z" />
    <glyph glyph-name="uni278A" unicode="&#x278a;" 
d="M438 -6q-75 0 -141 28.5t-115 77.5t-77.5 115t-28.5 141t28.5 141t77.5 115t115 77.5t141 28.5t141 -28.5t115 -77.5t77.5 -115t28.5 -141t-28.5 -141t-77.5 -115t-115 -77.5t-141 -28.5zM463 165v384h-49l-76 -65v-59l76 66v-326h49z" />
    <glyph glyph-name="uni278B" unicode="&#x2777;" 
d="M438 -6q-75 0 -141 28.5t-115 77.5t-77.5 115t-28.5 141t28.5 141t77.5 115t115 77.5t141 28.5t141 -28.5t115 -77.5t77.5 -115t28.5 -141t-28.5 -141t-77.5 -115t-115 -77.5t-141 -28.5zM322 165h223v44h-165l123 151q21 26 30.5 44.5t9.5 44.5q0 44 -28 74
q-14 14 -35 21.5t-46 7.5q-52 0 -84 -32q-25 -27 -27 -75h49q1 32 18 47t44 15q29 0 45 -16.5t16 -41.5q0 -18 -5.5 -31t-19.5 -30l-148 -178v-45z" />
    <glyph glyph-name="uni278B" unicode="&#x278b;" 
d="M438 -6q-75 0 -141 28.5t-115 77.5t-77.5 115t-28.5 141t28.5 141t77.5 115t115 77.5t141 28.5t141 -28.5t115 -77.5t77.5 -115t28.5 -141t-28.5 -141t-77.5 -115t-115 -77.5t-141 -28.5zM322 165h223v44h-165l123 151q21 26 30.5 44.5t9.5 44.5q0 44 -28 74
q-14 14 -35 21.5t-46 7.5q-52 0 -84 -32q-25 -27 -27 -75h49q1 32 18 47t44 15q29 0 45 -16.5t16 -41.5q0 -18 -5.5 -31t-19.5 -30l-148 -178v-45z" />
    <glyph glyph-name="uni278C" unicode="&#x2778;" 
d="M438 -6q-75 0 -141 28.5t-115 77.5t-77.5 115t-28.5 141t28.5 141t77.5 115t115 77.5t141 28.5t141 -28.5t115 -77.5t77.5 -115t28.5 -141t-28.5 -141t-77.5 -115t-115 -77.5t-141 -28.5zM438 161q50 0 83.5 28.5t33.5 83.5q0 35 -15.5 58.5t-42.5 34.5q52 20 52 80
q0 48 -30 77t-81 29q-46 0 -76 -26.5t-35 -76.5h49q4 27 20 43t42 16q27 0 44 -16.5t17 -47.5q0 -26 -17 -42t-46 -16h-11v-43h12q32 0 50.5 -18t18.5 -50t-19.5 -51t-48.5 -19q-25 0 -46 16t-23 47h-49q1 -28 11 -48t26.5 -33t37 -19.5t43.5 -6.5z" />
    <glyph glyph-name="uni278C" unicode="&#x278c;" 
d="M438 -6q-75 0 -141 28.5t-115 77.5t-77.5 115t-28.5 141t28.5 141t77.5 115t115 77.5t141 28.5t141 -28.5t115 -77.5t77.5 -115t28.5 -141t-28.5 -141t-77.5 -115t-115 -77.5t-141 -28.5zM438 161q50 0 83.5 28.5t33.5 83.5q0 35 -15.5 58.5t-42.5 34.5q52 20 52 80
q0 48 -30 77t-81 29q-46 0 -76 -26.5t-35 -76.5h49q4 27 20 43t42 16q27 0 44 -16.5t17 -47.5q0 -26 -17 -42t-46 -16h-11v-43h12q32 0 50.5 -18t18.5 -50t-19.5 -51t-48.5 -19q-25 0 -46 16t-23 47h-49q1 -28 11 -48t26.5 -33t37 -19.5t43.5 -6.5z" />
    <glyph glyph-name="uni278D" unicode="&#x2779;" 
d="M438 718q75 0 141 -28.5t115 -77.5t77.5 -115t28.5 -141t-28.5 -141t-77.5 -115t-115 -77.5t-141 -28.5t-141 28.5t-115 77.5t-77.5 115t-28.5 141t28.5 141t77.5 115t115 77.5t141 28.5zM467 165h46v60h46v42h-46v101h-46v-101h-107l136 282h-50l-136 -282v-42h157v-60z
" />
    <glyph glyph-name="uni278D" unicode="&#x278d;" 
d="M438 718q75 0 141 -28.5t115 -77.5t77.5 -115t28.5 -141t-28.5 -141t-77.5 -115t-115 -77.5t-141 -28.5t-141 28.5t-115 77.5t-77.5 115t-28.5 141t28.5 141t77.5 115t115 77.5t141 28.5zM467 165h46v60h46v42h-46v101h-46v-101h-107l136 282h-50l-136 -282v-42h157v-60z
" />
    <glyph glyph-name="uni278E" unicode="&#x277a;" 
d="M438 -6q-75 0 -141 28.5t-115 77.5t-77.5 115t-28.5 141t28.5 141t77.5 115t115 77.5t141 28.5t141 -28.5t115 -77.5t77.5 -115t28.5 -141t-28.5 -141t-77.5 -115t-115 -77.5t-141 -28.5zM436 161q54 0 81 30q18 20 25 43.5t7 57.5q0 25 -6 53t-27 48q-12 12 -31 19
t-42 7q-40 0 -67 -28v115h167v43h-211v-211h46q8 19 22 28.5t38 9.5q19 0 31 -6.5t19 -18t9.5 -26.5t2.5 -33q0 -22 -4 -40t-15 -30q-15 -18 -45 -18q-27 0 -42.5 14t-18.5 40h-49q2 -23 7.5 -38t20.5 -30q14 -14 33.5 -21.5t48.5 -7.5z" />
    <glyph glyph-name="uni278E" unicode="&#x278e;" 
d="M438 -6q-75 0 -141 28.5t-115 77.5t-77.5 115t-28.5 141t28.5 141t77.5 115t115 77.5t141 28.5t141 -28.5t115 -77.5t77.5 -115t28.5 -141t-28.5 -141t-77.5 -115t-115 -77.5t-141 -28.5zM436 161q54 0 81 30q18 20 25 43.5t7 57.5q0 25 -6 53t-27 48q-12 12 -31 19
t-42 7q-40 0 -67 -28v115h167v43h-211v-211h46q8 19 22 28.5t38 9.5q19 0 31 -6.5t19 -18t9.5 -26.5t2.5 -33q0 -22 -4 -40t-15 -30q-15 -18 -45 -18q-27 0 -42.5 14t-18.5 40h-49q2 -23 7.5 -38t20.5 -30q14 -14 33.5 -21.5t48.5 -7.5z" />
    <glyph glyph-name="uni278F" unicode="&#x277b;" 
d="M438 -6q-75 0 -141 28.5t-115 77.5t-77.5 115t-28.5 141t28.5 141t77.5 115t115 77.5t141 28.5t141 -28.5t115 -77.5t77.5 -115t28.5 -141t-28.5 -141t-77.5 -115t-115 -77.5t-141 -28.5zM438 208q-27 0 -44 18t-17 51t17 52.5t44 19.5q29 0 46 -19.5t17 -52.5
q0 -32 -17 -50.5t-46 -18.5zM438 162q51 0 81.5 30.5t30.5 84.5q0 52 -28 82.5t-72 30.5q-23 0 -39 -11l86 170h-54l-90 -182q-14 -29 -19.5 -49.5t-5.5 -40.5q0 -54 30 -84.5t80 -30.5z" />
    <glyph glyph-name="uni278F" unicode="&#x278f;" 
d="M438 -6q-75 0 -141 28.5t-115 77.5t-77.5 115t-28.5 141t28.5 141t77.5 115t115 77.5t141 28.5t141 -28.5t115 -77.5t77.5 -115t28.5 -141t-28.5 -141t-77.5 -115t-115 -77.5t-141 -28.5zM438 208q-27 0 -44 18t-17 51t17 52.5t44 19.5q29 0 46 -19.5t17 -52.5
q0 -32 -17 -50.5t-46 -18.5zM438 162q51 0 81.5 30.5t30.5 84.5q0 52 -28 82.5t-72 30.5q-23 0 -39 -11l86 170h-54l-90 -182q-14 -29 -19.5 -49.5t-5.5 -40.5q0 -54 30 -84.5t80 -30.5z" />
    <glyph glyph-name="uni2790" unicode="&#x277c;" 
d="M438 -6q-75 0 -141 28.5t-115 77.5t-77.5 115t-28.5 141t28.5 141t77.5 115t115 77.5t141 28.5t141 -28.5t115 -77.5t77.5 -115t28.5 -141t-28.5 -141t-77.5 -115t-115 -77.5t-141 -28.5zM424 165l130 341v43h-232v-107h45v64h138l-129 -341h48z" />
    <glyph glyph-name="uni2790" unicode="&#x2790;" 
d="M438 -6q-75 0 -141 28.5t-115 77.5t-77.5 115t-28.5 141t28.5 141t77.5 115t115 77.5t141 28.5t141 -28.5t115 -77.5t77.5 -115t28.5 -141t-28.5 -141t-77.5 -115t-115 -77.5t-141 -28.5zM424 165l130 341v43h-232v-107h45v64h138l-129 -341h48z" />
    <glyph glyph-name="uni2791" unicode="&#x277d;" 
d="M438 -6q-75 0 -141 28.5t-115 77.5t-77.5 115t-28.5 141t28.5 141t77.5 115t115 77.5t141 28.5t141 -28.5t115 -77.5t77.5 -115t28.5 -141t-28.5 -141t-77.5 -115t-115 -77.5t-141 -28.5zM438 205q-30 0 -49 19t-19 50q0 29 19.5 48t48.5 19t48.5 -19t19.5 -48
q0 -31 -19 -50t-49 -19zM438 161q25 0 46.5 8t37.5 22.5t25 35t9 46.5q0 32 -15 54.5t-40 36.5q23 13 35.5 33.5t12.5 49.5q0 48 -32 76.5t-79 28.5t-79 -28.5t-32 -76.5q0 -29 12.5 -49.5t35.5 -33.5q-25 -14 -39.5 -36.5t-14.5 -54.5q0 -51 33 -81.5t84 -30.5zM438 384
q-27 0 -44.5 17t-17.5 45q0 27 17 44.5t45 17.5t45 -17.5t17 -44.5q0 -28 -17.5 -45t-44.5 -17z" />
    <glyph glyph-name="uni2791" unicode="&#x2791;" 
d="M438 -6q-75 0 -141 28.5t-115 77.5t-77.5 115t-28.5 141t28.5 141t77.5 115t115 77.5t141 28.5t141 -28.5t115 -77.5t77.5 -115t28.5 -141t-28.5 -141t-77.5 -115t-115 -77.5t-141 -28.5zM438 205q-30 0 -49 19t-19 50q0 29 19.5 48t48.5 19t48.5 -19t19.5 -48
q0 -31 -19 -50t-49 -19zM438 161q25 0 46.5 8t37.5 22.5t25 35t9 46.5q0 32 -15 54.5t-40 36.5q23 13 35.5 33.5t12.5 49.5q0 48 -32 76.5t-79 28.5t-79 -28.5t-32 -76.5q0 -29 12.5 -49.5t35.5 -33.5q-25 -14 -39.5 -36.5t-14.5 -54.5q0 -51 33 -81.5t84 -30.5zM438 384
q-27 0 -44.5 17t-17.5 45q0 27 17 44.5t45 17.5t45 -17.5t17 -44.5q0 -28 -17.5 -45t-44.5 -17z" />
    <glyph glyph-name="uni2792" unicode="&#x277e;" 
d="M438 -6q-75 0 -141 28.5t-115 77.5t-77.5 115t-28.5 141t28.5 141t77.5 115t115 77.5t141 28.5t141 -28.5t115 -77.5t77.5 -115t28.5 -141t-28.5 -141t-77.5 -115t-115 -77.5t-141 -28.5zM435 165l90 183q14 29 19 49t5 40q0 54 -30 84.5t-80 30.5q-51 0 -81.5 -30.5
t-30.5 -84.5q0 -52 28 -82.5t73 -30.5q10 0 20 2.5t18 8.5l-86 -170h55zM439 365q-29 0 -46 19.5t-17 52.5q0 32 17 50.5t46 18.5q28 0 44.5 -18t16.5 -51t-16.5 -52.5t-44.5 -19.5z" />
    <glyph glyph-name="uni2792" unicode="&#x2792;" 
d="M438 -6q-75 0 -141 28.5t-115 77.5t-77.5 115t-28.5 141t28.5 141t77.5 115t115 77.5t141 28.5t141 -28.5t115 -77.5t77.5 -115t28.5 -141t-28.5 -141t-77.5 -115t-115 -77.5t-141 -28.5zM435 165l90 183q14 29 19 49t5 40q0 54 -30 84.5t-80 30.5q-51 0 -81.5 -30.5
t-30.5 -84.5q0 -52 28 -82.5t73 -30.5q10 0 20 2.5t18 8.5l-86 -170h55zM439 365q-29 0 -46 19.5t-17 52.5q0 32 17 50.5t46 18.5q28 0 44.5 -18t16.5 -51t-16.5 -52.5t-44.5 -19.5z" />
    <glyph glyph-name="uni2793" unicode="&#x277f;" 
d="M527 162q44 0 71 22q32 29 32 84v179q0 27 -8 48.5t-24 35.5q-27 22 -71 22t-71 -22q-17 -14 -25 -35.5t-8 -48.5v-179q0 -56 33 -84q27 -22 71 -22zM527 199q-33 0 -48 19t-15 52v176q0 33 15 51.5t48 18.5q32 0 47 -18.5t15 -51.5v-176q0 -33 -15 -52t-47 -19zM304 165
h40v384h-40l-69 -58v-48l69 59v-337zM438 718q75 0 141 -28.5t115 -77.5t77.5 -115t28.5 -141t-28.5 -141t-77.5 -115t-115 -77.5t-141 -28.5t-141 28.5t-115 77.5t-77.5 115t-28.5 141t28.5 141t77.5 115t115 77.5t141 28.5z" />
    <glyph glyph-name="uni2793" unicode="&#x2793;" 
d="M527 162q44 0 71 22q32 29 32 84v179q0 27 -8 48.5t-24 35.5q-27 22 -71 22t-71 -22q-17 -14 -25 -35.5t-8 -48.5v-179q0 -56 33 -84q27 -22 71 -22zM527 199q-33 0 -48 19t-15 52v176q0 33 15 51.5t48 18.5q32 0 47 -18.5t15 -51.5v-176q0 -33 -15 -52t-47 -19zM304 165
h40v384h-40l-69 -58v-48l69 59v-337zM438 718q75 0 141 -28.5t115 -77.5t77.5 -115t28.5 -141t-28.5 -141t-77.5 -115t-115 -77.5t-141 -28.5t-141 28.5t-115 77.5t-77.5 115t-28.5 141t28.5 141t77.5 115t115 77.5t141 28.5z" />
    <glyph glyph-name="fi" unicode="&#xfb01;" horiz-adv-x="563" 
d="M283 651h-39q-35 0 -50.5 -19t-15.5 -53v-87h105v-55h-105v-437h-72v437h-63v55h63v89q0 27 7.5 51t23.5 42t39 28.5t55 10.5h52v-62zM472 0h-72v492h72v-492zM477 632h-81v81h81v-81z" />
    <glyph glyph-name="fl" unicode="&#xfb02;" horiz-adv-x="606" 
d="M283 651h-39q-35 0 -50.5 -19t-15.5 -53v-87h105v-55h-105v-437h-72v437h-63v55h63v89q0 27 7.5 51t23.5 42t39 28.5t55 10.5h52v-62zM469 134q0 -36 14 -54t52 -18h39v-62h-52q-65 0 -95 37.5t-30 93.5v581h72v-578z" />
    <glyph glyph-name="zero.sinf" horiz-adv-x="228" 
d="M114 -4q-38 1 -63 25t-25 60v120q0 38 25 61t63 23t63 -23t25 -61v-120q0 -36 -25 -60t-63 -25zM115 36q22 0 33 13.5t11 33.5v116q0 20 -11 33.5t-33 13.5q-23 0 -34 -13.5t-11 -33.5v-116q0 -20 11 -33.5t34 -13.5z" />
    <glyph glyph-name="one.sinf" horiz-adv-x="230" 
d="M110 232l-60 -51v50l60 51h43v-282h-43v232z" />
    <glyph glyph-name="two.sinf" horiz-adv-x="221" 
d="M27 37l110 126q11 11 14.5 22t3.5 23q0 16 -11 28t-31 12q-40 0 -43 -43h-43q2 38 26 59t60 21q38 0 61 -22.5t23 -54.5q0 -18 -7 -33.5t-23 -32.5l-91 -105h115v-37h-164v37z" />
    <glyph glyph-name="three.sinf" horiz-adv-x="221" 
d="M106 -3q-35 0 -61 20t-28 60h43q2 -18 15 -29.5t31 -11.5q20 0 33.5 12.5t13.5 35.5t-14 34t-34 11h-9v33h9q18 0 30.5 10.5t12.5 30.5q0 21 -12 31.5t-30 10.5q-17 0 -28 -10.5t-14 -27.5h-43q4 37 26 57.5t59 20.5q38 0 61.5 -22t23.5 -55q0 -24 -10.5 -39t-28.5 -22
q20 -8 32 -25t12 -43q0 -37 -25 -59.5t-65 -22.5z" />
    <glyph glyph-name="four.sinf" horiz-adv-x="208" 
d="M124 45h-108v38l97 199h43l-97 -199h65v70h40v-70h28v-38h-28v-45h-40v45z" />
    <glyph glyph-name="five.sinf" horiz-adv-x="221" 
d="M112 -3q-38 0 -58 16q-21 15 -26 50h41q3 -14 13 -21.5t30 -7.5q44 0 44 58q0 32 -10 46t-33 14q-17 0 -27.5 -7t-19.5 -24h-35v161h153v-35h-119v-85q13 13 25.5 18t26.5 5q36 0 58 -22t22 -71q0 -22 -5 -39t-17 -31q-21 -25 -63 -25z" />
    <glyph glyph-name="six.sinf" horiz-adv-x="229" 
d="M115 -3q-38 0 -63.5 24t-25.5 66q0 16 3.5 32.5t15.5 40.5l61 122h47l-58 -117q11 8 27 8q35 -1 58.5 -22.5t23.5 -63.5t-25.5 -66t-63.5 -24zM114 35q23 0 35 14.5t12 37.5q0 52 -47 52q-45 0 -45 -52q0 -23 11 -37.5t34 -14.5z" />
    <glyph glyph-name="seven.sinf" horiz-adv-x="215" 
d="M155 247h-84v-42h-41v77h165v-36l-94 -246h-41z" />
    <glyph glyph-name="eight.sinf" horiz-adv-x="223" 
d="M112 -3q-38 0 -65 22.5t-27 60.5q0 22 11 39t31 27q-37 19 -37 61q0 35 26 56.5t61 21.5q34 0 60 -21.5t26 -56.5q0 -41 -38 -61q43 -20 43 -66q0 -38 -27 -60.5t-64 -22.5zM112 34q20 0 33.5 13.5t13.5 33.5t-13.5 34t-33.5 14t-34.5 -14t-14.5 -34t14.5 -33.5
t34.5 -13.5zM112 163q17 0 30 12t13 30q0 17 -13 29.5t-30 12.5q-19 0 -31.5 -12.5t-12.5 -29.5q0 -18 12.5 -30t31.5 -12z" />
    <glyph glyph-name="nine.sinf" horiz-adv-x="229" 
d="M135 117q-13 -8 -28 -8q-35 1 -58.5 22.5t-23.5 63.5t25.5 66t63.5 24t63.5 -24t25.5 -66q0 -16 -3.5 -32.5t-15.5 -40.5l-61 -122h-47zM115 143q45 0 45 52q0 23 -11 37.5t-34 14.5t-35 -14.5t-12 -37.5q0 -52 47 -52z" />
    <glyph glyph-name="zero.dnom" horiz-adv-x="333" 
d="M167 -4q-54 0 -90.5 32t-36.5 89v192q0 28 9.5 50.5t27 38.5t40.5 24.5t50 8.5q54 0 90 -32.5t36 -89.5v-192q0 -57 -36 -89t-90 -32zM167 48q33 0 51 19.5t18 51.5v189q0 31 -18 51t-51 20q-34 0 -52 -19.5t-18 -51.5v-189q0 -32 18 -51.5t52 -19.5z" />
    <glyph glyph-name="one.dnom" horiz-adv-x="330" 
d="M158 363l-83 -73v66l83 71h57v-427h-57v363z" />
    <glyph glyph-name="two.dnom" horiz-adv-x="335" 
d="M41 52l175 202q14 16 19.5 29.5t5.5 33.5q0 27 -19 44.5t-53 17.5q-29 0 -50 -14.5t-21 -52.5h-56q0 54 34.5 86.5t92.5 32.5t93 -31t35 -83q0 -15 -2 -27t-7 -23t-13 -22t-20 -24l-149 -169h192v-52h-257v52z" />
    <glyph glyph-name="three.dnom" horiz-adv-x="336" 
d="M163 -4q-27 0 -51.5 7t-43.5 21.5t-30.5 37t-12.5 53.5h58q2 -37 25.5 -52.5t54.5 -15.5q33 0 56 19.5t23 53.5q0 35 -20.5 54t-61.5 19h-10v51h10q36 0 55.5 18t19.5 49q0 34 -22 51.5t-51 17.5q-32 0 -51.5 -17.5t-22.5 -46.5h-57q4 54 40.5 84.5t90.5 30.5
q58 0 94 -32.5t36 -86.5q0 -35 -15 -56.5t-45 -34.5q33 -13 50 -37.5t17 -63.5q0 -30 -10.5 -53.5t-29 -39t-43.5 -23.5t-53 -8z" />
    <glyph glyph-name="four.dnom" horiz-adv-x="321" 
d="M193 66h-169v50l151 311h57l-150 -311h111v107h55v-107h49v-50h-49v-66h-55v66z" />
    <glyph glyph-name="five.dnom" horiz-adv-x="328" 
d="M166 -4q-62 0 -92 32q-17 17 -23.5 36t-8.5 42h58q3 -29 19 -44.5t47 -15.5t48 17q14 15 17 35.5t3 43.5q0 19 -2.5 35.5t-10 29.5t-20 20.5t-32.5 7.5q-26 0 -44 -11t-24 -29h-52v232h233v-50h-182v-123q12 14 30.5 22.5t46.5 8.5q50 0 77 -29q24 -25 31 -54.5t7 -59.5
q0 -34 -6.5 -62t-29.5 -51q-15 -15 -37.5 -24t-52.5 -9z" />
    <glyph glyph-name="six.dnom" horiz-adv-x="332" 
d="M165 -4q-58 0 -93.5 34t-35.5 93q0 23 6 45.5t23 55.5l107 203h62l-100 -189q9 5 19 8t24 3q51 0 84 -34t33 -89q0 -58 -35 -94t-94 -36zM165 48q32 0 52 20.5t20 55.5q0 33 -19 55t-53 22q-32 0 -52 -20.5t-20 -56.5q0 -35 20 -55.5t52 -20.5z" />
    <glyph glyph-name="seven.dnom" horiz-adv-x="317" 
d="M231 375h-137v-70h-53v122h246v-51l-147 -376h-56z" />
    <glyph glyph-name="eight.dnom" horiz-adv-x="332" 
d="M166 -4q-29 0 -53.5 8.5t-42.5 25t-28.5 39t-10.5 51.5q0 38 18.5 62.5t44.5 38.5q-24 14 -40 36.5t-16 55.5q0 26 10 48t27 37.5t40.5 24t50.5 8.5t50 -8.5t40.5 -24t27 -37.5t9.5 -48q0 -33 -15.5 -55.5t-40.5 -36.5q27 -14 45.5 -38.5t18.5 -62.5q0 -29 -10.5 -51.5
t-29 -39t-43 -25t-52.5 -8.5zM166 47q34 0 56 21t22 53t-22.5 53t-55.5 21t-55.5 -21t-22.5 -53t22 -53t56 -21zM166 246q31 0 50.5 18.5t19.5 48.5q0 29 -19 48t-51 19t-51 -19t-19 -48q0 -30 19 -48.5t51 -18.5z" />
    <glyph glyph-name="nine.dnom" horiz-adv-x="323" 
d="M190 185q-9 -3 -19.5 -5t-21.5 -2q-48 0 -79.5 34t-31.5 89q0 58 34.5 94t90.5 36t90 -34t34 -93q0 -23 -6.5 -45.5t-22.5 -54.5l-100 -204h-62zM163 226q30 0 48.5 20.5t18.5 56.5q0 35 -18 55.5t-49 20.5t-49 -20.5t-18 -55.5q0 -33 17.5 -55t49.5 -22z" />
    <glyph glyph-name="grave.lc" horiz-adv-x="530" 
d="M299 594h-69l-105 153h83z" />
    <glyph glyph-name="dieresis.lc" horiz-adv-x="530" 
d="M407 602h-72v89h72v-89zM195 602h-72v89h72v-89z" />
    <glyph glyph-name="macron.lc" horiz-adv-x="530" 
d="M416 614h-301v56h301v-56z" />
    <glyph glyph-name="acute.lc" horiz-adv-x="530" 
d="M303 594h-69l91 153h83z" />
    <glyph glyph-name="cedilla.lc" horiz-adv-x="530" 
d="M236 -67h66l-59 -149h-78z" />
    <glyph glyph-name="uni02C0.lc" horiz-adv-x="530" 
d="M241 770q48 0 76 -27t28 -69t-28 -69t-76 -27v45q23 0 38.5 14.5t15.5 36.5t-15.5 36.5t-38.5 14.5v45z" />
    <glyph glyph-name="circumflex.lc" horiz-adv-x="530" 
d="M425 594h-69l-91 104l-90 -104h-69l125 153h68z" />
    <glyph glyph-name="caron.lc" horiz-adv-x="530" 
d="M300 594h-68l-126 153h69l91 -105l90 105h69z" />
    <glyph glyph-name="breve.lc" horiz-adv-x="530" 
d="M430 729q-12 -139 -165 -139t-165 139h56q5 -40 34 -61.5t75 -21.5t75 21.5t34 61.5h56z" />
    <glyph glyph-name="dotaccent.lc" horiz-adv-x="530" 
d="M301 602h-72v89h72v-89z" />
    <glyph glyph-name="ring.lc" horiz-adv-x="530" 
d="M265 805q24 0 45.5 -9t37.5 -25t25.5 -37.5t9.5 -46.5q0 -24 -9.5 -46t-25.5 -38t-37.5 -25.5t-45.5 -9.5t-45.5 9.5t-37.5 25.5t-25.5 38t-9.5 46t9.5 45.5t25.5 37.5t37.5 25.5t45.5 9.5zM265 755q-29 0 -49 -19.5t-20 -48.5t20 -49t49 -20t49 20t20 49t-20 48.5
t-49 19.5z" />
    <glyph glyph-name="ogonek.lc" horiz-adv-x="530" 
d="M237 -69h64l-58 -147h-77z" />
    <glyph glyph-name="tilde.lc" horiz-adv-x="530" 
d="M201 706q22 0 37 -6t34 -18q16 -9 28.5 -14.5t27.5 -5.5q6 0 11.5 1t12.5 4t15.5 9.5t19.5 17.5l37 -36q-17 -17 -30.5 -27.5t-25 -15.5t-21 -6.5t-18.5 -1.5q-21 0 -37 6.5t-34 17.5q-14 8 -27.5 14t-28.5 6q-13 0 -25 -5t-34 -27l-37 36q17 17 30.5 27t25 15.5t21 7
t18.5 1.5z" />
    <glyph glyph-name="hungarumlaut.lc" horiz-adv-x="530" 
d="M381 594h-65l89 153h85zM199 594h-66l89 153h85z" />
    <glyph glyph-name="grave.uc" horiz-adv-x="650" 
d="M366 780h-69l-105 154h83z" />
    <glyph glyph-name="dieresis.uc" horiz-adv-x="650" 
d="M467 789h-72v89h72v-89zM255 789h-72v89h72v-89z" />
    <glyph glyph-name="acute.uc" horiz-adv-x="650" 
d="M354 780h-69l91 154h83z" />
    <glyph glyph-name="cedilla.uc" horiz-adv-x="650" 
d="M299 -69h63l-58 -147h-75z" />
    <glyph glyph-name="circumflex.uc" horiz-adv-x="650" 
d="M485 780h-69l-91 104l-90 -104h-69l125 153h68z" />
    <glyph glyph-name="caron.uc" horiz-adv-x="650" 
d="M359 780h-68l-125 153h69l90 -104l91 104h69z" />
    <glyph glyph-name="ring.uc" horiz-adv-x="650" 
d="M325 987q24 0 45.5 -9t37.5 -25t25.5 -37.5t9.5 -46.5q0 -24 -9.5 -46t-25.5 -38t-37.5 -25.5t-45.5 -9.5t-45.5 9.5t-37.5 25.5t-25.5 38t-9.5 46t9.5 45.5t25.5 37.5t37.5 25.5t45.5 9.5zM325 937q-29 0 -49 -19.5t-20 -48.5t20 -49t49 -20t49 20t20 49t-20 48.5
t-49 19.5z" />
    <glyph glyph-name="tilde.uc" horiz-adv-x="650" 
d="M261 893q22 0 37 -6t34 -18q16 -10 28.5 -15t27.5 -5q6 0 11.5 1t12.5 4t15.5 9.5t19.5 17.5l37 -37q-17 -17 -31 -27t-25 -15t-20.5 -6.5t-18.5 -1.5q-22 0 -37.5 6t-33.5 17q-14 8 -27.5 14.5t-28.5 6.5q-13 0 -25 -5t-34 -27l-37 36q17 17 30.5 27t25 15.5t21 7
t18.5 1.5z" />
    </font>
</defs>
</svg>
