<?xml version="1.0" encoding="UTF-8" standalone="no"?>
<svg width="24px" height="24px" viewBox="0 0 24 24" version="1.1" xmlns="http://www.w3.org/2000/svg" xmlns:xlink="http://www.w3.org/1999/xlink">
    <!-- Generator: sketchtool 3.8.1 (29687) - http://www.bohemiancoding.com/sketch -->
    <title>9C3EBEA7-C1FD-4760-8A81-C02F0273F9C4</title>
    <desc>Created with sketchtool.</desc>
    <defs></defs>
    <g id="Page-1" stroke="none" stroke-width="1" fill="none" fill-rule="evenodd">
        <g id="3" transform="translate(-278.000000, -74.000000)">
            <g id="Group-33" transform="translate(56.000000, 55.000000)">
                <g id="2">
                    <g id="Group-8" transform="translate(0.000000, 1.000000)">
                        <g id="Add" transform="translate(222.000000, 18.000000)">
                            <path d="M11.52,23.0407418 C5.16764248,23.0407418 0,17.8723575 0,11.52 C0,5.16764248 5.16764248,0 11.52,0 C17.8723575,0 23.04,5.16764248 23.04,11.52 C23.0407418,17.8723575 17.8723575,23.0407418 11.52,23.0407418 L11.52,23.0407418 Z" id="Shape" fill="#0A2F5D"></path>
                            <path d="M16.715385,12.42375 L5.6875655,12.42375 C5.24630864,12.42375 4.8879,12.00795 4.8879,11.4924 C4.8879,10.9779 5.24540811,10.56 5.6875655,10.56 L16.715385,10.56 C17.1566419,10.56 17.51415,10.9779 17.51415,11.4924 C17.51415,12.00795 17.1575424,12.42375 16.715385,12.42375 L16.715385,12.42375 Z" id="Shape" fill="#FFFFFF"></path>
                            <path d="M11.4509205,18.56205 C11.0096636,18.56205 10.651255,18.1452 10.651255,17.6307 L10.651255,4.7724 C10.651255,4.2579 11.0096636,3.84 11.4509205,3.84 C11.8921773,3.84 12.2496854,4.2579 12.2496854,4.7724 L12.2496854,17.6307 C12.2496854,18.14625 11.8930779,18.56205 11.4509205,18.56205 L11.4509205,18.56205 Z" id="Shape" fill="#FFFFFF"></path>
                        </g>
                    </g>
                </g>
            </g>
        </g>
    </g>
</svg>