<?xml version="1.0" encoding="UTF-8" standalone="no"?>
<svg width="25px" height="20px" viewBox="0 0 25 20" version="1.1" xmlns="http://www.w3.org/2000/svg" xmlns:xlink="http://www.w3.org/1999/xlink">
    <!-- Generator: sketchtool 3.8.1 (29687) - http://www.bohemiancoding.com/sketch -->
    <title>7ACDE6C1-E857-4DA0-84DF-D93008B7C0CA</title>
    <desc>Created with sketchtool.</desc>
    <defs></defs>
    <g id="Page-1" stroke="none" stroke-width="1" fill="none" fill-rule="evenodd">
        <g id="1" transform="translate(-16.000000, -142.000000)" fill="#FFFFFF">
            <g id="Side-Header" transform="translate(0.000000, -10.000000)">
                <g id="Analysis-Icon" transform="translate(16.000000, 152.000000)">
                    <path d="M18.8994872,17.3948718 L5.20358974,17.3948718 C4.59846154,17.3948718 4.10820513,17.8851282 4.10820513,18.4902564 C4.10820513,19.0953846 4.59846154,19.5861538 5.20358974,19.5861538 L18.8984615,19.5861538 C19.5041026,19.5861538 19.994359,19.0953846 19.994359,18.4902564 C19.994359,17.8851282 19.5035897,17.3948718 18.8994872,17.3948718 L18.8994872,17.3948718 Z" id="Shape"></path>
                    <path d="M3.83487179,9.1774359 L3.83487179,11.9164103 C3.83487179,12.3702564 4.20307692,12.7384615 4.65641026,12.7384615 C5.11025641,12.7384615 5.47846154,12.3702564 5.47846154,11.9164103 L5.47846154,9.1774359 C5.47846154,8.72358974 5.11025641,8.35589744 4.65641026,8.35589744 C4.2025641,8.35641026 3.83487179,8.72410256 3.83487179,9.1774359 L3.83487179,9.1774359 Z" id="Shape"></path>
                    <path d="M6.57333333,8.0825641 L6.57333333,11.9169231 C6.57333333,12.3707692 6.94153846,12.7389744 7.39538462,12.7389744 C7.84871795,12.7389744 8.21692308,12.3707692 8.21692308,11.9169231 L8.21692308,8.0825641 C8.21692308,7.62871795 7.84871795,7.26051282 7.39538462,7.26051282 C6.94153846,7.26051282 6.57333333,7.62871795 6.57333333,8.0825641 L6.57333333,8.0825641 Z" id="Shape"></path>
                    <path d="M9.31230769,6.98666667 L9.31230769,11.9164103 C9.31230769,12.3702564 9.68051282,12.7384615 10.134359,12.7384615 C10.5876923,12.7384615 10.9558974,12.3702564 10.9558974,11.9164103 L10.9558974,6.98666667 C10.9558974,6.53282051 10.5876923,6.16461538 10.134359,6.16461538 C9.68051282,6.16461538 9.31230769,6.53282051 9.31230769,6.98666667 L9.31230769,6.98666667 Z" id="Shape"></path>
                    <path d="M23.0066667,0.413333333 L1.09589744,0.413333333 C0.490769231,0.413333333 0,0.904102564 0,1.50923077 L0,15.2041026 C0,15.8092308 0.490769231,16.3 1.09589744,16.3 L22.0051282,16.3 C21.9733333,16.2717949 21.9369231,16.2487179 21.9071795,16.2194872 L20.3907692,14.7020513 C19.5164103,15.1958974 18.5261538,15.46 17.5112821,15.46 C16.1276923,15.46 14.8179487,14.9830769 13.7646154,14.1097436 L2.19076923,14.1097436 L2.19076923,2.60410256 L21.9112821,2.60410256 L21.9112821,5.69230769 C22.8630769,6.76666667 23.3897436,8.13076923 23.3897436,9.58 C23.3897436,10.5948718 23.1261538,11.5846154 22.6328205,12.4579487 L24.1020513,13.9282051 L24.1020513,1.50871795 C24.1025641,0.904102564 23.6117949,0.413333333 23.0066667,0.413333333 L23.0066667,0.413333333 Z" id="Shape"></path>
                    <path d="M21.7287179,13.1046154 C21.6194872,12.9948718 21.4728205,12.9502564 21.3302564,12.965641 L21.1,12.7353846 C21.8692308,11.8615385 22.2938462,10.7553846 22.2938462,9.58102564 C22.2938462,8.30410256 21.7969231,7.10307692 20.894359,6.2 C19.9902564,5.29487179 18.7897436,4.79846154 17.5112821,4.79846154 C16.2348718,4.79846154 15.034359,5.29538462 14.1307692,6.2 C13.2261538,7.10307692 12.7287179,8.30410256 12.7287179,9.58102564 C12.7287179,10.8579487 13.2271795,12.0594872 14.1307692,12.9625641 C15.034359,13.8666667 16.2348718,14.3630769 17.5112821,14.3630769 C18.6871795,14.3630769 19.7928205,13.9389744 20.665641,13.1687179 L20.8969231,13.3984615 C20.8815385,13.5420513 20.925641,13.6871795 21.0358974,13.7979487 L22.6835897,15.445641 C22.7794872,15.5415385 22.9046154,15.5882051 23.0307692,15.5882051 C23.1553846,15.5882051 23.2815385,15.5410256 23.3779487,15.445641 C23.5687179,15.2538462 23.5687179,14.9435897 23.3779487,14.7528205 L21.7287179,13.1046154 L21.7287179,13.1046154 Z M20.2005128,12.2676923 C19.4825641,12.9861538 18.5271795,13.3830769 17.5112821,13.3830769 C16.4969231,13.3830769 15.5420513,12.9871795 14.8241026,12.2687179 C14.1066667,11.5512821 13.7102564,10.5958974 13.7102564,9.58051282 C13.7102564,8.56564103 14.105641,7.61076923 14.8241026,6.89282051 C15.5420513,6.17435897 16.4979487,5.77846154 17.5112821,5.77846154 C18.5271795,5.77846154 19.4825641,6.17384615 20.2005128,6.89282051 C20.9174359,7.61076923 21.3133333,8.56564103 21.3133333,9.58051282 C21.3133333,10.5958974 20.9174359,11.5497436 20.2005128,12.2676923 L20.2005128,12.2676923 Z" id="Shape"></path>
                </g>
            </g>
        </g>
    </g>
</svg>