<?xml version="1.0" encoding="UTF-8" standalone="no"?>
<svg width="613px" height="492px" viewBox="0 0 613 492" version="1.1" xmlns="http://www.w3.org/2000/svg" xmlns:xlink="http://www.w3.org/1999/xlink">
    <!-- Generator: sketchtool 3.8.1 (29687) - http://www.bohemiancoding.com/sketch -->
    <title>54663DA6-2E5B-4EF9-B37E-762EF8897BDB</title>
    <desc>Created with sketchtool.</desc>
    <defs></defs>
    <g id="Page-1" stroke="none" stroke-width="1" fill="none" fill-rule="evenodd" opacity="0.117945429">
        <g id="3" transform="translate(-145.000000, -768.000000)">
            <g id="Group-33" transform="translate(56.000000, 55.000000)">
                <g id="2">
                    <g id="Group-8" transform="translate(0.000000, 1.000000)">
                        <g id="logo" transform="translate(55.000000, 712.000000)">
                            <g id="Shape">
                                <path d="M468.481208,276.954271 C468.601548,279.93535 468.659211,282.913926 468.649182,285.85746 L468.641661,288.092643 L482.335312,303.416041 L494.537253,289.629489 L492.421281,287.341742 C484.78974,282.85886 476.759574,279.37718 468.481208,276.954271 L468.481208,276.954271 Z M469.112991,244.798163 L502.364346,280.788874 L516.225971,265.120062 L515.125365,263.903602 C497.851608,252.867852 483.265438,246.770532 469.112991,244.798163 L469.112991,244.798163 Z M657.08606,493.964817 C657.08606,493.964817 618.752862,505.275897 561.017399,495.729435 C542.139113,492.610691 541.296736,498.760574 550.678216,502.707813 C535.227104,510.687394 493.173404,501.684084 493.173404,501.684084 C474.560868,497.231238 468.140246,502.820449 479.231552,507.934088 C478.093339,510.204314 434.457674,517.55564 370.770412,481.499851 C352.408584,471.102368 347.765479,470.096159 347.765479,470.096159 C348.457432,476.82674 341.174375,492.74335 320.661476,492.74335 C313.350841,492.74335 303.78133,490.435579 291.802519,484.693685 C284.689943,481.279586 277.344209,481.579947 276.536931,481.945386 C278.367096,483.679968 280.924314,486.283094 280.924314,491.449296 C280.924314,507.228241 263.352216,512.644744 246.462042,512.644744 C209.525285,512.644744 193.051286,497.776893 182.604298,497.776893 C182.604298,497.776893 175.694796,512.534612 112.704501,499.193594 C48.3904695,485.574743 0.154319266,510.782508 0.154319266,510.782508 C0.154319266,510.782508 3.4887309,502.600184 32.5758315,492.608188 C42.3258517,489.26167 57.5061994,487.534596 57.5061994,482.195686 C57.5061994,476.859279 49.7392766,477.918051 49.7392766,477.918051 C55.32755,471.973413 70.7636195,469.730721 81.6643877,469.723212 C99.5498709,469.715703 117.189661,473.915745 132.502883,474.318729 C152.213518,474.839354 157.445787,472.594159 160.361516,469.633104 L160.38408,469.615582 C159.945342,467.858473 159.474011,465.878596 160.338953,464.053905 C162.046272,460.442069 167.479106,460.832537 169.103692,461.035281 C172.197424,461.42575 175.398961,461.888806 180.024517,463.015158 C185.006078,422.286258 175.960546,390.172702 151.719624,362.364315 L130.838185,360.204222 C127.511294,359.858807 125.084444,356.875225 125.427914,353.55624 C125.776397,350.229746 128.769847,347.806837 132.089216,348.152252 L144.017885,349.386233 C154.46738,339.922371 163.660829,324.368697 168.233736,308.316925 L151.117926,305.959094 C149.513397,305.73883 148.089377,304.905329 147.111618,303.613778 C146.131351,302.324731 145.715176,300.732819 145.938306,299.128393 C146.156421,297.528973 146.991278,296.104763 148.287436,295.126088 C149.581088,294.149916 151.178096,293.734417 152.782624,293.957185 L170.838589,296.445172 C173.117521,281.875179 171.981816,267.565498 167.556826,254.897789 L153.236405,252.054375 C149.954642,251.401091 147.818613,248.204753 148.467946,244.930823 C149.122293,241.654389 152.321322,239.519326 155.600578,240.170107 L168.055734,242.645579 C174.579147,235.154085 182.017643,225.437419 186.447647,213.580683 L180.593623,212.301648 C177.326903,211.590794 175.251043,208.354409 175.96556,205.092993 C176.682584,201.826571 179.926741,199.75158 183.190954,200.469942 L189.604056,201.869122 C191.073203,193.086077 190.644493,184.150349 188.287841,174.643935 L180.087194,172.689088 C176.833009,171.908151 174.819826,168.636723 175.592006,165.392828 C175.968067,163.815935 176.935799,162.481833 178.317198,161.635818 C179.698597,160.787299 181.328197,160.526986 182.907655,160.90494 L211.152378,167.635521 C211.380522,166.063634 211.49334,164.489243 211.490833,162.927368 C211.488326,160.737239 211.285253,158.662247 210.871585,156.634813 L200.98869,154.274479 C197.731998,153.493542 195.721322,150.217108 196.501023,146.97071 C197.280724,143.726816 200.55998,141.716903 203.814165,142.490331 L213.112911,144.713 C223.95351,135.3843 229.479106,129.124284 232.62298,122.681549 C235.656543,116.46909 236.827347,109.32301 236.644331,97.7065632 L231.552458,96.2047601 C228.343401,95.2536182 226.505714,91.8770642 227.455896,88.6757207 C227.914691,87.1238575 228.95262,85.8448218 230.37664,85.0713932 C231.800659,84.2979647 233.442794,84.1277603 234.997181,84.5858102 L238.524638,85.6270604 C251.563942,76.2457971 263.387315,65.5429471 264.861476,51.1481645 L261.083312,49.8265778 C257.926902,48.7202495 256.257189,45.2585934 257.36281,42.10731 C257.896817,40.5804768 258.997424,39.3515013 260.45905,38.6506599 C261.918168,37.9498184 263.565317,37.8572072 265.094634,38.3928503 L300.075871,50.6250365 C305.278055,40.8633164 305.473607,32.5483333 304.989741,27.9828519 L300.629935,26.3533956 C299.09059,25.7626864 297.849587,24.5762619 297.192733,23.0894769 C296.5434,21.6127038 296.505794,19.9782415 297.09245,18.4864504 C298.373566,15.2350467 301.672879,13.7883098 304.937092,15.0423153 L359.127549,35.309148 L361.431552,7.18037618 C361.679753,3.06793873 365.214731,-0.0933567663 369.338871,0.119398671 C373.488083,0.334657113 376.692126,3.8789124 376.474011,8.0188829 L374.721564,41.14115 L446.012789,67.8006578 C447.542106,68.3788519 448.788123,69.5602704 449.444977,71.0420494 C450.104338,72.5238285 450.141944,74.1683028 449.552781,75.6701059 C448.758038,77.6850251 447.17858,79.0091148 445.313315,79.4196076 C447.72763,89.8971872 449.324637,105.686144 443.884281,122.84925 L449.221847,124.49873 C450.763699,124.974301 452.082421,126.073121 452.832037,127.512348 C453.586667,128.951576 453.724556,130.588542 453.228155,132.122884 C452.598879,134.077731 451.225001,135.456887 449.520189,136.045093 C453.366044,148.034488 454.148252,161.107684 451.839235,175.006871 L451.623626,176.308434 L524.060585,256.261927 L525.088487,255.100533 C525.983513,254.074301 527.257108,253.443543 528.656056,253.350932 C530.17033,253.253315 531.712182,253.791461 532.888001,254.827705 C535.212061,256.880169 535.545502,260.201657 533.680237,262.454362 L484.260747,326.238442 L484.205591,335.416962 C484.205591,336.938789 484.032603,338.973732 482.683796,340.993657 C481.670937,342.510478 480.109029,344.668069 477.266004,348.582769 C475.260343,351.346086 472.515094,355.13063 468.957553,360.089083 C466.540731,363.450619 464.349546,366.569364 462.358928,369.492874 L462.394027,369.610515 L462.43414,369.780719 C464.201629,377.229663 465.367419,383.27442 466.137092,388.022621 C468.711859,385.301854 474.207371,380.148167 478.83042,380.148167 C479.306764,380.148167 479.775587,380.195724 480.226861,380.293341 C484.303367,381.174399 485.800092,384.195526 486.602356,385.817473 L486.732724,386.077786 C487.296817,385.980169 488.026376,385.809964 488.698272,385.654778 C490.806724,385.169195 493.479267,384.558462 496.282179,384.641061 L496.45266,384.643564 C497.613436,384.653576 500.702154,384.676103 504.640771,387.003898 C509.697544,389.992486 511.856137,395.756907 509.895603,401.02323 C508.932886,403.593816 505.814083,407.939033 500.205753,407.939033 C499.89989,407.939033 499.586505,407.926518 499.273121,407.898985 L498.799283,407.856434 C498.282826,407.808876 497.801467,407.763822 497.340165,407.763822 C496.415054,407.763822 495.90361,407.939033 495.387152,408.429622 C495.066246,408.734988 494.915822,409.606034 494.757876,410.52714 C494.489619,412.086512 494.156178,414.026341 492.682017,415.708361 C491.874738,416.63197 490.939599,417.182631 490.187476,417.625663 C489.874091,417.810885 489.397747,418.091222 489.284928,418.221378 C489.207209,418.361546 488.943966,418.812087 489.896655,420.33892 C495.424758,429.214576 516.341297,442.372875 532.913072,451.846749 C555.093177,464.526973 576.997504,472.989633 590.773889,477.677762 C619.878539,487.32935 640.697301,490.638323 657.08606,493.964817 L657.08606,493.964817 Z" fill="#F1F5F8"></path>
                                <path d="M373.681128,133.699777 C379.28695,133.612172 388.979308,134.127791 398.65913,136.5507 C399.178095,136.680856 399.5341,137.171445 399.441338,137.699579 C399.203166,139.031178 398.914852,140.382801 398.578903,141.746939 C398.458564,142.237528 397.929571,142.507852 397.465762,142.307612 C389.428075,138.818423 380.370007,136.408029 373.538224,134.528272 C373.066894,134.398116 373.189741,133.707286 373.681128,133.699777 L373.681128,133.699777 Z M390.616429,161.948693 C389.906926,163.217717 389.172353,164.446692 388.417723,165.623105 C387.552781,166.962213 385.855491,167.480335 384.361273,166.919661 C369.231067,161.232834 353.910323,157.510865 339.903287,154.444684 C339.457027,154.347067 339.53224,153.698788 339.988528,153.676261 C350.648617,153.140618 369.376477,154.244443 389.237537,158.8725 C390.603893,159.192885 391.298354,160.722221 390.616429,161.948693 L390.616429,161.948693 Z M336.092531,145.428859 C335.00446,147.396221 333.808584,149.406134 332.502397,151.453593 C331.797909,152.557418 330.491722,153.128103 329.195564,152.935372 C303.894148,149.163343 276.068107,149.456195 276.068107,149.456195 C274.190307,149.476219 274.137658,149.093259 275.950275,148.605173 C275.950275,148.605173 298.042632,142.645518 334.969361,143.441473 C335.969684,143.464 336.576397,144.550304 336.092531,145.428859 L336.092531,145.428859 Z M278.311941,240.325293 C285.632604,237.22407 303.573243,233.762414 325.901265,233.146675 C326.563133,233.129154 327.026943,233.782438 326.808827,234.405686 C326.227185,236.05767 325.595402,237.699641 324.918491,239.326594 C324.778095,239.6645 324.389498,240.570588 324.389498,240.570588 C324.389498,240.570588 323.496979,240.492995 323.063255,240.457953 C306.070291,239.071288 287.99427,239.824692 278.44983,240.75581 C278.186587,240.783343 278.071261,240.427917 278.311941,240.325293 L278.311941,240.325293 Z M358.974617,143.939571 C366.989741,143.664241 380.899001,144.417645 395.402438,147.81172 C396.11194,147.979422 396.510565,148.730323 396.269886,149.416146 C395.723343,150.947986 395.131673,152.469813 394.49989,153.969113 C394.204055,154.664948 393.409312,154.997848 392.707331,154.720014 C381.234949,150.192078 369.155855,147.256053 358.859292,144.73803 C358.39799,144.625395 358.50078,143.954589 358.974617,143.939571 L358.974617,143.939571 Z M250.826862,258.967676 C250.378095,259.032754 250.235192,258.39699 250.653874,258.226786 C261.013113,254.039258 284.266247,248.915607 318.046595,248.169711 C319.255006,248.144681 320.062284,249.42622 319.453065,250.469973 C318.485333,252.121957 317.464953,253.751413 316.391924,255.34833 C315.89803,256.084214 315.296332,256.935235 315.296332,256.935235 C315.296332,256.935235 312.919624,256.79757 312.114852,256.752516 C287.871423,255.360845 264.555612,257.03035 250.826862,258.967676 L250.826862,258.967676 Z M314.067865,123.955578 C314.067865,123.955578 325.547767,120.806798 344.24805,121.975701 C344.749466,122.00824 345.085414,122.493823 344.970088,122.981909 C344.639154,124.371077 344.255572,125.805299 343.814326,127.284575 C343.658887,127.807703 343.127387,128.125585 342.59338,128.015452 C329.478863,125.372279 314.188204,124.951774 314.188204,124.951774 C312.312911,124.901714 312.257755,124.453676 314.067865,123.955578 L314.067865,123.955578 Z M369.401548,71.2247688 C374.327953,71.2222658 379.841014,71.6052256 385.419259,72.4962954 C389.05452,73.0619746 392.692288,73.9355234 396.192167,74.9842825 C396.971868,75.214559 397.460747,75.9804786 397.360464,76.7839432 C397.255167,77.627456 397.134827,78.4784777 396.999445,79.3320025 C396.891641,80.0278379 396.152054,80.4208097 395.500214,80.1554911 C394.738062,79.8451185 393.980925,79.5422549 393.221281,79.2443973 L392.759979,79.0641809 C390.172676,78.0554698 387.582866,77.0993219 384.993056,76.203246 L384.373809,75.9904906 C379.329571,74.268423 374.310404,72.776632 369.353914,71.5551655 L369.401548,71.2247688 L369.401548,71.2247688 Z M333.124152,111.618266 C333.124152,111.618266 338.138305,110.209074 346.065681,111.040072 C346.454278,111.082623 346.727549,111.433043 346.697464,111.821009 C346.644816,112.639492 346.569603,113.488011 346.474334,114.366565 C346.434221,114.729501 346.08323,114.967287 345.729733,114.882185 C339.607452,113.427939 333.239478,112.849744 333.239478,112.849744 C331.369199,112.67954 331.319057,112.126376 333.124152,111.618266 L333.124152,111.618266 Z M382.882098,63.4454288 C385.652417,63.4604468 388.726093,63.6406632 391.814811,64.0811921 C393.579793,64.3339956 395.349789,64.6719013 397.077165,65.1099272 C397.626214,65.2801316 398.037375,65.7456905 398.037375,66.3163757 C398.034868,67.0772893 398.022333,67.8582269 397.994755,68.6591885 C397.979712,69.1147355 397.515903,69.4201021 397.099728,69.2323767 C396.876599,69.1297535 396.650962,69.0296333 396.422818,68.9295131 C394.865923,68.2411867 393.293986,67.5728843 391.701993,66.929612 C388.818855,65.7632116 385.875547,64.6844164 382.882098,63.7357774 L382.882098,63.4454288 L382.882098,63.4454288 Z M336.202842,50.5374313 C338.995725,50.0843873 342.132078,49.7464817 345.336122,49.6789005 C347.594997,49.6288404 349.886465,49.7164456 352.112749,49.9867701 C352.493825,50.0318242 352.777124,50.3697299 352.731997,50.7501867 C352.631714,51.6412565 352.501346,52.5598594 352.338386,53.5009894 C352.278216,53.8639251 351.91469,54.0841896 351.558685,53.9940814 C349.430177,53.4509293 347.30167,52.9328072 345.195725,52.4597392 C342.132078,51.7739158 339.106037,51.1832066 336.167743,50.7501867 L336.202842,50.5374313 L336.202842,50.5374313 Z M297.503611,224.371139 C302.668188,222.236075 316.18133,220.36633 329.611738,220.193623 C330.105632,220.188617 330.471666,220.644164 330.378904,221.129747 C330.120675,222.508903 329.827347,223.888059 329.501427,225.267214 C329.441257,225.515012 329.268269,226.220859 329.268269,226.220859 C329.268269,226.220859 328.618936,226.153278 328.320594,226.120739 C317.033736,224.961848 303.854035,224.628948 297.606401,224.749092 L297.503611,224.371139 L297.503611,224.371139 Z M295.262284,134.738524 C295.262284,134.738524 311.954399,131.006544 340.407209,132.338142 C341.079106,132.370681 341.532887,133.041487 341.287193,133.664735 C340.670452,135.214095 340.103853,136.465598 339.304096,138.12509 C338.955612,138.848459 338.160869,139.246437 337.368633,139.108771 C317.85355,135.702181 295.380117,135.642109 295.380117,135.642109 C293.502317,135.637103 293.449668,135.231616 295.262284,134.738524 L295.262284,134.738524 Z M395.369846,87.2740378 C395.164265,88.0274423 394.94615,88.7758409 394.715499,89.5192334 C394.364508,90.6455857 393.120998,91.2212769 392.03042,90.775742 C388.826376,89.4641673 385.622333,88.2151677 382.435838,87.0387553 C378.424516,85.5544732 374.435758,84.1803234 370.474577,82.9188088 C363.29431,80.6310621 356.216833,78.7137602 349.312345,77.2044481 C349.034059,77.141873 349.07668,76.7288771 349.364993,76.7288771 C356.349708,76.7263741 364.171787,77.3145803 372.089134,78.633664 C376.468997,79.3620385 380.883958,80.3156835 385.198637,81.5171259 C388.146959,82.3356086 391.05266,83.2742356 393.873121,84.3330067 C395.058968,84.7785416 395.70078,86.0550743 395.369846,87.2740378 L395.369846,87.2740378 Z M393.90822,408.01162 C392.516793,406.742596 389.026942,403.428617 388.465357,401.458752 C388.227185,400.622749 387.986506,399.589008 387.427428,398.823088 C387.104015,398.372547 386.680319,397.977072 386.13879,397.679215 C399.98788,395.111131 414.187961,393.401579 428.881936,392.625647 C430.601791,392.535539 430.777286,393.69443 430.677003,394.725669 C430.468916,396.95084 430.305956,399.213557 430.205672,401.461255 C430.105389,403.653888 430.032684,405.711358 429.982543,407.681223 C429.959979,408.547263 429.651609,408.855133 428.525931,408.897684 C423.378903,409.082906 418.332159,409.380764 413.355612,409.783748 C413.791843,406.056773 415.11558,403.150784 415.326174,402.277235 C415.677165,400.830498 415.584403,398.502703 412.578418,397.831898 C409.940974,397.241189 408.293825,398.828094 408.080723,400.264819 C407.910242,401.411195 408.221119,404.189531 408.043117,405.11314 C407.814973,406.282043 407.749789,408.87766 401.868188,409.946443 C398.313153,410.592218 395.485171,409.445842 393.90822,408.01162 L393.90822,408.01162 Z M377.975749,469.145018 C380.48784,470.917145 383.213032,472.904531 385.218693,474.326238 C392.266085,479.31723 404.257432,485.807523 413.307977,489.529491 C421.651528,492.961111 423.509271,493.486743 424.502074,493.897235 C425.311859,494.235141 425.778176,494.760772 425.514933,495.353984 C425.251689,495.947197 424.471989,495.872106 423.597019,495.644333 C422.651851,495.401541 414.842308,492.981136 410.452417,491.384218 C406.062527,489.787301 395.234464,486.010266 389.312749,483.246949 C385.496979,481.467312 375.398475,476.11839 373.889215,474.949486 C371.444815,473.067227 371.184079,471.189973 372.269644,469.620588 C373.352701,468.051204 375.516308,467.407932 377.975749,469.145018 L377.975749,469.145018 Z M436.668915,462.036483 C436.423222,462.399419 436.874496,463.165338 438.326093,464.169043 C439.780197,465.170245 449.437456,472.506553 459.703934,477.677762 C469.977933,482.846468 485.94801,489.982535 496.728438,493.887223 C499.122696,494.758269 498.942187,495.659351 498.666408,496.194994 C498.39063,496.730637 497.407856,496.748158 495.141459,496.029796 C484.636809,492.69329 463.647565,484.974022 453.829854,480.165749 C445.032522,475.858077 425.632765,465.200281 420.250072,462.091549 C419.593218,461.713595 419.029126,461.671044 418.800982,461.85877 C418.535232,462.071525 418.492611,462.426952 418.680642,462.697276 C420.581006,465.403025 443.891803,482.325843 465.457674,491.714615 C466.814002,492.305324 467.468349,493.141328 467.079752,493.817139 C466.590873,494.670664 465.252094,494.578053 464.143966,494.225129 C459.112264,492.630715 441.550193,484.994046 427.889134,477.342359 C413.433331,469.252647 404.463012,463.147817 401.51469,459.653622 C398.982543,456.650016 397.907007,451.756641 401.238912,447.74933 C404.495604,443.839636 410.40729,444.205074 413.992409,445.421535 C417.246594,446.527863 419.941702,448.04969 422.11283,448.204876 C424.311536,448.362566 426.236971,445.844543 430.631875,446.482809 C438.606886,447.639197 444.613841,457.508547 472.322049,472.043497 C491.074981,481.882811 511.374779,489.231634 513.433088,490.050116 C514.754318,490.575748 514.879671,491.414254 514.368228,492.177671 C513.957067,492.795913 512.929166,492.981136 511.908786,492.715817 C508.699728,491.882316 487.961192,486.255561 468.762001,477.590157 C458.284928,472.86198 448.299243,468.299002 440.329247,463.410633 C437.965074,461.951381 436.907088,461.673547 436.668915,462.036483 L436.668915,462.036483 Z M528.237375,494.102482 C529.230177,494.527993 529.538547,494.943492 529.368066,495.564237 C529.207613,496.167461 528.297544,496.462816 527.061556,496.475331 C525.82306,496.487846 523.478944,496.102383 522.473606,495.69189 C521.465761,495.2839 521.425648,494.3678 521.711455,493.804624 C522.082502,493.073747 522.879752,493.011172 523.724637,493.053723 C524.569522,493.10128 527.249586,493.676971 528.237375,494.102482 L528.237375,494.102482 Z M311.415378,208.769907 C314.762325,207.520908 324.384484,207.12293 331.115984,207.470848 C331.502074,207.493375 331.797909,207.813759 331.787881,208.199222 C331.755289,209.385647 331.695119,210.577077 331.609878,211.771011 L331.55723,212.43681 L330.852741,212.301648 C324.311779,211.075175 314.992976,209.781122 311.44797,209.167885 L311.415378,208.769907 L311.415378,208.769907 Z M531.020229,455.138201 C567.280076,475.868089 602.652417,485.412048 604.372271,485.882613 C606.09714,486.353178 606.237536,487.539602 603.898434,487.32935 C601.559331,487.119097 556.735312,473.965805 533.529813,461.811212 C511.377286,449.634092 498.924637,442.803391 497.79896,442.160119 C496.67579,441.516847 496.201952,441.269049 495.896089,441.624476 C495.412223,442.180143 495.630339,442.648205 496.389983,443.399107 C498.719057,445.68435 507.097706,451.896809 518.151406,458.992829 C529.242712,466.116381 552.520917,477.069532 554.127953,477.815427 C555.790144,478.586353 555.837779,480.148228 553.548818,479.312224 C552.112263,478.786593 517.113476,463.788587 501.419178,454.04689 C485.72488,444.307697 474.400416,434.871368 470.903044,428.453663 C468.709352,424.423825 468.491236,418.058683 472.211738,414.346726 C475.927225,410.634769 481.392652,410.752411 483.232846,408.915205 C485.07304,407.077999 485.205915,403.393575 487.685414,401.213458 C490.167419,399.03334 495.853468,398.32499 498.340488,398.32499 C500.830015,398.32499 502.066004,396.823187 502.066004,395.316378 C502.066004,393.809569 500.10547,391.96986 495.537577,391.96986 C490.194997,391.96986 483.633978,394.53544 481.525527,393.156284 C479.913477,392.100016 480.389821,389.842306 478.306441,388.745989 C475.954803,387.507002 468.809635,392.875948 468.325769,393.251399 C467.859453,393.59431 467.12488,394.170001 466.786424,393.80206 C466.407856,393.391567 467.072231,392.690725 467.581168,392.079992 C468.075062,391.484277 475.503529,383.154276 479.419583,384.000292 C483.333129,384.846307 482.861798,388.893667 485.063012,389.792245 C486.928276,390.553159 491.531269,388.287939 496.161839,388.430611 C496.994188,388.455641 499.35084,388.282933 502.705308,390.267816 C505.761434,392.072483 507.784645,395.819482 506.333048,399.706649 C506.132482,400.254807 504.297302,404.532443 499.591519,404.131962 C497.641014,403.966764 495.036162,403.533744 492.76475,405.691334 C490.493339,407.848925 491.506198,411.298066 489.818936,413.220374 C488.84619,414.331708 486.95084,414.702153 486.020715,416.286555 C485.529328,417.127565 484.599202,419.029849 486.665033,422.343827 C488.535312,425.349937 494.757876,434.408312 531.020229,455.138201 L531.020229,455.138201 Z M478.329004,459.891408 C478.040691,460.454584 479.15634,462.374389 489.683553,467.495537 C500.055329,472.541596 516.098111,480.163246 537.949789,487.669759 C544.004378,489.749756 541.685332,490.405543 537.646432,489.171562 C533.068511,487.769879 498.917116,476.764165 481.427751,467.740832 C464.349546,458.927751 451.009393,451.025763 446.511698,446.512845 C443.824112,443.817108 443.07951,439.181543 445.894957,436.360656 C448.186425,434.067903 452.368228,433.652405 456.056137,436.007732 C458.287435,437.431942 480.638022,453.67144 509.491964,468.061216 C538.348414,482.450993 567.011818,488.993848 571.582219,490.272884 C576.152619,491.55192 576.661556,492.077551 576.661556,492.077551 C576.661556,492.077551 578.74995,493.641929 570.77494,492.302821 C565.69811,491.449296 543.949222,487.356883 510.457189,473.755553 C498.821847,469.029879 488.322211,463.956288 480.224354,459.994031 C479.206481,459.490927 478.617318,459.328231 478.329004,459.891408 L478.329004,459.891408 Z M374.430743,428.926731 C371.199122,427.905505 366.851851,424.681634 363.256704,423.207364 C367.122616,422.288761 371.011091,421.432733 374.919623,420.639281 C376.275952,421.38017 377.772676,422.283755 378.640125,423.440144 C380.309838,425.660309 379.429854,427.58512 378.502236,428.438645 C377.57211,429.294673 376.005187,429.424829 374.430743,428.926731 L374.430743,428.926731 Z M460.9675,423.973284 C460.9675,425.828011 459.460747,427.332317 457.603004,427.332317 C455.74526,427.332317 454.238507,425.828011 454.238507,423.973284 C454.238507,422.118557 455.74526,420.614251 457.603004,420.614251 C459.460747,420.614251 460.9675,422.118557 460.9675,423.973284 L460.9675,423.973284 Z M386.015944,434.27315 C387.978984,431.547377 392.165802,432.613657 394.84336,434.540971 C397.525931,436.468285 397.9045,439.479401 396.320028,441.674536 C394.735555,443.872175 391.759656,444.472896 389.07207,442.548085 C386.392005,440.620771 384.050396,436.996419 386.015944,434.27315 L386.015944,434.27315 Z M463.492126,396.883259 C460.646594,399.203545 458.440367,401.583903 454.241014,406.977879 C449.427427,413.157798 447.033169,421.327607 442.382543,425.755423 C442.482826,405.148182 445.747039,393.141266 458.5582,375.097102 C458.98691,374.493878 459.924556,374.686609 460.095038,375.407475 C460.756906,378.205835 462.383998,385.905078 463.492126,396.883259 L463.492126,396.883259 Z M381.207371,419.427826 C385.19613,418.696949 389.204945,418.033652 393.238831,417.455458 C395.161758,421.367655 396.746231,426.466277 392.932967,427.995613 C388.207128,429.890388 383.819745,424.083416 381.207371,419.427826 L381.207371,419.427826 Z M319.909353,61.1576821 C324.036,60.2691153 328.78691,59.5807889 333.893825,59.3730394 C336.603974,59.2629072 339.414407,59.2879373 342.290024,59.4906807 C344.709353,59.663388 347.176316,59.9437246 349.653307,60.4017746 C350.13968,60.4918827 350.427994,60.9974898 350.265034,61.4680547 C349.914043,62.4742628 349.522939,63.4979919 349.091722,64.536739 C348.883635,65.0398431 348.344613,65.3276887 347.813113,65.2150534 C343.272798,64.2338754 338.5971,63.3853567 334.044249,62.7320723 L333.600497,62.6694972 C328.781896,61.9986918 324.116227,61.5506539 319.926902,61.3954676 L319.909353,61.1576821 L319.909353,61.1576821 Z M429.922373,416.364148 C429.975021,420.491604 430.140488,424.491406 430.39621,428.871665 C423.293663,427.935541 416.379146,423.592827 414.230582,417.870957 C413.902155,416.994905 413.661475,416.118854 413.503529,415.252814 C418.324637,414.902393 423.168309,414.67462 428.042066,414.584511 C429.491156,414.559481 429.912345,415.340419 429.922373,416.364148 L429.922373,416.364148 Z M214.812709,181.649847 C217.949062,175.502466 219.46835,169.375109 219.460829,162.924865 C219.455815,159.568335 219.049668,156.76497 218.575831,154.589858 L236.86746,158.960105 L237.248536,159.092764 L249.335151,161.981232 C249.340166,161.991244 250.42573,164.168859 251.258079,167.362693 C251.543886,168.451501 250.681451,169.467721 249.555774,169.540308 C244.255815,169.878214 237.669725,171.445095 235.616429,172.481339 C235.378257,172.601483 235.433413,172.889329 235.656543,172.886826 C238.624921,172.864299 245.49431,173.470026 250.052175,173.910555 C251.28315,174.028196 252.210768,175.099482 252.085414,176.328458 L252.040287,176.72143 C251.882341,177.985447 250.766692,178.87902 249.493097,178.95411 C235.837052,179.755072 228.285738,182.756175 226.132159,183.854994 C225.487841,184.182888 225.723506,184.665968 226.227428,184.640938 C230.456866,184.433188 239.550032,184.668471 246.294068,184.928783 C247.156502,184.961323 247.572677,186.017591 246.923344,186.585773 C244.303449,188.883532 240.497707,190.740761 235.074901,191.787018 C222.800255,193.221239 213.135475,195.488962 209.665681,196.760489 C209.239478,196.915675 209.337254,197.528911 209.836162,197.51139 C223.048455,197.020801 243.092531,198.647755 254.562406,200.024407 C255.532644,200.142049 256.242147,201.008088 256.131836,201.976751 C256.024031,202.92539 255.171625,203.61622 254.221443,203.503585 L254.22395,203.506088 C235.318087,201.260892 217.129248,200.464936 200.524881,201.338485 C207.424355,194.542826 211.558524,188.030007 214.812709,181.649847 L214.812709,181.649847 Z M239.888488,125.920437 C244.042713,117.250027 244.865034,107.645997 244.584242,96.1071429 L276.093178,105.410813 C275.910161,106.749921 275.709595,108.089029 275.466409,109.418124 C275.318491,110.236607 274.681694,110.882382 273.869401,111.060096 C267.258241,112.50433 261.948253,114.802088 259.992733,115.713182 C259.777125,115.813302 259.814731,116.123675 260.052903,116.106154 C264.001548,115.838332 269.035758,115.760739 272.63592,115.893399 C273.340408,115.920932 273.806724,116.61927 273.606158,117.295081 C273.370493,118.078522 273.122292,118.854454 272.859049,119.620373 C272.583271,120.423838 271.861233,120.984511 271.021362,121.122176 C261.715095,122.671537 253.637295,125.162027 250.658888,126.553697 C250.335475,126.706381 250.398152,127.184455 250.754157,127.154419 C256.044088,126.731411 263.058888,126.446068 268.506765,126.601255 C269.123506,126.618776 269.519624,127.277066 269.21376,127.815212 C268.832685,128.478508 268.436567,129.126787 268.022899,129.760047 C267.54154,130.493428 266.739276,130.948975 265.871827,131.076628 C253.16095,132.94387 240.096575,136.896115 235.914771,138.778375 C235.488568,138.971106 235.664064,139.596857 236.127873,139.544294 C242.197505,138.878495 251.403489,138.713296 258.024678,138.715799 C258.448374,138.715799 258.616348,139.261455 258.262851,139.494234 C243.017319,149.523776 221.945342,147.568929 221.945342,147.568929 C230.248779,140.142512 236.238184,133.544591 239.888488,125.920437 L239.888488,125.920437 Z M263.061395,74.233381 C269.283958,66.479071 272.530622,58.5095027 272.939276,49.9642431 L292.722616,56.8850523 L292.740165,56.8950643 C292.617319,57.4932826 292.431795,58.2842322 292.156017,59.2203561 C291.917844,60.0313298 291.371302,60.7196562 290.48129,60.9449267 C288.182301,61.5281269 286.126498,61.8635296 284.055653,62.6394611 C283.809959,62.7320723 283.809959,62.9498338 284.05816,62.9798698 C285.632604,63.1700982 287.936607,63.6306512 289.165074,63.9435268 C289.791844,64.1037192 289.944775,64.8871598 289.64894,65.462851 L289.325527,66.0735842 C288.91186,66.8370008 287.969199,67.8031608 287.101751,67.7881427 C283.987962,67.7255676 278.866005,68.1135334 277.075952,68.7668177 C276.411577,69.0096092 276.486789,69.3174789 276.920513,69.4075871 C278.610283,69.7504988 282.696817,70.829294 284.647323,71.3949731 C285.28412,71.5801955 284.9582,72.306067 284.682422,72.6039246 C283.631957,73.737786 282.829692,74.6263528 281.581168,75.7451961 C280.949385,76.3133782 280.1045,76.175713 279.292208,75.9254125 L272.109434,73.7052469 C270.692935,73.259712 269.665034,73.8929723 269.248859,75.1820199 C268.855248,76.4009834 269.614893,77.667504 270.768148,78.0304398 L276.875386,79.9302207 C277.238912,80.0428559 277.284039,80.3607376 276.985697,80.6010261 C271.781007,84.7835477 256.264711,89.2914599 247.67296,88.7733379 L247.670453,88.7783439 L247.652903,88.7758409 C253.060667,84.6358704 258.5637,79.8376095 263.061395,74.233381 L263.061395,74.233381 Z M312.413194,26.7213373 L435.43042,72.7265719 C436.10733,74.6563888 436.869482,77.1118369 437.571463,79.9877898 C438.100456,83.0414561 437.819664,83.997604 436.804298,83.5745962 C431.474253,81.3469216 428.109757,80.067886 421.739275,79.1718101 L421.661556,79.5247338 C428.854358,83.1040312 432.61748,85.424317 436.668915,89.2814479 C438.722211,91.2387979 439.406643,92.6705169 438.947848,93.5766047 C438.494067,94.4626685 437.30822,94.5778068 436.300375,94.1422839 C426.705794,89.9772833 418.963942,87.2139657 410.444896,86.1852305 C410.211738,86.1576975 410.131512,86.4855912 410.34712,86.5706933 C420.134747,90.4653693 430.326012,96.5727019 438.155612,102.166918 C439.506926,103.133078 440.076032,104.251922 439.434221,105.273148 C438.917763,106.099139 438.163133,106.211775 436.576154,105.395795 C425.522454,99.7139733 412.984565,95.4939067 401.567339,93.6341738 L401.459534,93.9870976 C413.16006,99.2659354 425.610201,106.404506 435.726255,113.392896 C437.192894,114.406614 438.052822,115.7282 437.298192,117.057296 C436.691479,118.123576 435.47304,118.514045 433.68048,117.337633 L433.605268,117.290075 C381.515741,81.8675467 315.717521,71.7829389 285.948495,77.6024259 C312.480885,57.8987694 313.378419,35.7671979 312.413194,26.7213373 L312.413194,26.7213373 Z M360.340974,100.990506 L361.268592,89.3815681 C362.725204,89.794564 364.186829,90.2225778 365.650962,90.6681127 L365.004136,102.432237 L360.340974,100.990506 L360.340974,100.990506 Z M319.560869,84.0076161 C319.621039,83.6421773 320.380683,83.6471833 321.062608,83.7047524 C329.707007,84.7109605 338.256138,86.1451825 346.687436,87.9848912 C350.377852,88.8133859 354.198637,89.7445039 358.265115,90.783251 L358.395483,90.8182931 L358.019421,95.4413436 C349.166934,92.250012 322.243441,85.0964233 320.934747,84.7960627 C320.34057,84.6583974 319.500699,84.3655458 319.560869,84.0076161 L319.560869,84.0076161 Z M283.366207,102.820203 L249.515661,92.8257032 C261.188609,92.0722986 272.698597,92.4602644 283.892693,93.9770855 C283.950356,96.5877199 283.814973,99.546272 283.366207,102.820203 L283.366207,102.820203 Z M383.38602,112.85475 L393.767824,124.311005 C389.568471,123.660224 385.662446,124.033171 383.325851,124.361065 C382.826942,124.431149 382.663982,125.111967 383.157876,125.217093 C386.40454,125.902916 394.780683,127.827727 399.388689,130.513452 L423.168309,156.762467 L423.346311,157.278086 L423.042955,157.538398 C417.166368,156.847569 411.808746,156.687376 407.458968,157.125402 C407.012709,157.170456 406.947525,157.783693 407.37122,157.928867 C411.575588,159.383113 415.54429,160.987539 419.282341,162.694589 C421.250396,163.593168 422.373566,165.720722 421.942349,167.838264 C421.531188,169.835662 419.553105,171.062135 417.532401,170.744253 C408.123343,169.259971 399.626861,168.716819 393.424354,169.224929 C392.90539,169.26748 392.830177,169.993352 393.324071,170.161053 C401.118572,172.821748 407.902721,175.737749 413.912183,178.786409 C415.880238,179.780102 416.602276,182.268089 415.30361,184.050229 C413.939761,185.922476 411.34243,186.247867 409.299162,185.156557 C348.279429,151.974218 281.210121,152.377202 258.628884,156.351974 C292.512022,120.348748 288.941945,92.3576412 286.269401,82.8287006 L383.38602,112.85475 L383.38602,112.85475 Z M428.786667,162.967416 L452.34065,188.961125 C452.959898,189.644445 452.551245,190.728246 451.643683,190.878427 C448.981168,191.318956 446.461556,192.002276 444.395725,192.758184 C443.846675,192.955921 443.999607,193.761889 444.578742,193.764392 C447.677488,193.774404 451.515822,193.972141 455.103448,194.249975 C456.507411,194.360107 457.818612,195.008385 458.761273,196.049635 L463.431956,201.205826 C463.965964,201.794032 463.504661,202.727653 462.709918,202.685102 C457.500213,202.39225 451.666247,202.362214 447.750193,203.701322 C447.183594,203.894053 447.359089,204.720045 447.955774,204.730057 C453.674415,204.835183 460.872231,206.169285 467.686465,207.726154 C469.060343,208.041533 470.303853,208.787428 471.249021,209.833685 L475.017156,213.993679 C475.496008,214.524316 475.067298,215.377841 474.355288,215.270212 C466.628479,214.08629 457.013841,213.255293 451.107169,215.195122 C450.52302,215.387853 450.718572,216.233869 451.332805,216.248887 C459.774132,216.481666 470.547039,218.769413 480.693177,221.900672 C482.059534,222.321177 483.285494,223.117133 484.245705,224.175904 L486.690104,226.876647 C487.138871,227.369739 486.707654,228.153179 486.055814,228.010508 C475.949789,225.795348 462.389012,224.253497 454.464144,226.77152 C453.862446,226.964252 454.078054,227.827789 454.709837,227.850316 C465.816186,228.233275 480.337173,230.891467 493.619663,235.967561 C494.963456,236.480677 496.156825,237.321687 497.119542,238.385464 L508.012789,250.404895 L508.025324,250.41741 C496.12674,243.879561 485.306198,239.772129 474.651123,237.697138 C460.912344,235.018922 447.145988,235.827393 432.63503,240.170107 C421.927306,207.500884 425.707977,177.557433 428.786667,162.967416 L428.786667,162.967416 Z M462.085656,248.930625 L466.778903,254.011725 C467.272797,254.544866 466.84158,255.410905 466.122049,255.318294 C456.201548,254.04927 445.927549,253.984192 437.426053,255.586116 C436.643845,255.733793 436.769199,256.870157 437.563942,256.907702 C448.359413,257.408303 461.531592,258.797471 474.262526,263.53566 C475.603812,264.036261 476.802195,264.864756 477.769926,265.916018 L486.381734,275.219688 C476.716954,270.751824 466.558281,267.663115 456.477326,266.181336 C440.800577,263.876069 425.387072,265.315297 410.622899,270.456469 C403.442632,244.810679 402.607775,217.955936 408.123343,190.543024 L421.41837,204.927795 C422.045139,218.634251 423.679753,232.050358 427.934261,244.407695 C428.302801,245.478981 429.471099,246.092217 430.541621,245.714263 C431.068107,245.529041 431.594593,245.348825 432.118572,245.171111 C441.522615,242.48789 449.710727,244.635468 458.485494,246.920712 C459.846837,247.276139 461.13046,247.896884 462.085656,248.930625 L462.085656,248.930625 Z M457.412466,289.636998 C458.753752,290.135096 459.949627,290.96359 460.919866,292.014853 L467.327953,298.940668 C445.915013,287.399311 421.801952,285.371877 395.404945,292.960988 C386.800658,266.361553 384.293582,236.558271 388.407694,210.256693 L397.706441,220.659182 C398.917359,222.085895 399.930218,223.470057 399.84247,226.628849 C398.952458,242.698142 401.088487,260.542066 405.608746,275.892996 C405.771706,276.446161 406.160303,276.909216 406.67676,277.167026 C407.195725,277.427339 407.797423,277.457375 408.341459,277.254631 C409.54987,276.80409 410.770816,276.376076 411.994269,275.965584 C423.268592,272.338729 436.611253,273.374973 444.217723,275.760337 C445.586586,276.190854 446.692207,276.558796 447.298919,277.159517 L449.933857,280.11056 C450.425244,280.646203 449.996534,281.512243 449.274496,281.419632 C439.353994,280.150608 429.082502,280.08553 420.581006,281.687453 C419.798798,281.835131 419.921645,282.971495 420.718895,283.00904 C431.506845,283.507138 444.679025,284.898809 457.412466,289.636998 L457.412466,289.636998 Z M463.692692,305.721309 C463.818046,304.780179 463.960949,303.508652 464.111374,301.941771 C467.099809,303.491131 470.035596,305.235726 472.916226,307.165543 L463.692692,305.721309 L463.692692,305.721309 Z M424.559736,299.588946 C424.331592,297.629093 424.085899,295.7193 423.822656,293.867076 C430.995402,296.625388 438.351164,299.641509 445.8749,302.930458 L424.559736,299.588946 L424.559736,299.588946 Z M358.192409,281.607357 L358.413032,277.497423 C369.747525,279.865266 380.17947,282.906417 389.164832,286.620876 C389.530865,287.962487 389.91194,289.299092 390.310565,290.625685 C380.700942,287.251634 370.04336,284.132889 358.192409,281.607357 L358.192409,281.607357 Z M354.767743,288.653317 L345.44894,287.194065 L346.684929,271.758032 C349.605673,272.296178 352.579065,272.879378 355.600092,273.507632 L354.767743,288.653317 L354.767743,288.653317 Z M343.019583,278.829021 C336.689215,277.850346 330.060505,277.046882 323.108382,276.463682 C307.00543,275.114562 290.844816,275.00443 274.784484,276.123273 L256.292289,273.224793 C284.341459,270.153606 315.612224,270.686746 343.34801,274.819207 L343.019583,278.829021 L343.019583,278.829021 Z M382.636405,193.839482 L397.260181,197.33618 L397.272717,197.396252 C398.135151,201.438605 398.255491,204.437206 396.465438,209.310557 L399.649425,212.874836 C400.105713,213.382946 400.058079,214.158878 399.551649,214.611921 C399.042713,215.064965 398.263012,215.019911 397.811738,214.514304 L364.510242,177.252067 C364.056461,176.74646 364.099082,175.968025 364.608018,175.514981 C365.116955,175.06444 365.896655,175.106991 366.345422,175.615101 L370.314124,180.055432 C377.679914,183.32686 384.882745,187.061344 391.789741,191.31395 L377.281289,187.847287 L382.636405,193.839482 L382.636405,193.839482 Z M353.840125,182.303131 L354.928196,168.714316 C357.029126,169.277492 359.142591,169.870705 361.263578,170.493953 L360.526498,183.900048 L353.840125,182.303131 L353.840125,182.303131 Z M312.180036,167.395232 L312.395645,163.297813 C325.234383,165.345271 338.551973,168.451501 351.686546,172.849281 L351.250315,178.185688 C337.887598,173.645236 324.64522,170.151041 312.180036,167.395232 L312.180036,167.395232 Z M303.377691,170.186083 L304.192491,159.983834 C306.030178,160.131511 307.900457,160.301716 309.798313,160.491944 L309.452337,166.799517 L309.444816,166.907146 L309.189094,171.572748 L303.377691,170.186083 L303.377691,170.186083 Z M271.367339,160.031391 C280.565802,160.006361 290.646757,160.534495 301.206563,161.758465 L300.935798,165.057426 C290.117764,162.939883 280.099486,161.342966 271.367339,160.031391 L271.367339,160.031391 Z M251.859777,157.871298 L227.215216,151.981727 C237.29617,151.57624 247.324476,151.728923 257.194836,152.317129 C255.517602,154.146826 253.740085,155.99905 251.859777,157.871298 L251.859777,157.871298 Z M254.993623,163.385418 L254.943481,163.322843 L371.316955,191.136236 L384.551811,205.944015 C384.14065,208.356912 383.631714,212.642056 383.330865,215.110019 C383.107735,216.411582 383.090185,217.032327 380.811253,217.139957 C376.792409,217.327682 372.620634,217.620534 368.150517,218.388956 C367.343238,218.529125 367.456057,218.912084 367.784484,218.972156 C371.55262,219.587896 375.887355,220.368833 380.477812,221.264909 C381.686223,221.500192 382.573728,222.604017 382.490994,223.832992 C382.390711,225.279729 382.300456,226.748993 382.237779,228.208245 C382.185131,229.387161 381.124637,230.255704 379.943804,230.183116 C369.767581,229.537341 360.33596,229.865235 352.373485,231.27693 C351.70911,231.394571 351.806886,231.830094 352.157877,231.880154 C360.320917,232.896374 369.860343,234.395674 379.891156,236.455647 C381.144694,236.713457 382.217723,237.827294 382.172595,239.103827 C382.140003,240.007412 382.145018,240.843415 382.119947,241.734485 C382.082341,242.883365 381.204864,243.816985 380.05913,243.706853 C362.449425,241.997301 346.336445,242.385267 336.59896,244.169909 C336.079995,244.265023 336.165236,244.750606 336.528762,244.793157 C348.971382,246.049666 363.286789,248.109639 378.675224,251.598828 C380.129328,251.929225 381.066975,253.350932 380.801225,254.820196 C380.535475,256.269436 379.176639,257.253117 377.707492,257.092925 C353.551811,254.444745 331.035758,255.130569 320.82945,257.067895 C320.455895,257.137979 320.526093,257.676125 320.904662,257.708664 C336.807048,259.067796 354.647403,261.435639 374.398151,266.1513 C375.756987,266.476691 376.471504,268.006027 375.711859,269.179937 C375.541378,269.445255 375.363376,269.705568 375.182866,269.960874 C374.197585,271.342533 372.415054,271.84814 370.755369,271.475192 C369.223546,271.052184 368.183109,270.80689 366.583594,270.506529 C299.637133,256.342023 245.587072,265.54307 233.360061,268.82451 C280.320109,203.508591 257.921888,167.032297 254.993623,163.385418 L254.993623,163.385418 Z M180.972192,169.009671 L191.386587,171.492652 C194.610687,183.186692 194.911537,193.631732 193.251852,203.05805 L236.208099,212.431804 C236.280805,212.664583 236.381088,212.892357 236.513963,213.110118 C237.403975,214.576879 238.404298,216.521714 239.254197,218.91709 C239.45727,219.495284 239.158928,220.128545 238.587315,220.3413 C234.979632,221.680408 231.519866,223.342403 230.198637,224.684014 C230.083312,224.801655 230.058241,225.094507 230.351569,225.051956 C232.156664,224.791643 235.779389,224.313569 239.472313,223.895568 C240.084039,223.827986 240.65816,224.23097 240.753429,224.836697 C240.926417,225.917996 241.056785,227.05436 241.12949,228.243287 C241.169604,228.889063 240.786021,229.492287 240.179308,229.720061 C233.994351,232.047855 229.022818,234.841209 226.616025,237.096417 C226.365317,237.331699 226.590954,237.576994 226.751407,237.536946 C229.619503,236.811074 234.515823,235.859932 239.86091,235.139067 C240.399931,235.066479 240.876276,235.509511 240.801063,236.045154 C240.668188,236.968763 240.502721,237.914899 240.297141,238.881059 C240.156745,239.554368 239.675386,240.102526 239.04611,240.382862 C229.835111,244.487791 222.913073,249.433729 219.598718,253.045565 C219.212628,253.46607 219.596211,253.661305 219.781735,253.581209 C223.675224,251.921716 229.619503,249.841719 236.373566,248.137172 C236.822333,248.022034 237.208423,248.475078 237.020392,248.898086 C236.328439,250.477482 235.533696,252.096926 234.628641,253.756419 C234.2952,254.372158 233.753672,254.847729 233.121888,255.145587 C223.554885,259.658505 216.537578,264.88478 212.380845,268.94966 C211.9396,269.38268 212.29059,269.620465 212.606482,269.4828 C216.40721,267.80829 221.24336,266.05118 226.746393,264.509329 C227.084848,264.416718 227.305471,264.837223 227.082341,265.11005 C225.272232,267.332719 223.010849,269.577914 220.426053,271.815601 L475.232765,311.438172 L479.805672,306.269467 L464.815862,289.494326 L464.815862,289.491823 L450.650881,273.642795 C450.1971,273.134685 450.242227,272.358753 450.748657,271.905709 C451.257593,271.452665 452.037294,271.497719 452.488568,272.003326 L464.863497,285.847448 C464.876032,282.025359 464.775749,277.805292 464.504985,273.269847 C474.921887,275.434946 485.514285,278.826518 494.835595,284.365669 L497.061879,286.77356 L499.834706,283.634791 L460.004783,240.520528 C477.469077,240.810876 495.392166,247.34372 517.597342,260.985098 L518.750597,262.259127 L521.530945,259.117856 L370.389336,92.2950661 C369.933048,91.7894591 369.973162,91.0110245 370.477084,90.5554775 C370.983513,90.0999306 371.763214,90.1399787 372.219502,90.6430827 L377.757634,96.7554213 C397.608665,103.661212 416.552134,112.809696 434.206966,123.825422 L389.861799,110.116463 L395.826134,116.699366 L439.374051,130.163031 C440.294148,132.235519 441.093905,134.318019 441.778337,136.403023 C441.547686,137.39171 441.254358,138.315319 440.249021,138.167641 C434.931512,137.374189 429.245462,137.51686 426.7434,137.732118 C426.442551,137.757149 426.407452,138.162635 426.690751,138.270265 C429.734342,139.406629 437.57397,142.47281 442.87393,145.726717 C443.763942,146.274875 444.36564,147.195981 444.533614,148.224716 L444.548657,148.332345 C444.641418,149.118289 443.899324,149.734028 443.119623,149.556315 C436.152458,147.9619 428.854358,147.221011 423.343804,147.070831 L427.493016,151.648827 C433.96378,154.612385 440.32674,158.18167 445.110242,161.690884 L445.230581,161.936178 L445.228074,161.968717 L445.090185,162.076346 C441.637941,161.10518 438.135555,160.276686 434.683311,159.585856 L448.098677,174.393635 C450.247241,161.455601 450.014083,146.297402 443.814083,131.537181 L446.759898,132.448275 C448.151325,132.873785 449.209312,132.260549 449.625486,130.971502 C450.014083,129.750035 449.274496,128.483514 448.103691,128.120579 L439.025567,125.31471 C446.91283,104.269443 443.322696,84.971273 440.053469,74.4536454 L443.077003,75.5850038 C444.435838,76.0981198 445.531431,75.5499617 446.025325,74.2909501 C446.496655,73.0970166 445.834787,71.7854419 444.686546,71.3524221 L370.795483,43.7192453 L372.695847,7.82865451 C372.801144,5.76868128 371.214164,4.01157167 369.15084,3.90644545 C367.090024,3.80131924 365.330056,5.38321849 365.222252,7.44569473 L362.509595,40.6180219 L303.580764,18.5815646 C302.194351,18.0484245 301.128843,18.6166067 300.632442,19.8756183 C300.163619,21.0695517 300.840529,22.3786234 301.971221,22.8141463 L308.42945,25.2295463 C309.201629,29.3845348 310.332321,41.3388874 301.810768,55.245584 L263.851124,41.9696447 C262.665277,41.5566488 261.366611,42.1798971 260.950436,43.3638185 C260.536769,44.54774 261.161031,45.8442966 262.346878,46.2572925 L268.815135,48.5200091 C268.602034,66.476568 254.5248,78.9665637 239.231633,89.7870549 L233.929167,88.2201737 C232.72577,87.864747 231.45719,88.5530734 231.101185,89.7545159 C230.74518,90.9584613 231.432119,92.2224789 232.638023,92.5779057 L240.379874,94.8631494 C241.18966,120.721696 236.757149,129.627388 214.120756,148.850467 L202.941702,146.179761 C201.720756,145.886909 200.492289,146.640314 200.198961,147.859277 C199.905633,149.080744 200.660263,150.307216 202.382624,150.717709 L214.017966,153.498548 C214.609636,155.601072 215.289054,158.759865 215.294068,162.929871 C215.296575,166.163754 214.870372,169.262474 214.105714,172.233541 L182.032685,164.591867 C180.809232,164.299015 179.583271,165.05242 179.292451,166.273886 C178.994108,167.49285 179.746231,168.719322 180.972192,169.009671 L180.972192,169.009671 Z M362.710161,459.535981 C364.06649,460.417039 365.019179,461.978914 363.850881,463.766059 C362.680076,465.555708 360.86746,465.31542 359.513639,464.431859 C358.159817,463.550801 357.209636,461.370684 358.092126,460.019061 C358.974617,458.664935 361.35634,458.654923 362.710161,459.535981 L362.710161,459.535981 Z M267.423708,497.256268 C269.108463,496.640529 272.600821,494.918461 273.69892,496.477834 C274.794512,498.037206 270.23414,500.392534 268.950517,500.988249 C267.060182,501.866804 257.412952,506.947904 242.598637,506.947904 C226.084525,506.947904 207.396777,499.191091 199.31647,496.73314 C198.619503,496.520385 198.504177,496.257569 198.504177,495.977233 C198.504177,495.681878 198.962972,495.476632 199.682503,495.586764 C208.133858,496.865799 225.778661,502.124613 237.190873,502.124613 C253.772677,502.124613 262.993704,498.855689 267.423708,497.256268 L267.423708,497.256268 Z M434.124233,499.183582 C433.567662,499.02339 432.567338,498.687987 432.116065,498.30753 C431.82023,498.054727 431.677326,497.586665 431.852822,497.231238 C431.988204,496.955908 432.314124,496.705607 432.792975,496.800721 C433.126417,496.865799 434.033978,497.253765 435.039316,497.604186 C435.931835,497.914559 436.902074,498.069745 437.47118,498.372609 C437.924961,498.610394 438.408827,499.116001 438.185697,499.689189 C437.96006,500.259874 437.200416,500.29742 436.67393,500.162257 C435.716226,499.924472 435.011738,499.438889 434.124233,499.183582 L434.124233,499.183582 Z M189.38594,416.486795 L199.118411,412.932528 C199.850477,412.664706 200.552459,413.415608 200.183918,414.096425 C197.614165,418.824602 194.395079,422.914513 190.494068,425.993209 C189.736931,426.591427 188.633817,426.078311 188.520999,425.11966 C188.290348,423.184837 188.017076,421.270038 187.703692,419.370257 C187.503126,418.133773 188.207614,416.917312 189.38594,416.486795 L189.38594,416.486795 Z M187.412871,407.591115 C186.38497,408.064183 185.179066,407.50351 184.878217,406.414703 C184.529733,405.148182 184.1637,403.88917 183.775103,402.642674 C183.421605,401.498801 184.055896,400.279837 185.199123,399.919404 L204.902236,393.714455 C205.854925,393.414094 206.8026,394.212553 206.619583,395.191228 C206.511779,395.779434 206.396454,396.362634 206.273607,396.945834 C205.990307,398.297457 205.062689,399.433821 203.806644,400.014518 L187.412871,407.591115 L187.412871,407.591115 Z M179.475467,390.95364 C179.106927,390.095109 178.728358,389.239081 178.339761,388.385557 C177.86091,387.336797 178.394917,386.100313 179.498031,385.759904 L205.847404,377.597604 C206.900376,377.269711 207.973405,378.038133 207.98594,379.139456 L207.990954,379.452331 C208.000983,380.773918 207.181169,381.962845 205.957715,382.468452 L182.338548,392.14507 C181.222899,392.600617 179.949305,392.062471 179.475467,390.95364 L179.475467,390.95364 Z M172.463174,377.142057 C171.921646,376.225958 171.367582,375.317367 170.798476,374.408776 C170.219341,373.485167 170.665601,372.258694 171.716066,371.960837 L202.630825,363.29293 C203.776559,362.967539 204.974941,363.648357 205.225649,364.809751 L205.273283,365.032519 C205.534019,366.258991 204.814488,367.472949 203.636163,367.908471 L175.604541,378.273416 C174.423708,378.708939 173.102479,378.223356 172.463174,377.142057 L172.463174,377.142057 Z M163.841339,364.386743 C162.99144,363.275409 162.121484,362.171584 161.228965,361.072764 C160.72755,360.457025 161.231472,359.545931 162.023708,359.62853 L176.063336,361.082776 C176.59985,361.137843 176.692612,361.876229 176.18869,362.063954 L167.205835,365.380436 C165.99241,365.828474 164.626053,365.412975 163.841339,364.386743 L163.841339,364.386743 Z M216.522535,350.537616 C217.598071,352.637637 218.643522,354.767694 219.646353,356.920279 C220.285657,358.294429 220.937497,359.73616 221.591844,361.230454 L157.418209,354.587478 C177.454763,350.978145 197.797182,350.067051 216.522535,350.537616 L216.522535,350.537616 Z M159.03778,344.833267 C161.066005,342.275196 163.237133,338.973732 164.849183,336.237947 C165.551165,335.044014 166.681856,334.142932 168.015621,333.762475 L193.136526,326.588863 C194.329895,326.248454 195.588447,326.86169 196.054763,328.010569 L196.112426,328.158247 C196.566207,329.27709 196.0322,330.553623 194.914044,331.016679 L159.647,345.671774 C159.138063,345.882026 158.694311,345.266287 159.03778,344.833267 L159.03778,344.833267 Z M172.428075,320.769376 C173.084929,319.18247 173.721727,317.520475 174.303368,315.770874 C174.724557,314.496845 175.775022,313.508158 177.091237,313.232827 L186.901427,311.175357 C188.114852,310.92005 189.330784,311.620892 189.716874,312.799807 L189.784565,313.005054 C190.168148,314.173957 189.581492,315.437975 188.440772,315.901031 L173.603894,321.938279 C172.864307,322.241143 172.124719,321.507762 172.428075,320.769376 L172.428075,320.769376 Z M331.898192,480.035593 C336.754399,476.52638 340.384646,468.041192 336.461071,461.383199 C334.691075,458.387101 330.361354,455.456082 325.126579,455.456082 C321.980198,455.456082 320.776801,456.046792 319.886789,456.364673 C319.07951,456.652519 318.841338,456.682555 318.465277,456.512351 C318.091722,456.339643 318.124314,455.523664 318.17947,455.118177 C318.375022,453.618877 319.503206,452.17214 320.415782,451.093344 C321.616672,449.671638 325.798475,446.099849 332.788204,446.157418 C339.777933,446.21749 352.443683,450.092142 359.90725,450.092142 C362.827994,450.092142 366.774132,449.306199 369.323829,447.10856 C373.282502,443.689455 374.809312,437.867465 371.156502,434.080418 C369.298758,432.158111 366.876922,431.529856 364.605511,431.812696 C361.940489,432.143092 359.488568,433.464679 357.520513,433.291972 C355.898435,433.151804 354.291399,431.980397 353.311132,430.733901 C352.596615,429.832819 351.64894,427.805385 349.490347,426.749116 C339.667622,429.462374 330.002842,432.523549 320.518572,435.815001 C286.434868,447.651712 243.06746,466.689569 226.485657,474.343759 C225.996777,474.56903 223.406967,475.712903 223.028399,475.087152 C222.785212,474.679162 223.191359,474.040896 225.858888,472.739333 C253.687436,459.163033 298.443764,438.192856 323.740165,429.409811 C328.827023,427.642689 333.876275,425.983197 338.910485,424.428831 C338.559494,421.683034 333.981573,421.432733 331.817966,422.050976 C330.358847,422.466475 328.047323,422.952058 327.127226,421.28005 C326.502964,420.13868 326.996858,418.78956 328.047323,418.13127 C330.153267,416.817192 334.277408,416.712066 336.478621,417.790861 C338.218532,418.644386 339.364266,419.923421 341.294714,420.419016 C343.170008,420.902096 344.621605,420.666814 346.211091,419.585516 C346.950679,419.0724 347.527306,418.554278 347.986101,417.785855 C348.249344,417.327805 348.838507,416.416711 350.217399,416.416711 C351.252822,416.416711 351.934747,417.142583 352.265681,418.061186 C352.488811,418.674422 352.691884,419.595528 353.070452,420.331411 C359.832037,418.511726 366.606158,416.897288 373.437941,415.488096 C373.212304,415.005016 372.520351,414.521936 370.818046,414.219073 C367.308139,413.590818 367.257998,411.425719 367.405915,410.779944 C367.536283,410.19424 368.218208,408.629862 371.69803,408.800067 C375.177852,408.972774 377.155935,411.107837 377.737577,412.023937 C378.143724,412.667209 378.424516,413.237895 378.740408,414.256618 L378.798071,414.426822 C382.613841,413.703454 386.459696,413.047666 390.335636,412.456957 C389.480723,411.1604 387.377286,408.039153 386.845786,407.280742 C384.341217,403.698942 379.695604,405.576196 377.970735,403.093215 C377.46932,402.372349 377.266247,400.627755 378.36936,399.21606 C359.646514,403.15579 341.53038,408.672413 323.66746,415.590719 C288.844169,429.076911 209.826134,468.429158 207.336607,469.625595 C206.002843,470.266364 205.478864,470.17125 205.308382,469.86338 C205.08776,469.460396 205.358524,468.999843 205.982786,468.664441 C221.481532,460.309409 291.840125,422.559086 326.660909,409.070391 C360.594189,395.932117 392.995644,387.574583 430.651932,384.878846 C431.770088,384.79875 431.968147,384.203035 432.070937,383.547248 C432.898273,378.155775 433.795806,373.642856 434.364912,370.967144 C434.640691,369.650563 433.587719,368.426594 432.243926,368.534223 C391.265762,371.83819 352.275709,384.368233 321.917521,397.211153 C288.906846,411.172915 245.14332,437.016443 222.963215,448.600351 C207.797909,456.51986 194.793704,463.310513 187.738791,466.902325 C189.145261,456.629992 189.709353,446.923338 189.433575,437.669728 C202.906603,430.180736 219.455815,423.415114 237.017885,418.531751 C237.627105,424.251117 237.978095,430.170724 238.003166,436.263039 C239.35448,435.51464 240.735879,434.746218 242.14987,433.957771 C242.049587,428.290968 241.681047,422.774344 241.091884,417.432931 L241.14704,417.417913 C240.643118,412.955055 239.983756,408.614844 239.204056,404.419808 L239.19152,404.424814 C235.531189,384.335694 229.190792,367.347798 223.42201,355.163169 C213.135475,333.437085 200.968633,317.945986 184.873203,302.212095 L152.256138,297.716698 C151.012629,297.541488 149.864388,298.412534 149.691399,299.654024 C149.520918,300.898018 150.390874,302.044394 151.634383,302.217101 L172.979632,305.158133 C172.658726,306.492234 172.31275,307.826336 171.936688,309.160438 C166.95262,326.799115 156.81651,343.48665 145.276438,353.333473 L131.695605,351.926784 C130.442067,351.796627 129.326418,352.702715 129.198557,353.951715 C129.068189,355.200714 129.97575,356.314552 131.226781,356.444708 L153.584889,358.759988 C180.179956,388.648372 189.604056,423.33752 183.213518,467.778377 C176.527145,465.903626 172.628641,465.305408 168.627347,464.797298 C166.852337,464.57453 164.209879,464.739728 163.766126,465.680858 C163.319867,466.619485 164.262527,469.084945 164.392895,470.24634 C165.405754,479.184571 141.525851,480.330948 122.71275,478.53379 C98.1659647,476.190977 84.4522567,474.59406 79.7941087,474.931965 C78.9266603,474.994541 78.7611933,475.467609 78.7611933,475.705394 C78.7611933,475.945682 78.9667735,476.338654 79.7489814,476.383708 C88.1552086,476.894321 105.268512,479.697687 129.644816,483.424662 C148.22476,486.26307 161.657675,484.33075 167.060425,481.111885 C169.554966,479.622597 171.678459,475.650328 169.462204,472.015964 C168.852984,471.017265 167.955451,469.670649 168.346555,468.934765 C168.720109,468.233924 169.529895,468.041192 171.294877,468.336547 C174.659373,468.902226 179.350113,470.098662 184.792976,471.733125 C185.186587,471.850766 185.582705,471.97091 185.986345,472.093558 L186.605592,472.283786 C186.939034,472.386409 187.274982,472.491535 187.613437,472.596662 C187.861638,472.674255 188.107331,472.751848 188.358039,472.831944 C188.653874,472.924555 188.954723,473.019669 189.253065,473.114784 C189.536365,473.204892 189.817157,473.295 190.100457,473.387611 C190.348658,473.465204 190.596858,473.547804 190.847566,473.6279 C191.145908,473.725517 191.44425,473.823134 191.747606,473.923254 C202.101832,477.319832 214.058079,481.297107 224.251852,482.969115 C244.71461,486.325645 254.321726,484.801315 258.952297,482.430969 C261.376639,481.189478 262.434626,479.712705 262.968633,478.581347 C263.74332,476.954394 262.870857,475.400027 261.572191,474.241136 C261.045705,473.770571 260.168229,473.289994 260.168229,472.506553 C260.168229,470.919648 269.143562,469.890913 274.704258,469.890913 C279.432604,469.890913 285.65266,470.323933 293.918491,471.447782 C313.378419,474.093459 321.145341,472.999645 327.510808,468.046198 C328.46099,467.305309 329.544047,466.697078 330.045463,467.135104 C330.569442,467.595657 329.930137,468.932262 329.411172,469.825835 C327.470695,473.184868 322.614488,479.968012 310.497788,479.968012 C305.641581,479.968012 303.949304,479.182068 300.975911,478.518772 C300.564751,478.428664 299.504258,478.278483 299.358847,478.729024 C299.215944,479.177062 299.777529,479.712705 300.604864,480.218312 C304.337901,482.501053 310.417561,484.203096 317.901184,484.203096 C321.546473,484.200593 327.565964,483.169355 331.898192,480.035593 L331.898192,480.035593 Z M268.153267,486.936378 C269.133534,488.568337 267.075224,489.909948 265.791601,490.505663 C263.903773,491.384218 253.464306,496.184982 241.021686,496.184982 C232.497626,496.184982 224.324557,494.673167 216.098839,492.540607 C211.826781,491.436781 204.618936,489.08646 196.719139,488.050215 C195.76645,487.922562 193.053793,487.920059 193.053793,487.059025 C193.053793,486.393226 195.099567,486.450795 196.338063,486.523382 C199.326498,486.703599 202.450315,487.013971 205.857432,487.644729 C210.658484,488.535798 224.710647,490.928671 235.009717,491.256565 C247.24425,491.647034 258.556179,488.425666 262.983675,486.823743 C264.668431,486.208004 267.173,485.301916 268.153267,486.936378 L268.153267,486.936378 Z M303.585778,71.5476565 C308.998556,70.2435908 315.288811,69.2223647 322.210849,68.879453 C325.961435,68.6942306 329.900052,68.7092486 333.986587,68.9870822 C337.461395,69.2223647 341.046514,69.6528816 344.71186,70.3111719 C345.368714,70.4263102 345.739761,71.1421696 345.403813,71.7153578 C344.809636,72.7240689 344.175345,73.742792 343.495928,74.7690241 C343.037133,75.4548475 342.199769,75.7727291 341.39249,75.6150398 C335.059615,74.3835613 328.438427,73.4023833 322.05541,72.7516019 C315.449264,72.0757905 309.101346,71.7503999 303.605835,71.8505201 L303.585778,71.5476565 L303.585778,71.5476565 Z M459.390549,499.741752 C456.517439,498.855689 432.020796,492.017479 411.909029,482.203195 C391.794755,472.388912 388.071746,468.849663 386.936041,467.768365 C385.48695,466.389209 382.182624,462.747336 385.018127,459.796293 C387.733291,456.975407 391.198071,459.067919 392.637132,460.119181 C393.409312,460.68486 398.997585,465.765961 411.159413,473.387611 C430.907654,485.767475 456.76564,496.164958 460.245462,497.436485 C461.431309,497.869505 463.018289,498.692993 462.729975,499.576554 C462.441661,500.460115 461.486465,500.450103 459.390549,499.741752 L459.390549,499.741752 Z M412.006805,341.531803 C413.137496,341.584366 413.932239,342.670671 413.616348,343.759478 C413.247808,345.033507 412.861718,346.227441 412.4656,347.323757 C412.026861,348.530206 410.800901,349.261083 409.519785,349.130927 C403.437618,348.512685 397.189983,348.084671 391.25824,347.849388 C382.009635,347.481447 373.352701,347.594082 365.350113,348.029605 C364.994108,348.049629 364.896332,347.551531 365.23228,347.441398 C371.118895,345.514084 389.057027,340.448002 412.006805,341.531803 L412.006805,341.531803 Z M331.454439,313.44308 L331.37672,313.247845 C333.412466,312.151529 340.763214,308.432063 350.93693,306.021669 C351.333048,305.929058 351.741702,306.119287 351.927226,306.479719 C352.556502,307.713701 353.170735,308.967706 353.762405,310.249245 C353.902802,310.557115 353.672151,310.902529 353.333695,310.922553 C343.433251,311.505754 335.969684,312.617088 331.454439,313.44308 L331.454439,313.44308 Z M326.906603,326.110789 C329.784727,324.29611 339.321645,319.109883 355.018451,315.680766 C355.557472,315.563125 356.106522,315.855977 356.294553,316.371596 C356.780925,317.713206 357.234706,319.094865 357.653388,320.521578 C357.78877,320.987137 357.457836,321.452696 356.976477,321.495247 C342.886708,322.714211 331.990954,325.18718 327.059535,326.448694 L326.906603,326.110789 L326.906603,326.110789 Z M413.779308,337.459414 C410.592814,337.159053 407.391277,336.921268 404.337658,336.728536 C396.139518,336.207911 388.42023,335.784903 381.224921,335.910054 C380.941621,335.912557 380.858887,335.519585 381.129652,335.434483 C385.454358,334.077854 398.265519,330.613695 414.960141,330.954104 C415.694714,330.969122 416.231229,331.637424 416.115903,332.360792 C415.905309,333.672367 415.674658,334.966421 415.42395,336.230438 C415.273525,336.998861 414.561516,337.532001 413.779308,337.459414 L413.779308,337.459414 Z M417.356906,315.620694 C417.366934,315.966109 417.056057,316.238936 416.720108,316.156337 C416.163537,316.021175 415.622009,315.898528 415.128115,315.805916 C409.050962,314.68457 403.194431,313.663344 397.606158,312.98503 L397.56103,312.742238 C399.687031,312.229122 406.924961,310.737331 416.389174,311.503251 C416.782785,311.53579 417.106198,311.838653 417.146311,312.231625 C417.251609,313.317929 417.3193,314.451791 417.356906,315.620694 L417.356906,315.620694 Z M318.462769,341.116304 C322.358766,338.503167 334.904177,331.302021 357.828883,326.924265 C358.565964,326.784097 359.260424,327.289704 359.388285,328.025588 C359.6415,329.48484 359.859615,330.994152 360.030096,332.561033 C360.11283,333.311934 359.52116,333.947698 358.76653,334.017782 C339.479591,335.792412 324.27668,339.92988 318.693421,341.596881 C318.395078,341.684487 318.207048,341.289012 318.462769,341.116304 L318.462769,341.116304 Z M415.95545,326.230933 C414.586586,326.075747 413.232765,325.935578 411.939114,325.807925 C404.786425,325.094568 398.017318,324.218517 391.619259,323.985737 L391.554075,323.627807 C394.652822,322.724223 404.026781,320.391422 416.351568,320.691782 C416.875547,320.704297 417.30175,321.129808 417.276679,321.652936 C417.211495,322.876906 417.121241,324.118396 417.003408,325.364893 C416.953267,325.89553 416.484443,326.291005 415.95545,326.230933 L415.95545,326.230933 Z M305.724314,358.304441 C310.720918,354.80524 326.723586,345.241257 358.330299,340.062539 C359.473526,339.87982 360.506441,340.755872 360.501427,341.909757 C360.496413,343.288913 360.461314,344.705614 360.393623,346.167369 C360.340974,347.411362 359.365721,348.425079 358.119704,348.530206 C332.790711,350.687796 312.388123,356.842686 306.02767,358.927689 C305.646595,359.052839 305.390873,358.53722 305.724314,358.304441 L305.724314,358.304441 Z M82.3638621,486.040302 C81.674416,485.977727 81.574133,485.632312 81.6017108,485.359485 C81.6242745,485.091663 82.0905907,484.846369 82.5543999,484.811327 C86.5306231,484.513469 97.0227379,484.363289 130.073526,489.94499 C156.726256,494.445394 169.392006,488.240444 171.269806,487.674765 C173.145099,487.106582 175.120675,487.659747 175.785051,489.256664 C176.49706,490.971222 176.166126,493.088765 172.443118,494.598077 C161.680239,498.955809 145.695119,498.507771 126.317926,494.220123 C108.600417,490.300417 96.1979097,487.281793 82.3638621,486.040302 L82.3638621,486.040302 Z M176.512103,252.820295 L191.359009,255.771338 C191.657351,255.83141 191.659858,256.256921 191.361516,256.319496 L178.527792,259.030251 C177.788205,259.185437 177.048617,258.747411 176.853065,258.019037 C176.474497,256.617354 176.058322,255.228186 175.609555,253.856539 C175.424032,253.278345 175.915419,252.702654 176.512103,252.820295 L176.512103,252.820295 Z M203.816672,243.268827 C203.666247,246.5778 203.307736,249.961863 202.741136,253.400992 L179.432847,248.770433 C187.385293,246.490195 195.490671,244.665504 203.816672,243.268827 L203.816672,243.268827 Z M185.241743,233.23428 C186.289701,231.632356 187.222333,230.113032 188.059697,228.671301 C188.917117,227.192025 190.403813,226.158284 192.103611,225.945529 L195.36281,225.537539 C196.804379,225.359826 198.067946,226.506202 197.997748,227.955442 C197.972677,228.438522 197.945099,228.924105 197.91,229.412191 C197.792167,231.046653 196.596292,232.400779 194.999284,232.783739 L186.397505,234.8337 C185.462366,235.056467 184.715257,234.037744 185.241743,233.23428 L185.241743,233.23428 Z M197.368471,267.968482 L180.749062,271.495216 C180.032038,271.645397 179.347606,271.144796 179.257351,270.416421 C179.184646,269.798179 179.101913,269.177434 179.014165,268.561694 C178.906361,267.805787 179.400255,267.089927 180.147364,266.932238 L196.611334,263.438043 C197.338387,263.285359 198.047889,263.765936 198.170736,264.499317 L198.479106,266.341529 C198.601953,267.09243 198.113073,267.810793 197.368471,267.968482 L197.368471,267.968482 Z M192.808099,282.628583 L192.574941,283.054094 C192.15626,283.804996 191.421686,284.338136 190.576801,284.513346 L181.170251,286.49072 C180.498354,286.630888 179.866571,286.115269 179.889135,285.429446 C179.926741,284.373178 179.946797,283.319413 179.949305,282.265647 C179.951812,281.472195 180.500861,280.778862 181.280562,280.613664 L191.592167,278.448565 C192.31922,278.295881 193.021201,278.783967 193.129005,279.514845 L193.221767,280.128081 C193.352135,280.984109 193.216753,281.865167 192.808099,282.628583 L192.808099,282.628583 Z M202.984323,295.957086 C217.53038,292.192566 234.470695,288.485615 252.644492,286.445666 C255.705633,289.033773 258.611334,291.912229 261.351569,295.071022 C243.20535,293.559207 222.509434,295.458988 207.948334,297.003342 C207.795402,297.01836 206.887841,297.020863 206.574456,297.008348 C205.534019,296.9683 203.90442,296.910731 203.064549,296.885701 C200.923506,296.825628 201.645544,296.305003 202.984323,295.957086 L202.984323,295.957086 Z M153.9785,248.344922 L170.389822,251.603834 C175.689782,265.49301 177.093744,281.354554 174.544048,297.34375 L181.110081,298.249838 L189.135233,299.356167 L269.356664,310.41194 C269.878136,311.528281 270.399608,312.699687 270.918572,313.921154 C271.823627,316.053714 270.84336,318.496647 268.775022,319.545406 C263.066409,322.441383 258.425811,325.264773 255.595321,327.970521 L255.808423,328.290906 C260.215863,326.536299 265.057028,324.966915 270.211577,323.582753 C272.457917,322.977026 274.794512,324.236038 275.481451,326.456203 L275.539114,326.643929 C276.22856,328.879112 275.065277,331.246955 272.936769,332.223127 C263.921322,336.365601 256.580602,340.690794 252.458969,344.595482 C252.188204,344.848285 252.486547,345.273796 252.825002,345.126119 C259.340893,342.290214 266.741783,339.792215 274.701751,337.672169 C276.65727,337.149041 278.650396,338.370508 279.061557,340.347882 C279.497788,342.450406 278.324476,344.537912 276.358928,345.408958 C264.465358,350.670275 254.592491,356.30454 249.322616,361.257987 C248.939033,361.615917 249.365236,362.221644 249.844088,362.003882 C258.039721,358.259387 267.526498,354.922881 277.745341,352.122018 C279.425083,351.661465 281.144937,352.760284 281.342996,354.487358 C281.563619,356.412169 280.488083,358.26189 278.710566,359.040324 C264.472879,365.272807 252.443926,372.055951 246.186263,377.902971 C245.689862,378.366027 246.246433,379.149468 246.860667,378.861622 C256.327388,374.386249 267.37858,370.296338 279.272151,366.859712 C280.768876,366.426692 282.280643,367.5155 282.310728,369.072369 C282.345827,370.899563 281.24522,372.561558 279.573,373.302448 C263.663093,380.328383 250.08226,388.007603 243.049911,394.545452 C242.440691,395.113634 243.12763,396.079794 243.877246,395.716859 C268.348819,383.840099 302.562891,373.632844 335.515903,370.561657 L335.024516,376.563863 C333.999122,376.643959 332.973728,376.729062 331.950841,376.821673 C298.250719,379.802752 267.556583,387.849913 242.626215,400.187226 C242.779147,400.938127 242.929571,401.694035 243.077489,402.452445 C243.94243,406.94534 244.674496,411.600929 245.231067,416.39919 C258.094876,413.315488 271.319705,411.303072 284.133372,410.814986 L284.135879,410.777441 L285.89334,388.808564 C289.656461,387.837398 293.492288,386.941323 297.390792,386.120337 L296.38044,404.494898 C305.097545,400.087106 313.691803,395.992189 321.739518,392.588102 C326.711051,390.485578 331.993461,388.315472 337.5341,386.152876 L338.805188,370.278817 L339.361759,363.297936 L339.36928,363.210331 C342.974456,362.55204 346.772676,361.931295 350.766449,361.373125 L350.372838,368.536726 L350.317682,369.562958 L349.981734,375.665284 L349.655814,381.607419 C355.660262,379.449828 361.912911,377.357316 368.363619,375.399966 C363.351973,375.342397 358.290185,375.392457 353.21837,375.550146 L353.54429,369.39776 C367.200335,368.701924 380.613194,368.336485 393.619906,368.814559 C407.669563,365.785923 422.31841,363.745974 437.207937,363.347996 L473.580602,322.443886 C473.801224,322.193586 474.214892,322.351275 474.214892,322.684175 L474.214892,336.107791 C474.214892,336.731039 474.064467,337.349282 473.758604,337.892434 C469.822494,344.873315 460.872231,356.462229 449.943885,372.651666 C435.528196,393.997294 433.688002,409.641076 433.4749,429.05939 C434.613113,429.044372 435.741297,428.93424 436.83689,428.718981 C437.606562,428.566298 438.316065,428.338525 438.987961,428.045673 C439.36653,400.750402 442.801224,389.994989 465.871342,357.886439 C474.237456,346.244962 477.832603,341.436689 479.52488,338.898642 C480.264467,337.792314 480.409878,336.620907 480.409878,335.399441 L480.470048,325.903039 C480.470048,325.284797 480.678135,324.681573 481.056703,324.193487 L530.726901,260.07901 C531.391277,259.318096 531.037779,258.259325 530.370897,257.671119 C529.704014,257.082913 528.588365,256.855139 527.92399,257.61355 L472.236809,320.544105 C471.672716,321.112287 470.652336,321.750554 469.699647,321.625403 C460.749384,320.443985 451.09714,321.365091 448.946069,321.64793 L448.888406,321.888219 C454.160788,323.02208 459.876922,324.676567 464.635353,326.523784 C465.510323,326.86169 465.502801,328.105684 464.873525,328.799016 C464.051204,329.702601 463.075951,330.025489 461.857512,329.942889 C450.29989,329.154443 441.3045,330.3684 438.506603,330.818941 L438.541702,331.144332 C444.676518,332.240648 451.184888,333.602283 457.164265,335.479537 C458.024192,335.749861 458.021685,336.630919 457.425001,337.254167 C456.690428,338.020087 456.128843,338.383023 454.770007,338.337969 C441.933776,337.899943 431.496817,339.37171 427.964346,340.007473 C427.70361,340.05503 427.72116,340.430481 427.98691,340.470529 C434.833736,341.494258 442.036566,342.735749 449.21934,344.457816 C449.901265,344.623015 450.174536,345.438994 449.738305,345.979643 L449.643036,346.087273 C449.209312,346.535311 448.600092,346.788114 447.970816,346.773096 C433.886061,346.467729 422.463821,348.299929 417.920998,349.168472 C417.517359,349.246065 417.575021,349.846786 417.986182,349.876822 C425.111293,350.397447 432.324152,351.085774 439.684928,353.218334 C441.966368,353.879128 440.522292,355.949113 439.77769,356.780111 C438.170654,358.574765 435.375264,357.883936 433.484928,357.593587 C417.168875,354.992965 397.901993,354.031811 382.14251,354.031811 C344.197909,354.031811 305.415944,366.426692 299.875305,368.779517 C287.317359,307.143016 256.344937,282.263144 254.228965,280.626179 L253.822818,280.313303 L249.44797,279.629983 L210.069321,273.482602 C208.951165,273.307392 207.903207,274.073312 207.730218,275.187149 C207.554723,276.303489 208.319381,277.349745 209.437537,277.522453 L212.498678,278.000527 C208.384565,280.944061 203.909434,283.822517 199.364104,286.568313 C199.005592,286.786075 199.258807,287.336736 199.649911,287.191562 C207.346636,284.338136 215.813033,281.865167 223.938467,279.790175 L234.88687,281.494722 C218.971949,284.703574 203.76653,289.108864 190.123021,294.467798 C197.388528,284.981408 203.245059,271.845637 206.100619,258.144187 C210.0267,239.324091 208.041096,221.732971 200.537416,208.13915 L182.383676,204.171887 C181.155208,203.904065 179.94429,204.679997 179.676033,205.90647 C179.405269,207.130439 180.18497,208.341894 181.41093,208.609715 L191.40163,210.792336 C187.112022,224.916794 178.517764,236.610834 169.467218,246.788053 L154.868512,243.889573 C153.637538,243.644278 152.439155,244.442737 152.193462,245.674215 C151.945261,246.903191 152.745018,248.099627 153.9785,248.344922 L153.9785,248.344922 Z" fill="#0A2F5D"></path>
                            </g>
                        </g>
                    </g>
                </g>
            </g>
        </g>
    </g>
</svg>