<?xml version="1.0" encoding="UTF-8" standalone="no"?>
<svg width="25px" height="25px" viewBox="0 0 25 25" version="1.1" xmlns="http://www.w3.org/2000/svg" xmlns:xlink="http://www.w3.org/1999/xlink">
    <!-- Generator: sketchtool 3.8.1 (29687) - http://www.bohemiancoding.com/sketch -->
    <title>202B124C-1DAC-42DE-8B6E-3824F00BAEBD</title>
    <desc>Created with sketchtool.</desc>
    <defs></defs>
    <g id="Page-1" stroke="none" stroke-width="1" fill="none" fill-rule="evenodd">
        <g id="6" transform="translate(-1196.000000, -117.000000)">
            <g id="Group-9" transform="translate(77.000000, 82.000000)">
                <g id="Group-13" transform="translate(987.000000, 35.000000)">
                    <g id="dup" transform="translate(132.000000, 0.000000)">
                        <ellipse id="Circle" fill="#0A2F5D" cx="12.863784" cy="12.2115385" rx="12" ry="12"></ellipse>
                        <g id="Group" transform="translate(5.863784, 4.211538)" fill="#FFFFFF">
                            <path d="M8.43476243,5.48569881 L8.43476243,2.36292346 L0.0146729622,2.36292346 L0.0146729622,11.3681441 L3.9793996,11.3681441 L3.9793996,14.4903141 L12.4001233,14.4903141 L12.4001233,5.48569881 L8.43476243,5.48569881 L8.43476243,5.48569881 Z M0.8622167,10.5243191 L0.8622167,3.44676243 L7.58845825,3.44676243 L7.58845825,10.5243479 L0.8622167,10.5243479 L0.8622167,10.5243191 Z M11.5444791,13.6353042 L4.83688867,13.6353042 L4.83688867,11.3681441 L8.43476243,11.3681441 L8.43476243,11.1455417 L10.9089871,11.1455417 L10.9089871,10.6045447 L8.43476243,10.6045447 L8.43476243,9.60652386 L10.9089871,9.60652386 L10.9089871,9.06552684 L8.43476243,9.06552684 L8.43476243,8.27892346 L10.9089871,8.27892346 L10.9089871,7.73732107 L8.43476243,7.73732107 L8.43476243,6.57887773 L11.5444791,6.57887773 C11.5444791,6.57887773 11.5444791,13.6353042 11.5444791,13.6353042 L11.5444791,13.6353042 Z" id="Shape"></path>
                            <rect id="Rectangle-path" x="1.53189761" y="4.61330616" width="5.41109443" height="0.543476143"></rect>
                            <rect id="Rectangle-path" x="1.53189761" y="5.94275149" width="5.41109443" height="0.540997018"></rect>
                            <rect id="Rectangle-path" x="1.53189761" y="7.48176938" width="5.41109443" height="0.540997018"></rect>
                            <path d="M6.75645229,0.996147117 C8.31348708,0.996147117 9.63114215,1.99915507 10.1074513,3.39389364 L9.08827137,3.39389364 L10.6353608,4.94222266 L12.1824503,3.39389364 L11.1489722,3.39389364 L11.1489722,3.39452783 C10.6391083,1.44325447 8.86814811,0 6.75708648,0 C5.29892843,0 4.00367197,0.690234592 3.17290557,1.75974652 L4.56205169,1.75974652 C5.1651998,1.28219781 5.92695427,0.996147117 6.75645229,0.996147117 L6.75645229,0.996147117 Z" id="Shape"></path>
                        </g>
                    </g>
                </g>
            </g>
        </g>
    </g>
</svg>