<?xml version="1.0" encoding="UTF-8" standalone="no"?>
<svg width="24px" height="24px" viewBox="0 0 24 24" version="1.1" xmlns="http://www.w3.org/2000/svg" xmlns:xlink="http://www.w3.org/1999/xlink">
    <!-- Generator: sketchtool 3.8.1 (29687) - http://www.bohemiancoding.com/sketch -->
    <title>0120A25E-4056-4A42-9D78-5CB062174D45</title>
    <desc>Created with sketchtool.</desc>
    <defs></defs>
    <g id="Page-1" stroke="none" stroke-width="1" fill="none" fill-rule="evenodd">
        <g id="6" transform="translate(-1064.000000, -119.000000)">
            <g id="Group-9" transform="translate(77.000000, 82.000000)">
                <g id="Group-13" transform="translate(987.000000, 35.000000)">
                    <g id="settings" transform="translate(0.000000, 2.000000)">
                        <ellipse id="Circle" fill="#0A2F5D" cx="12" cy="12" rx="12" ry="12"></ellipse>
                        <g id="Group-33" transform="translate(3.272727, 3.272727)" fill="#FFFFFF">
                            <path d="M17.5852723,7.32138926 L16.2843803,7.10070222 C16.1488708,6.66319985 15.9746441,6.24118429 15.7617005,5.83852723 L16.5282976,4.76606567 C16.8535206,4.30920478 16.8031885,3.68586069 16.4044031,3.29094705 L15.2506358,2.13717973 C15.0338205,1.9203644 14.7473145,1.80034162 14.44145,1.80034162 C14.2014044,1.80034162 13.972974,1.87390397 13.7793889,2.01328525 L12.7030556,2.77988233 C12.2849117,2.55919529 11.8474094,2.37722528 11.3944202,2.2417157 L11.1776049,0.956310495 C11.084684,0.402657051 10.6084646,0 10.0470678,0 L8.41708104,0 C7.85568419,0 7.37946479,0.402657051 7.28654394,0.956310495 L7.0619852,2.27268931 C6.62835453,2.4081989 6.20633896,2.58629721 5.80368191,2.80311255 L4.73896375,2.03651547 C4.54537863,1.89713418 4.31307649,1.82357184 4.07303094,1.82357184 C3.76716645,1.82357184 3.47678876,1.94359461 3.26384513,2.16040994 L2.10620611,3.31417726 C1.71129247,3.70909091 1.65708863,4.332435 1.98231163,4.78929588 L2.75665212,5.87724426 C2.54370848,6.28377301 2.37335358,6.70578857 2.2417157,7.14329095 L0.956310495,7.36010628 C0.402657051,7.45302714 0,7.92924654 0,8.49064339 L0,10.1206301 C0,10.682027 0.402657051,11.1582463 0.956310495,11.2511672 L2.27268931,11.4757259 C2.4081989,11.9093566 2.58629721,12.3313722 2.80311255,12.7340292 L2.04038717,13.7948757 C1.71516417,14.2517366 1.7654963,14.8750807 2.16428165,15.2699943 L3.31804897,16.4237616 C3.5348643,16.640577 3.82137028,16.7605997 4.12723477,16.7605997 C4.36728032,16.7605997 4.59571076,16.6870374 4.78929588,16.5476561 L5.87724426,15.7733156 C6.2682862,15.9785158 6.67868666,16.1449991 7.10070222,16.2766369 L7.31751756,17.5775289 C7.41043841,18.1311824 7.88665781,18.5338394 8.44805466,18.5338394 L10.0819131,18.5338394 C10.6433099,18.5338394 11.1195293,18.1311824 11.2124502,17.5775289 L11.4331372,16.2766369 C11.8706396,16.1411273 12.2926552,15.9669007 12.6953122,15.7539571 L13.7677738,16.5205542 C13.9613589,16.6599355 14.193661,16.7334978 14.4337066,16.7334978 L14.4337066,16.7334978 C14.7395711,16.7334978 15.0260771,16.613475 15.2428924,16.3966597 L16.3966597,15.2428924 C16.7915734,14.8479787 16.8457772,14.2246347 16.5205542,13.7677738 L15.7539571,12.6914405 C15.9669007,12.2849117 16.1449991,11.8628962 16.2766369,11.4292655 L17.5775289,11.2124502 C18.1311824,11.1195293 18.5338394,10.6433099 18.5338394,10.0819131 L18.5338394,8.45192636 C18.5415828,7.89052951 18.1389258,7.41431012 17.5852723,7.32138926 L17.5852723,7.32138926 Z M17.4962232,10.0819131 C17.4962232,10.1322452 17.4613779,10.1748339 17.4110457,10.1825773 L15.7849307,10.4535965 C15.5797305,10.4884418 15.417119,10.6394382 15.3667869,10.836895 C15.2196622,11.4060353 14.9951034,11.9519453 14.6931106,12.4591384 C14.5885747,12.6372367 14.5963181,12.8579237 14.7163409,13.0282786 L15.6726514,14.375631 C15.6997533,14.4143481 15.6958816,14.4724236 15.6610362,14.5072689 L14.5072689,15.6610362 C14.480167,15.6881382 14.4530651,15.6920099 14.4337066,15.6920099 C14.4104764,15.6920099 14.3911179,15.6842665 14.375631,15.6726514 L13.0321503,14.7163409 C12.8656671,14.5963181 12.6411084,14.5885747 12.4630101,14.6931106 C11.955817,14.9951034 11.409907,15.2196622 10.8407667,15.3667869 C10.6394382,15.417119 10.4884418,15.5836022 10.4574682,15.7849307 L10.1825773,17.4110457 C10.1748339,17.4613779 10.1322452,17.4962232 10.0819131,17.4962232 L8.45192636,17.4962232 C8.40159423,17.4962232 8.3590055,17.4613779 8.3512621,17.4110457 L8.08024293,15.7849307 C8.04539761,15.5797305 7.89440121,15.417119 7.69694439,15.3667869 C7.14329095,15.2235339 6.60899601,15.0028468 6.1095464,14.7163409 C6.02824065,14.6698804 5.9353198,14.6466502 5.84627064,14.6466502 C5.74173467,14.6466502 5.63332701,14.6776238 5.54427785,14.7434428 L4.18918201,15.7074967 C4.1698235,15.7191118 4.15046498,15.7268552 4.13110647,15.7268552 C4.11561966,15.7268552 4.08464604,15.7229835 4.05754413,15.6958816 L2.90377681,14.5421143 C2.86893149,14.5072689 2.86505978,14.4530651 2.8921617,14.4104764 L3.84460049,13.074739 C3.96462327,12.9043841 3.97236667,12.6798254 3.86783071,12.5017271 C3.56583792,11.9984058 3.33353578,11.4524957 3.18641108,10.8833555 C3.13220725,10.6858987 2.96959575,10.5349023 2.76826722,10.5000569 L1.1305371,10.2212944 C1.08020497,10.213551 1.04535965,10.1709622 1.04535965,10.1206301 L1.04535965,8.49064339 C1.04535965,8.44031125 1.08020497,8.39772253 1.1305371,8.38997912 L2.74503701,8.11895995 C2.95023724,8.08411463 3.11672044,7.93311824 3.16705257,7.73178971 C3.31030556,7.16264946 3.5309926,6.61286772 3.82911368,6.1056747 C3.93364965,5.92757639 3.92203454,5.70688935 3.80201177,5.54040615 L2.83795787,4.18531031 C2.81085595,4.14659328 2.81472765,4.08851775 2.84957297,4.05367242 L4.00334029,2.89990511 C4.03044221,2.87280319 4.05754413,2.86893149 4.07690264,2.86893149 C4.10013285,2.86893149 4.11949136,2.87667489 4.13497817,2.88829 L5.47071551,3.84072879 C5.64107041,3.96075157 5.86562915,3.96849497 6.04372746,3.86395901 C6.54704878,3.56196622 7.09295882,3.32966407 7.66209907,3.18253938 C7.85955589,3.12833555 8.01055229,2.96572405 8.04539761,2.76439552 L8.32416018,1.1266654 C8.33190359,1.07633327 8.37449231,1.04148795 8.42482444,1.04148795 L10.0548112,1.04148795 C10.1051433,1.04148795 10.147732,1.07633327 10.1554754,1.1266654 L10.4264946,2.74116531 C10.4613399,2.94636553 10.6123363,3.11284874 10.8136648,3.16318087 C11.3982919,3.31030556 11.955817,3.538736 12.4746252,3.84460049 C12.6527235,3.94913646 12.8734105,3.94139305 13.0437654,3.82137028 L14.3795028,2.86118808 C14.3988613,2.84957297 14.4182198,2.84182957 14.4375783,2.84182957 C14.4530651,2.84182957 14.4840387,2.84570127 14.5111406,2.87280319 L15.664908,4.02657051 C15.6997533,4.06141583 15.703625,4.11561966 15.6765231,4.15820839 L14.7202126,5.50168913 C14.6001898,5.66817233 14.5924464,5.89273107 14.6969823,6.07082938 C14.9989751,6.5780224 15.2235339,7.12393243 15.3706586,7.69307269 C15.4209907,7.89440121 15.5874739,8.04539761 15.7888024,8.07637123 L17.4149174,8.3512621 C17.4652496,8.3590055 17.5000949,8.40159423 17.5000949,8.45192636 L17.5000949,10.0819131 L17.4962232,10.0819131 L17.4962232,10.0819131 Z" id="Shape"></path>
                            <path d="M9.15098374,5.15151515 C6.94411337,5.15151515 5.15151515,6.94411337 5.15151515,9.15098374 C5.15151515,11.3578541 6.94411337,13.1504523 9.15098374,13.1504523 C11.3578541,13.1504523 13.1504523,11.3578541 13.1504523,9.15098374 C13.1504523,6.94411337 11.3578541,5.15151515 9.15098374,5.15151515 L9.15098374,5.15151515 Z M9.15098374,12.1050927 C7.52099703,12.1050927 6.1968748,10.7809705 6.1968748,9.15098374 C6.1968748,7.52099703 7.52099703,6.1968748 9.15098374,6.1968748 C10.7809705,6.1968748 12.1050927,7.52099703 12.1050927,9.15098374 C12.1050927,10.7809705 10.7809705,12.1050927 9.15098374,12.1050927 L9.15098374,12.1050927 Z" id="Shape"></path>
                        </g>
                    </g>
                </g>
            </g>
        </g>
    </g>
</svg>