<?xml version="1.0" encoding="UTF-8" standalone="no"?>
<svg width="24px" height="24px" viewBox="0 0 24 24" version="1.1" xmlns="http://www.w3.org/2000/svg" xmlns:xlink="http://www.w3.org/1999/xlink">
    <!-- Generator: sketchtool 3.8.1 (29687) - http://www.bohemiancoding.com/sketch -->
    <title>19785622-37A8-4AAB-8369-E61B4EC55E6D</title>
    <desc>Created with sketchtool.</desc>
    <defs></defs>
    <g id="Page-1" stroke="none" stroke-width="1" fill="none" fill-rule="evenodd">
        <g id="6" transform="translate(-1133.000000, -119.000000)">
            <g id="Group-9" transform="translate(77.000000, 82.000000)">
                <g id="Group-13" transform="translate(987.000000, 35.000000)">
                    <g id="refresh" transform="translate(69.000000, 2.000000)">
                        <ellipse id="Circle" fill="#1B2F5C" cx="12" cy="12" rx="12" ry="12"></ellipse>
                        <g id="Group" transform="translate(5.000000, 5.000000)" fill="#FFFFFF">
                            <path d="M2.07904211,3.21756771 C3.04145263,1.8585599 4.63538947,1.015625 6.34068158,1.015625 C9.20557368,1.015625 11.5363711,3.32210938 11.5363711,6.15719271 L12.5626868,6.15719271 C12.5626868,2.76209375 9.77151842,0 6.34068158,0 C5.14201316,0 3.97806842,0.338169271 2.97467368,0.977979167 C2.33890526,1.38334896 1.78732895,1.89691667 1.34177105,2.49142969 L0.00277105263,1.17274219 L0.00277105263,5.01061979 L3.89969211,5.01061979 L2.07904211,3.21756771 L2.07904211,3.21756771 Z" id="Shape"></path>
                            <path d="M12.9886079,7.98084896 L9.09168684,7.98084896 L10.9123368,9.7739349 C9.94992632,11.1329089 8.35598947,11.9758776 6.65069737,11.9758776 C3.78577105,11.9758776 1.45500789,9.66939323 1.45500789,6.8343099 L0.428692105,6.8343099 C0.428692105,10.2294089 3.21986053,12.9915026 6.65069737,12.9915026 C7.84936579,12.9915026 9.01334474,12.6533333 10.0167053,12.0135234 C10.6524737,11.6081198 11.20405,11.0945521 11.6496079,10.5000391 L12.9885737,11.8187266 L12.9885737,7.98084896 L12.9886079,7.98084896 Z" id="Shape"></path>
                        </g>
                    </g>
                </g>
            </g>
        </g>
    </g>
</svg>