<?xml version="1.0" encoding="UTF-8" standalone="no"?>
<svg width="24px" height="24px" viewBox="0 0 24 24" version="1.1" xmlns="http://www.w3.org/2000/svg" xmlns:xlink="http://www.w3.org/1999/xlink">
    <!-- Generator: sketchtool 3.8.1 (29687) - http://www.bohemiancoding.com/sketch -->
    <title>3CDBF847-B785-4A55-AA90-2C0D6F9AA66C</title>
    <desc>Created with sketchtool.</desc>
    <defs></defs>
    <g id="Page-1" stroke="none" stroke-width="1" fill="none" fill-rule="evenodd">
        <g id="6" transform="translate(-1164.000000, -119.000000)">
            <g id="Group-9" transform="translate(77.000000, 82.000000)">
                <g id="Group-13" transform="translate(987.000000, 35.000000)">
                    <g id="Print" transform="translate(100.000000, 2.000000)">
                        <ellipse id="Circle" fill="#1B2F5C" cx="12" cy="12" rx="12" ry="12"></ellipse>
                        <g id="Group" transform="translate(5.000000, 5.000000)" fill="#FFFFFF">
                            <path d="M3.45877712,12.4970414 L3.45877712,14.2011834 C3.45877712,14.4915187 3.68599606,14.7187377 3.97633136,14.7187377 L10.7928994,14.7187377 C11.0832347,14.7187377 11.3104536,14.4915187 11.3104536,14.2011834 L11.3104536,12.4970414 L14.2011834,12.4970414 C14.4915187,12.4970414 14.7187377,12.2698225 14.7187377,11.9794872 L14.7187377,2.78974359 C14.7187377,2.49940828 14.4915187,2.27218935 14.2011834,2.27218935 L11.3104536,2.27218935 L11.3104536,0.568047337 C11.3104536,0.277712032 11.0832347,0.0504930966 10.7928994,0.0504930966 L3.97633136,0.0504930966 C3.68599606,0.0504930966 3.45877712,0.277712032 3.45877712,0.568047337 L3.45877712,2.27218935 L0.568047337,2.27218935 C0.277712032,2.27218935 0.0504930966,2.49940828 0.0504930966,2.78974359 L0.0504930966,11.9794872 C0.0504930966,12.2571992 0.290335306,12.4970414 0.568047337,12.4970414 L3.45877712,12.4970414 Z M10.2753452,13.6836292 L4.4938856,13.6836292 L4.4938856,9.41696252 L10.2753452,9.41696252 L10.2753452,13.6836292 L10.2753452,13.6836292 Z M4.4938856,1.08560158 L10.2753452,1.08560158 L10.2753452,2.27218935 L4.4938856,2.27218935 L4.4938856,1.08560158 L4.4938856,1.08560158 Z M1.08560158,3.30729783 L3.97633136,3.30729783 L10.7928994,3.30729783 L13.6836292,3.30729783 L13.6836292,11.4619329 L11.3104536,11.4619329 L11.3104536,9.41696252 L12.2319527,9.41696252 C12.522288,9.41696252 12.7495069,9.18974359 12.7495069,8.89940828 C12.7495069,8.60907298 12.522288,8.38185404 12.2319527,8.38185404 L10.7928994,8.38185404 L3.97633136,8.38185404 L2.54990138,8.38185404 C2.25956607,8.38185404 2.03234714,8.60907298 2.03234714,8.89940828 C2.03234714,9.18974359 2.25956607,9.41696252 2.54990138,9.41696252 L3.47140039,9.41696252 L3.47140039,11.4619329 L1.08560158,11.4619329 L1.08560158,3.30729783 L1.08560158,3.30729783 Z" id="Shape"></path>
                            <path d="M10.1238659,5.97080868 L11.4619329,5.97080868 C11.7522682,5.97080868 11.9794872,5.74358974 11.9794872,5.45325444 C11.9794872,5.16291913 11.7522682,4.9357002 11.4619329,4.9357002 L10.1238659,4.9357002 C9.83353057,4.9357002 9.60631164,5.16291913 9.60631164,5.45325444 C9.60631164,5.74358974 9.83353057,5.97080868 10.1238659,5.97080868 L10.1238659,5.97080868 Z" id="Shape"></path>
                        </g>
                    </g>
                </g>
            </g>
        </g>
    </g>
</svg>