<?xml version="1.0" encoding="UTF-8" standalone="no"?>
<svg width="14px" height="14px" viewBox="0 0 14 14" version="1.1" xmlns="http://www.w3.org/2000/svg" xmlns:xlink="http://www.w3.org/1999/xlink">
    <!-- Generator: sketchtool 3.8.1 (29687) - http://www.bohemiancoding.com/sketch -->
    <title>7731F0AD-A077-4A90-B8E2-CEDAFF8204C6</title>
    <desc>Created with sketchtool.</desc>
    <defs></defs>
    <g id="Page-1" stroke="none" stroke-width="1" fill="none" fill-rule="evenodd">
        <g id="1" transform="translate(-1007.000000, -200.000000)" fill="#727272">
            <g id="2" transform="translate(996.000000, 112.000000)">
                <g id="Group-12" transform="translate(11.000000, 84.000000)">
                    <g id="check-form" transform="translate(0.000000, 4.000000)">
                        <path d="M10.5343724,7.4086069 L10.5343724,1.12537471 L1.15636782,1.12537471 L1.15636782,12.8478805 L5.47023448,12.8478805 C5.77971494,12.8478805 6.03290575,13.1010713 6.03290575,13.4105517 C6.03290575,13.7200322 5.77971494,13.973223 5.47023448,13.973223 L0.593664368,13.973223 C0.284183908,13.973223 0.0309931034,13.7200322 0.0309931034,13.4105517 L0.0309931034,0.562671264 C0.0309931034,0.253190805 0.284216092,0 0.593664368,0 L11.0970115,0 C11.406492,0 11.6596828,0.253190805 11.6596828,0.562671264 L11.6596828,7.4086069 C11.6596828,7.71808736 11.406492,7.97127816 11.0970115,7.97127816 C10.787531,7.97127816 10.5343724,7.71808736 10.5343724,7.4086069 L10.5343724,7.4086069 Z M13.4321793,8.7778069 C13.1977195,8.57147586 12.8413793,8.59023908 12.6350483,8.82469885 L9.54967356,12.2570483 L8.00230345,10.7659356 C7.77724138,10.5502391 7.42086897,10.5596046 7.20517241,10.7846989 C6.98947586,11.0097931 6.99884138,11.3661333 7.22393563,11.5818299 L9.19330115,13.4761747 C9.29645057,13.5793241 9.43712644,13.6356138 9.58716782,13.6356138 L9.60593103,13.6356138 C9.75597241,13.6262483 9.90601379,13.5605931 9.9997977,13.448046 L13.4696736,9.58430345 C13.6853701,9.34047816 13.6666069,8.98413793 13.4321793,8.7778069 L13.4321793,8.7778069 Z M8.4711908,3.28230805 L3.40708506,3.28230805 C3.0976046,3.28230805 2.84441379,3.53549885 2.84441379,3.84497931 C2.84441379,4.15445977 3.0976046,4.40765057 3.40708506,4.40765057 L8.4711908,4.40765057 C8.78067126,4.40765057 9.03386207,4.15445977 9.03386207,3.84497931 C9.03386207,3.53549885 8.78067126,3.28230805 8.4711908,3.28230805 L8.4711908,3.28230805 Z M9.03389425,6.93971954 C9.03389425,6.63023908 8.78070345,6.37704828 8.47122299,6.37704828 L3.40708506,6.37704828 C3.0976046,6.37704828 2.84441379,6.63023908 2.84441379,6.93971954 C2.84441379,7.2492 3.0976046,7.5023908 3.40708506,7.5023908 L8.4711908,7.5023908 C8.78067126,7.5023908 9.03389425,7.2492 9.03389425,6.93971954 L9.03389425,6.93971954 Z M3.40708506,9.3780046 C3.0976046,9.3780046 2.84441379,9.6311954 2.84441379,9.94067586 C2.84441379,10.2501563 3.0976046,10.5033471 3.40708506,10.5033471 L4.90756322,10.5033471 C5.21704368,10.5033471 5.47023448,10.2501563 5.47023448,9.94067586 C5.47023448,9.6311954 5.21704368,9.3780046 4.90756322,9.3780046 L3.40708506,9.3780046 L3.40708506,9.3780046 Z" id="Shape"></path>
                    </g>
                </g>
            </g>
        </g>
    </g>
</svg>