<?xml version="1.0" encoding="UTF-8" standalone="no"?>
<svg width="12px" height="14px" viewBox="0 0 12 14" version="1.1" xmlns="http://www.w3.org/2000/svg" xmlns:xlink="http://www.w3.org/1999/xlink">
    <!-- Generator: sketchtool 3.8.1 (29687) - http://www.bohemiancoding.com/sketch -->
    <title>F3736607-D4A0-45AD-8CC2-E25BA717ED1A</title>
    <desc>Created with sketchtool.</desc>
    <defs></defs>
    <g id="Page-1" stroke="none" stroke-width="1" fill="none" fill-rule="evenodd">
        <g id="1" transform="translate(-1007.000000, -352.000000)" fill="#727272">
            <g id="2" transform="translate(996.000000, 112.000000)">
                <g id="document" transform="translate(11.000000, 240.000000)">
                    <g id="Group">
                        <path d="M8.23504098,7.22090164 L2.97643443,7.22090164 C2.76127049,7.22090164 2.58913934,7.39303279 2.58913934,7.60819672 C2.58913934,7.82336066 2.76127049,7.9954918 2.97643443,7.9954918 L8.23504098,7.9954918 C8.45020492,7.9954918 8.62233607,7.82336066 8.62233607,7.60819672 C8.62233607,7.39303279 8.45020492,7.22090164 8.23504098,7.22090164 L8.23504098,7.22090164 Z" id="Shape"></path>
                        <path d="M2.92766393,5.8352459 L8.18627049,5.8352459 C8.40143443,5.8352459 8.57356557,5.66311475 8.57356557,5.44795082 C8.57356557,5.23278689 8.40143443,5.06065574 8.18627049,5.06065574 L2.92766393,5.06065574 C2.7125,5.06065574 2.54036885,5.23278689 2.54036885,5.44795082 C2.54036885,5.66311475 2.7125,5.8352459 2.92766393,5.8352459 L2.92766393,5.8352459 Z" id="Shape"></path>
                        <path d="M8.23504098,9.37827869 L2.97643443,9.37827869 C2.76127049,9.37827869 2.58913934,9.55040984 2.58913934,9.76557377 C2.58913934,9.9807377 2.76127049,10.1528689 2.97643443,10.1528689 L8.23504098,10.1528689 C8.45020492,10.1528689 8.62233607,9.9807377 8.62233607,9.76557377 C8.62233607,9.55040984 8.45020492,9.37827869 8.23504098,9.37827869 L8.23504098,9.37827869 Z" id="Shape"></path>
                        <path d="M11.0178279,3.16721311 L7.83340164,0.109016393 C7.76168033,0.0401639344 7.66413934,0 7.56372951,0 L1.73709016,0 C0.793237705,0 0.0243852459,0.768852459 0.0243852459,1.71270492 L0.0243852459,12.2614754 C0.0243852459,13.2053279 0.793237705,13.9741803 1.73709016,13.9741803 L9.42561475,13.9741803 C10.3694672,13.9741803 11.1383197,13.2053279 11.1383197,12.2614754 L11.1383197,3.44836066 C11.1354508,3.34221311 11.092418,3.24180328 11.0178279,3.16721311 L11.0178279,3.16721311 Z M7.95389344,1.29672131 L9.78709016,3.06106557 L8.88913934,3.06106557 C8.3727459,3.06106557 7.95102459,2.64221311 7.95102459,2.12295082 L7.95102459,1.29672131 L7.95389344,1.29672131 L7.95389344,1.29672131 Z M10.3608607,12.2614754 C10.3608607,12.7778689 9.9420082,13.1995902 9.4227459,13.1995902 L1.73709016,13.1995902 C1.22069672,13.1995902 0.79897541,12.7807377 0.79897541,12.2614754 L0.79897541,1.70983607 C0.79897541,1.19344262 1.21782787,0.771721311 1.73709016,0.771721311 L7.17643443,0.771721311 L7.17643443,2.12008197 C7.17643443,3.06393443 7.94528689,3.83278689 8.88913934,3.83278689 L10.3608607,3.83278689 L10.3608607,12.2614754 L10.3608607,12.2614754 Z" id="Shape"></path>
                    </g>
                </g>
            </g>
        </g>
    </g>
</svg>