<?xml version="1.0" encoding="UTF-8" standalone="no"?>
<svg width="24px" height="24px" viewBox="0 0 24 24" version="1.1" xmlns="http://www.w3.org/2000/svg" xmlns:xlink="http://www.w3.org/1999/xlink">
    <!-- Generator: sketchtool 3.8.1 (29687) - http://www.bohemiancoding.com/sketch -->
    <title>3E7A8B87-CD65-4E87-8301-9202D88542B1</title>
    <desc>Created with sketchtool.</desc>
    <defs></defs>
    <g id="Page-1" stroke="none" stroke-width="1" fill="none" fill-rule="evenodd">
        <g id="4" transform="translate(-553.000000, -185.000000)">
            <g id="Group-33" transform="translate(56.000000, 55.000000)">
                <g id="2">
                    <g id="Group-8" transform="translate(0.000000, 1.000000)">
                        <g id="Group-37" transform="translate(407.000000, 129.000000)">
                            <g id="Group-16">
                                <g id="email" transform="translate(90.000000, 0.000000)">
                                    <ellipse id="Circle" fill="#2C9DC0" cx="12" cy="12" rx="12" ry="12"></ellipse>
                                    <g id="mail" transform="translate(5.000000, 7.000000)" fill="#FFFFFF">
                                        <g id="Group">
                                            <g transform="translate(2.343750, 5.156250)" id="Shape">
                                                <path d="M9.42609375,3.0515625 C9.3684375,3.0515625 9.31078125,3.03046875 9.26578125,2.9878125 L6.56859375,0.4575 C6.474375,0.369375 6.4696875,0.22078125 6.55828125,0.1265625 C6.646875,0.03140625 6.79453125,0.0271875 6.8896875,0.11625 L9.586875,2.6465625 C9.68109375,2.7346875 9.68578125,2.88328125 9.5971875,2.9775 C9.55078125,3.02671875 9.48890625,3.0515625 9.42609375,3.0515625 L9.42609375,3.0515625 Z"></path>
                                                <path d="M0.4228125,3.0515625 C0.36046875,3.0515625 0.298125,3.02671875 0.25171875,2.9775 C0.163125,2.88328125 0.1678125,2.7346875 0.26203125,2.6465625 L2.96015625,0.11625 C3.05484375,0.028125 3.2034375,0.031875 3.2915625,0.1265625 C3.38015625,0.22078125 3.37546875,0.369375 3.28125,0.4575 L0.583125,2.9878125 C0.538125,3.03046875 0.48046875,3.0515625 0.4228125,3.0515625 L0.4228125,3.0515625 Z"></path>
                                            </g>
                                            <path d="M13.365,10.5604687 L1.171875,10.5604687 C0.5259375,10.5604687 0,10.035 0,9.38859375 L0,1.3978125 C0,0.75140625 0.5259375,0.2259375 1.171875,0.2259375 L13.365,0.2259375 C14.0109375,0.2259375 14.536875,0.75140625 14.536875,1.3978125 L14.536875,9.38859375 C14.536875,10.035 14.0109375,10.5604687 13.365,10.5604687 L13.365,10.5604687 Z M1.171875,0.6946875 C0.78421875,0.6946875 0.46875,1.01015625 0.46875,1.3978125 L0.46875,9.38859375 C0.46875,9.77625 0.78421875,10.0917187 1.171875,10.0917187 L13.365,10.0917187 C13.7526562,10.0917187 14.068125,9.77625 14.068125,9.38859375 L14.068125,1.3978125 C14.068125,1.01015625 13.7526562,0.6946875 13.365,0.6946875 L1.171875,0.6946875 L1.171875,0.6946875 Z" id="Shape"></path>
                                            <path d="M7.2684375,6.5709375 C6.95671875,6.5709375 6.645,6.46734375 6.4078125,6.260625 L0.3890625,1.01015625 C0.2915625,0.9253125 0.28125,0.7771875 0.36609375,0.67921875 C0.451875,0.58171875 0.59953125,0.5728125 0.69703125,0.65671875 L6.71578125,5.90671875 C7.0153125,6.1678125 7.5215625,6.1678125 7.820625,5.90671875 L13.831875,0.66515625 C13.9289062,0.5803125 14.0765625,0.5896875 14.1628125,0.68765625 C14.2476562,0.785625 14.2378125,0.93328125 14.1403125,1.01859375 L8.1290625,6.26015625 C7.89140625,6.46734375 7.58015625,6.5709375 7.2684375,6.5709375 L7.2684375,6.5709375 Z" id="Shape"></path>
                                        </g>
                                    </g>
                                </g>
                            </g>
                        </g>
                    </g>
                </g>
            </g>
        </g>
    </g>
</svg>