<?xml version="1.0" encoding="UTF-8" standalone="no"?>
<svg width="14px" height="14px" viewBox="0 0 14 14" version="1.1" xmlns="http://www.w3.org/2000/svg" xmlns:xlink="http://www.w3.org/1999/xlink">
    <!-- Generator: sketchtool 3.8.1 (29687) - http://www.bohemiancoding.com/sketch -->
    <title>E7DF3E1A-CE0A-4C5B-9677-E876EE965EC4</title>
    <desc>Created with sketchtool.</desc>
    <defs></defs>
    <g id="Page-1" stroke="none" stroke-width="1" fill="none" fill-rule="evenodd">
        <g id="1" transform="translate(-1005.000000, -276.000000)" fill="#727272">
            <g id="2" transform="translate(996.000000, 112.000000)">
                <g id="flag" transform="translate(9.000000, 164.000000)">
                    <path d="M13.8671211,6.97422837 L10.9933426,3.8879308 L13.8623737,0.889024221 C14.0041176,0.740934256 14.0436955,0.522359862 13.9632318,0.333916955 C13.8827197,0.145425606 13.6974256,0.0229619377 13.4923183,0.0229619377 L4.60619377,0.0229619377 L4.11338408,0.0229619377 L1.64289273,0.0229619377 C1.36017993,0.0229619377 1.13080277,0.252096886 1.13080277,0.535051903 C1.13080277,0.817764706 1.35993772,1.04714187 1.64289273,1.04714187 L4.11333564,1.04714187 L4.60614533,1.04714187 L12.2938408,1.04714187 L9.91897578,3.52945329 C9.73155017,3.72559862 9.72946713,4.03388927 9.91422837,4.2324083 L12.3157855,6.81136332 L2.17058131,6.81136332 L2.17058131,2.77587543 C2.17058131,2.49316263 1.94144637,2.26378547 1.65849135,2.26378547 C1.37577855,2.26378547 1.14640138,2.49292042 1.14640138,2.77587543 L1.14640138,7.32321107 L1.14640138,12.9572664 L0.512089965,12.9572664 C0.229377163,12.9572664 0,13.1866436 0,13.4693564 C0,13.7520692 0.229134948,13.9814464 0.512089965,13.9814464 L2.93423529,13.9814464 C3.21719031,13.9814464 3.44632526,13.7520692 3.44632526,13.4693564 C3.44632526,13.1866436 3.21719031,12.9572664 2.93423529,12.9572664 L2.17058131,12.9572664 L2.17058131,7.83530104 L13.4922699,7.83530104 C13.6960692,7.83530104 13.8802976,7.7146782 13.9618754,7.52749481 C14.0431626,7.34060208 14.0059585,7.12338408 13.8671211,6.97422837 L13.8671211,6.97422837 Z" id="Shape"></path>
                </g>
            </g>
        </g>
    </g>
</svg>