<?xml version="1.0" encoding="UTF-8" standalone="no"?>
<svg width="14px" height="14px" viewBox="0 0 14 14" version="1.1" xmlns="http://www.w3.org/2000/svg" xmlns:xlink="http://www.w3.org/1999/xlink">
    <!-- Generator: sketchtool 3.8.1 (29687) - http://www.bohemiancoding.com/sketch -->
    <title>9FE91FBA-59F4-40A6-B537-5C82CA009E93</title>
    <desc>Created with sketchtool.</desc>
    <defs></defs>
    <g id="Page-1" stroke="none" stroke-width="1" fill="none" fill-rule="evenodd">
        <g id="1" transform="translate(-1007.000000, -162.000000)" fill="#727272">
            <g id="2" transform="translate(996.000000, 112.000000)">
                <g id="Group-14" transform="translate(11.000000, 46.000000)">
                    <g id="pie-chart" transform="translate(0.000000, 4.000000)">
                        <g id="Group">
                            <path d="M12.0849057,7.34339623 L6.63752621,7.34339623 L6.63752621,1.89601677 C6.63752621,1.67589099 6.46142558,1.49979036 6.24129979,1.49979036 C2.80146751,1.49979036 0.00146750524,4.29979036 0.00146750524,7.73962264 C0.00146750524,11.1794549 2.80146751,13.9794549 6.24129979,13.9794549 C9.68113208,13.9794549 12.4811321,11.1794549 12.4811321,7.73962264 C12.4811321,7.52243187 12.3020964,7.34339623 12.0849057,7.34339623 L12.0849057,7.34339623 Z M6.24129979,13.1870021 C3.23878407,13.1870021 0.793920335,10.7421384 0.793920335,7.73962264 C0.793920335,4.86918239 3.0245283,2.50943396 5.84507338,2.30691824 L5.84507338,7.73962264 C5.84507338,7.95974843 6.021174,8.13584906 6.24129979,8.13584906 L11.6740042,8.13584906 C11.4714885,10.9563941 9.11174004,13.1870021 6.24129979,13.1870021 L6.24129979,13.1870021 Z" id="Shape"></path>
                            <path d="M13.9779874,6.21928721 C13.9721174,4.7048218 13.4174004,3.24612159 12.4165618,2.11027254 C11.2308176,0.768972746 9.52851153,0 7.73815514,0 C7.51802935,0 7.34192872,0.176100629 7.34192872,0.396226415 L7.34192872,6.23983229 C7.34192872,6.45995807 7.51802935,6.6360587 7.73815514,6.6360587 L13.581761,6.6360587 L13.581761,6.6360587 C13.8018868,6.6360587 13.9779874,6.45995807 13.9779874,6.23983229 L13.9779874,6.21928721 L13.9779874,6.21928721 Z M8.13438155,5.84654088 L8.13438155,0.810062893 C9.5490566,0.91278826 10.8756813,1.5672956 11.8207547,2.63857442 C12.6132075,3.53375262 13.0828092,4.66079665 13.1708595,5.84654088 L8.13438155,5.84654088 L8.13438155,5.84654088 Z" id="Shape"></path>
                        </g>
                    </g>
                </g>
            </g>
        </g>
    </g>
</svg>