<?xml version="1.0" encoding="UTF-8" standalone="no"?>
<svg width="26px" height="22px" viewBox="0 0 26 22" version="1.1" xmlns="http://www.w3.org/2000/svg" xmlns:xlink="http://www.w3.org/1999/xlink">
    <!-- Generator: sketchtool 3.8.1 (29687) - http://www.bohemiancoding.com/sketch -->
    <title>5D7B2BE7-4939-4F9A-BBA1-7E7F80C50C72</title>
    <desc>Created with sketchtool.</desc>
    <defs></defs>
    <g id="Page-1" stroke="none" stroke-width="1" fill="none" fill-rule="evenodd">
        <g id="1" transform="translate(-15.000000, -77.000000)" fill="#FFFFFF">
            <g id="Side-Header" transform="translate(0.000000, -10.000000)">
                <g id="Home-Icon" transform="translate(15.000000, 87.000000)">
                    <path d="M25.13125,12.3312 L12.8,0 L0.46875,12.3312 C-0.15625,12.9562 -0.15625,13.9687 0.46875,14.5937 C1.09375,15.2187 2.10625,15.2187 2.73125,14.5937 L3.2,14.125 L3.2,21.93125 L22.4,21.93125 L22.4,14.125 L22.86875,14.59375 C23.18125,14.90625 23.59065,15.0625 24,15.0625 C24.40935,15.0625 24.81875,14.90625 25.13125,14.59375 C25.75625,13.9687 25.75625,12.9562 25.13125,12.3312 L25.13125,12.3312 Z M20.8,20.3312 L16,20.3312 L16,13.9312 L9.6,13.9312 L9.6,20.3312 L4.8,20.3312 L4.8,12.525 L12.8,4.525 L20.8,12.525 L20.8,20.3312 L20.8,20.3312 Z" id="Shape"></path>
                </g>
            </g>
        </g>
    </g>
</svg>