<?xml version="1.0" encoding="UTF-8" standalone="no"?>
<svg width="24px" height="34px" viewBox="0 0 24 34" version="1.1" xmlns="http://www.w3.org/2000/svg" xmlns:xlink="http://www.w3.org/1999/xlink">
    <!-- Generator: sketchtool 3.8.1 (29687) - http://www.bohemiancoding.com/sketch -->
    <title>B82A45AE-F709-4E64-B47C-6B7B5937FAD2</title>
    <desc>Created with sketchtool.</desc>
    <defs></defs>
    <g id="Page-1" stroke="none" stroke-width="1" fill="none" fill-rule="evenodd">
        <g id="1" transform="translate(-16.000000, -199.000000)" fill="#FFFFFF">
            <g id="Side-Header" transform="translate(0.000000, -10.000000)">
                <g id="Interaction-Icon" transform="translate(16.000000, 209.000000)">
                    <path d="M23.2508742,17.498925 C23.2508742,17.2854397 23.122466,17.1036601 22.940158,17.0201684 L22.9686932,17.0201684 C20.1780598,14.0958425 15.9870898,11.6571429 11.6254371,11.6571429 C7.26378448,11.6571429 3.0728144,14.0958425 0.282181065,17.0201684 L0.310716228,17.0201684 C0.128408237,17.1036601 0,17.2854397 0,17.498925 C0,17.7129387 0.128408237,17.8947183 0.310716228,17.9776816 L0.282181065,17.9776816 C3.07704183,20.9030644 7.25691491,23.3142857 11.6254371,23.3142857 C15.9939593,23.3142857 20.1902137,20.9030644 22.9850745,17.9776816 L22.940158,17.9776816 C23.122466,17.8947183 23.2508742,17.7134672 23.2508742,17.498925 L23.2508742,17.498925 Z M11.6254371,13.798337 C9.58253076,13.798337 7.9264344,15.4544334 7.9264344,17.4973397 C7.9264344,19.5402461 9.58253076,21.1963424 11.6254371,21.1963424 C13.6683435,21.1963424 15.3244398,19.5402461 15.3244398,17.4973397 C15.3244398,15.4544334 13.6683435,13.798337 11.6254371,13.798337 L11.6254371,13.798337 Z M11.6254371,20.1394845 C10.1659163,20.1394845 8.98329232,18.9568605 8.98329232,17.4973397 C8.98329232,16.0378189 10.1659163,14.8551949 11.6254371,14.8551949 C13.0849579,14.8551949 14.2675819,16.0378189 14.2675819,17.4973397 C14.2675819,18.9568605 13.0849579,20.1394845 11.6254371,20.1394845 Z M16.2946415,28.7970858 C16.0766204,28.5790647 15.7137601,28.5790647 15.4962472,28.7970858 L12.2876384,32.0056946 L12.2876384,24.677316 C12.2871302,24.3627354 12.037092,24.1126973 11.7225115,24.1126973 C11.4079309,24.1126973 11.1497614,24.3627354 11.1497614,24.677316 L11.1497614,32.0056946 L7.94877574,28.7970858 C7.72313154,28.5790647 7.35976306,28.5790647 7.14225018,28.7970858 C6.91660598,29.02273 6.91660598,29.3860984 7.14225018,29.6036113 L11.3189946,33.7803557 C11.5370157,34.006 11.899876,34.006 12.1173888,33.7803557 L16.2946415,29.6036113 C16.5202857,29.3855902 16.5202857,29.02273 16.2946415,28.7970858 Z M7.14225018,5.95091468 C7.36027127,6.16893576 7.72313154,6.16893576 7.94064442,5.95091468 L11.1492532,2.74230585 L11.1492532,10.0706845 C11.1497614,10.385265 11.3997996,10.6353032 11.7143802,10.6353032 C12.0289607,10.6353032 12.2871302,10.385265 12.2871302,10.0706845 L12.2871302,2.74230585 L15.4881159,5.95091468 C15.7137601,6.16893576 16.0771286,6.16893576 16.2946415,5.95091468 C16.5202857,5.72527047 16.5202857,5.361902 16.2946415,5.14438912 L12.117897,0.967644696 C11.899876,0.742000494 11.5370157,0.742000494 11.3195028,0.967644696 L7.14225018,5.14438912 C6.91660598,5.3624102 6.91660598,5.72527047 7.14225018,5.95091468 Z" id="Combined-Shape"></path>
                </g>
            </g>
        </g>
    </g>
</svg>