<?xml version="1.0" encoding="UTF-8" standalone="no"?>
<svg width="24px" height="24px" viewBox="0 0 24 24" version="1.1" xmlns="http://www.w3.org/2000/svg" xmlns:xlink="http://www.w3.org/1999/xlink">
    <!-- Generator: sketchtool 3.8.1 (29687) - http://www.bohemiancoding.com/sketch -->
    <title>EC2B2D6D-9227-4B5A-B92A-5FCD4299DFCD</title>
    <desc>Created with sketchtool.</desc>
    <defs></defs>
    <g id="Page-1" stroke="none" stroke-width="1" fill="none" fill-rule="evenodd">
        <g id="4" transform="translate(-493.000000, -185.000000)">
            <g id="Group-33" transform="translate(56.000000, 55.000000)">
                <g id="2">
                    <g id="Group-8" transform="translate(0.000000, 1.000000)">
                        <g id="Group-37" transform="translate(407.000000, 129.000000)">
                            <g id="Group-16">
                                <g id="like" transform="translate(30.000000, 0.000000)">
                                    <ellipse id="Circle" fill="#2C9DC0" cx="12" cy="12" rx="12" ry="12"></ellipse>
                                    <g transform="translate(6.000000, 6.000000)" id="Shape" stroke="#FFFFFF" stroke-width="0.2" fill="#FFFFFF">
                                        <path d="M12.9785121,3.60422808 C12.7887501,1.51559591 11.3104066,0.000250015821 9.46028949,0.000250015821 C8.22771149,0.000250015821 7.09914007,0.66354199 6.46409988,1.72660926 C5.83481006,0.64979112 4.75249157,0 3.53966482,0 C1.68979776,0 0.211204188,1.51534589 0.0216921958,3.60397807 C0.00669124648,3.6962339 -0.0548126456,4.18176463 0.132199189,4.97356474 C0.401716244,6.11563701 1.02425564,7.15445275 1.93206309,7.9770048 L6.46109969,12.0870149 L11.0678912,7.97725481 C11.9756987,7.15445275 12.5982381,6.11588702 12.8677551,4.97356474 C13.054767,4.18201465 12.9932631,3.69648392 12.9785121,3.60422808 L12.9785121,3.60422808 Z M12.3809743,4.85905749 C12.1349587,5.9021235 11.5646727,6.85243363 10.73337,7.60548129 L6.46409988,11.4144723 L2.26808435,7.60648135 C1.43528165,6.8519336 0.865245577,5.90187348 0.618979993,4.85880747 C0.441968792,4.10951006 0.514723396,3.68623327 0.514973411,3.6834831 L0.518723649,3.6582315 C0.681233933,1.8283657 1.95156432,0.500031643 3.53966482,0.500031643 C4.71148897,0.500031643 5.74305425,1.22007721 6.23258523,2.37890054 L6.4628498,2.92468508 L6.69311438,2.37890054 C7.17489486,1.23782833 8.26096359,0.500281659 9.4605395,0.500281659 C11.04839,0.500281659 12.3189704,1.82861572 12.4847309,3.68223302 C12.4852309,3.68623327 12.5579855,4.10976007 12.3809743,4.85905749 L12.3809743,4.85905749 Z"></path>
                                    </g>
                                </g>
                            </g>
                        </g>
                    </g>
                </g>
            </g>
        </g>
    </g>
</svg>