<?xml version="1.0" encoding="UTF-8" standalone="no"?>
<svg width="24px" height="24px" viewBox="0 0 24 24" version="1.1" xmlns="http://www.w3.org/2000/svg" xmlns:xlink="http://www.w3.org/1999/xlink">
    <!-- Generator: sketchtool 3.8.1 (29687) - http://www.bohemiancoding.com/sketch -->
    <title>FD9D9F75-A352-4611-9BE1-39C75BAB00AF</title>
    <desc>Created with sketchtool.</desc>
    <defs></defs>
    <g id="Page-1" stroke="none" stroke-width="1" fill="none" fill-rule="evenodd">
        <g id="3" transform="translate(-737.000000, -74.000000)">
            <g id="Group-33" transform="translate(56.000000, 55.000000)">
                <g id="2">
                    <g id="Group-8" transform="translate(0.000000, 1.000000)">
                        <g id="Settings-Icon" transform="translate(681.000000, 18.000000)">
                            <path d="M12,24 C18.627417,24 24,18.627417 24,12 C24,5.372583 18.627417,0 12,0 C5.372583,0 0,5.372583 0,12 C0,18.627417 5.372583,24 12,24 Z" id="Oval-1" fill="#0A2F5D"></path>
                            <g id="controls" transform="translate(5.000000, 5.000000)" fill="#FFFFFF">
                                <g id="Group" transform="translate(7.681818, 6.818182) rotate(90.000000) translate(-7.681818, -6.818182) translate(1.181818, -0.181818)">
                                    <path d="M1.64983165,3.2996633 C2.47922559,3.2996633 3.16579125,2.68356902 3.28080808,1.88552189 L12.4915825,1.88552189 C12.6219192,1.88552189 12.7272727,1.78016835 12.7272727,1.64983165 C12.7272727,1.51949495 12.6219192,1.41414141 12.4915825,1.41414141 L3.28080808,1.41414141 C3.16579125,0.616094276 2.47922559,0 1.64983165,0 C0.74006734,0 4.4408921e-16,0.74030303 4.4408921e-16,1.64983165 C4.4408921e-16,2.55936027 0.74006734,3.2996633 1.64983165,3.2996633 L1.64983165,3.2996633 Z M1.64983165,0.471380471 C2.29962963,0.471380471 2.82828283,1.00003367 2.82828283,1.64983165 C2.82828283,2.29962963 2.29962963,2.82828283 1.64983165,2.82828283 C1.00003367,2.82828283 0.471380471,2.29962963 0.471380471,1.64983165 C0.471380471,1.00003367 1.00003367,0.471380471 1.64983165,0.471380471 L1.64983165,0.471380471 Z" id="Shape"></path>
                                    <path d="M11.0774411,9.8989899 C10.2480471,9.8989899 9.56148148,10.5150842 9.44646465,11.3131313 L0.235690236,11.3131313 C0.105589226,11.3131313 -1.66533454e-16,11.4184848 -1.66533454e-16,11.5488215 C-1.66533454e-16,11.6791582 0.105589226,11.7845118 0.235690236,11.7845118 L9.44646465,11.7845118 C9.56148148,12.5825589 10.2480471,13.1986532 11.0774411,13.1986532 C11.9869697,13.1986532 12.7272727,12.4583502 12.7272727,11.5488215 C12.7272727,10.6392929 11.9869697,9.8989899 11.0774411,9.8989899 L11.0774411,9.8989899 Z M11.0774411,12.7272727 C10.4276431,12.7272727 9.8989899,12.1986195 9.8989899,11.5488215 C9.8989899,10.8990236 10.4276431,10.3703704 11.0774411,10.3703704 C11.7272391,10.3703704 12.2558923,10.8990236 12.2558923,11.5488215 C12.2558923,12.1986195 11.7272391,12.7272727 11.0774411,12.7272727 L11.0774411,12.7272727 Z" id="Shape"></path>
                                    <path d="M12.4915825,6.36363636 L8.10020202,6.36363636 C8.00686869,5.51468013 7.28589226,4.85191919 6.41242424,4.85191919 C5.53895623,4.85191919 4.8179798,5.51491582 4.72464646,6.36363636 L0.235690236,6.36363636 C0.105589226,6.36363636 1.66533454e-16,6.4689899 1.66533454e-16,6.5993266 C1.66533454e-16,6.7296633 0.105589226,6.83501684 0.235690236,6.83501684 L4.73949495,6.83501684 C4.87548822,7.63636364 5.57289562,8.24915825 6.41242424,8.24915825 C7.25195286,8.24915825 7.94912458,7.63636364 8.08511785,6.83501684 L12.4915825,6.83501684 C12.6219192,6.83501684 12.7272727,6.7296633 12.7272727,6.5993266 C12.7272727,6.4689899 12.6219192,6.36363636 12.4915825,6.36363636 L12.4915825,6.36363636 Z M6.41242424,7.77777778 C5.73575758,7.77777778 5.18518519,7.22720539 5.18518519,6.55053872 C5.18518519,5.87387205 5.73575758,5.32329966 6.41242424,5.32329966 C7.08909091,5.32329966 7.6396633,5.87387205 7.6396633,6.55053872 C7.6396633,7.22720539 7.08909091,7.77777778 6.41242424,7.77777778 L6.41242424,7.77777778 Z" id="Shape"></path>
                                </g>
                            </g>
                        </g>
                    </g>
                </g>
            </g>
        </g>
    </g>
</svg>