<?xml version="1.0" encoding="UTF-8" standalone="no"?>
<svg width="24px" height="24px" viewBox="0 0 24 24" version="1.1" xmlns="http://www.w3.org/2000/svg" xmlns:xlink="http://www.w3.org/1999/xlink">
    <!-- Generator: sketchtool 3.8.1 (29687) - http://www.bohemiancoding.com/sketch -->
    <title>FFB21949-3405-4F6E-9DCF-1ABF1B8326E8</title>
    <desc>Created with sketchtool.</desc>
    <defs></defs>
    <g id="Page-1" stroke="none" stroke-width="1" fill="none" fill-rule="evenodd">
        <g id="3" transform="translate(-737.000000, -185.000000)">
            <g id="Group-33" transform="translate(56.000000, 55.000000)">
                <g id="2">
                    <g id="Group-8" transform="translate(0.000000, 1.000000)">
                        <g id="Group-21" transform="translate(681.000000, 129.000000)">
                            <path d="M12,24 C18.627417,24 24,18.627417 24,12 C24,5.372583 18.627417,0 12,0 C5.372583,0 0,5.372583 0,12 C0,18.627417 5.372583,24 12,24 Z" id="Oval-1-Copy" fill="#0A2F5D"></path>
                            <g id="Group-22" transform="translate(11.000000, 5.000000)" fill="#FFFFFF">
                                <path d="M1.5,3 C2.32842712,3 3,2.32842712 3,1.5 C3,0.671572875 2.32842712,0 1.5,0 C0.671572875,0 0,0.671572875 0,1.5 C0,2.32842712 0.671572875,3 1.5,3 Z" id="Oval-1-Copy-7"></path>
                                <path d="M1.5,9 C2.32842712,9 3,8.32842712 3,7.5 C3,6.67157288 2.32842712,6 1.5,6 C0.671572875,6 0,6.67157288 0,7.5 C0,8.32842712 0.671572875,9 1.5,9 Z" id="Oval-1-Copy-7"></path>
                                <path d="M1.5,15 C2.32842712,15 3,14.3284271 3,13.5 C3,12.6715729 2.32842712,12 1.5,12 C0.671572875,12 0,12.6715729 0,13.5 C0,14.3284271 0.671572875,15 1.5,15 Z" id="Oval-1-Copy-7"></path>
                            </g>
                        </g>
                    </g>
                </g>
            </g>
        </g>
    </g>
</svg>