<?xml version="1.0" encoding="UTF-8" standalone="no"?>
<svg width="24px" height="24px" viewBox="0 0 24 24" version="1.1" xmlns="http://www.w3.org/2000/svg" xmlns:xlink="http://www.w3.org/1999/xlink">
    <!-- Generator: sketchtool 3.8.1 (29687) - http://www.bohemiancoding.com/sketch -->
    <title>8DE03861-1D5D-4AC4-AFE4-11638FC60092</title>
    <desc>Created with sketchtool.</desc>
    <defs></defs>
    <g id="Page-1" stroke="none" stroke-width="1" fill="none" fill-rule="evenodd">
        <g id="4" transform="translate(-703.000000, -185.000000)">
            <g id="Group-33" transform="translate(56.000000, 55.000000)">
                <g id="2">
                    <g id="Group-8" transform="translate(0.000000, 1.000000)">
                        <g id="Group-37" transform="translate(407.000000, 129.000000)">
                            <g id="Group-16">
                                <g id="lock" transform="translate(240.000000, 0.000000)">
                                    <ellipse id="Circle" fill="#2C9DC0" cx="12" cy="12" rx="12" ry="12"></ellipse>
                                    <g id="locked" transform="translate(7.000000, 6.000000)" fill="#FFFFFF" stroke="#FFFFFF">
                                        <g id="Group">
                                            <path d="M8.63636364,4.57113636 L8.63636364,3.29545455 C8.63636364,1.47840909 7.005,0 5,0 C2.995,0 1.36363636,1.47840909 1.36363636,3.29545455 L1.36363636,4.57113636 C0.590681818,4.70431818 0,5.37795455 0,6.18863636 L0,10.63 C0,11.5356818 0.737045455,12.2727273 1.64295455,12.2727273 L8.35704545,12.2727273 C9.26295455,12.2727273 10,11.5356818 10,10.6297727 L10,6.18840909 C10,5.37795455 9.40931818,4.70431818 8.63636364,4.57113636 L8.63636364,4.57113636 Z M1.81818182,3.29545455 C1.81818182,1.72886364 3.24545455,0.454545455 5,0.454545455 C6.75454545,0.454545455 8.18181818,1.72886364 8.18181818,3.29545455 L8.18181818,4.54545455 L1.81818182,4.54545455 L1.81818182,3.29545455 L1.81818182,3.29545455 Z M9.54545455,10.6297727 C9.54545455,11.285 9.01227273,11.8181818 8.35704545,11.8181818 L1.64295455,11.8181818 C0.987727273,11.8181818 0.454545455,11.285 0.454545455,10.6297727 L0.454545455,6.18840909 C0.454545455,5.53318182 0.987727273,5 1.64295455,5 L8.35704545,5 C9.01227273,5 9.54545455,5.53318182 9.54545455,6.18840909 L9.54545455,10.6297727 L9.54545455,10.6297727 Z" id="Shape" stroke-width="0.2"></path>
                                            <path d="M5,6.36363636 C4.49863636,6.36363636 4.09090909,6.77136364 4.09090909,7.27272727 L4.09090909,8.63636364 C4.09090909,9.13772727 4.49863636,9.54545455 5,9.54545455 C5.50136364,9.54545455 5.90909091,9.13772727 5.90909091,8.63636364 L5.90909091,7.27272727 C5.90909091,6.77136364 5.50136364,6.36363636 5,6.36363636 L5,6.36363636 Z M5.45454545,8.63636364 C5.45454545,8.88704545 5.25068182,9.09090909 5,9.09090909 C4.74931818,9.09090909 4.54545455,8.88704545 4.54545455,8.63636364 L4.54545455,7.27272727 C4.54545455,7.02204545 4.74931818,6.81818182 5,6.81818182 C5.25068182,6.81818182 5.45454545,7.02204545 5.45454545,7.27272727 L5.45454545,8.63636364 L5.45454545,8.63636364 Z" id="Shape" stroke-width="0.1"></path>
                                        </g>
                                    </g>
                                </g>
                            </g>
                        </g>
                    </g>
                </g>
            </g>
        </g>
    </g>
</svg>