<?xml version="1.0" encoding="UTF-8" standalone="no"?>
<svg width="21px" height="20px" viewBox="0 0 21 20" version="1.1" xmlns="http://www.w3.org/2000/svg" xmlns:xlink="http://www.w3.org/1999/xlink">
    <!-- Generator: sketchtool 3.8.1 (29687) - http://www.bohemiancoding.com/sketch -->
    <title>48A56EB2-8A2C-4B2C-9AE3-438C8BB1385E</title>
    <desc>Created with sketchtool.</desc>
    <defs></defs>
    <g id="Page-1" stroke="none" stroke-width="1" fill="none" fill-rule="evenodd">
        <g id="1" transform="translate(-18.000000, -270.000000)" fill="#FFFFFF">
            <g id="Side-Header" transform="translate(0.000000, -10.000000)">
                <g id="Reports-Icon" transform="translate(18.000000, 280.000000)">
                    <path d="M17.3148148,4.72222222 L17.3148148,3.26009259 L14.2319444,0 L0,0 L0,20 L18.3209259,20 C19.6231481,20 20.3703704,18.749537 20.3703704,17.5406481 L20.3703704,4.72222222 L17.3148148,4.72222222 L17.3148148,4.72222222 Z M13.7037037,15.6481481 L3.61111111,15.6481481 L3.61111111,13.4259259 L13.7037037,13.4259259 L13.7037037,15.6481481 L13.7037037,15.6481481 Z M13.7037037,11.3888889 L3.61111111,11.3888889 L3.61111111,9.16666667 L13.7037037,9.16666667 L13.7037037,11.3888889 L13.7037037,11.3888889 Z M13.7037037,7.12962963 L3.61111111,7.12962963 L3.61111111,3.61111111 L13.7037037,3.61111111 L13.7037037,7.12962963 L13.7037037,7.12962963 Z M18.7037037,17.5406481 C18.7037037,17.9332407 18.5258333,18.3333333 18.3209259,18.3333333 L17.3148148,18.3333333 L17.3148148,6.38888889 L18.7037037,6.38888889 L18.7037037,17.5406481 L18.7037037,17.5406481 Z" id="Shape"></path>
                </g>
            </g>
        </g>
    </g>
</svg>