<?xml version="1.0" encoding="UTF-8" standalone="no"?>
<svg width="24px" height="24px" viewBox="0 0 24 24" version="1.1" xmlns="http://www.w3.org/2000/svg" xmlns:xlink="http://www.w3.org/1999/xlink">
    <!-- Generator: sketchtool 3.8.1 (29687) - http://www.bohemiancoding.com/sketch -->
    <title>458849D8-A04E-45E1-A6C4-505BB067E814</title>
    <desc>Created with sketchtool.</desc>
    <defs></defs>
    <g id="Page-1" stroke="none" stroke-width="1" fill="none" fill-rule="evenodd">
        <g id="4" transform="translate(-523.000000, -185.000000)">
            <g id="Group-33" transform="translate(56.000000, 55.000000)">
                <g id="2">
                    <g id="Group-8" transform="translate(0.000000, 1.000000)">
                        <g id="Group-37" transform="translate(407.000000, 129.000000)">
                            <g id="Group-16">
                                <g id="save" transform="translate(60.000000, 0.000000)">
                                    <ellipse id="Circle" fill="#2C9DC0" cx="12" cy="12" rx="12" ry="12"></ellipse>
                                    <g transform="translate(6.000000, 6.000000)" id="Group" fill="#FFFFFF">
                                        <g>
                                            <path d="M9.77485714,0 L9.18367347,0 L2.32653061,0 L0.12244898,0 L0.12244898,12 L1.83673469,12 L9.91836735,12 L11.877551,12 L11.877551,2.10269388 L9.77485714,0 L9.77485714,0 Z M8.69387755,0.489795918 L8.69387755,3.91836735 L2.81632653,3.91836735 L2.81632653,0.489795918 L8.69387755,0.489795918 L8.69387755,0.489795918 Z M2.32653061,11.5102041 L2.32653061,6.85714286 L9.42857143,6.85714286 L9.42857143,11.5102041 L2.32653061,11.5102041 L2.32653061,11.5102041 Z M11.3877551,11.5102041 L9.91836735,11.5102041 L9.91836735,6.36734694 L1.83673469,6.36734694 L1.83673469,11.5102041 L0.612244898,11.5102041 L0.612244898,0.489795918 L2.32653061,0.489795918 L2.32653061,4.40816327 L9.18367347,4.40816327 L9.18367347,0.489795918 L9.57208163,0.489795918 L11.3877551,2.30546939 L11.3877551,11.5102041 L11.3877551,11.5102041 Z" id="Shape"></path>
                                            <path id="Shape"></path>
                                            <path id="Shape"></path>
                                            <path id="Shape"></path>
                                            <path d="M8.20408163,0.979591837 L6.73469388,0.979591837 L6.73469388,3.42857143 L8.20408163,3.42857143 L8.20408163,0.979591837 L8.20408163,0.979591837 Z M7.71428571,2.93877551 L7.2244898,2.93877551 L7.2244898,1.46938776 L7.71428571,1.46938776 L7.71428571,2.93877551 L7.71428571,2.93877551 Z" id="Shape"></path>
                                        </g>
                                    </g>
                                </g>
                            </g>
                        </g>
                    </g>
                </g>
            </g>
        </g>
    </g>
</svg>