<?xml version="1.0" encoding="UTF-8" standalone="no"?>
<svg width="24px" height="24px" viewBox="0 0 24 24" version="1.1" xmlns="http://www.w3.org/2000/svg" xmlns:xlink="http://www.w3.org/1999/xlink">
    <!-- Generator: sketchtool 3.8.1 (29687) - http://www.bohemiancoding.com/sketch -->
    <title>264B372C-E8E6-40AB-8E9C-451F85F24DC2</title>
    <desc>Created with sketchtool.</desc>
    <defs></defs>
    <g id="Page-1" stroke="none" stroke-width="1" fill="none" fill-rule="evenodd">
        <g id="4" transform="translate(-968.000000, -16.000000)" fill="#FFFFFF">
            <g id="Header">
                <path d="M977.339085,34.6781708 C979.616911,34.6781708 981.687662,33.8705781 983.302847,32.5038827 L990.550475,39.7515099 C990.716135,39.91717 990.92321,40 991.150992,40 C991.378775,40 991.58585,39.91717 991.75151,39.7515099 C992.08283,39.4201898 992.08283,38.8817947 991.75151,38.5504745 L984.503883,31.3028473 C985.849871,29.6876618 986.678171,27.5962036 986.678171,25.3390854 C986.678171,20.1829163 982.495255,16 977.339085,16 C972.203624,16 968,20.2036238 968,25.3390854 C968,30.4952545 972.203624,34.6781708 977.339085,34.6781708 L977.339085,34.6781708 Z M977.339085,17.6980155 C981.563417,17.6980155 984.980155,21.1354616 984.980155,25.3390854 C984.980155,29.5634167 981.563417,32.9801553 977.339085,32.9801553 C973.114754,32.9801553 969.698016,29.5427092 969.698016,25.3390854 C969.698016,21.1354616 973.135462,17.6980155 977.339085,17.6980155 L977.339085,17.6980155 Z" id="Shape"></path>
            </g>
        </g>
    </g>
</svg>