<?xml version="1.0" encoding="UTF-8" standalone="no"?>
<svg width="13px" height="13px" viewBox="0 0 13 13" version="1.1" xmlns="http://www.w3.org/2000/svg" xmlns:xlink="http://www.w3.org/1999/xlink">
    <!-- Generator: sketchtool 3.8.1 (29687) - http://www.bohemiancoding.com/sketch -->
    <title>48069C84-4527-4585-8641-3BEDD81220F0</title>
    <desc>Created with sketchtool.</desc>
    <defs></defs>
    <g id="Page-1" stroke="none" stroke-width="1" fill="none" fill-rule="evenodd">
        <g id="1" transform="translate(-1238.000000, -80.000000)" fill="#727272">
            <g id="Side-Header" transform="translate(0.000000, -10.000000)">
                <g id="search" transform="translate(1054.000000, 83.000000)">
                    <path d="M189.058671,17.1173425 C190.292494,17.1173425 191.41415,16.6798965 192.289042,15.9396031 L196.21484,19.8654012 C196.304573,19.9551337 196.416739,20 196.540121,20 C196.663503,20 196.775669,19.9551337 196.865401,19.8654012 C197.044866,19.6859362 197.044866,19.3943054 196.865401,19.2148404 L192.939603,15.2890423 C193.66868,14.4141501 194.117343,13.281277 194.117343,12.0586713 C194.117343,9.26574633 191.851596,7 189.058671,7 C186.276963,7 184,9.2769629 184,12.0586713 C184,14.8515962 186.276963,17.1173425 189.058671,17.1173425 L189.058671,17.1173425 Z M189.058671,7.91975841 C191.346851,7.91975841 193.197584,9.78170837 193.197584,12.0586713 C193.197584,14.3468507 191.346851,16.1975841 189.058671,16.1975841 C186.770492,16.1975841 184.919758,14.3356342 184.919758,12.0586713 C184.919758,9.78170837 186.781708,7.91975841 189.058671,7.91975841 L189.058671,7.91975841 Z" id="Shape"></path>
                </g>
            </g>
        </g>
    </g>
</svg>