<?xml version="1.0" encoding="UTF-8" standalone="no"?>
<svg width="25px" height="25px" viewBox="0 0 25 25" version="1.1" xmlns="http://www.w3.org/2000/svg" xmlns:xlink="http://www.w3.org/1999/xlink">
    <!-- Generator: sketchtool 3.8.1 (29687) - http://www.bohemiancoding.com/sketch -->
    <title>678C277C-235B-4B25-AFF8-799937F126F8</title>
    <desc>Created with sketchtool.</desc>
    <defs></defs>
    <g id="Page-1" stroke="none" stroke-width="1" fill="none" fill-rule="evenodd">
        <g id="1" transform="translate(-15.000000, -332.000000)" fill="#FFFFFF">
            <g id="sevices" transform="translate(15.000000, 332.000000)">
                <g id="Group">
                    <path d="M21.8488844,14.6200304 C20.8532961,19.0288032 16.911359,22.3349899 12.2054767,22.3349899 C8.38047667,22.3349899 5.06293103,20.1488337 3.41749493,16.9639959 C3.08255578,17.0590771 2.73711968,17.126217 2.37266734,17.126217 C1.70801217,17.126217 1.09219067,16.9411258 0.545334686,16.6440669 C2.27292089,21.4203347 6.84041582,24.8499493 12.2054767,24.8499493 C18.3866126,24.8499493 23.5118661,20.3018763 24.4466024,14.3786511 C23.9488337,14.6144523 23.3986308,14.7568966 22.8125761,14.7568966 C22.4776876,14.7568966 22.1591785,14.7004057 21.8488844,14.6200304 L21.8488844,14.6200304 Z" id="Shape"></path>
                    <path d="M2.77068966,9.46805274 C4.03640974,5.46191684 7.78686613,2.54913793 12.2055274,2.54913793 C15.9110041,2.54913793 19.1415822,4.59817444 20.8363083,7.6209432 C21.4160243,7.2714503 22.0872718,7.05780933 22.8126775,7.05780933 C23.0124239,7.05780933 23.203854,7.08701826 23.3956897,7.11653144 C21.3979209,2.93615619 17.1405172,0.0339756592 12.2054767,0.0339756592 C6.10603448,0.0339756592 1.03169371,4.46156187 0,10.2687627 C0.656744422,9.75030426 1.47378296,9.42783976 2.37266734,9.42783976 C2.50872211,9.42783976 2.63798174,9.4540568 2.77068966,9.46805274 L2.77068966,9.46805274 Z" id="Shape"></path>
                    <path d="M2.37266734,15.4494929 C3.12758621,15.4494929 3.79066937,15.0631339 4.18032454,14.4783976 L6.0101927,14.4783976 L8.10704868,14.4783976 L9.78123732,19.0944726 C9.95547667,19.5741379 10.4018763,19.9006592 10.9118154,19.9220588 C10.9291075,19.9228702 10.9461968,19.9228702 10.9641988,19.9228702 C11.4530933,19.9228702 11.9007606,19.6380325 12.1055274,19.1900609 L16.0876775,10.5257099 L16.7116633,11.5189655 C16.9441176,11.8880325 17.364858,12.1352941 17.7880832,12.1075051 L19.1692698,12.0943205 L20.9868661,12.0772312 C21.3732252,12.6790061 22.0447262,13.0801217 22.8126268,13.0801217 C24.012931,13.0801217 24.9853448,12.1066937 24.9853448,10.9071501 C24.9853448,9.70684584 24.012931,8.73448276 22.8126268,8.73448276 C22.1240872,8.73448276 21.5174949,9.06100406 21.1193712,9.56034483 L19.2134888,9.57839757 L18.4676978,9.58575051 L16.9817444,7.21800203 C16.7360548,6.82758621 16.2906694,6.60172414 15.8355984,6.63194726 C15.3737323,6.66227181 14.9667343,6.94224138 14.7744422,7.36211968 L11.1000507,15.3553245 L10.1708418,12.7918864 C9.99006085,12.2948783 9.51845842,11.9631846 8.98864097,11.9631846 L5.97505071,11.9631846 L4.09208925,11.9631846 C3.69579108,11.4443205 3.07692698,11.1044625 2.37266734,11.1044625 C1.17261663,11.1044625 0.19989858,12.0771298 0.19989858,13.2764199 C0.19989858,14.4751014 1.17261663,15.4494929 2.37266734,15.4494929 L2.37266734,15.4494929 Z" id="Shape"></path>
                </g>
            </g>
        </g>
    </g>
</svg>