<?xml version="1.0" encoding="UTF-8" standalone="no"?>
<svg width="24px" height="24px" viewBox="0 0 24 24" version="1.1" xmlns="http://www.w3.org/2000/svg" xmlns:xlink="http://www.w3.org/1999/xlink">
    <!-- Generator: sketchtool 3.8.1 (29687) - http://www.bohemiancoding.com/sketch -->
    <title>E5D14BE4-5122-4A13-A5FE-FAF544503C2E</title>
    <desc>Created with sketchtool.</desc>
    <defs></defs>
    <g id="Page-1" stroke="none" stroke-width="1" fill="none" fill-rule="evenodd">
        <g id="1" transform="translate(-16.000000, -396.000000)" fill="#FFFFFF">
            <g id="Side-Header" transform="translate(0.000000, -10.000000)">
                <g id="Settings-Icon" transform="translate(16.000000, 406.000000)">
                    <path d="M14.1,23.295 L14.1,23.295 L9.19425,23.29425 C8.82675,23.29425 8.52825,22.9965 8.52825,22.62825 L8.52825,20.69625 C8.16075,20.5695 7.8015,20.421 7.45275,20.2515 L6.087,21.61725 C5.96175,21.7425 5.79225,21.813 5.616,21.813 L5.616,21.813 C5.43975,21.813 5.27025,21.7425 5.14575,21.61725 L1.677,18.1485 C1.41675,17.88825 1.41675,17.4675 1.677,17.20725 L3.04275,15.84075 C2.8725,15.49275 2.724,15.1335 2.59725,14.76525 L0.66525,14.76525 C0.489,14.76525 0.3195,14.69475 0.195,14.57025 C0.06975,14.44575 0,14.2755 0,14.1 L0,9.1935 C0,8.82675 0.29775,8.52825 0.666,8.52825 L2.598,8.52825 C2.72475,8.16075 2.87325,7.8015 3.0435,7.45275 L1.677,6.087 C1.5525,5.9625 1.482,5.79375 1.482,5.61675 C1.482,5.4405 1.5525,5.271 1.677,5.14575 L5.1465,1.677 C5.271,1.55175 5.4405,1.482 5.61675,1.482 L5.61675,1.482 C5.793,1.482 5.9625,1.55175 6.08775,1.677 L7.4535,3.04275 C7.8015,2.8725 8.16075,2.724 8.529,2.598 L8.529,0.666 C8.529,0.2985 8.82675,0 9.195,0 L14.1,0 C14.4675,0 14.76525,0.2985 14.76525,0.666 L14.76525,2.59875 C15.13275,2.72475 15.49275,2.87325 15.8415,3.0435 L17.20725,1.67775 C17.4675,1.4175 17.88825,1.4175 18.1485,1.6785 L21.618,5.14725 C21.7425,5.27175 21.813,5.44125 21.813,5.6175 C21.813,5.79375 21.7425,5.96325 21.618,6.0885 L20.2515,7.45425 C20.42175,7.803 20.57025,8.1615 20.697,8.52975 L22.629,8.52975 C22.9965,8.52975 23.295,8.8275 23.295,9.19575 L23.295,14.1015 C23.295,14.27775 23.2245,14.44725 23.1,14.57175 C22.97475,14.697 22.80525,14.76675 22.629,14.76675 L22.629,14.76675 L20.697,14.76675 C20.57025,15.13425 20.42175,15.49425 20.2515,15.84225 L21.618,17.20875 C21.87825,17.46825 21.87825,17.88975 21.618,18.15 L18.1485,21.61875 C18.024,21.744 17.8545,21.81375 17.67825,21.81375 L17.67825,21.81375 C17.502,21.81375 17.3325,21.74325 17.20725,21.61875 L15.8415,20.253 C15.49275,20.42325 15.1335,20.57175 14.766,20.69775 L14.766,22.6305 C14.766,22.80675 14.6955,22.97625 14.571,23.10075 C14.4465,23.2245 14.27775,23.295 14.1,23.295 L14.1,23.295 Z M9.8595,21.963 L13.43475,21.963 L13.43475,20.208 C13.43475,19.911 13.632,19.64925 13.91775,19.5675 C14.5185,19.3965 15.099,19.15575 15.6435,18.8535 C15.90375,18.7095 16.22775,18.7545 16.43775,18.96375 L17.67825,20.20425 L20.20575,17.67675 L18.96525,16.43625 C18.756,16.22625 18.7095,15.90225 18.85425,15.642 C19.1565,15.09825 19.39725,14.51775 19.569,13.91625 C19.65,13.6305 19.91175,13.43325 20.20875,13.43325 L20.20875,13.43325 L21.9645,13.43325 L21.9645,9.858 L20.20875,9.858 C19.91175,9.858 19.65075,9.66075 19.569,9.375 C19.39725,8.77275 19.1565,8.193 18.85425,7.64925 C18.71025,7.389 18.756,7.065 18.96525,6.855 L20.20575,5.6145 L17.67825,3.087 L16.43775,4.3275 C16.22775,4.5375 15.90375,4.5825 15.6435,4.4385 C15.099,4.137 14.5185,3.89625 13.917,3.72375 C13.63125,3.64275 13.434,3.38175 13.434,3.084 L13.434,1.329 L9.85875,1.329 L9.85875,3.084 C9.85875,3.38175 9.6615,3.642 9.3765,3.72375 C8.7735,3.89625 8.193,4.137 7.65,4.4385 C7.392,4.58475 7.06725,4.5405 6.85725,4.32975 L5.61675,3.0885 L3.08925,5.61675 L4.32975,6.85725 C4.53975,7.0665 4.5855,7.39125 4.44075,7.6515 C4.1385,8.19525 3.89775,8.775 3.726,9.37725 C3.645,9.663 3.38325,9.86025 3.08625,9.86025 L1.33125,9.86025 L1.3305,13.4355 L3.08625,13.4355 C3.38325,13.4355 3.64425,13.63275 3.726,13.9185 C3.89775,14.52075 4.1385,15.10125 4.44075,15.645 C4.58475,15.9045 4.53975,16.22775 4.32975,16.4385 L3.08925,17.6775 L5.61675,20.20575 L6.858,18.9645 C7.06725,18.75525 7.39125,18.7095 7.65225,18.85425 C8.19525,19.15575 8.77575,19.3965 9.378,19.56825 C9.66375,19.65 9.86025,19.911 9.86025,20.20875 L9.86025,21.963 L9.8595,21.963 Z" id="Shape"></path>
                    <path d="M11.6475,16.70475 C8.85825,16.70475 6.5895,14.436 6.5895,11.64675 C6.5895,8.8575 8.85825,6.58875 11.6475,6.58875 C14.43675,6.58875 16.7055,8.8575 16.7055,11.64675 C16.7055,14.436 14.43675,16.70475 11.6475,16.70475 L11.6475,16.70475 Z M11.6475,7.92075 C9.5925,7.92075 7.92075,9.5925 7.92075,11.6475 C7.92075,13.70325 9.5925,15.375 11.6475,15.375 C13.7025,15.375 15.375,13.70325 15.375,11.6475 C15.375,9.5925 13.7025,7.92075 11.6475,7.92075 L11.6475,7.92075 Z" id="Shape"></path>
                </g>
            </g>
        </g>
    </g>
</svg>