<?xml version="1.0" encoding="UTF-8" standalone="no"?>
<svg width="24px" height="24px" viewBox="0 0 24 24" version="1.1" xmlns="http://www.w3.org/2000/svg" xmlns:xlink="http://www.w3.org/1999/xlink">
    <!-- Generator: sketchtool 3.8.1 (29687) - http://www.bohemiancoding.com/sketch -->
    <title>0C3F8F5B-7230-482F-8A99-093C6E5150CC</title>
    <desc>Created with sketchtool.</desc>
    <defs></defs>
    <g id="Page-1" stroke="none" stroke-width="1" fill="none" fill-rule="evenodd">
        <g id="4" transform="translate(-673.000000, -185.000000)">
            <g id="Group-33" transform="translate(56.000000, 55.000000)">
                <g id="2">
                    <g id="Group-8" transform="translate(0.000000, 1.000000)">
                        <g id="Group-37" transform="translate(407.000000, 129.000000)">
                            <g id="Group-16">
                                <g id="share" transform="translate(210.000000, 0.000000)">
                                    <ellipse id="Circle" fill="#2C9DC0" cx="12" cy="12" rx="12" ry="12"></ellipse>
                                    <g transform="translate(5.000000, 5.000000)" id="Shape" stroke="#FFFFFF" stroke-width="0.2" fill="#FFFFFF">
                                        <path d="M8.3415,9.23859322 C8.22921429,9.35405085 8.13257143,9.4809661 8.049,9.61515254 L4.34614286,7.30401695 C4.44407143,7.05194915 4.49957143,6.77784746 4.49957143,6.49030508 C4.49957143,6.20276271 4.44407143,5.92866102 4.34635714,5.67659322 L8.05007143,3.38308475 C8.43042857,3.99738983 9.09728571,4.40677966 9.85671429,4.40677966 C11.0382857,4.40677966 11.9995714,3.41833898 11.9995714,2.20338983 C11.9995714,0.988440678 11.0382857,0 9.85671429,0 C8.67514286,0 7.71385714,0.988440678 7.71385714,2.20338983 C7.71385714,2.48013559 7.76592857,2.74410169 7.85678571,2.98823729 L4.14814286,5.28483051 C3.765,4.68462712 3.10542857,4.28691525 2.3565,4.28691525 C1.17492857,4.28691525 0.213642857,5.27535593 0.213642857,6.49030508 C0.213642857,7.70525424 1.17492857,8.69369492 2.3565,8.69369492 C3.10542857,8.69369492 3.76478571,8.29598305 4.14792857,7.69577966 L7.85592857,10.01 C7.76378571,10.2581017 7.71364286,10.5231695 7.71364286,10.7966102 C7.71364286,11.3851356 7.9365,11.9386271 8.34128571,12.3546271 C8.75892857,12.7840678 9.30771429,12.9988983 9.8565,12.9988983 C10.4052857,12.9988983 10.9540714,12.7840678 11.3717143,12.3546271 C11.7765,11.9384068 11.9993571,11.3851356 11.9993571,10.7966102 C11.9993571,10.2080847 11.7765,9.65459322 11.3717143,9.23859322 C10.5362143,8.37927119 9.177,8.37927119 8.3415,9.23859322 L8.3415,9.23859322 Z M9.85671429,0.440677966 C10.8019286,0.440677966 11.571,1.23147458 11.571,2.20338983 C11.571,3.17530508 10.8019286,3.96610169 9.85671429,3.96610169 C8.9115,3.96610169 8.14242857,3.17530508 8.14242857,2.20338983 C8.14242857,1.23147458 8.91128571,0.440677966 9.85671429,0.440677966 L9.85671429,0.440677966 Z M2.35671429,8.25301695 C1.4115,8.25301695 0.642428571,7.46222034 0.642428571,6.49030508 C0.642428571,5.51838983 1.4115,4.72759322 2.35671429,4.72759322 C3.30192857,4.72759322 4.071,5.51838983 4.071,6.49030508 C4.071,7.46222034 3.30192857,8.25301695 2.35671429,8.25301695 L2.35671429,8.25301695 Z M11.0687143,12.0430678 C10.4003571,12.7303051 9.31285714,12.7303051 8.6445,12.0430678 C8.32071429,11.7101356 8.14242857,11.2672542 8.14242857,10.7966102 C8.14242857,10.3259661 8.32071429,9.88308475 8.6445,9.55015254 C8.97878571,9.20642373 9.41764286,9.03477966 9.85671429,9.03477966 C10.2957857,9.03477966 10.7346429,9.20642373 11.0689286,9.55015254 C11.3927143,9.88308475 11.571,10.3259661 11.571,10.7966102 C11.571,11.2672542 11.3927143,11.7101356 11.0687143,12.0430678 L11.0687143,12.0430678 Z"></path>
                                    </g>
                                </g>
                            </g>
                        </g>
                    </g>
                </g>
            </g>
        </g>
    </g>
</svg>