<?xml version="1.0" encoding="UTF-8" standalone="no"?>
<svg width="24px" height="24px" viewBox="0 0 24 24" version="1.1" xmlns="http://www.w3.org/2000/svg" xmlns:xlink="http://www.w3.org/1999/xlink">
    <!-- Generator: sketchtool 3.8.1 (29687) - http://www.bohemiancoding.com/sketch -->
    <title>F96AAB12-5AFB-40BF-9738-F40200B0F616</title>
    <desc>Created with sketchtool.</desc>
    <defs></defs>
    <g id="Page-1" stroke="none" stroke-width="1" fill="none" fill-rule="evenodd">
        <g id="4" transform="translate(-583.000000, -185.000000)">
            <g id="Group-33" transform="translate(56.000000, 55.000000)">
                <g id="2">
                    <g id="Group-8" transform="translate(0.000000, 1.000000)">
                        <g id="Group-37" transform="translate(407.000000, 129.000000)">
                            <g id="Group-16">
                                <g id="sheet" transform="translate(120.000000, 0.000000)">
                                    <ellipse id="Circle" fill="#2C9DC0" cx="12" cy="12" rx="12" ry="12"></ellipse>
                                    <g id="excel-file" transform="translate(7.000000, 6.000000)" fill="#FFFFFF">
                                        <path d="M8.33628125,4.58333333 L6.67533036,4.58333333 L5.50007366,6.26665799 L4.32464509,4.58333333 L2.6637433,4.58333333 L4.65457143,7.47732639 L2.40823884,10.6944444 L5.62770312,10.6944444 L5.62770312,9.60141493 L4.88427009,9.60141493 L5.50002455,8.70630425 L6.86760937,10.6944444 L8.59178571,10.6944444 L6.34542857,7.47732639 L8.33628125,4.58333333 L8.33628125,4.58333333 Z M10.3055513,2.38034939 L8.55159152,0.675182292 C8.16968527,0.303836806 7.41517857,0 6.875,0 L0.982142857,0 C0.441964286,0 0,0.4296875 0,0.954861111 L0,11.2673611 C0,11.7925347 0.441964286,12.2222222 0.982142857,12.2222222 L10.0178571,12.2222222 C10.5580357,12.2222222 11,11.7925347 11,11.2673611 L11,4.01041667 C11,3.48524306 10.6874576,2.75169488 10.3055513,2.38034939 L10.3055513,2.38034939 Z M9.74997768,2.92051432 C9.78837946,2.95787326 9.82670759,3.00375434 9.8638817,3.05555556 L7.85714286,3.05555556 L7.85714286,1.10458333 C7.91042411,1.1407487 7.95761607,1.17798828 7.99601786,1.21534722 L9.74997768,2.92051432 L9.74997768,2.92051432 Z M10.2142857,11.2673611 C10.2142857,11.3708681 10.1243214,11.4583333 10.0178571,11.4583333 L0.982142857,11.4583333 C0.875678571,11.4583333 0.785714286,11.3708681 0.785714286,11.2673611 L0.785714286,0.954861111 C0.785714286,0.851354167 0.875678571,0.763888889 0.982142857,0.763888889 L6.875,0.763888889 C6.93432143,0.763888889 7.00088616,0.771169705 7.07142857,0.784227431 L7.07142857,3.81944444 L10.1933661,3.81944444 C10.2067969,3.88802734 10.2142857,3.95271918 10.2142857,4.01041667 L10.2142857,11.2673611 L10.2142857,11.2673611 Z" id="Shape"></path>
                                    </g>
                                </g>
                            </g>
                        </g>
                    </g>
                </g>
            </g>
        </g>
    </g>
</svg>