<?xml version="1.0" encoding="UTF-8" standalone="no"?>
<svg width="46px" height="46px" viewBox="0 0 46 46" version="1.1" xmlns="http://www.w3.org/2000/svg" xmlns:xlink="http://www.w3.org/1999/xlink">
    <!-- Generator: sketchtool 3.8.1 (29687) - http://www.bohemiancoding.com/sketch -->
    <title>8A9F5097-C77C-4EFA-9F6E-6A08519EB41E</title>
    <desc>Created with sketchtool.</desc>
    <defs>
        <circle id="path-1" cx="18" cy="18" r="18"></circle>
        <filter x="-50%" y="-50%" width="200%" height="200%" filterUnits="objectBoundingBox" id="filter-2">
            <feMorphology radius="0.5" operator="dilate" in="SourceAlpha" result="shadowSpreadOuter1"></feMorphology>
            <feOffset dx="0" dy="2" in="shadowSpreadOuter1" result="shadowOffsetOuter1"></feOffset>
            <feMorphology radius="1" operator="erode" in="SourceAlpha" result="shadowInner"></feMorphology>
            <feOffset dx="0" dy="2" in="shadowInner" result="shadowInner"></feOffset>
            <feComposite in="shadowOffsetOuter1" in2="shadowInner" operator="out" result="shadowOffsetOuter1"></feComposite>
            <feGaussianBlur stdDeviation="2" in="shadowOffsetOuter1" result="shadowBlurOuter1"></feGaussianBlur>
            <feColorMatrix values="0 0 0 0 0   0 0 0 0 0   0 0 0 0 0  0 0 0 0.5 0" type="matrix" in="shadowBlurOuter1"></feColorMatrix>
        </filter>
    </defs>
    <g id="Page-1" stroke="none" stroke-width="1" fill="none" fill-rule="evenodd">
        <g id="4" transform="translate(-1204.000000, -7.000000)">
            <g id="Header">
                <g id="Group-3" transform="translate(1209.000000, 10.000000)">
                    <g id="Group-4">
                        <g id="Group-2">
                            <g id="Oval-7">
                                <use fill="black" fill-opacity="1" filter="url(#filter-2)" xlink:href="#path-1"></use>
                                <use stroke="#FFFFFF" stroke-width="1" xlink:href="#path-1"></use>
                            </g>
                            <path d="M18.1063103,18.8362733 L18.1778631,18.8362733 L18.2046954,18.8362733 L18.2494159,18.8362733 C19.5597265,18.813913 20.6196022,18.3532919 21.4022109,17.4722981 C23.1239501,15.5314286 22.8377389,12.2042236 22.8064345,11.8867081 C22.6946333,9.50310559 21.5676768,8.36273292 20.6374904,7.83055901 C19.9443227,7.43254658 19.1348817,7.2178882 18.2315277,7.2 L18.2002233,7.2 L18.1823352,7.2 L18.1555029,7.2 C17.6591053,7.2 16.6841985,7.28049689 15.7495401,7.81267081 C14.8104097,8.34484472 13.665565,9.48521739 13.5537637,11.8867081 C13.5224594,12.2042236 13.2362482,15.5314286 14.9579873,17.4722981 C15.736124,18.3532919 16.7959997,18.813913 18.1063103,18.8362733 L18.1063103,18.8362733 Z M14.747801,11.9985093 C14.747801,11.9850932 14.752273,11.971677 14.752273,11.9627329 C14.8998507,8.75627329 17.176124,8.41192547 18.1510308,8.41192547 L18.168919,8.41192547 L18.2046954,8.41192547 C19.4121488,8.43875776 21.4648196,8.93068323 21.6034532,11.9627329 C21.6034532,11.9761491 21.6034532,11.9895652 21.6079252,11.9985093 C21.6123973,12.0298137 21.9254407,15.0708075 20.5033289,16.6718012 C19.9398507,17.3068323 19.1885463,17.6198758 18.2002233,17.6288199 L18.1778631,17.6288199 L18.1555029,17.6288199 C17.1716519,17.6198758 16.4158755,17.3068323 15.8568693,16.6718012 C14.4392296,15.0797516 14.7433289,12.0253416 14.747801,11.9985093 Z M27.3679252,24.3547826 L27.3679252,24.3413665 C27.3679252,24.3055901 27.3634532,24.2698137 27.3634532,24.2295652 C27.3366209,23.3440994 27.2784842,21.2735404 25.3376147,20.611677 C25.3241985,20.607205 25.3063103,20.6027329 25.2928942,20.5982609 C23.2759997,20.0839752 21.5989811,18.9212422 21.5810929,18.9078261 C21.3082979,18.715528 20.9326457,18.7826087 20.7403476,19.0554037 C20.5480494,19.3281988 20.6151302,19.7038509 20.8879252,19.8961491 C20.9639501,19.9498137 22.7438258,21.1885714 24.9709066,21.7609938 C26.0128942,22.1321739 26.1291674,23.2457143 26.1604718,24.2653416 C26.1604718,24.3055901 26.1604718,24.3413665 26.1649438,24.3771429 C26.1694159,24.7796273 26.1425836,25.4012422 26.0710308,25.7590062 C25.3465588,26.1704348 22.5068072,27.5925466 18.1868072,27.5925466 C13.8846954,27.5925466 11.0270556,26.1659627 10.2981115,25.7545342 C10.2265588,25.3967702 10.1952544,24.7751553 10.2041985,24.3726708 C10.2041985,24.3368944 10.2086706,24.301118 10.2086706,24.2608696 C10.2399749,23.2412422 10.3562482,22.1277019 11.3982358,21.7565217 C13.6253165,21.1840994 15.4051923,19.9408696 15.4812171,19.891677 C15.7540122,19.6993789 15.8210929,19.3237267 15.6287948,19.0509317 C15.4364966,18.7781366 15.0608445,18.7110559 14.7880494,18.903354 C14.7701612,18.9167702 13.1020867,20.0795031 11.0762482,20.5937888 C11.05836,20.5982609 11.0449438,20.6027329 11.0315277,20.607205 C9.09065813,21.2735404 9.03252149,23.3440994 9.00568919,24.2250932 C9.00568919,24.2653416 9.00568919,24.301118 9.00121714,24.3368944 L9.00121714,24.3503106 C8.99674509,24.5828571 8.99227304,25.7768944 9.22929167,26.3761491 C9.27401217,26.4924224 9.35450906,26.5908075 9.46183826,26.6578882 C9.59599975,26.7473292 12.8114035,28.795528 18.1912792,28.795528 C23.571155,28.795528 26.7865588,26.7428571 26.9207202,26.6578882 C27.0235774,26.5908075 27.1085463,26.4924224 27.1532668,26.3761491 C27.3768693,25.7813665 27.3723973,24.5873292 27.3679252,24.3547826 Z" id="Combined-Shape" fill="#FFFFFF"></path>
                        </g>
                    </g>
                </g>
            </g>
        </g>
    </g>
</svg>